<?xml version="1.0" encoding="utf-8" standalone="no"?>
<!DOCTYPE svg PUBLIC "-//W3C//DTD SVG 1.1//EN"
  "http://www.w3.org/Graphics/SVG/1.1/DTD/svg11.dtd">
<!-- Created with matplotlib (https://matplotlib.org/) -->
<svg height="282.35625pt" version="1.1" viewBox="0 0 456.334375 282.35625" width="456.334375pt" xmlns="http://www.w3.org/2000/svg" xmlns:xlink="http://www.w3.org/1999/xlink">
 <metadata>
  <rdf:RDF xmlns:cc="http://creativecommons.org/ns#" xmlns:dc="http://purl.org/dc/elements/1.1/" xmlns:rdf="http://www.w3.org/1999/02/22-rdf-syntax-ns#">
   <cc:Work>
    <dc:type rdf:resource="http://purl.org/dc/dcmitype/StillImage"/>
    <dc:date>2020-12-13T14:12:18.741871</dc:date>
    <dc:format>image/svg+xml</dc:format>
    <dc:creator>
     <cc:Agent>
      <dc:title>Matplotlib v3.3.2, https://matplotlib.org/</dc:title>
     </cc:Agent>
    </dc:creator>
   </cc:Work>
  </rdf:RDF>
 </metadata>
 <defs>
  <style type="text/css">*{stroke-linecap:butt;stroke-linejoin:round;}</style>
 </defs>
 <g id="figure_1">
  <g id="patch_1">
   <path d="M 0 282.35625 
L 456.334375 282.35625 
L 456.334375 0 
L 0 0 
z
" style="fill:#ffffff;"/>
  </g>
  <g id="axes_1">
   <g id="patch_2">
    <path d="M 96.334375 208.8 
L 423.934375 208.8 
L 423.934375 7.2 
L 96.334375 7.2 
z
" style="fill:#ffffff;"/>
   </g>
   <g id="line2d_1">
    <path clip-path="url(#p58fce696f4)" d="M 96.334375 12.148936 
L 107.08375 12.238308 
L 117.833125 12.309327 
L 128.5825 12.263808 
L 139.331875 12.228554 
L 150.08125 12.292598 
L 160.830625 12.26313 
L 171.58 12.221166 
L 182.329375 12.283305 
L 193.07875 12.258155 
L 203.828125 12.213575 
L 214.5775 12.275079 
L 225.326875 12.253 
L 236.07625 12.205457 
L 246.825625 12.267857 
L 257.575 12.251765 
L 268.324375 12.199446 
L 279.07375 12.259879 
L 289.823125 12.250315 
L 300.5725 12.194459 
L 311.321875 12.251158 
L 322.07125 12.245078 
L 332.820625 12.187111 
L 343.57 12.243572 
L 354.319375 12.243813 
L 365.06875 12.181714 
L 375.818125 12.236062 
L 386.5675 12.245703 
L 397.316875 12.179045 
L 408.06625 12.229651 
L 418.815625 12.245399 
" style="fill:none;stroke:#000000;stroke-linecap:square;stroke-width:0.5;"/>
   </g>
   <g id="line2d_2">
    <path clip-path="url(#p9023f84b60)" d="M 96.334375 116.02127 
L 107.08375 26.754202 
L 111.274824 -1 
M 128.185095 -1 
L 128.5825 0.667268 
L 139.331875 35.609332 
L 145.453977 -1 
M 160.313573 -1 
L 160.830625 0.398223 
L 171.58 41.853642 
L 178.933047 -1 
M 190.960243 -1 
L 193.07875 3.858536 
L 203.828125 47.993397 
L 212.341276 -1 
M 220.921669 -1 
L 225.326875 7.936223 
L 236.07625 55.320715 
L 245.76252 -1 
M 250.974332 -1 
L 257.575 8.834738 
L 268.324375 61.170492 
L 279.07375 0.765025 
L 289.823125 10.301273 
L 300.5725 66.216095 
L 311.321875 9.626452 
L 322.07125 15.590578 
L 332.820625 73.462826 
L 343.57 17.390628 
L 354.319375 17.785517 
L 365.06875 80.470378 
L 375.818125 26.69842 
L 386.5675 17.648142 
L 397.316875 84.888971 
L 408.06625 34.864008 
L 418.815625 19.695678 
" style="fill:none;stroke:#000000;stroke-linecap:square;stroke-width:0.5;"/>
   </g>
   <g id="line2d_3">
    <path clip-path="url(#pf13f79d313)" d="M 96.334375 23.415847 
L 107.08375 42.158052 
L 117.833125 33.940717 
L 128.5825 29.997314 
L 139.331875 39.116515 
L 150.08125 33.897332 
L 160.830625 29.713551 
L 171.58 38.188569 
L 182.329375 33.779682 
L 193.07875 28.987995 
L 203.828125 37.386933 
L 214.5775 33.717397 
L 225.326875 28.259989 
L 236.07625 36.55328 
L 246.825625 33.663034 
L 257.575 27.578741 
L 268.324375 35.687045 
L 279.07375 33.605119 
L 289.823125 26.949919 
L 300.5725 34.793798 
L 311.321875 33.540149 
L 322.07125 26.37243 
L 332.820625 33.879987 
L 343.57 33.478508 
L 354.319375 25.820586 
L 365.06875 32.924 
L 375.818125 33.588217 
L 386.5675 25.184734 
L 397.316875 31.298535 
L 408.06625 35.331316 
L 418.815625 23.933895 
" style="fill:none;stroke:#000000;stroke-linecap:square;stroke-width:0.5;"/>
   </g>
   <g id="line2d_4">
    <path clip-path="url(#pc4cf7ef695)" d="M 96.334375 42.480835 
L 107.08375 42.480857 
L 117.833125 42.480878 
L 128.5825 42.4809 
L 139.331875 42.480922 
L 150.08125 42.480943 
L 160.830625 42.480965 
L 171.58 42.480987 
L 182.329375 42.481008 
L 193.07875 42.481028 
L 203.828125 42.481047 
L 214.5775 42.481064 
L 225.326875 42.481085 
L 236.07625 42.481126 
L 246.825625 42.481124 
L 257.575 42.481086 
L 268.324375 42.4813 
L 279.07375 42.481316 
L 289.823125 42.480397 
L 300.5725 42.481805 
L 311.321875 42.484106 
L 322.07125 42.470923 
L 332.820625 42.457941 
L 343.57 42.474395 
L 354.319375 42.484437 
L 365.06875 42.481369 
L 375.818125 42.480698 
L 386.5675 42.481594 
L 397.316875 42.481493 
L 408.06625 42.481365 
L 418.815625 42.48145 
" style="fill:none;stroke:#000000;stroke-linecap:square;stroke-width:0.5;"/>
   </g>
   <g id="line2d_5">
    <path clip-path="url(#p2b34aa4d79)" d="M 96.334375 60.05826 
L 107.08375 56.141591 
L 117.833125 56.825856 
L 128.5825 56.633154 
L 139.331875 53.511391 
L 150.08125 53.092396 
L 160.830625 55.902398 
L 171.58 57.307662 
L 182.329375 54.599272 
L 193.07875 50.695189 
L 203.828125 49.597322 
L 214.5775 50.148375 
L 225.326875 51.70083 
L 236.07625 50.453304 
L 246.825625 43.549063 
L 257.575 46.271867 
L 268.324375 55.414414 
L 279.07375 57.82536 
L 289.823125 56.782546 
L 300.5725 57.134209 
L 311.321875 55.369298 
L 322.07125 53.183962 
L 332.820625 53.355178 
L 343.57 52.951243 
L 354.319375 51.647533 
L 365.06875 52.606905 
L 375.818125 58.224335 
L 386.5675 58.89996 
L 397.316875 52.344019 
L 408.06625 39.630457 
L 418.815625 32.011333 
" style="fill:none;stroke:#000000;stroke-linecap:square;stroke-width:0.5;"/>
   </g>
   <g id="line2d_6">
    <path clip-path="url(#p2a9ce2c475)" d="M 96.334375 73.969242 
L 107.08375 67.07668 
L 117.833125 68.551198 
L 128.5825 68.711885 
L 139.331875 63.747845 
L 150.08125 62.941328 
L 160.830625 66.855543 
L 171.58 67.920806 
L 182.329375 64.779787 
L 193.07875 60.247671 
L 203.828125 57.67975 
L 214.5775 58.191969 
L 225.326875 59.807661 
L 236.07625 57.937594 
L 246.825625 51.75611 
L 257.575 55.298721 
L 268.324375 65.977227 
L 279.07375 68.598871 
L 289.823125 65.895658 
L 300.5725 65.310953 
L 311.321875 64.768698 
L 322.07125 64.218471 
L 332.820625 63.366904 
L 343.57 62.64076 
L 354.319375 63.637586 
L 365.06875 65.443366 
L 375.818125 68.738263 
L 386.5675 69.015122 
L 397.316875 63.840801 
L 408.06625 51.095452 
L 418.815625 41.625973 
" style="fill:none;stroke:#000000;stroke-linecap:square;stroke-width:0.5;"/>
   </g>
   <g id="line2d_7">
    <path clip-path="url(#pc64a9299b6)" d="M 96.334375 78.523748 
L 107.08375 76.722163 
L 117.833125 75.82505 
L 128.5825 74.879525 
L 139.331875 74.211936 
L 150.08125 74.442178 
L 160.830625 75.653056 
L 171.58 75.829517 
L 182.329375 73.983485 
L 193.07875 72.113562 
L 203.828125 71.970532 
L 214.5775 72.577852 
L 225.326875 72.112357 
L 236.07625 71.116811 
L 246.825625 68.750249 
L 257.575 67.904984 
L 268.324375 71.261254 
L 279.07375 74.285745 
L 289.823125 75.156879 
L 300.5725 75.104881 
L 311.321875 73.990854 
L 322.07125 72.770277 
L 332.820625 72.386106 
L 343.57 72.137923 
L 354.319375 72.556267 
L 365.06875 73.679655 
L 375.818125 74.833493 
L 386.5675 75.229561 
L 397.316875 72.919953 
L 408.06625 65.363327 
L 418.815625 60.193978 
" style="fill:none;stroke:#000000;stroke-linecap:square;stroke-width:0.5;"/>
   </g>
   <g id="line2d_8">
    <path clip-path="url(#pbf9fd28328)" d="M 96.334375 94.714014 
L 107.08375 90.232877 
L 117.833125 90.911136 
L 128.5825 89.53503 
L 139.331875 84.530086 
L 150.08125 82.971641 
L 160.830625 85.428152 
L 171.58 85.505158 
L 182.329375 82.641139 
L 193.07875 79.18546 
L 203.828125 78.655184 
L 214.5775 79.316196 
L 225.326875 79.295506 
L 236.07625 79.378777 
L 246.825625 75.821138 
L 257.575 76.270175 
L 268.324375 84.832798 
L 279.07375 88.975117 
L 289.823125 87.518433 
L 300.5725 86.046977 
L 311.321875 84.55637 
L 322.07125 83.778923 
L 332.820625 82.973369 
L 343.57 82.434563 
L 354.319375 83.423274 
L 365.06875 85.03962 
L 375.818125 87.594613 
L 386.5675 88.757182 
L 397.316875 84.072499 
L 408.06625 69.515816 
L 418.815625 60.679224 
" style="fill:none;stroke:#000000;stroke-linecap:square;stroke-width:0.5;"/>
   </g>
   <g id="line2d_9">
    <path clip-path="url(#p326e48bbad)" d="M 96.334375 103.596985 
L 107.08375 105.887934 
L 117.833125 105.113366 
L 128.5825 100.681941 
L 139.331875 95.482364 
L 150.08125 94.834832 
L 160.830625 97.117212 
L 171.58 97.137069 
L 182.329375 93.915896 
L 193.07875 89.275599 
L 203.828125 88.59003 
L 214.5775 90.236155 
L 225.326875 89.884496 
L 236.07625 89.452444 
L 246.825625 85.066824 
L 257.575 83.318874 
L 268.324375 91.84487 
L 279.07375 97.639594 
L 289.823125 96.625843 
L 300.5725 94.906215 
L 311.321875 93.74765 
L 322.07125 93.515682 
L 332.820625 93.071941 
L 343.57 92.578385 
L 354.319375 94.467482 
L 365.06875 96.706883 
L 375.818125 96.996523 
L 386.5675 97.093543 
L 397.316875 92.405839 
L 408.06625 76.171231 
L 418.815625 68.002466 
" style="fill:none;stroke:#000000;stroke-linecap:square;stroke-width:0.5;"/>
   </g>
   <g id="line2d_10">
    <path clip-path="url(#pdf494c1aad)" d="M 96.334375 112.25129 
L 107.08375 114.733231 
L 117.833125 115.284507 
L 128.5825 110.765884 
L 139.331875 105.005558 
L 150.08125 104.684109 
L 160.830625 106.832484 
L 171.58 106.558908 
L 182.329375 103.352453 
L 193.07875 98.786811 
L 203.828125 97.323182 
L 214.5775 98.502588 
L 225.326875 98.835249 
L 236.07625 99.043243 
L 246.825625 95.421133 
L 257.575 93.843539 
L 268.324375 101.476172 
L 279.07375 107.12902 
L 289.823125 107.037737 
L 300.5725 106.314655 
L 311.321875 104.837921 
L 322.07125 103.35922 
L 332.820625 102.787762 
L 343.57 102.494058 
L 354.319375 104.300862 
L 365.06875 106.794645 
L 375.818125 107.067278 
L 386.5675 107.430956 
L 397.316875 104.608838 
L 408.06625 90.162999 
L 418.815625 80.256006 
" style="fill:none;stroke:#000000;stroke-linecap:square;stroke-width:0.5;"/>
   </g>
   <g id="line2d_11">
    <path clip-path="url(#p8b2711771b)" d="M 96.334375 119.194043 
L 107.08375 117.464099 
L 117.833125 118.501295 
L 128.5825 117.975319 
L 139.331875 115.197386 
L 150.08125 115.322066 
L 160.830625 116.963645 
L 171.58 115.890648 
L 182.329375 113.541529 
L 193.07875 111.593255 
L 203.828125 111.178102 
L 214.5775 110.836308 
L 225.326875 109.94208 
L 236.07625 111.206901 
L 246.825625 110.680994 
L 257.575 108.899109 
L 268.324375 111.937189 
L 279.07375 115.248447 
L 289.823125 115.723944 
L 300.5725 115.350425 
L 311.321875 114.352007 
L 322.07125 112.215723 
L 332.820625 111.478667 
L 343.57 112.37674 
L 354.319375 112.585639 
L 365.06875 113.601528 
L 375.818125 116.079567 
L 386.5675 117.964989 
L 397.316875 114.319986 
L 408.06625 103.177668 
L 418.815625 97.861022 
" style="fill:none;stroke:#000000;stroke-linecap:square;stroke-width:0.5;"/>
   </g>
   <g id="line2d_12">
    <path clip-path="url(#p97910de321)" d="M 96.334375 134.340155 
L 107.08375 130.228226 
L 117.833125 131.396452 
L 128.5825 129.763363 
L 139.331875 124.147687 
L 150.08125 123.160747 
L 160.830625 124.957528 
L 171.58 123.556707 
L 182.329375 121.083748 
L 193.07875 118.732544 
L 203.828125 118.492698 
L 214.5775 121.652586 
L 225.326875 124.392397 
L 236.07625 126.201508 
L 246.825625 124.206806 
L 257.575 119.864834 
L 268.324375 122.466592 
L 279.07375 126.873561 
L 289.823125 127.069744 
L 300.5725 125.157455 
L 311.321875 123.388584 
L 322.07125 121.357004 
L 332.820625 120.264956 
L 343.57 120.776263 
L 354.319375 122.856844 
L 365.06875 125.734827 
L 375.818125 127.274156 
L 386.5675 128.411344 
L 397.316875 123.872254 
L 408.06625 109.675439 
L 418.815625 103.017579 
" style="fill:none;stroke:#000000;stroke-linecap:square;stroke-width:0.5;"/>
   </g>
   <g id="line2d_13">
    <path clip-path="url(#p3e889bef34)" d="M 96.334375 146.147532 
L 107.08375 140.698964 
L 117.833125 141.800663 
L 128.5825 139.202378 
L 139.331875 132.668342 
L 150.08125 132.070932 
L 160.830625 135.437802 
L 171.58 135.859713 
L 182.329375 132.793157 
L 193.07875 128.643655 
L 203.828125 128.644988 
L 214.5775 130.382815 
L 225.326875 128.683236 
L 236.07625 130.351389 
L 246.825625 129.985585 
L 257.575 127.5735 
L 268.324375 133.081885 
L 279.07375 138.720455 
L 289.823125 138.792258 
L 300.5725 137.716682 
L 311.321875 135.888609 
L 322.07125 134.533381 
L 332.820625 134.801617 
L 343.57 134.711519 
L 354.319375 135.651468 
L 365.06875 137.805496 
L 375.818125 138.262582 
L 386.5675 138.791485 
L 397.316875 133.689185 
L 408.06625 117.12587 
L 418.815625 108.739602 
" style="fill:none;stroke:#000000;stroke-linecap:square;stroke-width:0.5;"/>
   </g>
   <g id="line2d_14">
    <path clip-path="url(#p3ac3546c50)" d="M 96.334375 158.326482 
L 107.08375 149.533871 
L 117.833125 151.263838 
L 128.5825 149.233891 
L 139.331875 142.066689 
L 150.08125 141.622688 
L 160.830625 145.012435 
L 171.58 145.308452 
L 182.329375 143.363806 
L 193.07875 140.490592 
L 203.828125 139.844606 
L 214.5775 140.449934 
L 225.326875 139.091619 
L 236.07625 141.193603 
L 246.825625 139.694315 
L 257.575 136.751713 
L 268.324375 142.737047 
L 279.07375 148.765584 
L 289.823125 148.575295 
L 300.5725 146.477058 
L 311.321875 144.456547 
L 322.07125 144.378059 
L 332.820625 145.048478 
L 343.57 144.769588 
L 354.319375 146.421174 
L 365.06875 148.634606 
L 375.818125 148.770927 
L 386.5675 149.450521 
L 397.316875 144.407174 
L 408.06625 128.036691 
L 418.815625 119.279311 
" style="fill:none;stroke:#000000;stroke-linecap:square;stroke-width:0.5;"/>
   </g>
   <g id="line2d_15">
    <path clip-path="url(#p9f35562549)" d="M 96.334375 165.686145 
L 107.08375 159.897203 
L 117.833125 160.586302 
L 128.5825 158.936542 
L 139.331875 153.129449 
L 150.08125 151.305219 
L 160.830625 153.826297 
L 171.58 154.639476 
L 182.329375 153.140509 
L 193.07875 150.391933 
L 203.828125 149.157075 
L 214.5775 148.887815 
L 225.326875 149.893552 
L 236.07625 153.054489 
L 246.825625 149.012689 
L 257.575 147.274385 
L 268.324375 154.774152 
L 279.07375 159.659303 
L 289.823125 159.585391 
L 300.5725 158.833064 
L 311.321875 156.790867 
L 322.07125 154.617688 
L 332.820625 153.975199 
L 343.57 153.63957 
L 354.319375 154.491919 
L 365.06875 156.18424 
L 375.818125 158.375149 
L 386.5675 159.056904 
L 397.316875 153.755805 
L 408.06625 139.05328 
L 418.815625 130.739467 
" style="fill:none;stroke:#000000;stroke-linecap:square;stroke-width:0.5;"/>
   </g>
   <g id="line2d_16">
    <path clip-path="url(#pe66832c4f1)" d="M 96.334375 169.735472 
L 107.08375 166.137227 
L 117.833125 166.617832 
L 128.5825 166.383744 
L 139.331875 163.41945 
L 150.08125 163.138661 
L 160.830625 165.457997 
L 171.58 165.621093 
L 182.329375 162.990614 
L 193.07875 161.39151 
L 203.828125 162.542486 
L 214.5775 163.251848 
L 225.326875 162.51497 
L 236.07625 162.617646 
L 246.825625 159.474236 
L 257.575 158.733297 
L 268.324375 163.660438 
L 279.07375 167.303026 
L 289.823125 167.56949 
L 300.5725 166.291343 
L 311.321875 164.559192 
L 322.07125 163.557353 
L 332.820625 163.623954 
L 343.57 163.826535 
L 354.319375 164.668233 
L 365.06875 166.010746 
L 375.818125 167.168163 
L 386.5675 167.312552 
L 397.316875 163.779684 
L 408.06625 154.209958 
L 418.815625 147.348252 
" style="fill:none;stroke:#000000;stroke-linecap:square;stroke-width:0.5;"/>
   </g>
   <g id="line2d_17">
    <path clip-path="url(#p85a0d899f8)" d="M 96.334375 185.253913 
L 107.08375 178.90128 
L 117.833125 179.608341 
L 128.5825 178.551925 
L 139.331875 173.440836 
L 150.08125 171.513876 
L 160.830625 174.168904 
L 171.58 174.380849 
L 182.329375 172.155617 
L 193.07875 169.997094 
L 203.828125 169.849991 
L 214.5775 168.91371 
L 225.326875 169.979208 
L 236.07625 173.813039 
L 246.825625 170.154072 
L 257.575 170.202028 
L 268.324375 179.047213 
L 279.07375 182.816047 
L 289.823125 180.222502 
L 300.5725 177.140018 
L 311.321875 173.296663 
L 322.07125 171.357087 
L 332.820625 172.314176 
L 343.57 173.658659 
L 354.319375 174.992184 
L 365.06875 176.262467 
L 375.818125 179.222317 
L 386.5675 180.656787 
L 397.316875 175.138438 
L 408.06625 159.727093 
L 418.815625 149.963954 
" style="fill:none;stroke:#000000;stroke-linecap:square;stroke-width:0.5;"/>
   </g>
   <g id="line2d_18">
    <path clip-path="url(#pcc92c77c12)" d="M 96.334375 195.096304 
L 107.08375 187.207982 
L 117.833125 187.806827 
L 128.5825 187.86039 
L 139.331875 184.03393 
L 150.08125 183.482968 
L 160.830625 186.097076 
L 171.58 185.342555 
L 182.329375 182.228182 
L 193.07875 181.245737 
L 203.828125 181.386603 
L 214.5775 180.497001 
L 225.326875 181.125843 
L 236.07625 181.296489 
L 246.825625 175.078342 
L 257.575 177.580368 
L 268.324375 187.141321 
L 279.07375 190.511761 
L 289.823125 188.764511 
L 300.5725 187.102729 
L 311.321875 184.789606 
L 322.07125 182.681029 
L 332.820625 183.584856 
L 343.57 185.872515 
L 354.319375 186.836295 
L 365.06875 187.679504 
L 375.818125 191.999395 
L 386.5675 192.593385 
L 397.316875 184.990091 
L 408.06625 168.7581 
L 418.815625 158.459827 
" style="fill:none;stroke:#000000;stroke-linecap:square;stroke-width:0.5;"/>
   </g>
   <g id="line2d_19">
    <path clip-path="url(#p72b585014d)" d="M 97.663888 -1 
L 102.505782 283.35625 
M 118.003002 283.35625 
L 128.5825 23.068379 
L 135.526405 283.35625 
M 151.243288 283.35625 
L 160.830625 15.849568 
L 168.65054 283.35625 
M 183.5622 283.35625 
L 193.06383 -1 
M 193.092439 -1 
L 201.809796 283.35625 
M 215.890478 283.35625 
L 224.807206 -1 
M 225.864699 -1 
L 235.092921 283.35625 
M 248.139521 283.35625 
L 256.600137 -1 
M 258.708844 -1 
L 268.324375 276.859046 
L 269.635744 283.35625 
M 280.40953 283.35625 
L 288.53252 -1 
M 291.522262 -1 
L 300.5725 239.642234 
L 305.712999 283.35625 
M 312.643041 283.35625 
L 320.51946 -1 
M 324.399897 -1 
L 332.820625 201.587696 
L 339.577833 283.35625 
M 344.879872 283.35625 
L 352.590039 -1 
M 357.345936 -1 
L 365.06875 161.743739 
L 372.618471 283.35625 
M 377.194648 283.35625 
L 384.78909 -1 
M 391.064797 -1 
L 397.316875 91.570293 
L 404.975145 283.35625 
M 410.639258 283.35625 
L 418.815625 37.365384 
" style="fill:none;stroke:#000000;stroke-linecap:square;stroke-width:0.5;"/>
   </g>
   <g id="line2d_20">
    <path clip-path="url(#p50c0bb4e9a)" d="M 96.334375 203.76 
L 107.08375 203.76 
L 117.833125 203.76 
L 128.5825 203.76 
L 139.331875 203.76 
L 150.08125 203.76 
L 160.830625 203.76 
L 171.58 203.76 
L 182.329375 203.76 
L 193.07875 203.76 
L 203.828125 203.76 
L 214.5775 203.76 
L 225.326875 203.76 
L 236.07625 203.76 
L 246.825625 203.76 
L 257.575 203.76 
L 268.324375 203.76 
L 279.07375 203.76 
L 289.823125 203.76 
L 300.5725 203.76 
L 311.321875 203.76 
L 322.07125 203.76 
L 332.820625 203.76 
L 343.57 203.76 
L 354.319375 203.76 
L 365.06875 203.76 
L 375.818125 203.76 
L 386.5675 203.76 
L 397.316875 203.76 
L 408.06625 203.76 
L 418.815625 203.76 
" style="fill:none;stroke:#000000;stroke-linecap:square;stroke-width:0.5;"/>
   </g>
   <g id="matplotlib.axis_1">
    <g id="xtick_1">
     <g id="line2d_21">
      <defs>
       <path d="M 0 0 
L 0 3.5 
" id="ma0aa6d226a" style="stroke:#000000;stroke-width:0.8;"/>
      </defs>
      <g>
       <use style="stroke:#000000;stroke-width:0.8;" x="96.334375" xlink:href="#ma0aa6d226a" y="208.8"/>
      </g>
     </g>
     <g id="text_1">
      <!-- 0 -->
      <g transform="translate(93.153125 223.398438)scale(0.1 -0.1)">
       <defs>
        <path d="M 31.78125 66.40625 
Q 24.171875 66.40625 20.328125 58.90625 
Q 16.5 51.421875 16.5 36.375 
Q 16.5 21.390625 20.328125 13.890625 
Q 24.171875 6.390625 31.78125 6.390625 
Q 39.453125 6.390625 43.28125 13.890625 
Q 47.125 21.390625 47.125 36.375 
Q 47.125 51.421875 43.28125 58.90625 
Q 39.453125 66.40625 31.78125 66.40625 
z
M 31.78125 74.21875 
Q 44.046875 74.21875 50.515625 64.515625 
Q 56.984375 54.828125 56.984375 36.375 
Q 56.984375 17.96875 50.515625 8.265625 
Q 44.046875 -1.421875 31.78125 -1.421875 
Q 19.53125 -1.421875 13.0625 8.265625 
Q 6.59375 17.96875 6.59375 36.375 
Q 6.59375 54.828125 13.0625 64.515625 
Q 19.53125 74.21875 31.78125 74.21875 
z
" id="DejaVuSans-48"/>
       </defs>
       <use xlink:href="#DejaVuSans-48"/>
      </g>
     </g>
    </g>
    <g id="xtick_2">
     <g id="line2d_22">
      <g>
       <use style="stroke:#000000;stroke-width:0.8;" x="161.854375" xlink:href="#ma0aa6d226a" y="208.8"/>
      </g>
     </g>
     <g id="text_2">
      <!-- 2 -->
      <g transform="translate(158.673125 223.398438)scale(0.1 -0.1)">
       <defs>
        <path d="M 19.1875 8.296875 
L 53.609375 8.296875 
L 53.609375 0 
L 7.328125 0 
L 7.328125 8.296875 
Q 12.9375 14.109375 22.625 23.890625 
Q 32.328125 33.6875 34.8125 36.53125 
Q 39.546875 41.84375 41.421875 45.53125 
Q 43.3125 49.21875 43.3125 52.78125 
Q 43.3125 58.59375 39.234375 62.25 
Q 35.15625 65.921875 28.609375 65.921875 
Q 23.96875 65.921875 18.8125 64.3125 
Q 13.671875 62.703125 7.8125 59.421875 
L 7.8125 69.390625 
Q 13.765625 71.78125 18.9375 73 
Q 24.125 74.21875 28.421875 74.21875 
Q 39.75 74.21875 46.484375 68.546875 
Q 53.21875 62.890625 53.21875 53.421875 
Q 53.21875 48.921875 51.53125 44.890625 
Q 49.859375 40.875 45.40625 35.40625 
Q 44.1875 33.984375 37.640625 27.21875 
Q 31.109375 20.453125 19.1875 8.296875 
z
" id="DejaVuSans-50"/>
       </defs>
       <use xlink:href="#DejaVuSans-50"/>
      </g>
     </g>
    </g>
    <g id="xtick_3">
     <g id="line2d_23">
      <g>
       <use style="stroke:#000000;stroke-width:0.8;" x="227.374375" xlink:href="#ma0aa6d226a" y="208.8"/>
      </g>
     </g>
     <g id="text_3">
      <!-- 4 -->
      <g transform="translate(224.193125 223.398438)scale(0.1 -0.1)">
       <defs>
        <path d="M 37.796875 64.3125 
L 12.890625 25.390625 
L 37.796875 25.390625 
z
M 35.203125 72.90625 
L 47.609375 72.90625 
L 47.609375 25.390625 
L 58.015625 25.390625 
L 58.015625 17.1875 
L 47.609375 17.1875 
L 47.609375 0 
L 37.796875 0 
L 37.796875 17.1875 
L 4.890625 17.1875 
L 4.890625 26.703125 
z
" id="DejaVuSans-52"/>
       </defs>
       <use xlink:href="#DejaVuSans-52"/>
      </g>
     </g>
    </g>
    <g id="xtick_4">
     <g id="line2d_24">
      <g>
       <use style="stroke:#000000;stroke-width:0.8;" x="292.894375" xlink:href="#ma0aa6d226a" y="208.8"/>
      </g>
     </g>
     <g id="text_4">
      <!-- 6 -->
      <g transform="translate(289.713125 223.398438)scale(0.1 -0.1)">
       <defs>
        <path d="M 33.015625 40.375 
Q 26.375 40.375 22.484375 35.828125 
Q 18.609375 31.296875 18.609375 23.390625 
Q 18.609375 15.53125 22.484375 10.953125 
Q 26.375 6.390625 33.015625 6.390625 
Q 39.65625 6.390625 43.53125 10.953125 
Q 47.40625 15.53125 47.40625 23.390625 
Q 47.40625 31.296875 43.53125 35.828125 
Q 39.65625 40.375 33.015625 40.375 
z
M 52.59375 71.296875 
L 52.59375 62.3125 
Q 48.875 64.0625 45.09375 64.984375 
Q 41.3125 65.921875 37.59375 65.921875 
Q 27.828125 65.921875 22.671875 59.328125 
Q 17.53125 52.734375 16.796875 39.40625 
Q 19.671875 43.65625 24.015625 45.921875 
Q 28.375 48.1875 33.59375 48.1875 
Q 44.578125 48.1875 50.953125 41.515625 
Q 57.328125 34.859375 57.328125 23.390625 
Q 57.328125 12.15625 50.6875 5.359375 
Q 44.046875 -1.421875 33.015625 -1.421875 
Q 20.359375 -1.421875 13.671875 8.265625 
Q 6.984375 17.96875 6.984375 36.375 
Q 6.984375 53.65625 15.1875 63.9375 
Q 23.390625 74.21875 37.203125 74.21875 
Q 40.921875 74.21875 44.703125 73.484375 
Q 48.484375 72.75 52.59375 71.296875 
z
" id="DejaVuSans-54"/>
       </defs>
       <use xlink:href="#DejaVuSans-54"/>
      </g>
     </g>
    </g>
    <g id="xtick_5">
     <g id="line2d_25">
      <g>
       <use style="stroke:#000000;stroke-width:0.8;" x="358.414375" xlink:href="#ma0aa6d226a" y="208.8"/>
      </g>
     </g>
     <g id="text_5">
      <!-- 8 -->
      <g transform="translate(355.233125 223.398438)scale(0.1 -0.1)">
       <defs>
        <path d="M 31.78125 34.625 
Q 24.75 34.625 20.71875 30.859375 
Q 16.703125 27.09375 16.703125 20.515625 
Q 16.703125 13.921875 20.71875 10.15625 
Q 24.75 6.390625 31.78125 6.390625 
Q 38.8125 6.390625 42.859375 10.171875 
Q 46.921875 13.96875 46.921875 20.515625 
Q 46.921875 27.09375 42.890625 30.859375 
Q 38.875 34.625 31.78125 34.625 
z
M 21.921875 38.8125 
Q 15.578125 40.375 12.03125 44.71875 
Q 8.5 49.078125 8.5 55.328125 
Q 8.5 64.0625 14.71875 69.140625 
Q 20.953125 74.21875 31.78125 74.21875 
Q 42.671875 74.21875 48.875 69.140625 
Q 55.078125 64.0625 55.078125 55.328125 
Q 55.078125 49.078125 51.53125 44.71875 
Q 48 40.375 41.703125 38.8125 
Q 48.828125 37.15625 52.796875 32.3125 
Q 56.78125 27.484375 56.78125 20.515625 
Q 56.78125 9.90625 50.3125 4.234375 
Q 43.84375 -1.421875 31.78125 -1.421875 
Q 19.734375 -1.421875 13.25 4.234375 
Q 6.78125 9.90625 6.78125 20.515625 
Q 6.78125 27.484375 10.78125 32.3125 
Q 14.796875 37.15625 21.921875 38.8125 
z
M 18.3125 54.390625 
Q 18.3125 48.734375 21.84375 45.5625 
Q 25.390625 42.390625 31.78125 42.390625 
Q 38.140625 42.390625 41.71875 45.5625 
Q 45.3125 48.734375 45.3125 54.390625 
Q 45.3125 60.0625 41.71875 63.234375 
Q 38.140625 66.40625 31.78125 66.40625 
Q 25.390625 66.40625 21.84375 63.234375 
Q 18.3125 60.0625 18.3125 54.390625 
z
" id="DejaVuSans-56"/>
       </defs>
       <use xlink:href="#DejaVuSans-56"/>
      </g>
     </g>
    </g>
    <g id="xtick_6">
     <g id="line2d_26">
      <g>
       <use style="stroke:#000000;stroke-width:0.8;" x="423.934375" xlink:href="#ma0aa6d226a" y="208.8"/>
      </g>
     </g>
     <g id="text_6">
      <!-- 10 -->
      <g transform="translate(417.571875 223.398438)scale(0.1 -0.1)">
       <defs>
        <path d="M 12.40625 8.296875 
L 28.515625 8.296875 
L 28.515625 63.921875 
L 10.984375 60.40625 
L 10.984375 69.390625 
L 28.421875 72.90625 
L 38.28125 72.90625 
L 38.28125 8.296875 
L 54.390625 8.296875 
L 54.390625 0 
L 12.40625 0 
z
" id="DejaVuSans-49"/>
       </defs>
       <use xlink:href="#DejaVuSans-49"/>
       <use x="63.623047" xlink:href="#DejaVuSans-48"/>
      </g>
     </g>
    </g>
   </g>
   <g id="matplotlib.axis_2">
    <g id="ytick_1">
     <g id="line2d_27">
      <defs>
       <path d="M 0 0 
L -3.5 0 
" id="m821ec04cee" style="stroke:#000000;stroke-width:0.8;"/>
      </defs>
      <g>
       <use style="stroke:#000000;stroke-width:0.8;" x="96.334375" xlink:href="#m821ec04cee" y="12.24"/>
      </g>
     </g>
     <g id="text_7">
      <!-- TIME_STAMP_s -->
      <g transform="translate(16.940625 15.950938)scale(0.1 -0.1)">
       <defs>
        <path d="M -0.296875 72.90625 
L 61.375 72.90625 
L 61.375 64.59375 
L 35.5 64.59375 
L 35.5 0 
L 25.59375 0 
L 25.59375 64.59375 
L -0.296875 64.59375 
z
" id="DejaVuSans-84"/>
        <path d="M 9.8125 72.90625 
L 19.671875 72.90625 
L 19.671875 0 
L 9.8125 0 
z
" id="DejaVuSans-73"/>
        <path d="M 9.8125 72.90625 
L 24.515625 72.90625 
L 43.109375 23.296875 
L 61.8125 72.90625 
L 76.515625 72.90625 
L 76.515625 0 
L 66.890625 0 
L 66.890625 64.015625 
L 48.09375 14.015625 
L 38.1875 14.015625 
L 19.390625 64.015625 
L 19.390625 0 
L 9.8125 0 
z
" id="DejaVuSans-77"/>
        <path d="M 9.8125 72.90625 
L 55.90625 72.90625 
L 55.90625 64.59375 
L 19.671875 64.59375 
L 19.671875 43.015625 
L 54.390625 43.015625 
L 54.390625 34.71875 
L 19.671875 34.71875 
L 19.671875 8.296875 
L 56.78125 8.296875 
L 56.78125 0 
L 9.8125 0 
z
" id="DejaVuSans-69"/>
        <path d="M 50.984375 -16.609375 
L 50.984375 -23.578125 
L -0.984375 -23.578125 
L -0.984375 -16.609375 
z
" id="DejaVuSans-95"/>
        <path d="M 53.515625 70.515625 
L 53.515625 60.890625 
Q 47.90625 63.578125 42.921875 64.890625 
Q 37.9375 66.21875 33.296875 66.21875 
Q 25.25 66.21875 20.875 63.09375 
Q 16.5 59.96875 16.5 54.203125 
Q 16.5 49.359375 19.40625 46.890625 
Q 22.3125 44.4375 30.421875 42.921875 
L 36.375 41.703125 
Q 47.40625 39.59375 52.65625 34.296875 
Q 57.90625 29 57.90625 20.125 
Q 57.90625 9.515625 50.796875 4.046875 
Q 43.703125 -1.421875 29.984375 -1.421875 
Q 24.8125 -1.421875 18.96875 -0.25 
Q 13.140625 0.921875 6.890625 3.21875 
L 6.890625 13.375 
Q 12.890625 10.015625 18.65625 8.296875 
Q 24.421875 6.59375 29.984375 6.59375 
Q 38.421875 6.59375 43.015625 9.90625 
Q 47.609375 13.234375 47.609375 19.390625 
Q 47.609375 24.75 44.3125 27.78125 
Q 41.015625 30.8125 33.5 32.328125 
L 27.484375 33.5 
Q 16.453125 35.6875 11.515625 40.375 
Q 6.59375 45.0625 6.59375 53.421875 
Q 6.59375 63.09375 13.40625 68.65625 
Q 20.21875 74.21875 32.171875 74.21875 
Q 37.3125 74.21875 42.625 73.28125 
Q 47.953125 72.359375 53.515625 70.515625 
z
" id="DejaVuSans-83"/>
        <path d="M 34.1875 63.1875 
L 20.796875 26.90625 
L 47.609375 26.90625 
z
M 28.609375 72.90625 
L 39.796875 72.90625 
L 67.578125 0 
L 57.328125 0 
L 50.6875 18.703125 
L 17.828125 18.703125 
L 11.1875 0 
L 0.78125 0 
z
" id="DejaVuSans-65"/>
        <path d="M 19.671875 64.796875 
L 19.671875 37.40625 
L 32.078125 37.40625 
Q 38.96875 37.40625 42.71875 40.96875 
Q 46.484375 44.53125 46.484375 51.125 
Q 46.484375 57.671875 42.71875 61.234375 
Q 38.96875 64.796875 32.078125 64.796875 
z
M 9.8125 72.90625 
L 32.078125 72.90625 
Q 44.34375 72.90625 50.609375 67.359375 
Q 56.890625 61.8125 56.890625 51.125 
Q 56.890625 40.328125 50.609375 34.8125 
Q 44.34375 29.296875 32.078125 29.296875 
L 19.671875 29.296875 
L 19.671875 0 
L 9.8125 0 
z
" id="DejaVuSans-80"/>
        <path d="M 44.28125 53.078125 
L 44.28125 44.578125 
Q 40.484375 46.53125 36.375 47.5 
Q 32.28125 48.484375 27.875 48.484375 
Q 21.1875 48.484375 17.84375 46.4375 
Q 14.5 44.390625 14.5 40.28125 
Q 14.5 37.15625 16.890625 35.375 
Q 19.28125 33.59375 26.515625 31.984375 
L 29.59375 31.296875 
Q 39.15625 29.25 43.1875 25.515625 
Q 47.21875 21.78125 47.21875 15.09375 
Q 47.21875 7.46875 41.1875 3.015625 
Q 35.15625 -1.421875 24.609375 -1.421875 
Q 20.21875 -1.421875 15.453125 -0.5625 
Q 10.6875 0.296875 5.421875 2 
L 5.421875 11.28125 
Q 10.40625 8.6875 15.234375 7.390625 
Q 20.0625 6.109375 24.8125 6.109375 
Q 31.15625 6.109375 34.5625 8.28125 
Q 37.984375 10.453125 37.984375 14.40625 
Q 37.984375 18.0625 35.515625 20.015625 
Q 33.0625 21.96875 24.703125 23.78125 
L 21.578125 24.515625 
Q 13.234375 26.265625 9.515625 29.90625 
Q 5.8125 33.546875 5.8125 39.890625 
Q 5.8125 47.609375 11.28125 51.796875 
Q 16.75 56 26.8125 56 
Q 31.78125 56 36.171875 55.265625 
Q 40.578125 54.546875 44.28125 53.078125 
z
" id="DejaVuSans-115"/>
       </defs>
       <use xlink:href="#DejaVuSans-84"/>
       <use x="61.083984" xlink:href="#DejaVuSans-73"/>
       <use x="90.576172" xlink:href="#DejaVuSans-77"/>
       <use x="176.855469" xlink:href="#DejaVuSans-69"/>
       <use x="240.039062" xlink:href="#DejaVuSans-95"/>
       <use x="290.039062" xlink:href="#DejaVuSans-83"/>
       <use x="353.515625" xlink:href="#DejaVuSans-84"/>
       <use x="406.849609" xlink:href="#DejaVuSans-65"/>
       <use x="475.257812" xlink:href="#DejaVuSans-77"/>
       <use x="561.537109" xlink:href="#DejaVuSans-80"/>
       <use x="621.839844" xlink:href="#DejaVuSans-95"/>
       <use x="671.839844" xlink:href="#DejaVuSans-115"/>
      </g>
     </g>
    </g>
    <g id="ytick_2">
     <g id="line2d_28">
      <g>
       <use style="stroke:#000000;stroke-width:0.8;" x="96.334375" xlink:href="#m821ec04cee" y="22.32"/>
      </g>
     </g>
     <g id="text_8">
      <!-- TIME_STAMP_ms -->
      <g transform="translate(7.2 26.030937)scale(0.1 -0.1)">
       <defs>
        <path d="M 52 44.1875 
Q 55.375 50.25 60.0625 53.125 
Q 64.75 56 71.09375 56 
Q 79.640625 56 84.28125 50.015625 
Q 88.921875 44.046875 88.921875 33.015625 
L 88.921875 0 
L 79.890625 0 
L 79.890625 32.71875 
Q 79.890625 40.578125 77.09375 44.375 
Q 74.3125 48.1875 68.609375 48.1875 
Q 61.625 48.1875 57.5625 43.546875 
Q 53.515625 38.921875 53.515625 30.90625 
L 53.515625 0 
L 44.484375 0 
L 44.484375 32.71875 
Q 44.484375 40.625 41.703125 44.40625 
Q 38.921875 48.1875 33.109375 48.1875 
Q 26.21875 48.1875 22.15625 43.53125 
Q 18.109375 38.875 18.109375 30.90625 
L 18.109375 0 
L 9.078125 0 
L 9.078125 54.6875 
L 18.109375 54.6875 
L 18.109375 46.1875 
Q 21.1875 51.21875 25.484375 53.609375 
Q 29.78125 56 35.6875 56 
Q 41.65625 56 45.828125 52.96875 
Q 50 49.953125 52 44.1875 
z
" id="DejaVuSans-109"/>
       </defs>
       <use xlink:href="#DejaVuSans-84"/>
       <use x="61.083984" xlink:href="#DejaVuSans-73"/>
       <use x="90.576172" xlink:href="#DejaVuSans-77"/>
       <use x="176.855469" xlink:href="#DejaVuSans-69"/>
       <use x="240.039062" xlink:href="#DejaVuSans-95"/>
       <use x="290.039062" xlink:href="#DejaVuSans-83"/>
       <use x="353.515625" xlink:href="#DejaVuSans-84"/>
       <use x="406.849609" xlink:href="#DejaVuSans-65"/>
       <use x="475.257812" xlink:href="#DejaVuSans-77"/>
       <use x="561.537109" xlink:href="#DejaVuSans-80"/>
       <use x="621.839844" xlink:href="#DejaVuSans-95"/>
       <use x="671.839844" xlink:href="#DejaVuSans-109"/>
       <use x="769.251953" xlink:href="#DejaVuSans-115"/>
      </g>
     </g>
    </g>
    <g id="ytick_3">
     <g id="line2d_29">
      <g>
       <use style="stroke:#000000;stroke-width:0.8;" x="96.334375" xlink:href="#m821ec04cee" y="32.4"/>
      </g>
     </g>
     <g id="text_9">
      <!-- COUNTER -->
      <g transform="translate(40.304688 36.199219)scale(0.1 -0.1)">
       <defs>
        <path d="M 64.40625 67.28125 
L 64.40625 56.890625 
Q 59.421875 61.53125 53.78125 63.8125 
Q 48.140625 66.109375 41.796875 66.109375 
Q 29.296875 66.109375 22.65625 58.46875 
Q 16.015625 50.828125 16.015625 36.375 
Q 16.015625 21.96875 22.65625 14.328125 
Q 29.296875 6.6875 41.796875 6.6875 
Q 48.140625 6.6875 53.78125 8.984375 
Q 59.421875 11.28125 64.40625 15.921875 
L 64.40625 5.609375 
Q 59.234375 2.09375 53.4375 0.328125 
Q 47.65625 -1.421875 41.21875 -1.421875 
Q 24.65625 -1.421875 15.125 8.703125 
Q 5.609375 18.84375 5.609375 36.375 
Q 5.609375 53.953125 15.125 64.078125 
Q 24.65625 74.21875 41.21875 74.21875 
Q 47.75 74.21875 53.53125 72.484375 
Q 59.328125 70.75 64.40625 67.28125 
z
" id="DejaVuSans-67"/>
        <path d="M 39.40625 66.21875 
Q 28.65625 66.21875 22.328125 58.203125 
Q 16.015625 50.203125 16.015625 36.375 
Q 16.015625 22.609375 22.328125 14.59375 
Q 28.65625 6.59375 39.40625 6.59375 
Q 50.140625 6.59375 56.421875 14.59375 
Q 62.703125 22.609375 62.703125 36.375 
Q 62.703125 50.203125 56.421875 58.203125 
Q 50.140625 66.21875 39.40625 66.21875 
z
M 39.40625 74.21875 
Q 54.734375 74.21875 63.90625 63.9375 
Q 73.09375 53.65625 73.09375 36.375 
Q 73.09375 19.140625 63.90625 8.859375 
Q 54.734375 -1.421875 39.40625 -1.421875 
Q 24.03125 -1.421875 14.8125 8.828125 
Q 5.609375 19.09375 5.609375 36.375 
Q 5.609375 53.65625 14.8125 63.9375 
Q 24.03125 74.21875 39.40625 74.21875 
z
" id="DejaVuSans-79"/>
        <path d="M 8.6875 72.90625 
L 18.609375 72.90625 
L 18.609375 28.609375 
Q 18.609375 16.890625 22.84375 11.734375 
Q 27.09375 6.59375 36.625 6.59375 
Q 46.09375 6.59375 50.34375 11.734375 
Q 54.59375 16.890625 54.59375 28.609375 
L 54.59375 72.90625 
L 64.5 72.90625 
L 64.5 27.390625 
Q 64.5 13.140625 57.4375 5.859375 
Q 50.390625 -1.421875 36.625 -1.421875 
Q 22.796875 -1.421875 15.734375 5.859375 
Q 8.6875 13.140625 8.6875 27.390625 
z
" id="DejaVuSans-85"/>
        <path d="M 9.8125 72.90625 
L 23.09375 72.90625 
L 55.421875 11.921875 
L 55.421875 72.90625 
L 64.984375 72.90625 
L 64.984375 0 
L 51.703125 0 
L 19.390625 60.984375 
L 19.390625 0 
L 9.8125 0 
z
" id="DejaVuSans-78"/>
        <path d="M 44.390625 34.1875 
Q 47.5625 33.109375 50.5625 29.59375 
Q 53.5625 26.078125 56.59375 19.921875 
L 66.609375 0 
L 56 0 
L 46.6875 18.703125 
Q 43.0625 26.03125 39.671875 28.421875 
Q 36.28125 30.8125 30.421875 30.8125 
L 19.671875 30.8125 
L 19.671875 0 
L 9.8125 0 
L 9.8125 72.90625 
L 32.078125 72.90625 
Q 44.578125 72.90625 50.734375 67.671875 
Q 56.890625 62.453125 56.890625 51.90625 
Q 56.890625 45.015625 53.6875 40.46875 
Q 50.484375 35.9375 44.390625 34.1875 
z
M 19.671875 64.796875 
L 19.671875 38.921875 
L 32.078125 38.921875 
Q 39.203125 38.921875 42.84375 42.21875 
Q 46.484375 45.515625 46.484375 51.90625 
Q 46.484375 58.296875 42.84375 61.546875 
Q 39.203125 64.796875 32.078125 64.796875 
z
" id="DejaVuSans-82"/>
       </defs>
       <use xlink:href="#DejaVuSans-67"/>
       <use x="69.824219" xlink:href="#DejaVuSans-79"/>
       <use x="148.535156" xlink:href="#DejaVuSans-85"/>
       <use x="221.728516" xlink:href="#DejaVuSans-78"/>
       <use x="296.533203" xlink:href="#DejaVuSans-84"/>
       <use x="357.617188" xlink:href="#DejaVuSans-69"/>
       <use x="420.800781" xlink:href="#DejaVuSans-82"/>
      </g>
     </g>
    </g>
    <g id="ytick_4">
     <g id="line2d_30">
      <g>
       <use style="stroke:#000000;stroke-width:0.8;" x="96.334375" xlink:href="#m821ec04cee" y="42.48"/>
      </g>
     </g>
     <g id="text_10">
      <!-- INTERPOLATED -->
      <g transform="translate(13.6375 46.279219)scale(0.1 -0.1)">
       <defs>
        <path d="M 9.8125 72.90625 
L 19.671875 72.90625 
L 19.671875 8.296875 
L 55.171875 8.296875 
L 55.171875 0 
L 9.8125 0 
z
" id="DejaVuSans-76"/>
        <path d="M 19.671875 64.796875 
L 19.671875 8.109375 
L 31.59375 8.109375 
Q 46.6875 8.109375 53.6875 14.9375 
Q 60.6875 21.78125 60.6875 36.53125 
Q 60.6875 51.171875 53.6875 57.984375 
Q 46.6875 64.796875 31.59375 64.796875 
z
M 9.8125 72.90625 
L 30.078125 72.90625 
Q 51.265625 72.90625 61.171875 64.09375 
Q 71.09375 55.28125 71.09375 36.53125 
Q 71.09375 17.671875 61.125 8.828125 
Q 51.171875 0 30.078125 0 
L 9.8125 0 
z
" id="DejaVuSans-68"/>
       </defs>
       <use xlink:href="#DejaVuSans-73"/>
       <use x="29.492188" xlink:href="#DejaVuSans-78"/>
       <use x="104.296875" xlink:href="#DejaVuSans-84"/>
       <use x="165.380859" xlink:href="#DejaVuSans-69"/>
       <use x="228.564453" xlink:href="#DejaVuSans-82"/>
       <use x="298.046875" xlink:href="#DejaVuSans-80"/>
       <use x="358.349609" xlink:href="#DejaVuSans-79"/>
       <use x="437.060547" xlink:href="#DejaVuSans-76"/>
       <use x="495.023438" xlink:href="#DejaVuSans-65"/>
       <use x="555.681641" xlink:href="#DejaVuSans-84"/>
       <use x="616.765625" xlink:href="#DejaVuSans-69"/>
       <use x="679.949219" xlink:href="#DejaVuSans-68"/>
      </g>
     </g>
    </g>
    <g id="ytick_5">
     <g id="line2d_31">
      <g>
       <use style="stroke:#000000;stroke-width:0.8;" x="96.334375" xlink:href="#m821ec04cee" y="52.56"/>
      </g>
     </g>
     <g id="text_11">
      <!-- AF3 -->
      <g transform="translate(70.379688 56.359219)scale(0.1 -0.1)">
       <defs>
        <path d="M 9.8125 72.90625 
L 51.703125 72.90625 
L 51.703125 64.59375 
L 19.671875 64.59375 
L 19.671875 43.109375 
L 48.578125 43.109375 
L 48.578125 34.8125 
L 19.671875 34.8125 
L 19.671875 0 
L 9.8125 0 
z
" id="DejaVuSans-70"/>
        <path d="M 40.578125 39.3125 
Q 47.65625 37.796875 51.625 33 
Q 55.609375 28.21875 55.609375 21.1875 
Q 55.609375 10.40625 48.1875 4.484375 
Q 40.765625 -1.421875 27.09375 -1.421875 
Q 22.515625 -1.421875 17.65625 -0.515625 
Q 12.796875 0.390625 7.625 2.203125 
L 7.625 11.71875 
Q 11.71875 9.328125 16.59375 8.109375 
Q 21.484375 6.890625 26.8125 6.890625 
Q 36.078125 6.890625 40.9375 10.546875 
Q 45.796875 14.203125 45.796875 21.1875 
Q 45.796875 27.640625 41.28125 31.265625 
Q 36.765625 34.90625 28.71875 34.90625 
L 20.21875 34.90625 
L 20.21875 43.015625 
L 29.109375 43.015625 
Q 36.375 43.015625 40.234375 45.921875 
Q 44.09375 48.828125 44.09375 54.296875 
Q 44.09375 59.90625 40.109375 62.90625 
Q 36.140625 65.921875 28.71875 65.921875 
Q 24.65625 65.921875 20.015625 65.03125 
Q 15.375 64.15625 9.8125 62.3125 
L 9.8125 71.09375 
Q 15.4375 72.65625 20.34375 73.4375 
Q 25.25 74.21875 29.59375 74.21875 
Q 40.828125 74.21875 47.359375 69.109375 
Q 53.90625 64.015625 53.90625 55.328125 
Q 53.90625 49.265625 50.4375 45.09375 
Q 46.96875 40.921875 40.578125 39.3125 
z
" id="DejaVuSans-51"/>
       </defs>
       <use xlink:href="#DejaVuSans-65"/>
       <use x="68.408203" xlink:href="#DejaVuSans-70"/>
       <use x="125.927734" xlink:href="#DejaVuSans-51"/>
      </g>
     </g>
    </g>
    <g id="ytick_6">
     <g id="line2d_32">
      <g>
       <use style="stroke:#000000;stroke-width:0.8;" x="96.334375" xlink:href="#m821ec04cee" y="62.64"/>
      </g>
     </g>
     <g id="text_12">
      <!-- F7 -->
      <g transform="translate(77.220313 66.439219)scale(0.1 -0.1)">
       <defs>
        <path d="M 8.203125 72.90625 
L 55.078125 72.90625 
L 55.078125 68.703125 
L 28.609375 0 
L 18.3125 0 
L 43.21875 64.59375 
L 8.203125 64.59375 
z
" id="DejaVuSans-55"/>
       </defs>
       <use xlink:href="#DejaVuSans-70"/>
       <use x="57.519531" xlink:href="#DejaVuSans-55"/>
      </g>
     </g>
    </g>
    <g id="ytick_7">
     <g id="line2d_33">
      <g>
       <use style="stroke:#000000;stroke-width:0.8;" x="96.334375" xlink:href="#m821ec04cee" y="72.72"/>
      </g>
     </g>
     <g id="text_13">
      <!-- F3 -->
      <g transform="translate(77.220313 76.519219)scale(0.1 -0.1)">
       <use xlink:href="#DejaVuSans-70"/>
       <use x="57.519531" xlink:href="#DejaVuSans-51"/>
      </g>
     </g>
    </g>
    <g id="ytick_8">
     <g id="line2d_34">
      <g>
       <use style="stroke:#000000;stroke-width:0.8;" x="96.334375" xlink:href="#m821ec04cee" y="82.8"/>
      </g>
     </g>
     <g id="text_14">
      <!-- FC5 -->
      <g transform="translate(70.2375 86.599219)scale(0.1 -0.1)">
       <defs>
        <path d="M 10.796875 72.90625 
L 49.515625 72.90625 
L 49.515625 64.59375 
L 19.828125 64.59375 
L 19.828125 46.734375 
Q 21.96875 47.46875 24.109375 47.828125 
Q 26.265625 48.1875 28.421875 48.1875 
Q 40.625 48.1875 47.75 41.5 
Q 54.890625 34.8125 54.890625 23.390625 
Q 54.890625 11.625 47.5625 5.09375 
Q 40.234375 -1.421875 26.90625 -1.421875 
Q 22.3125 -1.421875 17.546875 -0.640625 
Q 12.796875 0.140625 7.71875 1.703125 
L 7.71875 11.625 
Q 12.109375 9.234375 16.796875 8.0625 
Q 21.484375 6.890625 26.703125 6.890625 
Q 35.15625 6.890625 40.078125 11.328125 
Q 45.015625 15.765625 45.015625 23.390625 
Q 45.015625 31 40.078125 35.4375 
Q 35.15625 39.890625 26.703125 39.890625 
Q 22.75 39.890625 18.8125 39.015625 
Q 14.890625 38.140625 10.796875 36.28125 
z
" id="DejaVuSans-53"/>
       </defs>
       <use xlink:href="#DejaVuSans-70"/>
       <use x="57.519531" xlink:href="#DejaVuSans-67"/>
       <use x="127.34375" xlink:href="#DejaVuSans-53"/>
      </g>
     </g>
    </g>
    <g id="ytick_9">
     <g id="line2d_35">
      <g>
       <use style="stroke:#000000;stroke-width:0.8;" x="96.334375" xlink:href="#m821ec04cee" y="92.88"/>
      </g>
     </g>
     <g id="text_15">
      <!-- T7 -->
      <g transform="translate(76.864063 96.679219)scale(0.1 -0.1)">
       <use xlink:href="#DejaVuSans-84"/>
       <use x="61.083984" xlink:href="#DejaVuSans-55"/>
      </g>
     </g>
    </g>
    <g id="ytick_10">
     <g id="line2d_36">
      <g>
       <use style="stroke:#000000;stroke-width:0.8;" x="96.334375" xlink:href="#m821ec04cee" y="102.96"/>
      </g>
     </g>
     <g id="text_16">
      <!-- P7 -->
      <g transform="translate(76.942188 106.759219)scale(0.1 -0.1)">
       <use xlink:href="#DejaVuSans-80"/>
       <use x="60.302734" xlink:href="#DejaVuSans-55"/>
      </g>
     </g>
    </g>
    <g id="ytick_11">
     <g id="line2d_37">
      <g>
       <use style="stroke:#000000;stroke-width:0.8;" x="96.334375" xlink:href="#m821ec04cee" y="113.04"/>
      </g>
     </g>
     <g id="text_17">
      <!-- O1 -->
      <g transform="translate(75.1 116.839219)scale(0.1 -0.1)">
       <use xlink:href="#DejaVuSans-79"/>
       <use x="78.710938" xlink:href="#DejaVuSans-49"/>
      </g>
     </g>
    </g>
    <g id="ytick_12">
     <g id="line2d_38">
      <g>
       <use style="stroke:#000000;stroke-width:0.8;" x="96.334375" xlink:href="#m821ec04cee" y="123.12"/>
      </g>
     </g>
     <g id="text_18">
      <!-- O2 -->
      <g transform="translate(75.1 126.919219)scale(0.1 -0.1)">
       <use xlink:href="#DejaVuSans-79"/>
       <use x="78.710938" xlink:href="#DejaVuSans-50"/>
      </g>
     </g>
    </g>
    <g id="ytick_13">
     <g id="line2d_39">
      <g>
       <use style="stroke:#000000;stroke-width:0.8;" x="96.334375" xlink:href="#m821ec04cee" y="133.2"/>
      </g>
     </g>
     <g id="text_19">
      <!-- P8 -->
      <g transform="translate(76.942188 136.999219)scale(0.1 -0.1)">
       <use xlink:href="#DejaVuSans-80"/>
       <use x="60.302734" xlink:href="#DejaVuSans-56"/>
      </g>
     </g>
    </g>
    <g id="ytick_14">
     <g id="line2d_40">
      <g>
       <use style="stroke:#000000;stroke-width:0.8;" x="96.334375" xlink:href="#m821ec04cee" y="143.28"/>
      </g>
     </g>
     <g id="text_20">
      <!-- T8 -->
      <g transform="translate(76.864063 147.079219)scale(0.1 -0.1)">
       <use xlink:href="#DejaVuSans-84"/>
       <use x="61.083984" xlink:href="#DejaVuSans-56"/>
      </g>
     </g>
    </g>
    <g id="ytick_15">
     <g id="line2d_41">
      <g>
       <use style="stroke:#000000;stroke-width:0.8;" x="96.334375" xlink:href="#m821ec04cee" y="153.36"/>
      </g>
     </g>
     <g id="text_21">
      <!-- FC6 -->
      <g transform="translate(70.2375 157.159219)scale(0.1 -0.1)">
       <use xlink:href="#DejaVuSans-70"/>
       <use x="57.519531" xlink:href="#DejaVuSans-67"/>
       <use x="127.34375" xlink:href="#DejaVuSans-54"/>
      </g>
     </g>
    </g>
    <g id="ytick_16">
     <g id="line2d_42">
      <g>
       <use style="stroke:#000000;stroke-width:0.8;" x="96.334375" xlink:href="#m821ec04cee" y="163.44"/>
      </g>
     </g>
     <g id="text_22">
      <!-- F4 -->
      <g transform="translate(77.220313 167.239219)scale(0.1 -0.1)">
       <use xlink:href="#DejaVuSans-70"/>
       <use x="57.519531" xlink:href="#DejaVuSans-52"/>
      </g>
     </g>
    </g>
    <g id="ytick_17">
     <g id="line2d_43">
      <g>
       <use style="stroke:#000000;stroke-width:0.8;" x="96.334375" xlink:href="#m821ec04cee" y="173.52"/>
      </g>
     </g>
     <g id="text_23">
      <!-- F8 -->
      <g transform="translate(77.220313 177.319219)scale(0.1 -0.1)">
       <use xlink:href="#DejaVuSans-70"/>
       <use x="57.519531" xlink:href="#DejaVuSans-56"/>
      </g>
     </g>
    </g>
    <g id="ytick_18">
     <g id="line2d_44">
      <g>
       <use style="stroke:#000000;stroke-width:0.8;" x="96.334375" xlink:href="#m821ec04cee" y="183.6"/>
      </g>
     </g>
     <g id="text_24">
      <!-- AF4 -->
      <g transform="translate(70.379688 187.399219)scale(0.1 -0.1)">
       <use xlink:href="#DejaVuSans-65"/>
       <use x="68.408203" xlink:href="#DejaVuSans-70"/>
       <use x="125.927734" xlink:href="#DejaVuSans-52"/>
      </g>
     </g>
    </g>
    <g id="ytick_19">
     <g id="line2d_45">
      <g>
       <use style="stroke:#000000;stroke-width:0.8;" x="96.334375" xlink:href="#m821ec04cee" y="193.68"/>
      </g>
     </g>
     <g id="text_25">
      <!-- RAW_CQ -->
      <g transform="translate(46.753125 197.390938)scale(0.1 -0.1)">
       <defs>
        <path d="M 3.328125 72.90625 
L 13.28125 72.90625 
L 28.609375 11.28125 
L 43.890625 72.90625 
L 54.984375 72.90625 
L 70.3125 11.28125 
L 85.59375 72.90625 
L 95.609375 72.90625 
L 77.296875 0 
L 64.890625 0 
L 49.515625 63.28125 
L 33.984375 0 
L 21.578125 0 
z
" id="DejaVuSans-87"/>
        <path d="M 39.40625 66.21875 
Q 28.65625 66.21875 22.328125 58.203125 
Q 16.015625 50.203125 16.015625 36.375 
Q 16.015625 22.609375 22.328125 14.59375 
Q 28.65625 6.59375 39.40625 6.59375 
Q 50.140625 6.59375 56.421875 14.59375 
Q 62.703125 22.609375 62.703125 36.375 
Q 62.703125 50.203125 56.421875 58.203125 
Q 50.140625 66.21875 39.40625 66.21875 
z
M 53.21875 1.3125 
L 66.21875 -12.890625 
L 54.296875 -12.890625 
L 43.5 -1.21875 
Q 41.890625 -1.3125 41.03125 -1.359375 
Q 40.1875 -1.421875 39.40625 -1.421875 
Q 24.03125 -1.421875 14.8125 8.859375 
Q 5.609375 19.140625 5.609375 36.375 
Q 5.609375 53.65625 14.8125 63.9375 
Q 24.03125 74.21875 39.40625 74.21875 
Q 54.734375 74.21875 63.90625 63.9375 
Q 73.09375 53.65625 73.09375 36.375 
Q 73.09375 23.6875 67.984375 14.640625 
Q 62.890625 5.609375 53.21875 1.3125 
z
" id="DejaVuSans-81"/>
       </defs>
       <use xlink:href="#DejaVuSans-82"/>
       <use x="65.482422" xlink:href="#DejaVuSans-65"/>
       <use x="128.390625" xlink:href="#DejaVuSans-87"/>
       <use x="227.267578" xlink:href="#DejaVuSans-95"/>
       <use x="277.267578" xlink:href="#DejaVuSans-67"/>
       <use x="347.091797" xlink:href="#DejaVuSans-81"/>
      </g>
     </g>
    </g>
    <g id="ytick_20">
     <g id="line2d_46">
      <g>
       <use style="stroke:#000000;stroke-width:0.8;" x="96.334375" xlink:href="#m821ec04cee" y="203.76"/>
      </g>
     </g>
     <g id="text_26">
      <!-- BATTERY -->
      <g transform="translate(45.629688 207.559219)scale(0.1 -0.1)">
       <defs>
        <path d="M 19.671875 34.8125 
L 19.671875 8.109375 
L 35.5 8.109375 
Q 43.453125 8.109375 47.28125 11.40625 
Q 51.125 14.703125 51.125 21.484375 
Q 51.125 28.328125 47.28125 31.5625 
Q 43.453125 34.8125 35.5 34.8125 
z
M 19.671875 64.796875 
L 19.671875 42.828125 
L 34.28125 42.828125 
Q 41.5 42.828125 45.03125 45.53125 
Q 48.578125 48.25 48.578125 53.8125 
Q 48.578125 59.328125 45.03125 62.0625 
Q 41.5 64.796875 34.28125 64.796875 
z
M 9.8125 72.90625 
L 35.015625 72.90625 
Q 46.296875 72.90625 52.390625 68.21875 
Q 58.5 63.53125 58.5 54.890625 
Q 58.5 48.1875 55.375 44.234375 
Q 52.25 40.28125 46.1875 39.3125 
Q 53.46875 37.75 57.5 32.78125 
Q 61.53125 27.828125 61.53125 20.40625 
Q 61.53125 10.640625 54.890625 5.3125 
Q 48.25 0 35.984375 0 
L 9.8125 0 
z
" id="DejaVuSans-66"/>
        <path d="M -0.203125 72.90625 
L 10.40625 72.90625 
L 30.609375 42.921875 
L 50.6875 72.90625 
L 61.28125 72.90625 
L 35.5 34.71875 
L 35.5 0 
L 25.59375 0 
L 25.59375 34.71875 
z
" id="DejaVuSans-89"/>
       </defs>
       <use xlink:href="#DejaVuSans-66"/>
       <use x="68.603516" xlink:href="#DejaVuSans-65"/>
       <use x="129.261719" xlink:href="#DejaVuSans-84"/>
       <use x="188.595703" xlink:href="#DejaVuSans-84"/>
       <use x="249.679688" xlink:href="#DejaVuSans-69"/>
       <use x="312.863281" xlink:href="#DejaVuSans-82"/>
       <use x="375.970703" xlink:href="#DejaVuSans-89"/>
      </g>
     </g>
    </g>
   </g>
   <g id="line2d_47">
    <path clip-path="url(#p975c4ff24d)" style="fill:none;stroke:#1f77b4;stroke-linecap:square;stroke-width:0.5;"/>
   </g>
   <g id="line2d_48">
    <path clip-path="url(#p975c4ff24d)" style="fill:none;stroke:#ff7f0e;stroke-linecap:square;stroke-width:0.5;"/>
   </g>
   <g id="line2d_49">
    <path clip-path="url(#p975c4ff24d)" style="fill:none;stroke:#2ca02c;stroke-linecap:square;stroke-width:0.5;"/>
   </g>
   <g id="line2d_50">
    <path clip-path="url(#p975c4ff24d)" style="fill:none;stroke:#d62728;stroke-linecap:square;stroke-width:0.5;"/>
   </g>
   <g id="line2d_51">
    <path clip-path="url(#p975c4ff24d)" style="fill:none;stroke:#9467bd;stroke-linecap:square;stroke-width:0.5;"/>
   </g>
   <g id="line2d_52">
    <path clip-path="url(#p975c4ff24d)" style="fill:none;stroke:#8c564b;stroke-linecap:square;stroke-width:0.5;"/>
   </g>
   <g id="line2d_53">
    <path clip-path="url(#p975c4ff24d)" style="fill:none;stroke:#e377c2;stroke-linecap:square;stroke-width:0.5;"/>
   </g>
   <g id="line2d_54">
    <path clip-path="url(#p975c4ff24d)" style="fill:none;stroke:#7f7f7f;stroke-linecap:square;stroke-width:0.5;"/>
   </g>
   <g id="line2d_55">
    <path clip-path="url(#p975c4ff24d)" style="fill:none;stroke:#bcbd22;stroke-linecap:square;stroke-width:0.5;"/>
   </g>
   <g id="line2d_56">
    <path clip-path="url(#p975c4ff24d)" style="fill:none;stroke:#17becf;stroke-linecap:square;stroke-width:0.5;"/>
   </g>
   <g id="line2d_57">
    <path clip-path="url(#p975c4ff24d)" style="fill:none;stroke:#1f77b4;stroke-linecap:square;stroke-width:0.5;"/>
   </g>
   <g id="line2d_58">
    <path clip-path="url(#p975c4ff24d)" style="fill:none;stroke:#ff7f0e;stroke-linecap:square;stroke-width:0.5;"/>
   </g>
   <g id="line2d_59">
    <path clip-path="url(#p975c4ff24d)" style="fill:none;stroke:#2ca02c;stroke-linecap:square;stroke-width:0.5;"/>
   </g>
   <g id="line2d_60">
    <path clip-path="url(#p975c4ff24d)" style="fill:none;stroke:#d62728;stroke-linecap:square;stroke-width:0.5;"/>
   </g>
   <g id="line2d_61">
    <path clip-path="url(#p975c4ff24d)" style="fill:none;stroke:#9467bd;stroke-linecap:square;stroke-width:0.5;"/>
   </g>
   <g id="line2d_62">
    <path clip-path="url(#p975c4ff24d)" style="fill:none;stroke:#8c564b;stroke-linecap:square;stroke-width:0.5;"/>
   </g>
   <g id="line2d_63">
    <path clip-path="url(#p975c4ff24d)" style="fill:none;stroke:#e377c2;stroke-linecap:square;stroke-width:0.5;"/>
   </g>
   <g id="line2d_64">
    <path clip-path="url(#p975c4ff24d)" style="fill:none;stroke:#7f7f7f;stroke-linecap:square;stroke-width:0.5;"/>
   </g>
   <g id="line2d_65">
    <path clip-path="url(#p975c4ff24d)" style="fill:none;stroke:#bcbd22;stroke-linecap:square;stroke-width:0.5;"/>
   </g>
   <g id="line2d_66">
    <path clip-path="url(#p975c4ff24d)" style="fill:none;stroke:#17becf;stroke-linecap:square;stroke-width:0.5;"/>
   </g>
   <g id="line2d_67">
    <path clip-path="url(#p975c4ff24d)" style="fill:none;stroke:#1f77b4;stroke-linecap:square;stroke-width:0.5;"/>
   </g>
   <g id="line2d_68">
    <path clip-path="url(#p975c4ff24d)" style="fill:none;stroke:#00ffff;stroke-linecap:square;stroke-width:1.5;"/>
   </g>
   <g id="patch_3">
    <path d="M 96.334375 208.8 
L 96.334375 7.2 
" style="fill:none;stroke:#000000;stroke-linecap:square;stroke-linejoin:miter;stroke-width:0.8;"/>
   </g>
   <g id="patch_4">
    <path d="M 423.934375 208.8 
L 423.934375 7.2 
" style="fill:none;stroke:#000000;stroke-linecap:square;stroke-linejoin:miter;stroke-width:0.8;"/>
   </g>
   <g id="patch_5">
    <path d="M 96.334375 208.8 
L 423.934375 208.8 
" style="fill:none;stroke:#000000;stroke-linecap:square;stroke-linejoin:miter;stroke-width:0.8;"/>
   </g>
   <g id="patch_6">
    <path d="M 96.334375 7.2 
L 423.934375 7.2 
" style="fill:none;stroke:#000000;stroke-linecap:square;stroke-linejoin:miter;stroke-width:0.8;"/>
   </g>
   <g id="line2d_69">
    <path clip-path="url(#p975c4ff24d)" d="M 96.334375 -1 
L 96.334375 208.8 
" style="fill:none;stroke:#00bf00;stroke-linecap:square;stroke-width:1.5;"/>
   </g>
   <g id="line2d_70">
    <path clip-path="url(#p975c4ff24d)" d="M 96.334375 7.322927 
L 96.334375 17.157073 
" style="fill:none;stroke:#aa3377;stroke-linecap:square;stroke-width:4;"/>
   </g>
   <g id="text_27">
    <!-- 40.0 V  -->
    <g style="fill:#aa3377;" transform="translate(72.1177 17.157073)scale(0.0579 -0.0579)">
     <defs>
      <path d="M 10.6875 12.40625 
L 21 12.40625 
L 21 0 
L 10.6875 0 
z
" id="DejaVuSans-46"/>
      <path id="DejaVuSans-32"/>
      <path d="M 8.5 -20.796875 
L 8.5 54.6875 
L 17.484375 54.6875 
L 17.484375 20.703125 
Q 17.484375 13.625 20.84375 10 
Q 24.21875 6.390625 30.8125 6.390625 
Q 38.03125 6.390625 41.671875 10.484375 
Q 45.3125 14.59375 45.3125 22.796875 
L 45.3125 54.6875 
L 54.296875 54.6875 
L 54.296875 12.59375 
Q 54.296875 9.671875 55.140625 8.28125 
Q 56 6.890625 57.8125 6.890625 
Q 58.25 6.890625 59.03125 7.15625 
Q 59.8125 7.421875 61.1875 8.015625 
L 61.1875 0.78125 
Q 59.1875 -0.34375 57.390625 -0.875 
Q 55.609375 -1.421875 53.90625 -1.421875 
Q 50.53125 -1.421875 48.53125 0.484375 
Q 46.53125 2.390625 45.796875 6.296875 
Q 43.359375 2.4375 39.8125 0.5 
Q 36.28125 -1.421875 31.5 -1.421875 
Q 26.515625 -1.421875 23.015625 0.484375 
Q 19.53125 2.390625 17.484375 6.203125 
L 17.484375 -20.796875 
z
" id="DejaVuSans-181"/>
      <path d="M 28.609375 0 
L 0.78125 72.90625 
L 11.078125 72.90625 
L 34.1875 11.53125 
L 57.328125 72.90625 
L 67.578125 72.90625 
L 39.796875 0 
z
" id="DejaVuSans-86"/>
     </defs>
     <use xlink:href="#DejaVuSans-52"/>
     <use x="63.623047" xlink:href="#DejaVuSans-48"/>
     <use x="127.246094" xlink:href="#DejaVuSans-46"/>
     <use x="159.033203" xlink:href="#DejaVuSans-48"/>
     <use x="222.65625" xlink:href="#DejaVuSans-32"/>
     <use x="254.443359" xlink:href="#DejaVuSans-181"/>
     <use x="318.066406" xlink:href="#DejaVuSans-86"/>
     <use x="386.474609" xlink:href="#DejaVuSans-32"/>
    </g>
   </g>
  </g>
  <g id="axes_2">
   <g id="patch_7">
    <path d="M 96.334375 244.8 
L 423.934375 244.8 
L 423.934375 226.8 
L 96.334375 226.8 
z
" style="fill:#ffffff;"/>
   </g>
   <g id="patch_8">
    <path d="M 96.334375 244.8 
L 128.452022 244.8 
L 128.452022 226.8 
L 96.334375 226.8 
z
" style="fill:#bfbfbf;opacity:0.25;stroke:#000000;stroke-linejoin:miter;stroke-width:4;"/>
   </g>
   <g id="matplotlib.axis_3">
    <g id="xtick_7">
     <g id="line2d_71">
      <g>
       <use style="stroke:#000000;stroke-width:0.8;" x="96.334375" xlink:href="#ma0aa6d226a" y="244.8"/>
      </g>
     </g>
     <g id="text_28">
      <!-- 0 -->
      <g transform="translate(93.153125 259.398438)scale(0.1 -0.1)">
       <use xlink:href="#DejaVuSans-48"/>
      </g>
     </g>
    </g>
    <g id="xtick_8">
     <g id="line2d_72">
      <g>
       <use style="stroke:#000000;stroke-width:0.8;" x="160.569669" xlink:href="#ma0aa6d226a" y="244.8"/>
      </g>
     </g>
     <g id="text_29">
      <!-- 20 -->
      <g transform="translate(154.207169 259.398438)scale(0.1 -0.1)">
       <use xlink:href="#DejaVuSans-50"/>
       <use x="63.623047" xlink:href="#DejaVuSans-48"/>
      </g>
     </g>
    </g>
    <g id="xtick_9">
     <g id="line2d_73">
      <g>
       <use style="stroke:#000000;stroke-width:0.8;" x="224.804963" xlink:href="#ma0aa6d226a" y="244.8"/>
      </g>
     </g>
     <g id="text_30">
      <!-- 40 -->
      <g transform="translate(218.442463 259.398438)scale(0.1 -0.1)">
       <use xlink:href="#DejaVuSans-52"/>
       <use x="63.623047" xlink:href="#DejaVuSans-48"/>
      </g>
     </g>
    </g>
    <g id="xtick_10">
     <g id="line2d_74">
      <g>
       <use style="stroke:#000000;stroke-width:0.8;" x="289.040257" xlink:href="#ma0aa6d226a" y="244.8"/>
      </g>
     </g>
     <g id="text_31">
      <!-- 60 -->
      <g transform="translate(282.677757 259.398438)scale(0.1 -0.1)">
       <use xlink:href="#DejaVuSans-54"/>
       <use x="63.623047" xlink:href="#DejaVuSans-48"/>
      </g>
     </g>
    </g>
    <g id="xtick_11">
     <g id="line2d_75">
      <g>
       <use style="stroke:#000000;stroke-width:0.8;" x="353.275551" xlink:href="#ma0aa6d226a" y="244.8"/>
      </g>
     </g>
     <g id="text_32">
      <!-- 80 -->
      <g transform="translate(346.913051 259.398438)scale(0.1 -0.1)">
       <use xlink:href="#DejaVuSans-56"/>
       <use x="63.623047" xlink:href="#DejaVuSans-48"/>
      </g>
     </g>
    </g>
    <g id="xtick_12">
     <g id="line2d_76">
      <g>
       <use style="stroke:#000000;stroke-width:0.8;" x="417.510846" xlink:href="#ma0aa6d226a" y="244.8"/>
      </g>
     </g>
     <g id="text_33">
      <!-- 100 -->
      <g transform="translate(407.967096 259.398438)scale(0.1 -0.1)">
       <use xlink:href="#DejaVuSans-49"/>
       <use x="63.623047" xlink:href="#DejaVuSans-48"/>
       <use x="127.246094" xlink:href="#DejaVuSans-48"/>
      </g>
     </g>
    </g>
    <g id="text_34">
     <!-- Time (s) -->
     <g transform="translate(239.805469 273.076562)scale(0.1 -0.1)">
      <defs>
       <path d="M 9.421875 54.6875 
L 18.40625 54.6875 
L 18.40625 0 
L 9.421875 0 
z
M 9.421875 75.984375 
L 18.40625 75.984375 
L 18.40625 64.59375 
L 9.421875 64.59375 
z
" id="DejaVuSans-105"/>
       <path d="M 56.203125 29.59375 
L 56.203125 25.203125 
L 14.890625 25.203125 
Q 15.484375 15.921875 20.484375 11.0625 
Q 25.484375 6.203125 34.421875 6.203125 
Q 39.59375 6.203125 44.453125 7.46875 
Q 49.3125 8.734375 54.109375 11.28125 
L 54.109375 2.78125 
Q 49.265625 0.734375 44.1875 -0.34375 
Q 39.109375 -1.421875 33.890625 -1.421875 
Q 20.796875 -1.421875 13.15625 6.1875 
Q 5.515625 13.8125 5.515625 26.8125 
Q 5.515625 40.234375 12.765625 48.109375 
Q 20.015625 56 32.328125 56 
Q 43.359375 56 49.78125 48.890625 
Q 56.203125 41.796875 56.203125 29.59375 
z
M 47.21875 32.234375 
Q 47.125 39.59375 43.09375 43.984375 
Q 39.0625 48.390625 32.421875 48.390625 
Q 24.90625 48.390625 20.390625 44.140625 
Q 15.875 39.890625 15.1875 32.171875 
z
" id="DejaVuSans-101"/>
       <path d="M 31 75.875 
Q 24.46875 64.65625 21.28125 53.65625 
Q 18.109375 42.671875 18.109375 31.390625 
Q 18.109375 20.125 21.3125 9.0625 
Q 24.515625 -2 31 -13.1875 
L 23.1875 -13.1875 
Q 15.875 -1.703125 12.234375 9.375 
Q 8.59375 20.453125 8.59375 31.390625 
Q 8.59375 42.28125 12.203125 53.3125 
Q 15.828125 64.359375 23.1875 75.875 
z
" id="DejaVuSans-40"/>
       <path d="M 8.015625 75.875 
L 15.828125 75.875 
Q 23.140625 64.359375 26.78125 53.3125 
Q 30.421875 42.28125 30.421875 31.390625 
Q 30.421875 20.453125 26.78125 9.375 
Q 23.140625 -1.703125 15.828125 -13.1875 
L 8.015625 -13.1875 
Q 14.5 -2 17.703125 9.0625 
Q 20.90625 20.125 20.90625 31.390625 
Q 20.90625 42.671875 17.703125 53.65625 
Q 14.5 64.65625 8.015625 75.875 
z
" id="DejaVuSans-41"/>
      </defs>
      <use xlink:href="#DejaVuSans-84"/>
      <use x="57.958984" xlink:href="#DejaVuSans-105"/>
      <use x="85.742188" xlink:href="#DejaVuSans-109"/>
      <use x="183.154297" xlink:href="#DejaVuSans-101"/>
      <use x="244.677734" xlink:href="#DejaVuSans-32"/>
      <use x="276.464844" xlink:href="#DejaVuSans-40"/>
      <use x="315.478516" xlink:href="#DejaVuSans-115"/>
      <use x="367.578125" xlink:href="#DejaVuSans-41"/>
     </g>
    </g>
   </g>
   <g id="line2d_77">
    <path clip-path="url(#p504df1e97f)" d="M 96.334375 244.8 
L 96.334375 226.8 
" style="fill:none;stroke:#00bf00;stroke-linecap:square;stroke-width:1.5;"/>
   </g>
   <g id="patch_9">
    <path d="M 96.334375 244.8 
L 96.334375 226.8 
" style="fill:none;stroke:#000000;stroke-linecap:square;stroke-linejoin:miter;stroke-width:0.8;"/>
   </g>
   <g id="patch_10">
    <path d="M 423.934375 244.8 
L 423.934375 226.8 
" style="fill:none;stroke:#000000;stroke-linecap:square;stroke-linejoin:miter;stroke-width:0.8;"/>
   </g>
   <g id="patch_11">
    <path d="M 96.334375 244.8 
L 423.934375 244.8 
" style="fill:none;stroke:#000000;stroke-linecap:square;stroke-linejoin:miter;stroke-width:0.8;"/>
   </g>
   <g id="patch_12">
    <path d="M 96.334375 226.8 
L 423.934375 226.8 
" style="fill:none;stroke:#000000;stroke-linecap:square;stroke-linejoin:miter;stroke-width:0.8;"/>
   </g>
  </g>
  <g id="axes_3">
   <g id="patch_13">
    <path clip-path="url(#p823c7303d0)" d="M 431.134375 7.2 
L 449.134375 7.2 
L 449.134375 12.117073 
L 431.134375 12.117073 
z
" style="stroke:#000000;stroke-linejoin:miter;"/>
   </g>
   <g id="patch_14">
    <path clip-path="url(#p823c7303d0)" d="M 431.134375 12.117073 
L 449.134375 12.117073 
L 449.134375 17.034146 
L 431.134375 17.034146 
z
" style="stroke:#000000;stroke-linejoin:miter;"/>
   </g>
   <g id="patch_15">
    <path clip-path="url(#p823c7303d0)" d="M 431.134375 17.034146 
L 449.134375 17.034146 
L 449.134375 21.95122 
L 431.134375 21.95122 
z
" style="stroke:#000000;stroke-linejoin:miter;"/>
   </g>
   <g id="patch_16">
    <path clip-path="url(#p823c7303d0)" d="M 431.134375 21.95122 
L 449.134375 21.95122 
L 449.134375 26.868293 
L 431.134375 26.868293 
z
" style="stroke:#000000;stroke-linejoin:miter;"/>
   </g>
   <g id="patch_17">
    <path clip-path="url(#p823c7303d0)" d="M 431.134375 26.868293 
L 449.134375 26.868293 
L 449.134375 31.785366 
L 431.134375 31.785366 
z
" style="stroke:#000000;stroke-linejoin:miter;"/>
   </g>
   <g id="patch_18">
    <path clip-path="url(#p823c7303d0)" d="M 431.134375 31.785366 
L 449.134375 31.785366 
L 449.134375 36.702439 
L 431.134375 36.702439 
z
" style="stroke:#000000;stroke-linejoin:miter;"/>
   </g>
   <g id="patch_19">
    <path clip-path="url(#p823c7303d0)" d="M 431.134375 36.702439 
L 449.134375 36.702439 
L 449.134375 41.619512 
L 431.134375 41.619512 
z
" style="stroke:#000000;stroke-linejoin:miter;"/>
   </g>
   <g id="patch_20">
    <path clip-path="url(#p823c7303d0)" d="M 431.134375 41.619512 
L 449.134375 41.619512 
L 449.134375 46.536585 
L 431.134375 46.536585 
z
" style="stroke:#000000;stroke-linejoin:miter;"/>
   </g>
   <g id="patch_21">
    <path clip-path="url(#p823c7303d0)" d="M 431.134375 46.536585 
L 449.134375 46.536585 
L 449.134375 51.453659 
L 431.134375 51.453659 
z
" style="stroke:#000000;stroke-linejoin:miter;"/>
   </g>
   <g id="patch_22">
    <path clip-path="url(#p823c7303d0)" d="M 431.134375 51.453659 
L 449.134375 51.453659 
L 449.134375 56.370732 
L 431.134375 56.370732 
z
" style="stroke:#000000;stroke-linejoin:miter;"/>
   </g>
   <g id="patch_23">
    <path clip-path="url(#p823c7303d0)" d="M 431.134375 56.370732 
L 449.134375 56.370732 
L 449.134375 61.287805 
L 431.134375 61.287805 
z
" style="stroke:#000000;stroke-linejoin:miter;"/>
   </g>
   <g id="patch_24">
    <path clip-path="url(#p823c7303d0)" d="M 431.134375 61.287805 
L 449.134375 61.287805 
L 449.134375 66.204878 
L 431.134375 66.204878 
z
" style="stroke:#000000;stroke-linejoin:miter;"/>
   </g>
   <g id="patch_25">
    <path clip-path="url(#p823c7303d0)" d="M 431.134375 66.204878 
L 449.134375 66.204878 
L 449.134375 71.121951 
L 431.134375 71.121951 
z
" style="stroke:#000000;stroke-linejoin:miter;"/>
   </g>
   <g id="patch_26">
    <path clip-path="url(#p823c7303d0)" d="M 431.134375 71.121951 
L 449.134375 71.121951 
L 449.134375 76.039024 
L 431.134375 76.039024 
z
" style="stroke:#000000;stroke-linejoin:miter;"/>
   </g>
   <g id="patch_27">
    <path clip-path="url(#p823c7303d0)" d="M 431.134375 76.039024 
L 449.134375 76.039024 
L 449.134375 80.956098 
L 431.134375 80.956098 
z
" style="stroke:#000000;stroke-linejoin:miter;"/>
   </g>
   <g id="patch_28">
    <path clip-path="url(#p823c7303d0)" d="M 431.134375 80.956098 
L 449.134375 80.956098 
L 449.134375 85.873171 
L 431.134375 85.873171 
z
" style="stroke:#000000;stroke-linejoin:miter;"/>
   </g>
   <g id="patch_29">
    <path clip-path="url(#p823c7303d0)" d="M 431.134375 85.873171 
L 449.134375 85.873171 
L 449.134375 90.790244 
L 431.134375 90.790244 
z
" style="stroke:#000000;stroke-linejoin:miter;"/>
   </g>
   <g id="patch_30">
    <path clip-path="url(#p823c7303d0)" d="M 431.134375 90.790244 
L 449.134375 90.790244 
L 449.134375 95.707317 
L 431.134375 95.707317 
z
" style="stroke:#000000;stroke-linejoin:miter;"/>
   </g>
   <g id="patch_31">
    <path clip-path="url(#p823c7303d0)" d="M 431.134375 95.707317 
L 449.134375 95.707317 
L 449.134375 100.62439 
L 431.134375 100.62439 
z
" style="stroke:#000000;stroke-linejoin:miter;"/>
   </g>
   <g id="patch_32">
    <path clip-path="url(#p823c7303d0)" d="M 431.134375 100.62439 
L 449.134375 100.62439 
L 449.134375 105.541463 
L 431.134375 105.541463 
z
" style="stroke:#000000;stroke-linejoin:miter;"/>
   </g>
   <g id="patch_33">
    <path clip-path="url(#p823c7303d0)" d="M 431.134375 105.541463 
L 449.134375 105.541463 
L 449.134375 110.458537 
L 431.134375 110.458537 
z
" style="stroke:#000000;stroke-linejoin:miter;"/>
   </g>
   <g id="patch_34">
    <path clip-path="url(#p823c7303d0)" d="M 431.134375 110.458537 
L 449.134375 110.458537 
L 449.134375 115.37561 
L 431.134375 115.37561 
z
" style="stroke:#000000;stroke-linejoin:miter;"/>
   </g>
   <g id="patch_35">
    <path clip-path="url(#p823c7303d0)" d="M 431.134375 115.37561 
L 449.134375 115.37561 
L 449.134375 120.292683 
L 431.134375 120.292683 
z
" style="stroke:#000000;stroke-linejoin:miter;"/>
   </g>
   <g id="patch_36">
    <path clip-path="url(#p823c7303d0)" d="M 431.134375 120.292683 
L 449.134375 120.292683 
L 449.134375 125.209756 
L 431.134375 125.209756 
z
" style="stroke:#000000;stroke-linejoin:miter;"/>
   </g>
   <g id="patch_37">
    <path clip-path="url(#p823c7303d0)" d="M 431.134375 125.209756 
L 449.134375 125.209756 
L 449.134375 130.126829 
L 431.134375 130.126829 
z
" style="stroke:#000000;stroke-linejoin:miter;"/>
   </g>
   <g id="patch_38">
    <path clip-path="url(#p823c7303d0)" d="M 431.134375 130.126829 
L 449.134375 130.126829 
L 449.134375 135.043902 
L 431.134375 135.043902 
z
" style="stroke:#000000;stroke-linejoin:miter;"/>
   </g>
   <g id="patch_39">
    <path clip-path="url(#p823c7303d0)" d="M 431.134375 135.043902 
L 449.134375 135.043902 
L 449.134375 139.960976 
L 431.134375 139.960976 
z
" style="stroke:#000000;stroke-linejoin:miter;"/>
   </g>
   <g id="patch_40">
    <path clip-path="url(#p823c7303d0)" d="M 431.134375 139.960976 
L 449.134375 139.960976 
L 449.134375 144.878049 
L 431.134375 144.878049 
z
" style="stroke:#000000;stroke-linejoin:miter;"/>
   </g>
   <g id="patch_41">
    <path clip-path="url(#p823c7303d0)" d="M 431.134375 144.878049 
L 449.134375 144.878049 
L 449.134375 149.795122 
L 431.134375 149.795122 
z
" style="stroke:#000000;stroke-linejoin:miter;"/>
   </g>
   <g id="patch_42">
    <path clip-path="url(#p823c7303d0)" d="M 431.134375 149.795122 
L 449.134375 149.795122 
L 449.134375 154.712195 
L 431.134375 154.712195 
z
" style="stroke:#000000;stroke-linejoin:miter;"/>
   </g>
   <g id="patch_43">
    <path clip-path="url(#p823c7303d0)" d="M 431.134375 154.712195 
L 449.134375 154.712195 
L 449.134375 159.629268 
L 431.134375 159.629268 
z
" style="stroke:#000000;stroke-linejoin:miter;"/>
   </g>
   <g id="patch_44">
    <path clip-path="url(#p823c7303d0)" d="M 431.134375 159.629268 
L 449.134375 159.629268 
L 449.134375 164.546341 
L 431.134375 164.546341 
z
" style="stroke:#000000;stroke-linejoin:miter;"/>
   </g>
   <g id="patch_45">
    <path clip-path="url(#p823c7303d0)" d="M 431.134375 164.546341 
L 449.134375 164.546341 
L 449.134375 169.463415 
L 431.134375 169.463415 
z
" style="stroke:#000000;stroke-linejoin:miter;"/>
   </g>
   <g id="patch_46">
    <path clip-path="url(#p823c7303d0)" d="M 431.134375 169.463415 
L 449.134375 169.463415 
L 449.134375 174.380488 
L 431.134375 174.380488 
z
" style="stroke:#000000;stroke-linejoin:miter;"/>
   </g>
   <g id="patch_47">
    <path clip-path="url(#p823c7303d0)" d="M 431.134375 174.380488 
L 449.134375 174.380488 
L 449.134375 179.297561 
L 431.134375 179.297561 
z
" style="stroke:#000000;stroke-linejoin:miter;"/>
   </g>
   <g id="patch_48">
    <path clip-path="url(#p823c7303d0)" d="M 431.134375 179.297561 
L 449.134375 179.297561 
L 449.134375 184.214634 
L 431.134375 184.214634 
z
" style="stroke:#000000;stroke-linejoin:miter;"/>
   </g>
   <g id="patch_49">
    <path clip-path="url(#p823c7303d0)" d="M 431.134375 184.214634 
L 449.134375 184.214634 
L 449.134375 189.131707 
L 431.134375 189.131707 
z
" style="stroke:#000000;stroke-linejoin:miter;"/>
   </g>
   <g id="patch_50">
    <path clip-path="url(#p823c7303d0)" d="M 431.134375 189.131707 
L 449.134375 189.131707 
L 449.134375 194.04878 
L 431.134375 194.04878 
z
" style="stroke:#000000;stroke-linejoin:miter;"/>
   </g>
   <g id="patch_51">
    <path clip-path="url(#p823c7303d0)" d="M 431.134375 194.04878 
L 449.134375 194.04878 
L 449.134375 198.965854 
L 431.134375 198.965854 
z
" style="stroke:#000000;stroke-linejoin:miter;"/>
   </g>
   <g id="patch_52">
    <path clip-path="url(#p823c7303d0)" d="M 431.134375 198.965854 
L 449.134375 198.965854 
L 449.134375 203.882927 
L 431.134375 203.882927 
z
" style="stroke:#000000;stroke-linejoin:miter;"/>
   </g>
   <g id="patch_53">
    <path clip-path="url(#p823c7303d0)" d="M 431.134375 203.882927 
L 449.134375 203.882927 
L 449.134375 208.8 
L 431.134375 208.8 
z
" style="stroke:#000000;stroke-linejoin:miter;"/>
   </g>
   <g id="patch_54">
    <path clip-path="url(#p823c7303d0)" d="M 431.134375 7.2 
L 449.134375 7.2 
L 449.134375 105.541463 
L 431.134375 105.541463 
z
" style="fill:#ffffff;opacity:0.5;stroke:#ffffff;stroke-linejoin:miter;"/>
   </g>
  </g>
  <g id="axes_4">
   <g id="patch_55">
    <path d="M 53.134375 244.8 
L 89.134375 244.8 
L 89.134375 226.8 
L 53.134375 226.8 
z
" style="fill:#d9d9d9;"/>
   </g>
   <g id="matplotlib.axis_4"/>
   <g id="matplotlib.axis_5"/>
   <g id="patch_56">
    <path d="M 53.134375 244.8 
L 53.134375 226.8 
" style="fill:none;stroke:#000000;stroke-linecap:square;stroke-linejoin:miter;stroke-width:0.8;"/>
   </g>
   <g id="patch_57">
    <path d="M 89.134375 244.8 
L 89.134375 226.8 
" style="fill:none;stroke:#000000;stroke-linecap:square;stroke-linejoin:miter;stroke-width:0.8;"/>
   </g>
   <g id="patch_58">
    <path d="M 53.134375 244.8 
L 89.134375 244.8 
" style="fill:none;stroke:#000000;stroke-linecap:square;stroke-linejoin:miter;stroke-width:0.8;"/>
   </g>
   <g id="patch_59">
    <path d="M 53.134375 226.8 
L 89.134375 226.8 
" style="fill:none;stroke:#000000;stroke-linecap:square;stroke-linejoin:miter;stroke-width:0.8;"/>
   </g>
   <g id="text_35">
    <!-- Help -->
    <g transform="translate(59.734375 238.559375)scale(0.1 -0.1)">
     <defs>
      <path d="M 9.8125 72.90625 
L 19.671875 72.90625 
L 19.671875 43.015625 
L 55.515625 43.015625 
L 55.515625 72.90625 
L 65.375 72.90625 
L 65.375 0 
L 55.515625 0 
L 55.515625 34.71875 
L 19.671875 34.71875 
L 19.671875 0 
L 9.8125 0 
z
" id="DejaVuSans-72"/>
      <path d="M 9.421875 75.984375 
L 18.40625 75.984375 
L 18.40625 0 
L 9.421875 0 
z
" id="DejaVuSans-108"/>
      <path d="M 18.109375 8.203125 
L 18.109375 -20.796875 
L 9.078125 -20.796875 
L 9.078125 54.6875 
L 18.109375 54.6875 
L 18.109375 46.390625 
Q 20.953125 51.265625 25.265625 53.625 
Q 29.59375 56 35.59375 56 
Q 45.5625 56 51.78125 48.09375 
Q 58.015625 40.1875 58.015625 27.296875 
Q 58.015625 14.40625 51.78125 6.484375 
Q 45.5625 -1.421875 35.59375 -1.421875 
Q 29.59375 -1.421875 25.265625 0.953125 
Q 20.953125 3.328125 18.109375 8.203125 
z
M 48.6875 27.296875 
Q 48.6875 37.203125 44.609375 42.84375 
Q 40.53125 48.484375 33.40625 48.484375 
Q 26.265625 48.484375 22.1875 42.84375 
Q 18.109375 37.203125 18.109375 27.296875 
Q 18.109375 17.390625 22.1875 11.75 
Q 26.265625 6.109375 33.40625 6.109375 
Q 40.53125 6.109375 44.609375 11.75 
Q 48.6875 17.390625 48.6875 27.296875 
z
" id="DejaVuSans-112"/>
     </defs>
     <use xlink:href="#DejaVuSans-72"/>
     <use x="75.195312" xlink:href="#DejaVuSans-101"/>
     <use x="136.71875" xlink:href="#DejaVuSans-108"/>
     <use x="164.501953" xlink:href="#DejaVuSans-112"/>
    </g>
   </g>
  </g>
 </g>
 <defs>
  <clipPath id="p58fce696f4">
   <rect height="29.502439" width="322.48125" x="96.334375" y="7.2"/>
  </clipPath>
  <clipPath id="p9023f84b60">
   <rect height="29.502439" width="322.48125" x="96.334375" y="7.56878"/>
  </clipPath>
  <clipPath id="pf13f79d313">
   <rect height="29.502439" width="322.48125" x="96.334375" y="17.64878"/>
  </clipPath>
  <clipPath id="pc4cf7ef695">
   <rect height="29.502439" width="322.48125" x="96.334375" y="27.72878"/>
  </clipPath>
  <clipPath id="p2b34aa4d79">
   <rect height="29.502439" width="322.48125" x="96.334375" y="37.80878"/>
  </clipPath>
  <clipPath id="p2a9ce2c475">
   <rect height="29.502439" width="322.48125" x="96.334375" y="47.88878"/>
  </clipPath>
  <clipPath id="pc64a9299b6">
   <rect height="29.502439" width="322.48125" x="96.334375" y="57.96878"/>
  </clipPath>
  <clipPath id="pbf9fd28328">
   <rect height="29.502439" width="322.48125" x="96.334375" y="68.04878"/>
  </clipPath>
  <clipPath id="p326e48bbad">
   <rect height="29.502439" width="322.48125" x="96.334375" y="78.12878"/>
  </clipPath>
  <clipPath id="pdf494c1aad">
   <rect height="29.502439" width="322.48125" x="96.334375" y="88.20878"/>
  </clipPath>
  <clipPath id="p8b2711771b">
   <rect height="29.502439" width="322.48125" x="96.334375" y="98.28878"/>
  </clipPath>
  <clipPath id="p97910de321">
   <rect height="29.502439" width="322.48125" x="96.334375" y="108.36878"/>
  </clipPath>
  <clipPath id="p3e889bef34">
   <rect height="29.502439" width="322.48125" x="96.334375" y="118.44878"/>
  </clipPath>
  <clipPath id="p3ac3546c50">
   <rect height="29.502439" width="322.48125" x="96.334375" y="128.52878"/>
  </clipPath>
  <clipPath id="p9f35562549">
   <rect height="29.502439" width="322.48125" x="96.334375" y="138.60878"/>
  </clipPath>
  <clipPath id="pe66832c4f1">
   <rect height="29.502439" width="322.48125" x="96.334375" y="148.68878"/>
  </clipPath>
  <clipPath id="p85a0d899f8">
   <rect height="29.502439" width="322.48125" x="96.334375" y="158.76878"/>
  </clipPath>
  <clipPath id="pcc92c77c12">
   <rect height="29.502439" width="322.48125" x="96.334375" y="168.84878"/>
  </clipPath>
  <clipPath id="p72b585014d">
   <rect height="29.502439" width="322.48125" x="96.334375" y="178.92878"/>
  </clipPath>
  <clipPath id="p50c0bb4e9a">
   <rect height="19.79122" width="322.48125" x="96.334375" y="189.00878"/>
  </clipPath>
  <clipPath id="p975c4ff24d">
   <rect height="201.6" width="327.6" x="96.334375" y="7.2"/>
  </clipPath>
  <clipPath id="p504df1e97f">
   <rect height="18" width="327.6" x="96.334375" y="226.8"/>
  </clipPath>
  <clipPath id="p823c7303d0">
   <rect height="201.6" width="18" x="431.134375" y="7.2"/>
  </clipPath>
 </defs>
</svg>
