<?xml version="1.0" encoding="utf-8" standalone="no"?>
<!DOCTYPE svg PUBLIC "-//W3C//DTD SVG 1.1//EN"
  "http://www.w3.org/Graphics/SVG/1.1/DTD/svg11.dtd">
<!-- Created with matplotlib (https://matplotlib.org/) -->
<svg height="290.446395pt" version="1.1" viewBox="0 0 456.334375 290.446395" width="456.334375pt" xmlns="http://www.w3.org/2000/svg" xmlns:xlink="http://www.w3.org/1999/xlink">
 <metadata>
  <rdf:RDF xmlns:cc="http://creativecommons.org/ns#" xmlns:dc="http://purl.org/dc/elements/1.1/" xmlns:rdf="http://www.w3.org/1999/02/22-rdf-syntax-ns#">
   <cc:Work>
    <dc:type rdf:resource="http://purl.org/dc/dcmitype/StillImage"/>
    <dc:date>2020-12-13T14:25:23.080276</dc:date>
    <dc:format>image/svg+xml</dc:format>
    <dc:creator>
     <cc:Agent>
      <dc:title>Matplotlib v3.3.2, https://matplotlib.org/</dc:title>
     </cc:Agent>
    </dc:creator>
   </cc:Work>
  </rdf:RDF>
 </metadata>
 <defs>
  <style type="text/css">*{stroke-linecap:butt;stroke-linejoin:round;}</style>
 </defs>
 <g id="figure_1">
  <g id="patch_1">
   <path d="M 0 290.446395 
L 456.334375 290.446395 
L 456.334375 0 
L 0 0 
z
" style="fill:#ffffff;"/>
  </g>
  <g id="axes_1">
   <g id="patch_2">
    <path d="M 96.334375 216.890145 
L 423.934375 216.890145 
L 423.934375 15.290145 
L 96.334375 15.290145 
z
" style="fill:#ffffff;"/>
   </g>
   <g id="PolyCollection_1">
    <defs>
     <path d="M 205.534375 -73.55625 
L 150.934375 -73.55625 
L 150.934375 -275.15625 
L 205.534375 -275.15625 
L 205.534375 -275.15625 
L 205.534375 -73.55625 
z
" id="me18a8076bb" style="stroke:#1f77b4;stroke-opacity:0.3;"/>
    </defs>
    <g clip-path="url(#pab6b5ec860)">
     <use style="fill:#1f77b4;fill-opacity:0.3;stroke:#1f77b4;stroke-opacity:0.3;" x="0" xlink:href="#me18a8076bb" y="290.446395"/>
    </g>
   </g>
   <g id="PolyCollection_2">
    <defs>
     <path d="M 232.834375 -73.55625 
L 191.884375 -73.55625 
L 191.884375 -275.15625 
L 232.834375 -275.15625 
L 232.834375 -275.15625 
L 232.834375 -73.55625 
z
" id="m4557c0eb93" style="stroke:#1f77b4;stroke-opacity:0.3;"/>
    </defs>
    <g clip-path="url(#pab6b5ec860)">
     <use style="fill:#1f77b4;fill-opacity:0.3;stroke:#1f77b4;stroke-opacity:0.3;" x="0" xlink:href="#m4557c0eb93" y="290.446395"/>
    </g>
   </g>
   <g id="PolyCollection_3">
    <defs>
     <path d="M 287.434375 -73.55625 
L 260.134375 -73.55625 
L 260.134375 -275.15625 
L 287.434375 -275.15625 
L 287.434375 -275.15625 
L 287.434375 -73.55625 
z
" id="mb8b37882ed" style="stroke:#ff7f0e;stroke-opacity:0.3;"/>
    </defs>
    <g clip-path="url(#pab6b5ec860)">
     <use style="fill:#ff7f0e;fill-opacity:0.3;stroke:#ff7f0e;stroke-opacity:0.3;" x="0" xlink:href="#mb8b37882ed" y="290.446395"/>
    </g>
   </g>
   <g id="PolyCollection_4">
    <defs>
     <path d="M 382.984375 -73.55625 
L 369.334375 -73.55625 
L 369.334375 -275.15625 
L 382.984375 -275.15625 
L 382.984375 -275.15625 
L 382.984375 -73.55625 
z
" id="m6492f28f50" style="stroke:#2ca02c;stroke-opacity:0.3;"/>
    </defs>
    <g clip-path="url(#pab6b5ec860)">
     <use style="fill:#2ca02c;fill-opacity:0.3;stroke:#2ca02c;stroke-opacity:0.3;" x="0" xlink:href="#m6492f28f50" y="290.446395"/>
    </g>
   </g>
   <g id="line2d_1">
    <path clip-path="url(#p95020ee374)" d="M 96.334375 20.335954 
L 104.865625 20.247316 
L 113.396875 20.311039 
L 121.928125 20.343498 
L 130.459375 20.371185 
L 138.990625 20.435684 
L 147.521875 20.389873 
L 156.053125 20.244606 
L 164.584375 20.281213 
L 173.115625 20.327861 
L 181.646875 20.352362 
L 190.178125 20.403855 
L 198.709375 20.426046 
L 207.240625 20.272662 
L 215.771875 20.248396 
L 224.303125 20.309931 
L 232.834375 20.337146 
L 241.365625 20.371352 
L 249.896875 20.433216 
L 258.428125 20.334622 
L 266.959375 20.226419 
L 275.490625 20.285961 
L 284.021875 20.321813 
L 292.553125 20.348579 
L 301.084375 20.408385 
L 309.615625 20.394408 
L 318.146875 20.238698 
L 326.678125 20.252666 
L 335.209375 20.306575 
L 343.740625 20.331244 
L 352.271875 20.375551 
L 360.803125 20.41834 
L 369.334375 20.278689 
L 377.865625 20.222251 
L 386.396875 20.286985 
L 394.928125 20.316337 
L 403.459375 20.346668 
L 411.990625 20.411581 
L 420.521875 20.344285 
" style="fill:none;stroke:#000000;stroke-linecap:square;stroke-width:0.5;"/>
   </g>
   <g id="line2d_2">
    <path clip-path="url(#p774bdd0660)" d="M 96.334375 26.879964 
L 104.865625 115.284532 
L 113.396875 51.329936 
L 121.928125 18.627649 
L 127.923565 -1 
M 149.137434 -1 
L 156.053125 116.57525 
L 164.584375 79.756774 
L 173.115625 32.916346 
L 181.646875 8.284055 
L 183.180208 -1 
M 202.310844 -1 
L 207.240625 87.529532 
L 215.771875 111.795929 
L 224.303125 50.193708 
L 232.834375 22.946728 
L 238.799464 -1 
M 256.147756 -1 
L 258.428125 25.366951 
L 266.959375 133.533166 
L 275.490625 74.034159 
L 284.021875 38.193683 
L 292.553125 11.455401 
L 294.328926 -1 
M 311.446132 -1 
L 318.146875 121.300219 
L 326.678125 107.306801 
L 335.209375 53.543494 
L 343.740625 28.906177 
L 349.501167 -1 
M 364.301883 -1 
L 369.334375 81.307779 
L 377.865625 137.590576 
L 386.396875 72.960326 
L 394.928125 43.911494 
L 403.459375 13.849177 
L 405.419446 -1 
M 418.275731 -1 
L 420.521875 16.790935 
" style="fill:none;stroke:#000000;stroke-linecap:square;stroke-width:0.5;"/>
   </g>
   <g id="line2d_3">
    <path clip-path="url(#p98c93d1098)" d="M 96.334375 29.140045 
L 104.865625 45.97726 
L 113.396875 54.406021 
L 121.928125 45.915551 
L 130.459375 41.85097 
L 138.990625 37.912046 
L 147.521875 29.441832 
L 156.053125 36.480195 
L 164.584375 54.165862 
L 173.115625 48.498417 
L 181.646875 42.691098 
L 190.178125 39.202973 
L 198.709375 32.49192 
L 207.240625 29.44263 
L 215.771875 48.887063 
L 224.303125 51.804744 
L 232.834375 43.74192 
L 241.365625 40.072908 
L 249.896875 35.509751 
L 258.428125 27.404696 
L 266.959375 39.836021 
L 275.490625 53.499121 
L 284.021875 45.692864 
L 292.553125 40.920553 
L 301.084375 37.311701 
L 309.615625 29.473678 
L 318.146875 31.076233 
L 326.678125 50.825008 
L 335.209375 48.83207 
L 343.740625 41.82087 
L 352.271875 38.31957 
L 360.803125 32.79934 
L 369.334375 26.452396 
L 377.865625 43.294193 
L 386.396875 51.727685 
L 394.928125 43.242097 
L 403.459375 39.182547 
L 411.990625 35.248803 
L 420.521875 26.783916 
" style="fill:none;stroke:#000000;stroke-linecap:square;stroke-width:0.5;"/>
   </g>
   <g id="line2d_4">
    <path clip-path="url(#p64ec9a4e73)" d="M 96.334375 50.571876 
L 104.865625 50.571886 
L 113.396875 50.571896 
L 121.928125 50.571907 
L 130.459375 50.571917 
L 138.990625 50.571927 
L 147.521875 50.571937 
L 156.053125 50.571942 
L 164.584375 50.571952 
L 173.115625 50.571962 
L 181.646875 50.571972 
L 190.178125 50.571983 
L 198.709375 50.571993 
L 207.240625 50.572003 
L 215.771875 50.572013 
L 224.303125 50.572023 
L 232.834375 50.572033 
L 241.365625 50.572044 
L 249.896875 50.572054 
L 258.428125 50.572064 
L 266.959375 50.572069 
L 275.490625 50.572077 
L 284.021875 50.572088 
L 292.553125 50.572098 
L 301.084375 50.572105 
L 309.615625 50.572132 
L 318.146875 50.572066 
L 326.678125 50.57235 
L 335.209375 50.571376 
L 343.740625 50.573375 
L 352.271875 50.570631 
L 360.803125 50.572632 
L 369.334375 50.576906 
L 377.865625 50.511549 
L 386.396875 50.548166 
L 394.928125 50.582616 
L 403.459375 50.567013 
L 411.990625 50.5745 
L 420.521875 50.571405 
" style="fill:none;stroke:#000000;stroke-linecap:square;stroke-width:0.5;"/>
   </g>
   <g id="line2d_5">
    <path clip-path="url(#p0b98a4f4d1)" d="M 96.334375 62.769526 
L 104.865625 64.447454 
L 113.396875 65.470023 
L 121.928125 65.196757 
L 130.459375 61.550761 
L 138.990625 60.975472 
L 147.521875 57.88136 
L 156.053125 57.4045 
L 164.584375 57.63901 
L 173.115625 57.222842 
L 181.646875 60.293192 
L 190.178125 57.582387 
L 198.709375 57.823527 
L 207.240625 56.212275 
L 215.771875 60.673865 
L 224.303125 66.555283 
L 232.834375 47.87276 
L 241.365625 44.164776 
L 249.896875 56.638604 
L 258.428125 53.201985 
L 266.959375 62.418527 
L 275.490625 64.598353 
L 284.021875 64.360045 
L 292.553125 66.043978 
L 301.084375 64.76155 
L 309.615625 63.480264 
L 318.146875 64.99884 
L 326.678125 64.750491 
L 335.209375 65.654101 
L 343.740625 65.572725 
L 352.271875 59.2308 
L 360.803125 60.025339 
L 369.334375 62.31603 
L 377.865625 61.453325 
L 386.396875 62.177589 
L 394.928125 59.961037 
L 403.459375 58.244871 
L 411.990625 61.113941 
L 420.521875 64.135188 
" style="fill:none;stroke:#000000;stroke-linecap:square;stroke-width:0.5;"/>
   </g>
   <g id="line2d_6">
    <path clip-path="url(#pa957defe28)" d="M 96.334375 73.968014 
L 104.865625 76.813861 
L 113.396875 76.898883 
L 121.928125 74.061884 
L 130.459375 73.008379 
L 138.990625 72.727538 
L 147.521875 67.75179 
L 156.053125 66.978425 
L 164.584375 67.106637 
L 173.115625 64.642583 
L 181.646875 67.673049 
L 190.178125 68.335253 
L 198.709375 67.124992 
L 207.240625 63.988377 
L 215.771875 69.708995 
L 224.303125 72.306365 
L 232.834375 56.612149 
L 241.365625 56.515479 
L 249.896875 64.755208 
L 258.428125 61.725881 
L 266.959375 72.47517 
L 275.490625 76.844844 
L 284.021875 76.951489 
L 292.553125 77.392861 
L 301.084375 74.310233 
L 309.615625 72.557099 
L 318.146875 75.277974 
L 326.678125 74.723806 
L 335.209375 73.338177 
L 343.740625 74.333827 
L 352.271875 70.80535 
L 360.803125 72.42245 
L 369.334375 74.210205 
L 377.865625 71.907093 
L 386.396875 72.020713 
L 394.928125 70.135577 
L 403.459375 69.801665 
L 411.990625 71.898286 
L 420.521875 76.812491 
" style="fill:none;stroke:#000000;stroke-linecap:square;stroke-width:0.5;"/>
   </g>
   <g id="line2d_7">
    <path clip-path="url(#p6a7e5b5a51)" d="M 96.334375 84.187036 
L 104.865625 83.49264 
L 113.396875 84.026697 
L 121.928125 84.404709 
L 130.459375 81.155759 
L 138.990625 80.829011 
L 147.521875 80.7968 
L 156.053125 80.530437 
L 164.584375 79.371644 
L 173.115625 79.495084 
L 181.646875 82.190576 
L 190.178125 81.245391 
L 198.709375 79.957501 
L 207.240625 78.575135 
L 215.771875 79.887627 
L 224.303125 80.20447 
L 232.834375 77.428428 
L 241.365625 76.896506 
L 249.896875 75.541248 
L 258.428125 74.435211 
L 266.959375 79.150719 
L 275.490625 80.569301 
L 284.021875 81.177194 
L 292.553125 82.592286 
L 301.084375 82.839781 
L 309.615625 83.185525 
L 318.146875 83.371552 
L 326.678125 83.280252 
L 335.209375 83.155666 
L 343.740625 83.070221 
L 352.271875 80.578874 
L 360.803125 81.0181 
L 369.334375 81.165841 
L 377.865625 80.021524 
L 386.396875 81.449196 
L 394.928125 80.324919 
L 403.459375 79.429571 
L 411.990625 80.555084 
L 420.521875 81.729129 
" style="fill:none;stroke:#000000;stroke-linecap:square;stroke-width:0.5;"/>
   </g>
   <g id="line2d_8">
    <path clip-path="url(#p9b28c4ad79)" d="M 96.334375 93.903956 
L 104.865625 93.672286 
L 113.396875 93.353179 
L 121.928125 92.954578 
L 130.459375 91.490202 
L 138.990625 90.910208 
L 147.521875 86.147183 
L 156.053125 86.971396 
L 164.584375 87.144403 
L 173.115625 86.91724 
L 181.646875 89.868708 
L 190.178125 88.374368 
L 198.709375 87.087383 
L 207.240625 84.36289 
L 215.771875 89.001124 
L 224.303125 91.868635 
L 232.834375 83.800246 
L 241.365625 83.968997 
L 249.896875 83.783076 
L 258.428125 80.753855 
L 266.959375 92.705121 
L 275.490625 96.636833 
L 284.021875 96.347142 
L 292.553125 96.95819 
L 301.084375 96.402812 
L 309.615625 95.279169 
L 318.146875 95.769807 
L 326.678125 95.191299 
L 335.209375 94.212441 
L 343.740625 94.287322 
L 352.271875 90.10125 
L 360.803125 92.460062 
L 369.334375 94.005788 
L 377.865625 91.575074 
L 386.396875 91.162028 
L 394.928125 90.087162 
L 403.459375 90.251569 
L 411.990625 92.849333 
L 420.521875 94.019619 
" style="fill:none;stroke:#000000;stroke-linecap:square;stroke-width:0.5;"/>
   </g>
   <g id="line2d_9">
    <path clip-path="url(#p373983ff4a)" d="M 96.334375 105.321775 
L 104.865625 105.573181 
L 113.396875 106.157748 
L 121.928125 104.397895 
L 130.459375 103.436777 
L 138.990625 102.032479 
L 147.521875 96.764038 
L 156.053125 97.064336 
L 164.584375 97.441672 
L 173.115625 96.350293 
L 181.646875 101.847694 
L 190.178125 101.374229 
L 198.709375 96.96331 
L 207.240625 94.780782 
L 215.771875 100.046226 
L 224.303125 100.679059 
L 232.834375 94.909189 
L 241.365625 95.122314 
L 249.896875 90.010592 
L 258.428125 88.327035 
L 266.959375 98.947422 
L 275.490625 104.389676 
L 284.021875 105.363375 
L 292.553125 106.198154 
L 301.084375 105.895749 
L 309.615625 103.596655 
L 318.146875 105.90702 
L 326.678125 105.590488 
L 335.209375 101.592115 
L 343.740625 103.590105 
L 352.271875 101.6617 
L 360.803125 102.450111 
L 369.334375 103.242089 
L 377.865625 101.000273 
L 386.396875 103.185054 
L 394.928125 101.551205 
L 403.459375 100.36202 
L 411.990625 102.240846 
L 420.521875 105.112154 
" style="fill:none;stroke:#000000;stroke-linecap:square;stroke-width:0.5;"/>
   </g>
   <g id="line2d_10">
    <path clip-path="url(#p6c18c9eb99)" d="M 96.334375 114.743302 
L 104.865625 115.320531 
L 113.396875 116.54344 
L 121.928125 114.045314 
L 130.459375 112.747443 
L 138.990625 111.658459 
L 147.521875 106.856707 
L 156.053125 106.945818 
L 164.584375 106.829028 
L 173.115625 104.735093 
L 181.646875 109.731308 
L 190.178125 110.446541 
L 198.709375 106.233718 
L 207.240625 104.686059 
L 215.771875 109.650019 
L 224.303125 110.127535 
L 232.834375 105.728098 
L 241.365625 105.4811 
L 249.896875 101.358168 
L 258.428125 99.353332 
L 266.959375 109.100694 
L 275.490625 114.05934 
L 284.021875 114.770389 
L 292.553125 115.994152 
L 301.084375 116.673352 
L 309.615625 114.737212 
L 318.146875 116.004834 
L 326.678125 116.963481 
L 335.209375 114.63696 
L 343.740625 114.933863 
L 352.271875 112.582684 
L 360.803125 112.090088 
L 369.334375 113.295395 
L 377.865625 111.259934 
L 386.396875 112.806471 
L 394.928125 112.594194 
L 403.459375 110.504054 
L 411.990625 111.850792 
L 420.521875 115.282529 
" style="fill:none;stroke:#000000;stroke-linecap:square;stroke-width:0.5;"/>
   </g>
   <g id="line2d_11">
    <path clip-path="url(#pbc5e062169)" d="M 96.334375 126.13769 
L 104.865625 124.280933 
L 113.396875 123.829017 
L 121.928125 123.492413 
L 130.459375 122.158877 
L 138.990625 121.842523 
L 147.521875 119.628697 
L 156.053125 119.457849 
L 164.584375 119.754191 
L 173.115625 119.265748 
L 181.646875 120.069492 
L 190.178125 120.616329 
L 198.709375 118.000345 
L 207.240625 116.426915 
L 215.771875 119.148155 
L 224.303125 121.257807 
L 232.834375 120.923246 
L 241.365625 119.686848 
L 249.896875 116.10125 
L 258.428125 115.471713 
L 266.959375 119.899301 
L 275.490625 122.274384 
L 284.021875 122.730879 
L 292.553125 123.445339 
L 301.084375 124.13981 
L 309.615625 124.264989 
L 318.146875 124.177156 
L 326.678125 123.89402 
L 335.209375 122.997582 
L 343.740625 123.894645 
L 352.271875 122.313942 
L 360.803125 120.8922 
L 369.334375 120.502328 
L 377.865625 118.734333 
L 386.396875 120.433189 
L 394.928125 121.41111 
L 403.459375 121.685843 
L 411.990625 120.591499 
L 420.521875 120.595708 
" style="fill:none;stroke:#000000;stroke-linecap:square;stroke-width:0.5;"/>
   </g>
   <g id="line2d_12">
    <path clip-path="url(#p0d003c5085)" d="M 96.334375 133.795405 
L 104.865625 131.941529 
L 113.396875 131.22164 
L 121.928125 131.046168 
L 130.459375 129.436359 
L 138.990625 129.792607 
L 147.521875 126.412615 
L 156.053125 126.652197 
L 164.584375 128.00216 
L 173.115625 126.438914 
L 181.646875 127.177901 
L 190.178125 135.762238 
L 198.709375 134.840671 
L 207.240625 128.053593 
L 215.771875 133.186694 
L 224.303125 137.151496 
L 232.834375 135.579126 
L 241.365625 132.809456 
L 249.896875 128.043526 
L 258.428125 124.612919 
L 266.959375 131.019857 
L 275.490625 133.433556 
L 284.021875 133.043637 
L 292.553125 135.12687 
L 301.084375 136.276816 
L 309.615625 136.320629 
L 318.146875 133.619362 
L 326.678125 133.488642 
L 335.209375 132.961079 
L 343.740625 133.343332 
L 352.271875 130.880495 
L 360.803125 128.631333 
L 369.334375 131.431656 
L 377.865625 127.394786 
L 386.396875 128.305426 
L 394.928125 130.680385 
L 403.459375 129.697938 
L 411.990625 129.376371 
L 420.521875 131.550818 
" style="fill:none;stroke:#000000;stroke-linecap:square;stroke-width:0.5;"/>
   </g>
   <g id="line2d_13">
    <path clip-path="url(#p104f820cc9)" d="M 96.334375 142.447104 
L 104.865625 143.046943 
L 113.396875 144.307679 
L 121.928125 143.258763 
L 130.459375 140.16533 
L 138.990625 140.274666 
L 147.521875 137.007618 
L 156.053125 135.137235 
L 164.584375 136.129856 
L 173.115625 135.31678 
L 181.646875 141.137299 
L 190.178125 142.744242 
L 198.709375 135.069888 
L 207.240625 131.320673 
L 215.771875 137.549649 
L 224.303125 142.905428 
L 232.834375 140.641491 
L 241.365625 137.461068 
L 249.896875 134.173611 
L 258.428125 133.009772 
L 266.959375 139.952239 
L 275.490625 143.087801 
L 284.021875 145.075257 
L 292.553125 148.306056 
L 301.084375 146.836921 
L 309.615625 144.867425 
L 318.146875 146.57659 
L 326.678125 147.318728 
L 335.209375 145.00339 
L 343.740625 144.819062 
L 352.271875 142.494211 
L 360.803125 142.167834 
L 369.334375 143.887595 
L 377.865625 141.118065 
L 386.396875 143.962425 
L 394.928125 144.919195 
L 403.459375 141.61291 
L 411.990625 141.301457 
L 420.521875 145.047509 
" style="fill:none;stroke:#000000;stroke-linecap:square;stroke-width:0.5;"/>
   </g>
   <g id="line2d_14">
    <path clip-path="url(#p9625168716)" d="M 96.334375 151.699995 
L 104.865625 153.219344 
L 113.396875 153.478373 
L 121.928125 152.686261 
L 130.459375 151.042931 
L 138.990625 151.605009 
L 147.521875 148.792175 
L 156.053125 147.637717 
L 164.584375 147.17855 
L 173.115625 145.460462 
L 181.646875 151.924583 
L 190.178125 152.979436 
L 198.709375 144.562093 
L 207.240625 141.58476 
L 215.771875 149.654444 
L 224.303125 153.945096 
L 232.834375 150.180557 
L 241.365625 146.546862 
L 249.896875 143.372116 
L 258.428125 142.751515 
L 266.959375 149.340331 
L 275.490625 152.933573 
L 284.021875 154.670577 
L 292.553125 158.853432 
L 301.084375 156.431774 
L 309.615625 154.443188 
L 318.146875 156.806677 
L 326.678125 155.984097 
L 335.209375 153.46626 
L 343.740625 152.764379 
L 352.271875 151.570724 
L 360.803125 152.273652 
L 369.334375 153.608025 
L 377.865625 152.458927 
L 386.396875 153.932848 
L 394.928125 154.242376 
L 403.459375 151.707858 
L 411.990625 151.952538 
L 420.521875 156.532291 
" style="fill:none;stroke:#000000;stroke-linecap:square;stroke-width:0.5;"/>
   </g>
   <g id="line2d_15">
    <path clip-path="url(#p2c75515347)" d="M 96.334375 161.813636 
L 104.865625 162.544887 
L 113.396875 161.337538 
L 121.928125 162.906086 
L 130.459375 160.340502 
L 138.990625 161.725745 
L 147.521875 158.077586 
L 156.053125 156.336065 
L 164.584375 156.790813 
L 173.115625 156.239509 
L 181.646875 160.348398 
L 190.178125 158.191085 
L 198.709375 154.660949 
L 207.240625 154.279262 
L 215.771875 162.024676 
L 224.303125 167.324736 
L 232.834375 158.285028 
L 241.365625 153.01483 
L 249.896875 153.343935 
L 258.428125 154.201514 
L 266.959375 162.765122 
L 275.490625 164.346665 
L 284.021875 165.006103 
L 292.553125 168.697088 
L 301.084375 167.510504 
L 309.615625 166.220257 
L 318.146875 167.903077 
L 326.678125 166.840755 
L 335.209375 166.305173 
L 343.740625 166.827319 
L 352.271875 162.03704 
L 360.803125 161.823836 
L 369.334375 163.269053 
L 377.865625 162.039412 
L 386.396875 162.848601 
L 394.928125 161.285699 
L 403.459375 160.145986 
L 411.990625 162.180563 
L 420.521875 165.224553 
" style="fill:none;stroke:#000000;stroke-linecap:square;stroke-width:0.5;"/>
   </g>
   <g id="line2d_16">
    <path clip-path="url(#p7f97d68b9c)" d="M 96.334375 172.999336 
L 104.865625 173.142275 
L 113.396875 173.871402 
L 121.928125 173.592595 
L 130.459375 169.553188 
L 138.990625 169.845232 
L 147.521875 169.410049 
L 156.053125 170.577674 
L 164.584375 168.874728 
L 173.115625 169.345151 
L 181.646875 175.285064 
L 190.178125 171.451769 
L 198.709375 168.173069 
L 207.240625 166.785477 
L 215.771875 173.66306 
L 224.303125 173.453208 
L 232.834375 166.585308 
L 241.365625 166.199331 
L 249.896875 165.871332 
L 258.428125 165.471434 
L 266.959375 171.303937 
L 275.490625 173.048942 
L 284.021875 173.145744 
L 292.553125 175.382916 
L 301.084375 175.458175 
L 309.615625 175.66539 
L 318.146875 175.029715 
L 326.678125 173.741307 
L 335.209375 173.977929 
L 343.740625 173.501783 
L 352.271875 170.773564 
L 360.803125 171.332804 
L 369.334375 172.227243 
L 377.865625 170.95064 
L 386.396875 172.058376 
L 394.928125 172.075911 
L 403.459375 171.006427 
L 411.990625 171.951597 
L 420.521875 173.928198 
" style="fill:none;stroke:#000000;stroke-linecap:square;stroke-width:0.5;"/>
   </g>
   <g id="line2d_17">
    <path clip-path="url(#p03fb78dc8d)" d="M 96.334375 182.034072 
L 104.865625 183.80361 
L 113.396875 180.288419 
L 121.928125 181.005967 
L 130.459375 180.711104 
L 138.990625 181.492327 
L 147.521875 176.042679 
L 156.053125 175.958054 
L 164.584375 178.267669 
L 173.115625 178.733093 
L 181.646875 179.694501 
L 190.178125 176.037217 
L 198.709375 175.155278 
L 207.240625 175.388195 
L 215.771875 182.299505 
L 224.303125 190.147783 
L 232.834375 177.146204 
L 241.365625 172.81686 
L 249.896875 178.781702 
L 258.428125 176.32517 
L 266.959375 185.531613 
L 275.490625 189.73652 
L 284.021875 189.210012 
L 292.553125 191.663117 
L 301.084375 189.136168 
L 309.615625 185.919657 
L 318.146875 188.109415 
L 326.678125 185.924523 
L 335.209375 183.420179 
L 343.740625 183.088841 
L 352.271875 178.222453 
L 360.803125 178.221579 
L 369.334375 180.844579 
L 377.865625 180.99602 
L 386.396875 180.384137 
L 394.928125 180.837081 
L 403.459375 180.871899 
L 411.990625 182.631733 
L 420.521875 186.598581 
" style="fill:none;stroke:#000000;stroke-linecap:square;stroke-width:0.5;"/>
   </g>
   <g id="line2d_18">
    <path clip-path="url(#pefdcb63c72)" d="M 96.334375 193.547064 
L 104.865625 194.015823 
L 113.396875 194.043895 
L 121.928125 192.276175 
L 130.459375 187.878506 
L 138.990625 191.008207 
L 147.521875 189.525176 
L 156.053125 188.949713 
L 164.584375 189.440849 
L 173.115625 188.400408 
L 181.646875 191.489468 
L 190.178125 189.004979 
L 198.709375 186.158726 
L 207.240625 185.097504 
L 215.771875 192.286465 
L 224.303125 198.627043 
L 232.834375 180.309343 
L 241.365625 174.472895 
L 249.896875 187.908759 
L 258.428125 185.922263 
L 266.959375 194.337242 
L 275.490625 196.037168 
L 284.021875 196.191526 
L 292.553125 199.880451 
L 301.084375 197.834162 
L 309.615625 195.812909 
L 318.146875 196.10031 
L 326.678125 195.114524 
L 335.209375 194.926539 
L 343.740625 194.526312 
L 352.271875 190.344989 
L 360.803125 190.262183 
L 369.334375 191.525589 
L 377.865625 191.001029 
L 386.396875 193.246294 
L 394.928125 193.000677 
L 403.459375 192.450763 
L 411.990625 195.511861 
L 420.521875 199.458201 
" style="fill:none;stroke:#000000;stroke-linecap:square;stroke-width:0.5;"/>
   </g>
   <g id="line2d_19">
    <path clip-path="url(#p1d4e0fa1e7)" d="M 104.919786 -1 
L 109.329273 291.446395 
M 131.112571 291.446395 
L 136.686151 -1 
M 158.017733 -1 
L 164.584375 285.197704 
L 164.684947 291.446395 
M 185.629901 291.446395 
L 189.592942 -1 
M 212.82397 -1 
L 215.771875 41.48997 
L 219.309976 291.446395 
M 239.457859 291.446395 
L 241.365625 154.794272 
L 245.648399 -1 
M 268.714116 -1 
L 273.865263 291.446395 
M 294.495091 291.446395 
L 298.948134 -1 
M 322.715964 -1 
L 326.678125 112.491844 
L 329.257004 291.446395 
M 348.449022 291.446395 
L 352.271875 0.717804 
L 352.35864 -1 
M 379.143923 -1 
L 383.55067 291.446395 
M 402.707611 291.446395 
L 403.459375 245.498734 
L 408.156735 -1 
" style="fill:none;stroke:#000000;stroke-linecap:square;stroke-width:0.5;"/>
   </g>
   <g id="line2d_20">
    <path clip-path="url(#pb1f5e24444)" d="M 96.334375 211.850145 
L 104.865625 211.850145 
L 113.396875 211.850145 
L 121.928125 211.850145 
L 130.459375 211.850145 
L 138.990625 211.850145 
L 147.521875 211.850145 
L 156.053125 211.850145 
L 164.584375 211.850145 
L 173.115625 211.850145 
L 181.646875 211.850145 
L 190.178125 211.850145 
L 198.709375 211.850145 
L 207.240625 211.850145 
L 215.771875 211.850145 
L 224.303125 211.850145 
L 232.834375 211.850145 
L 241.365625 211.850145 
L 249.896875 211.850145 
L 258.428125 211.850145 
L 266.959375 211.850145 
L 275.490625 211.850145 
L 284.021875 211.850145 
L 292.553125 211.850145 
L 301.084375 211.850145 
L 309.615625 211.850145 
L 318.146875 211.850145 
L 326.678125 211.850145 
L 335.209375 211.850145 
L 343.740625 211.850145 
L 352.271875 211.850145 
L 360.803125 211.850145 
L 369.334375 211.850145 
L 377.865625 211.850145 
L 386.396875 211.850145 
L 394.928125 211.850145 
L 403.459375 211.850145 
L 411.990625 211.850145 
L 420.521875 211.850145 
" style="fill:none;stroke:#000000;stroke-linecap:square;stroke-width:0.5;"/>
   </g>
   <g id="matplotlib.axis_1">
    <g id="xtick_1">
     <g id="line2d_21">
      <defs>
       <path d="M 0 0 
L 0 3.5 
" id="me6435b2968" style="stroke:#000000;stroke-width:0.8;"/>
      </defs>
      <g>
       <use style="stroke:#000000;stroke-width:0.8;" x="96.334375" xlink:href="#me6435b2968" y="216.890145"/>
      </g>
     </g>
     <g id="text_1">
      <!-- 2 -->
      <g transform="translate(93.153125 231.488582)scale(0.1 -0.1)">
       <defs>
        <path d="M 19.1875 8.296875 
L 53.609375 8.296875 
L 53.609375 0 
L 7.328125 0 
L 7.328125 8.296875 
Q 12.9375 14.109375 22.625 23.890625 
Q 32.328125 33.6875 34.8125 36.53125 
Q 39.546875 41.84375 41.421875 45.53125 
Q 43.3125 49.21875 43.3125 52.78125 
Q 43.3125 58.59375 39.234375 62.25 
Q 35.15625 65.921875 28.609375 65.921875 
Q 23.96875 65.921875 18.8125 64.3125 
Q 13.671875 62.703125 7.8125 59.421875 
L 7.8125 69.390625 
Q 13.765625 71.78125 18.9375 73 
Q 24.125 74.21875 28.421875 74.21875 
Q 39.75 74.21875 46.484375 68.546875 
Q 53.21875 62.890625 53.21875 53.421875 
Q 53.21875 48.921875 51.53125 44.890625 
Q 49.859375 40.875 45.40625 35.40625 
Q 44.1875 33.984375 37.640625 27.21875 
Q 31.109375 20.453125 19.1875 8.296875 
z
" id="DejaVuSans-50"/>
       </defs>
       <use xlink:href="#DejaVuSans-50"/>
      </g>
     </g>
    </g>
    <g id="xtick_2">
     <g id="line2d_22">
      <g>
       <use style="stroke:#000000;stroke-width:0.8;" x="150.934375" xlink:href="#me6435b2968" y="216.890145"/>
      </g>
     </g>
     <g id="text_2">
      <!-- 3 -->
      <g transform="translate(147.753125 231.488582)scale(0.1 -0.1)">
       <defs>
        <path d="M 40.578125 39.3125 
Q 47.65625 37.796875 51.625 33 
Q 55.609375 28.21875 55.609375 21.1875 
Q 55.609375 10.40625 48.1875 4.484375 
Q 40.765625 -1.421875 27.09375 -1.421875 
Q 22.515625 -1.421875 17.65625 -0.515625 
Q 12.796875 0.390625 7.625 2.203125 
L 7.625 11.71875 
Q 11.71875 9.328125 16.59375 8.109375 
Q 21.484375 6.890625 26.8125 6.890625 
Q 36.078125 6.890625 40.9375 10.546875 
Q 45.796875 14.203125 45.796875 21.1875 
Q 45.796875 27.640625 41.28125 31.265625 
Q 36.765625 34.90625 28.71875 34.90625 
L 20.21875 34.90625 
L 20.21875 43.015625 
L 29.109375 43.015625 
Q 36.375 43.015625 40.234375 45.921875 
Q 44.09375 48.828125 44.09375 54.296875 
Q 44.09375 59.90625 40.109375 62.90625 
Q 36.140625 65.921875 28.71875 65.921875 
Q 24.65625 65.921875 20.015625 65.03125 
Q 15.375 64.15625 9.8125 62.3125 
L 9.8125 71.09375 
Q 15.4375 72.65625 20.34375 73.4375 
Q 25.25 74.21875 29.59375 74.21875 
Q 40.828125 74.21875 47.359375 69.109375 
Q 53.90625 64.015625 53.90625 55.328125 
Q 53.90625 49.265625 50.4375 45.09375 
Q 46.96875 40.921875 40.578125 39.3125 
z
" id="DejaVuSans-51"/>
       </defs>
       <use xlink:href="#DejaVuSans-51"/>
      </g>
     </g>
    </g>
    <g id="xtick_3">
     <g id="line2d_23">
      <g>
       <use style="stroke:#000000;stroke-width:0.8;" x="205.534375" xlink:href="#me6435b2968" y="216.890145"/>
      </g>
     </g>
     <g id="text_3">
      <!-- 4 -->
      <g transform="translate(202.353125 231.488582)scale(0.1 -0.1)">
       <defs>
        <path d="M 37.796875 64.3125 
L 12.890625 25.390625 
L 37.796875 25.390625 
z
M 35.203125 72.90625 
L 47.609375 72.90625 
L 47.609375 25.390625 
L 58.015625 25.390625 
L 58.015625 17.1875 
L 47.609375 17.1875 
L 47.609375 0 
L 37.796875 0 
L 37.796875 17.1875 
L 4.890625 17.1875 
L 4.890625 26.703125 
z
" id="DejaVuSans-52"/>
       </defs>
       <use xlink:href="#DejaVuSans-52"/>
      </g>
     </g>
    </g>
    <g id="xtick_4">
     <g id="line2d_24">
      <g>
       <use style="stroke:#000000;stroke-width:0.8;" x="260.134375" xlink:href="#me6435b2968" y="216.890145"/>
      </g>
     </g>
     <g id="text_4">
      <!-- 5 -->
      <g transform="translate(256.953125 231.488582)scale(0.1 -0.1)">
       <defs>
        <path d="M 10.796875 72.90625 
L 49.515625 72.90625 
L 49.515625 64.59375 
L 19.828125 64.59375 
L 19.828125 46.734375 
Q 21.96875 47.46875 24.109375 47.828125 
Q 26.265625 48.1875 28.421875 48.1875 
Q 40.625 48.1875 47.75 41.5 
Q 54.890625 34.8125 54.890625 23.390625 
Q 54.890625 11.625 47.5625 5.09375 
Q 40.234375 -1.421875 26.90625 -1.421875 
Q 22.3125 -1.421875 17.546875 -0.640625 
Q 12.796875 0.140625 7.71875 1.703125 
L 7.71875 11.625 
Q 12.109375 9.234375 16.796875 8.0625 
Q 21.484375 6.890625 26.703125 6.890625 
Q 35.15625 6.890625 40.078125 11.328125 
Q 45.015625 15.765625 45.015625 23.390625 
Q 45.015625 31 40.078125 35.4375 
Q 35.15625 39.890625 26.703125 39.890625 
Q 22.75 39.890625 18.8125 39.015625 
Q 14.890625 38.140625 10.796875 36.28125 
z
" id="DejaVuSans-53"/>
       </defs>
       <use xlink:href="#DejaVuSans-53"/>
      </g>
     </g>
    </g>
    <g id="xtick_5">
     <g id="line2d_25">
      <g>
       <use style="stroke:#000000;stroke-width:0.8;" x="314.734375" xlink:href="#me6435b2968" y="216.890145"/>
      </g>
     </g>
     <g id="text_5">
      <!-- 6 -->
      <g transform="translate(311.553125 231.488582)scale(0.1 -0.1)">
       <defs>
        <path d="M 33.015625 40.375 
Q 26.375 40.375 22.484375 35.828125 
Q 18.609375 31.296875 18.609375 23.390625 
Q 18.609375 15.53125 22.484375 10.953125 
Q 26.375 6.390625 33.015625 6.390625 
Q 39.65625 6.390625 43.53125 10.953125 
Q 47.40625 15.53125 47.40625 23.390625 
Q 47.40625 31.296875 43.53125 35.828125 
Q 39.65625 40.375 33.015625 40.375 
z
M 52.59375 71.296875 
L 52.59375 62.3125 
Q 48.875 64.0625 45.09375 64.984375 
Q 41.3125 65.921875 37.59375 65.921875 
Q 27.828125 65.921875 22.671875 59.328125 
Q 17.53125 52.734375 16.796875 39.40625 
Q 19.671875 43.65625 24.015625 45.921875 
Q 28.375 48.1875 33.59375 48.1875 
Q 44.578125 48.1875 50.953125 41.515625 
Q 57.328125 34.859375 57.328125 23.390625 
Q 57.328125 12.15625 50.6875 5.359375 
Q 44.046875 -1.421875 33.015625 -1.421875 
Q 20.359375 -1.421875 13.671875 8.265625 
Q 6.984375 17.96875 6.984375 36.375 
Q 6.984375 53.65625 15.1875 63.9375 
Q 23.390625 74.21875 37.203125 74.21875 
Q 40.921875 74.21875 44.703125 73.484375 
Q 48.484375 72.75 52.59375 71.296875 
z
" id="DejaVuSans-54"/>
       </defs>
       <use xlink:href="#DejaVuSans-54"/>
      </g>
     </g>
    </g>
    <g id="xtick_6">
     <g id="line2d_26">
      <g>
       <use style="stroke:#000000;stroke-width:0.8;" x="369.334375" xlink:href="#me6435b2968" y="216.890145"/>
      </g>
     </g>
     <g id="text_6">
      <!-- 7 -->
      <g transform="translate(366.153125 231.488582)scale(0.1 -0.1)">
       <defs>
        <path d="M 8.203125 72.90625 
L 55.078125 72.90625 
L 55.078125 68.703125 
L 28.609375 0 
L 18.3125 0 
L 43.21875 64.59375 
L 8.203125 64.59375 
z
" id="DejaVuSans-55"/>
       </defs>
       <use xlink:href="#DejaVuSans-55"/>
      </g>
     </g>
    </g>
    <g id="xtick_7">
     <g id="line2d_27">
      <g>
       <use style="stroke:#000000;stroke-width:0.8;" x="423.934375" xlink:href="#me6435b2968" y="216.890145"/>
      </g>
     </g>
     <g id="text_7">
      <!-- 8 -->
      <g transform="translate(420.753125 231.488582)scale(0.1 -0.1)">
       <defs>
        <path d="M 31.78125 34.625 
Q 24.75 34.625 20.71875 30.859375 
Q 16.703125 27.09375 16.703125 20.515625 
Q 16.703125 13.921875 20.71875 10.15625 
Q 24.75 6.390625 31.78125 6.390625 
Q 38.8125 6.390625 42.859375 10.171875 
Q 46.921875 13.96875 46.921875 20.515625 
Q 46.921875 27.09375 42.890625 30.859375 
Q 38.875 34.625 31.78125 34.625 
z
M 21.921875 38.8125 
Q 15.578125 40.375 12.03125 44.71875 
Q 8.5 49.078125 8.5 55.328125 
Q 8.5 64.0625 14.71875 69.140625 
Q 20.953125 74.21875 31.78125 74.21875 
Q 42.671875 74.21875 48.875 69.140625 
Q 55.078125 64.0625 55.078125 55.328125 
Q 55.078125 49.078125 51.53125 44.71875 
Q 48 40.375 41.703125 38.8125 
Q 48.828125 37.15625 52.796875 32.3125 
Q 56.78125 27.484375 56.78125 20.515625 
Q 56.78125 9.90625 50.3125 4.234375 
Q 43.84375 -1.421875 31.78125 -1.421875 
Q 19.734375 -1.421875 13.25 4.234375 
Q 6.78125 9.90625 6.78125 20.515625 
Q 6.78125 27.484375 10.78125 32.3125 
Q 14.796875 37.15625 21.921875 38.8125 
z
M 18.3125 54.390625 
Q 18.3125 48.734375 21.84375 45.5625 
Q 25.390625 42.390625 31.78125 42.390625 
Q 38.140625 42.390625 41.71875 45.5625 
Q 45.3125 48.734375 45.3125 54.390625 
Q 45.3125 60.0625 41.71875 63.234375 
Q 38.140625 66.40625 31.78125 66.40625 
Q 25.390625 66.40625 21.84375 63.234375 
Q 18.3125 60.0625 18.3125 54.390625 
z
" id="DejaVuSans-56"/>
       </defs>
       <use xlink:href="#DejaVuSans-56"/>
      </g>
     </g>
    </g>
   </g>
   <g id="matplotlib.axis_2">
    <g id="ytick_1">
     <g id="line2d_28">
      <defs>
       <path d="M 0 0 
L -3.5 0 
" id="mdcb0e1fc03" style="stroke:#000000;stroke-width:0.8;"/>
      </defs>
      <g>
       <use style="stroke:#000000;stroke-width:0.8;" x="96.334375" xlink:href="#mdcb0e1fc03" y="20.330145"/>
      </g>
     </g>
     <g id="text_8">
      <!-- TIME_STAMP_s -->
      <g transform="translate(16.940625 24.041082)scale(0.1 -0.1)">
       <defs>
        <path d="M -0.296875 72.90625 
L 61.375 72.90625 
L 61.375 64.59375 
L 35.5 64.59375 
L 35.5 0 
L 25.59375 0 
L 25.59375 64.59375 
L -0.296875 64.59375 
z
" id="DejaVuSans-84"/>
        <path d="M 9.8125 72.90625 
L 19.671875 72.90625 
L 19.671875 0 
L 9.8125 0 
z
" id="DejaVuSans-73"/>
        <path d="M 9.8125 72.90625 
L 24.515625 72.90625 
L 43.109375 23.296875 
L 61.8125 72.90625 
L 76.515625 72.90625 
L 76.515625 0 
L 66.890625 0 
L 66.890625 64.015625 
L 48.09375 14.015625 
L 38.1875 14.015625 
L 19.390625 64.015625 
L 19.390625 0 
L 9.8125 0 
z
" id="DejaVuSans-77"/>
        <path d="M 9.8125 72.90625 
L 55.90625 72.90625 
L 55.90625 64.59375 
L 19.671875 64.59375 
L 19.671875 43.015625 
L 54.390625 43.015625 
L 54.390625 34.71875 
L 19.671875 34.71875 
L 19.671875 8.296875 
L 56.78125 8.296875 
L 56.78125 0 
L 9.8125 0 
z
" id="DejaVuSans-69"/>
        <path d="M 50.984375 -16.609375 
L 50.984375 -23.578125 
L -0.984375 -23.578125 
L -0.984375 -16.609375 
z
" id="DejaVuSans-95"/>
        <path d="M 53.515625 70.515625 
L 53.515625 60.890625 
Q 47.90625 63.578125 42.921875 64.890625 
Q 37.9375 66.21875 33.296875 66.21875 
Q 25.25 66.21875 20.875 63.09375 
Q 16.5 59.96875 16.5 54.203125 
Q 16.5 49.359375 19.40625 46.890625 
Q 22.3125 44.4375 30.421875 42.921875 
L 36.375 41.703125 
Q 47.40625 39.59375 52.65625 34.296875 
Q 57.90625 29 57.90625 20.125 
Q 57.90625 9.515625 50.796875 4.046875 
Q 43.703125 -1.421875 29.984375 -1.421875 
Q 24.8125 -1.421875 18.96875 -0.25 
Q 13.140625 0.921875 6.890625 3.21875 
L 6.890625 13.375 
Q 12.890625 10.015625 18.65625 8.296875 
Q 24.421875 6.59375 29.984375 6.59375 
Q 38.421875 6.59375 43.015625 9.90625 
Q 47.609375 13.234375 47.609375 19.390625 
Q 47.609375 24.75 44.3125 27.78125 
Q 41.015625 30.8125 33.5 32.328125 
L 27.484375 33.5 
Q 16.453125 35.6875 11.515625 40.375 
Q 6.59375 45.0625 6.59375 53.421875 
Q 6.59375 63.09375 13.40625 68.65625 
Q 20.21875 74.21875 32.171875 74.21875 
Q 37.3125 74.21875 42.625 73.28125 
Q 47.953125 72.359375 53.515625 70.515625 
z
" id="DejaVuSans-83"/>
        <path d="M 34.1875 63.1875 
L 20.796875 26.90625 
L 47.609375 26.90625 
z
M 28.609375 72.90625 
L 39.796875 72.90625 
L 67.578125 0 
L 57.328125 0 
L 50.6875 18.703125 
L 17.828125 18.703125 
L 11.1875 0 
L 0.78125 0 
z
" id="DejaVuSans-65"/>
        <path d="M 19.671875 64.796875 
L 19.671875 37.40625 
L 32.078125 37.40625 
Q 38.96875 37.40625 42.71875 40.96875 
Q 46.484375 44.53125 46.484375 51.125 
Q 46.484375 57.671875 42.71875 61.234375 
Q 38.96875 64.796875 32.078125 64.796875 
z
M 9.8125 72.90625 
L 32.078125 72.90625 
Q 44.34375 72.90625 50.609375 67.359375 
Q 56.890625 61.8125 56.890625 51.125 
Q 56.890625 40.328125 50.609375 34.8125 
Q 44.34375 29.296875 32.078125 29.296875 
L 19.671875 29.296875 
L 19.671875 0 
L 9.8125 0 
z
" id="DejaVuSans-80"/>
        <path d="M 44.28125 53.078125 
L 44.28125 44.578125 
Q 40.484375 46.53125 36.375 47.5 
Q 32.28125 48.484375 27.875 48.484375 
Q 21.1875 48.484375 17.84375 46.4375 
Q 14.5 44.390625 14.5 40.28125 
Q 14.5 37.15625 16.890625 35.375 
Q 19.28125 33.59375 26.515625 31.984375 
L 29.59375 31.296875 
Q 39.15625 29.25 43.1875 25.515625 
Q 47.21875 21.78125 47.21875 15.09375 
Q 47.21875 7.46875 41.1875 3.015625 
Q 35.15625 -1.421875 24.609375 -1.421875 
Q 20.21875 -1.421875 15.453125 -0.5625 
Q 10.6875 0.296875 5.421875 2 
L 5.421875 11.28125 
Q 10.40625 8.6875 15.234375 7.390625 
Q 20.0625 6.109375 24.8125 6.109375 
Q 31.15625 6.109375 34.5625 8.28125 
Q 37.984375 10.453125 37.984375 14.40625 
Q 37.984375 18.0625 35.515625 20.015625 
Q 33.0625 21.96875 24.703125 23.78125 
L 21.578125 24.515625 
Q 13.234375 26.265625 9.515625 29.90625 
Q 5.8125 33.546875 5.8125 39.890625 
Q 5.8125 47.609375 11.28125 51.796875 
Q 16.75 56 26.8125 56 
Q 31.78125 56 36.171875 55.265625 
Q 40.578125 54.546875 44.28125 53.078125 
z
" id="DejaVuSans-115"/>
       </defs>
       <use xlink:href="#DejaVuSans-84"/>
       <use x="61.083984" xlink:href="#DejaVuSans-73"/>
       <use x="90.576172" xlink:href="#DejaVuSans-77"/>
       <use x="176.855469" xlink:href="#DejaVuSans-69"/>
       <use x="240.039062" xlink:href="#DejaVuSans-95"/>
       <use x="290.039062" xlink:href="#DejaVuSans-83"/>
       <use x="353.515625" xlink:href="#DejaVuSans-84"/>
       <use x="406.849609" xlink:href="#DejaVuSans-65"/>
       <use x="475.257812" xlink:href="#DejaVuSans-77"/>
       <use x="561.537109" xlink:href="#DejaVuSans-80"/>
       <use x="621.839844" xlink:href="#DejaVuSans-95"/>
       <use x="671.839844" xlink:href="#DejaVuSans-115"/>
      </g>
     </g>
    </g>
    <g id="ytick_2">
     <g id="line2d_29">
      <g>
       <use style="stroke:#000000;stroke-width:0.8;" x="96.334375" xlink:href="#mdcb0e1fc03" y="30.410145"/>
      </g>
     </g>
     <g id="text_9">
      <!-- TIME_STAMP_ms -->
      <g transform="translate(7.2 34.121082)scale(0.1 -0.1)">
       <defs>
        <path d="M 52 44.1875 
Q 55.375 50.25 60.0625 53.125 
Q 64.75 56 71.09375 56 
Q 79.640625 56 84.28125 50.015625 
Q 88.921875 44.046875 88.921875 33.015625 
L 88.921875 0 
L 79.890625 0 
L 79.890625 32.71875 
Q 79.890625 40.578125 77.09375 44.375 
Q 74.3125 48.1875 68.609375 48.1875 
Q 61.625 48.1875 57.5625 43.546875 
Q 53.515625 38.921875 53.515625 30.90625 
L 53.515625 0 
L 44.484375 0 
L 44.484375 32.71875 
Q 44.484375 40.625 41.703125 44.40625 
Q 38.921875 48.1875 33.109375 48.1875 
Q 26.21875 48.1875 22.15625 43.53125 
Q 18.109375 38.875 18.109375 30.90625 
L 18.109375 0 
L 9.078125 0 
L 9.078125 54.6875 
L 18.109375 54.6875 
L 18.109375 46.1875 
Q 21.1875 51.21875 25.484375 53.609375 
Q 29.78125 56 35.6875 56 
Q 41.65625 56 45.828125 52.96875 
Q 50 49.953125 52 44.1875 
z
" id="DejaVuSans-109"/>
       </defs>
       <use xlink:href="#DejaVuSans-84"/>
       <use x="61.083984" xlink:href="#DejaVuSans-73"/>
       <use x="90.576172" xlink:href="#DejaVuSans-77"/>
       <use x="176.855469" xlink:href="#DejaVuSans-69"/>
       <use x="240.039062" xlink:href="#DejaVuSans-95"/>
       <use x="290.039062" xlink:href="#DejaVuSans-83"/>
       <use x="353.515625" xlink:href="#DejaVuSans-84"/>
       <use x="406.849609" xlink:href="#DejaVuSans-65"/>
       <use x="475.257812" xlink:href="#DejaVuSans-77"/>
       <use x="561.537109" xlink:href="#DejaVuSans-80"/>
       <use x="621.839844" xlink:href="#DejaVuSans-95"/>
       <use x="671.839844" xlink:href="#DejaVuSans-109"/>
       <use x="769.251953" xlink:href="#DejaVuSans-115"/>
      </g>
     </g>
    </g>
    <g id="ytick_3">
     <g id="line2d_30">
      <g>
       <use style="stroke:#000000;stroke-width:0.8;" x="96.334375" xlink:href="#mdcb0e1fc03" y="40.490145"/>
      </g>
     </g>
     <g id="text_10">
      <!-- COUNTER -->
      <g transform="translate(40.304688 44.289364)scale(0.1 -0.1)">
       <defs>
        <path d="M 64.40625 67.28125 
L 64.40625 56.890625 
Q 59.421875 61.53125 53.78125 63.8125 
Q 48.140625 66.109375 41.796875 66.109375 
Q 29.296875 66.109375 22.65625 58.46875 
Q 16.015625 50.828125 16.015625 36.375 
Q 16.015625 21.96875 22.65625 14.328125 
Q 29.296875 6.6875 41.796875 6.6875 
Q 48.140625 6.6875 53.78125 8.984375 
Q 59.421875 11.28125 64.40625 15.921875 
L 64.40625 5.609375 
Q 59.234375 2.09375 53.4375 0.328125 
Q 47.65625 -1.421875 41.21875 -1.421875 
Q 24.65625 -1.421875 15.125 8.703125 
Q 5.609375 18.84375 5.609375 36.375 
Q 5.609375 53.953125 15.125 64.078125 
Q 24.65625 74.21875 41.21875 74.21875 
Q 47.75 74.21875 53.53125 72.484375 
Q 59.328125 70.75 64.40625 67.28125 
z
" id="DejaVuSans-67"/>
        <path d="M 39.40625 66.21875 
Q 28.65625 66.21875 22.328125 58.203125 
Q 16.015625 50.203125 16.015625 36.375 
Q 16.015625 22.609375 22.328125 14.59375 
Q 28.65625 6.59375 39.40625 6.59375 
Q 50.140625 6.59375 56.421875 14.59375 
Q 62.703125 22.609375 62.703125 36.375 
Q 62.703125 50.203125 56.421875 58.203125 
Q 50.140625 66.21875 39.40625 66.21875 
z
M 39.40625 74.21875 
Q 54.734375 74.21875 63.90625 63.9375 
Q 73.09375 53.65625 73.09375 36.375 
Q 73.09375 19.140625 63.90625 8.859375 
Q 54.734375 -1.421875 39.40625 -1.421875 
Q 24.03125 -1.421875 14.8125 8.828125 
Q 5.609375 19.09375 5.609375 36.375 
Q 5.609375 53.65625 14.8125 63.9375 
Q 24.03125 74.21875 39.40625 74.21875 
z
" id="DejaVuSans-79"/>
        <path d="M 8.6875 72.90625 
L 18.609375 72.90625 
L 18.609375 28.609375 
Q 18.609375 16.890625 22.84375 11.734375 
Q 27.09375 6.59375 36.625 6.59375 
Q 46.09375 6.59375 50.34375 11.734375 
Q 54.59375 16.890625 54.59375 28.609375 
L 54.59375 72.90625 
L 64.5 72.90625 
L 64.5 27.390625 
Q 64.5 13.140625 57.4375 5.859375 
Q 50.390625 -1.421875 36.625 -1.421875 
Q 22.796875 -1.421875 15.734375 5.859375 
Q 8.6875 13.140625 8.6875 27.390625 
z
" id="DejaVuSans-85"/>
        <path d="M 9.8125 72.90625 
L 23.09375 72.90625 
L 55.421875 11.921875 
L 55.421875 72.90625 
L 64.984375 72.90625 
L 64.984375 0 
L 51.703125 0 
L 19.390625 60.984375 
L 19.390625 0 
L 9.8125 0 
z
" id="DejaVuSans-78"/>
        <path d="M 44.390625 34.1875 
Q 47.5625 33.109375 50.5625 29.59375 
Q 53.5625 26.078125 56.59375 19.921875 
L 66.609375 0 
L 56 0 
L 46.6875 18.703125 
Q 43.0625 26.03125 39.671875 28.421875 
Q 36.28125 30.8125 30.421875 30.8125 
L 19.671875 30.8125 
L 19.671875 0 
L 9.8125 0 
L 9.8125 72.90625 
L 32.078125 72.90625 
Q 44.578125 72.90625 50.734375 67.671875 
Q 56.890625 62.453125 56.890625 51.90625 
Q 56.890625 45.015625 53.6875 40.46875 
Q 50.484375 35.9375 44.390625 34.1875 
z
M 19.671875 64.796875 
L 19.671875 38.921875 
L 32.078125 38.921875 
Q 39.203125 38.921875 42.84375 42.21875 
Q 46.484375 45.515625 46.484375 51.90625 
Q 46.484375 58.296875 42.84375 61.546875 
Q 39.203125 64.796875 32.078125 64.796875 
z
" id="DejaVuSans-82"/>
       </defs>
       <use xlink:href="#DejaVuSans-67"/>
       <use x="69.824219" xlink:href="#DejaVuSans-79"/>
       <use x="148.535156" xlink:href="#DejaVuSans-85"/>
       <use x="221.728516" xlink:href="#DejaVuSans-78"/>
       <use x="296.533203" xlink:href="#DejaVuSans-84"/>
       <use x="357.617188" xlink:href="#DejaVuSans-69"/>
       <use x="420.800781" xlink:href="#DejaVuSans-82"/>
      </g>
     </g>
    </g>
    <g id="ytick_4">
     <g id="line2d_31">
      <g>
       <use style="stroke:#000000;stroke-width:0.8;" x="96.334375" xlink:href="#mdcb0e1fc03" y="50.570145"/>
      </g>
     </g>
     <g id="text_11">
      <!-- INTERPOLATED -->
      <g transform="translate(13.6375 54.369364)scale(0.1 -0.1)">
       <defs>
        <path d="M 9.8125 72.90625 
L 19.671875 72.90625 
L 19.671875 8.296875 
L 55.171875 8.296875 
L 55.171875 0 
L 9.8125 0 
z
" id="DejaVuSans-76"/>
        <path d="M 19.671875 64.796875 
L 19.671875 8.109375 
L 31.59375 8.109375 
Q 46.6875 8.109375 53.6875 14.9375 
Q 60.6875 21.78125 60.6875 36.53125 
Q 60.6875 51.171875 53.6875 57.984375 
Q 46.6875 64.796875 31.59375 64.796875 
z
M 9.8125 72.90625 
L 30.078125 72.90625 
Q 51.265625 72.90625 61.171875 64.09375 
Q 71.09375 55.28125 71.09375 36.53125 
Q 71.09375 17.671875 61.125 8.828125 
Q 51.171875 0 30.078125 0 
L 9.8125 0 
z
" id="DejaVuSans-68"/>
       </defs>
       <use xlink:href="#DejaVuSans-73"/>
       <use x="29.492188" xlink:href="#DejaVuSans-78"/>
       <use x="104.296875" xlink:href="#DejaVuSans-84"/>
       <use x="165.380859" xlink:href="#DejaVuSans-69"/>
       <use x="228.564453" xlink:href="#DejaVuSans-82"/>
       <use x="298.046875" xlink:href="#DejaVuSans-80"/>
       <use x="358.349609" xlink:href="#DejaVuSans-79"/>
       <use x="437.060547" xlink:href="#DejaVuSans-76"/>
       <use x="495.023438" xlink:href="#DejaVuSans-65"/>
       <use x="555.681641" xlink:href="#DejaVuSans-84"/>
       <use x="616.765625" xlink:href="#DejaVuSans-69"/>
       <use x="679.949219" xlink:href="#DejaVuSans-68"/>
      </g>
     </g>
    </g>
    <g id="ytick_5">
     <g id="line2d_32">
      <g>
       <use style="stroke:#000000;stroke-width:0.8;" x="96.334375" xlink:href="#mdcb0e1fc03" y="60.650145"/>
      </g>
     </g>
     <g id="text_12">
      <!-- AF3 -->
      <g transform="translate(70.379688 64.449364)scale(0.1 -0.1)">
       <defs>
        <path d="M 9.8125 72.90625 
L 51.703125 72.90625 
L 51.703125 64.59375 
L 19.671875 64.59375 
L 19.671875 43.109375 
L 48.578125 43.109375 
L 48.578125 34.8125 
L 19.671875 34.8125 
L 19.671875 0 
L 9.8125 0 
z
" id="DejaVuSans-70"/>
       </defs>
       <use xlink:href="#DejaVuSans-65"/>
       <use x="68.408203" xlink:href="#DejaVuSans-70"/>
       <use x="125.927734" xlink:href="#DejaVuSans-51"/>
      </g>
     </g>
    </g>
    <g id="ytick_6">
     <g id="line2d_33">
      <g>
       <use style="stroke:#000000;stroke-width:0.8;" x="96.334375" xlink:href="#mdcb0e1fc03" y="70.730145"/>
      </g>
     </g>
     <g id="text_13">
      <!-- F7 -->
      <g transform="translate(77.220313 74.529364)scale(0.1 -0.1)">
       <use xlink:href="#DejaVuSans-70"/>
       <use x="57.519531" xlink:href="#DejaVuSans-55"/>
      </g>
     </g>
    </g>
    <g id="ytick_7">
     <g id="line2d_34">
      <g>
       <use style="stroke:#000000;stroke-width:0.8;" x="96.334375" xlink:href="#mdcb0e1fc03" y="80.810145"/>
      </g>
     </g>
     <g id="text_14">
      <!-- F3 -->
      <g transform="translate(77.220313 84.609364)scale(0.1 -0.1)">
       <use xlink:href="#DejaVuSans-70"/>
       <use x="57.519531" xlink:href="#DejaVuSans-51"/>
      </g>
     </g>
    </g>
    <g id="ytick_8">
     <g id="line2d_35">
      <g>
       <use style="stroke:#000000;stroke-width:0.8;" x="96.334375" xlink:href="#mdcb0e1fc03" y="90.890145"/>
      </g>
     </g>
     <g id="text_15">
      <!-- FC5 -->
      <g transform="translate(70.2375 94.689364)scale(0.1 -0.1)">
       <use xlink:href="#DejaVuSans-70"/>
       <use x="57.519531" xlink:href="#DejaVuSans-67"/>
       <use x="127.34375" xlink:href="#DejaVuSans-53"/>
      </g>
     </g>
    </g>
    <g id="ytick_9">
     <g id="line2d_36">
      <g>
       <use style="stroke:#000000;stroke-width:0.8;" x="96.334375" xlink:href="#mdcb0e1fc03" y="100.970145"/>
      </g>
     </g>
     <g id="text_16">
      <!-- T7 -->
      <g transform="translate(76.864063 104.769364)scale(0.1 -0.1)">
       <use xlink:href="#DejaVuSans-84"/>
       <use x="61.083984" xlink:href="#DejaVuSans-55"/>
      </g>
     </g>
    </g>
    <g id="ytick_10">
     <g id="line2d_37">
      <g>
       <use style="stroke:#000000;stroke-width:0.8;" x="96.334375" xlink:href="#mdcb0e1fc03" y="111.050145"/>
      </g>
     </g>
     <g id="text_17">
      <!-- P7 -->
      <g transform="translate(76.942188 114.849364)scale(0.1 -0.1)">
       <use xlink:href="#DejaVuSans-80"/>
       <use x="60.302734" xlink:href="#DejaVuSans-55"/>
      </g>
     </g>
    </g>
    <g id="ytick_11">
     <g id="line2d_38">
      <g>
       <use style="stroke:#000000;stroke-width:0.8;" x="96.334375" xlink:href="#mdcb0e1fc03" y="121.130145"/>
      </g>
     </g>
     <g id="text_18">
      <!-- O1 -->
      <g transform="translate(75.1 124.929364)scale(0.1 -0.1)">
       <defs>
        <path d="M 12.40625 8.296875 
L 28.515625 8.296875 
L 28.515625 63.921875 
L 10.984375 60.40625 
L 10.984375 69.390625 
L 28.421875 72.90625 
L 38.28125 72.90625 
L 38.28125 8.296875 
L 54.390625 8.296875 
L 54.390625 0 
L 12.40625 0 
z
" id="DejaVuSans-49"/>
       </defs>
       <use xlink:href="#DejaVuSans-79"/>
       <use x="78.710938" xlink:href="#DejaVuSans-49"/>
      </g>
     </g>
    </g>
    <g id="ytick_12">
     <g id="line2d_39">
      <g>
       <use style="stroke:#000000;stroke-width:0.8;" x="96.334375" xlink:href="#mdcb0e1fc03" y="131.210145"/>
      </g>
     </g>
     <g id="text_19">
      <!-- O2 -->
      <g transform="translate(75.1 135.009364)scale(0.1 -0.1)">
       <use xlink:href="#DejaVuSans-79"/>
       <use x="78.710938" xlink:href="#DejaVuSans-50"/>
      </g>
     </g>
    </g>
    <g id="ytick_13">
     <g id="line2d_40">
      <g>
       <use style="stroke:#000000;stroke-width:0.8;" x="96.334375" xlink:href="#mdcb0e1fc03" y="141.290145"/>
      </g>
     </g>
     <g id="text_20">
      <!-- P8 -->
      <g transform="translate(76.942188 145.089364)scale(0.1 -0.1)">
       <use xlink:href="#DejaVuSans-80"/>
       <use x="60.302734" xlink:href="#DejaVuSans-56"/>
      </g>
     </g>
    </g>
    <g id="ytick_14">
     <g id="line2d_41">
      <g>
       <use style="stroke:#000000;stroke-width:0.8;" x="96.334375" xlink:href="#mdcb0e1fc03" y="151.370145"/>
      </g>
     </g>
     <g id="text_21">
      <!-- T8 -->
      <g transform="translate(76.864063 155.169364)scale(0.1 -0.1)">
       <use xlink:href="#DejaVuSans-84"/>
       <use x="61.083984" xlink:href="#DejaVuSans-56"/>
      </g>
     </g>
    </g>
    <g id="ytick_15">
     <g id="line2d_42">
      <g>
       <use style="stroke:#000000;stroke-width:0.8;" x="96.334375" xlink:href="#mdcb0e1fc03" y="161.450145"/>
      </g>
     </g>
     <g id="text_22">
      <!-- FC6 -->
      <g transform="translate(70.2375 165.249364)scale(0.1 -0.1)">
       <use xlink:href="#DejaVuSans-70"/>
       <use x="57.519531" xlink:href="#DejaVuSans-67"/>
       <use x="127.34375" xlink:href="#DejaVuSans-54"/>
      </g>
     </g>
    </g>
    <g id="ytick_16">
     <g id="line2d_43">
      <g>
       <use style="stroke:#000000;stroke-width:0.8;" x="96.334375" xlink:href="#mdcb0e1fc03" y="171.530145"/>
      </g>
     </g>
     <g id="text_23">
      <!-- F4 -->
      <g transform="translate(77.220313 175.329364)scale(0.1 -0.1)">
       <use xlink:href="#DejaVuSans-70"/>
       <use x="57.519531" xlink:href="#DejaVuSans-52"/>
      </g>
     </g>
    </g>
    <g id="ytick_17">
     <g id="line2d_44">
      <g>
       <use style="stroke:#000000;stroke-width:0.8;" x="96.334375" xlink:href="#mdcb0e1fc03" y="181.610145"/>
      </g>
     </g>
     <g id="text_24">
      <!-- F8 -->
      <g transform="translate(77.220313 185.409364)scale(0.1 -0.1)">
       <use xlink:href="#DejaVuSans-70"/>
       <use x="57.519531" xlink:href="#DejaVuSans-56"/>
      </g>
     </g>
    </g>
    <g id="ytick_18">
     <g id="line2d_45">
      <g>
       <use style="stroke:#000000;stroke-width:0.8;" x="96.334375" xlink:href="#mdcb0e1fc03" y="191.690145"/>
      </g>
     </g>
     <g id="text_25">
      <!-- AF4 -->
      <g transform="translate(70.379688 195.489364)scale(0.1 -0.1)">
       <use xlink:href="#DejaVuSans-65"/>
       <use x="68.408203" xlink:href="#DejaVuSans-70"/>
       <use x="125.927734" xlink:href="#DejaVuSans-52"/>
      </g>
     </g>
    </g>
    <g id="ytick_19">
     <g id="line2d_46">
      <g>
       <use style="stroke:#000000;stroke-width:0.8;" x="96.334375" xlink:href="#mdcb0e1fc03" y="201.770145"/>
      </g>
     </g>
     <g id="text_26">
      <!-- RAW_CQ -->
      <g transform="translate(46.753125 205.481082)scale(0.1 -0.1)">
       <defs>
        <path d="M 3.328125 72.90625 
L 13.28125 72.90625 
L 28.609375 11.28125 
L 43.890625 72.90625 
L 54.984375 72.90625 
L 70.3125 11.28125 
L 85.59375 72.90625 
L 95.609375 72.90625 
L 77.296875 0 
L 64.890625 0 
L 49.515625 63.28125 
L 33.984375 0 
L 21.578125 0 
z
" id="DejaVuSans-87"/>
        <path d="M 39.40625 66.21875 
Q 28.65625 66.21875 22.328125 58.203125 
Q 16.015625 50.203125 16.015625 36.375 
Q 16.015625 22.609375 22.328125 14.59375 
Q 28.65625 6.59375 39.40625 6.59375 
Q 50.140625 6.59375 56.421875 14.59375 
Q 62.703125 22.609375 62.703125 36.375 
Q 62.703125 50.203125 56.421875 58.203125 
Q 50.140625 66.21875 39.40625 66.21875 
z
M 53.21875 1.3125 
L 66.21875 -12.890625 
L 54.296875 -12.890625 
L 43.5 -1.21875 
Q 41.890625 -1.3125 41.03125 -1.359375 
Q 40.1875 -1.421875 39.40625 -1.421875 
Q 24.03125 -1.421875 14.8125 8.859375 
Q 5.609375 19.140625 5.609375 36.375 
Q 5.609375 53.65625 14.8125 63.9375 
Q 24.03125 74.21875 39.40625 74.21875 
Q 54.734375 74.21875 63.90625 63.9375 
Q 73.09375 53.65625 73.09375 36.375 
Q 73.09375 23.6875 67.984375 14.640625 
Q 62.890625 5.609375 53.21875 1.3125 
z
" id="DejaVuSans-81"/>
       </defs>
       <use xlink:href="#DejaVuSans-82"/>
       <use x="65.482422" xlink:href="#DejaVuSans-65"/>
       <use x="128.390625" xlink:href="#DejaVuSans-87"/>
       <use x="227.267578" xlink:href="#DejaVuSans-95"/>
       <use x="277.267578" xlink:href="#DejaVuSans-67"/>
       <use x="347.091797" xlink:href="#DejaVuSans-81"/>
      </g>
     </g>
    </g>
    <g id="ytick_20">
     <g id="line2d_47">
      <g>
       <use style="stroke:#000000;stroke-width:0.8;" x="96.334375" xlink:href="#mdcb0e1fc03" y="211.850145"/>
      </g>
     </g>
     <g id="text_27">
      <!-- BATTERY -->
      <g transform="translate(45.629688 215.649364)scale(0.1 -0.1)">
       <defs>
        <path d="M 19.671875 34.8125 
L 19.671875 8.109375 
L 35.5 8.109375 
Q 43.453125 8.109375 47.28125 11.40625 
Q 51.125 14.703125 51.125 21.484375 
Q 51.125 28.328125 47.28125 31.5625 
Q 43.453125 34.8125 35.5 34.8125 
z
M 19.671875 64.796875 
L 19.671875 42.828125 
L 34.28125 42.828125 
Q 41.5 42.828125 45.03125 45.53125 
Q 48.578125 48.25 48.578125 53.8125 
Q 48.578125 59.328125 45.03125 62.0625 
Q 41.5 64.796875 34.28125 64.796875 
z
M 9.8125 72.90625 
L 35.015625 72.90625 
Q 46.296875 72.90625 52.390625 68.21875 
Q 58.5 63.53125 58.5 54.890625 
Q 58.5 48.1875 55.375 44.234375 
Q 52.25 40.28125 46.1875 39.3125 
Q 53.46875 37.75 57.5 32.78125 
Q 61.53125 27.828125 61.53125 20.40625 
Q 61.53125 10.640625 54.890625 5.3125 
Q 48.25 0 35.984375 0 
L 9.8125 0 
z
" id="DejaVuSans-66"/>
        <path d="M -0.203125 72.90625 
L 10.40625 72.90625 
L 30.609375 42.921875 
L 50.6875 72.90625 
L 61.28125 72.90625 
L 35.5 34.71875 
L 35.5 0 
L 25.59375 0 
L 25.59375 34.71875 
z
" id="DejaVuSans-89"/>
       </defs>
       <use xlink:href="#DejaVuSans-66"/>
       <use x="68.603516" xlink:href="#DejaVuSans-65"/>
       <use x="129.261719" xlink:href="#DejaVuSans-84"/>
       <use x="188.595703" xlink:href="#DejaVuSans-84"/>
       <use x="249.679688" xlink:href="#DejaVuSans-69"/>
       <use x="312.863281" xlink:href="#DejaVuSans-82"/>
       <use x="375.970703" xlink:href="#DejaVuSans-89"/>
      </g>
     </g>
    </g>
   </g>
   <g id="line2d_48">
    <path clip-path="url(#pab6b5ec860)" style="fill:none;stroke:#1f77b4;stroke-linecap:square;stroke-width:0.5;"/>
   </g>
   <g id="line2d_49">
    <path clip-path="url(#pab6b5ec860)" style="fill:none;stroke:#ff7f0e;stroke-linecap:square;stroke-width:0.5;"/>
   </g>
   <g id="line2d_50">
    <path clip-path="url(#pab6b5ec860)" style="fill:none;stroke:#2ca02c;stroke-linecap:square;stroke-width:0.5;"/>
   </g>
   <g id="line2d_51">
    <path clip-path="url(#pab6b5ec860)" style="fill:none;stroke:#d62728;stroke-linecap:square;stroke-width:0.5;"/>
   </g>
   <g id="line2d_52">
    <path clip-path="url(#pab6b5ec860)" style="fill:none;stroke:#9467bd;stroke-linecap:square;stroke-width:0.5;"/>
   </g>
   <g id="line2d_53">
    <path clip-path="url(#pab6b5ec860)" style="fill:none;stroke:#8c564b;stroke-linecap:square;stroke-width:0.5;"/>
   </g>
   <g id="line2d_54">
    <path clip-path="url(#pab6b5ec860)" style="fill:none;stroke:#e377c2;stroke-linecap:square;stroke-width:0.5;"/>
   </g>
   <g id="line2d_55">
    <path clip-path="url(#pab6b5ec860)" style="fill:none;stroke:#7f7f7f;stroke-linecap:square;stroke-width:0.5;"/>
   </g>
   <g id="line2d_56">
    <path clip-path="url(#pab6b5ec860)" style="fill:none;stroke:#bcbd22;stroke-linecap:square;stroke-width:0.5;"/>
   </g>
   <g id="line2d_57">
    <path clip-path="url(#pab6b5ec860)" style="fill:none;stroke:#17becf;stroke-linecap:square;stroke-width:0.5;"/>
   </g>
   <g id="line2d_58">
    <path clip-path="url(#pab6b5ec860)" style="fill:none;stroke:#1f77b4;stroke-linecap:square;stroke-width:0.5;"/>
   </g>
   <g id="line2d_59">
    <path clip-path="url(#pab6b5ec860)" style="fill:none;stroke:#ff7f0e;stroke-linecap:square;stroke-width:0.5;"/>
   </g>
   <g id="line2d_60">
    <path clip-path="url(#pab6b5ec860)" style="fill:none;stroke:#2ca02c;stroke-linecap:square;stroke-width:0.5;"/>
   </g>
   <g id="line2d_61">
    <path clip-path="url(#pab6b5ec860)" style="fill:none;stroke:#d62728;stroke-linecap:square;stroke-width:0.5;"/>
   </g>
   <g id="line2d_62">
    <path clip-path="url(#pab6b5ec860)" style="fill:none;stroke:#9467bd;stroke-linecap:square;stroke-width:0.5;"/>
   </g>
   <g id="line2d_63">
    <path clip-path="url(#pab6b5ec860)" style="fill:none;stroke:#8c564b;stroke-linecap:square;stroke-width:0.5;"/>
   </g>
   <g id="line2d_64">
    <path clip-path="url(#pab6b5ec860)" style="fill:none;stroke:#e377c2;stroke-linecap:square;stroke-width:0.5;"/>
   </g>
   <g id="line2d_65">
    <path clip-path="url(#pab6b5ec860)" style="fill:none;stroke:#7f7f7f;stroke-linecap:square;stroke-width:0.5;"/>
   </g>
   <g id="line2d_66">
    <path clip-path="url(#pab6b5ec860)" style="fill:none;stroke:#bcbd22;stroke-linecap:square;stroke-width:0.5;"/>
   </g>
   <g id="line2d_67">
    <path clip-path="url(#pab6b5ec860)" style="fill:none;stroke:#17becf;stroke-linecap:square;stroke-width:0.5;"/>
   </g>
   <g id="line2d_68">
    <path clip-path="url(#pab6b5ec860)" style="fill:none;stroke:#1f77b4;stroke-linecap:square;stroke-width:0.5;"/>
   </g>
   <g id="line2d_69">
    <path clip-path="url(#pab6b5ec860)" style="fill:none;stroke:#00ffff;stroke-linecap:square;stroke-width:1.5;"/>
   </g>
   <g id="patch_3">
    <path d="M 96.334375 216.890145 
L 96.334375 15.290145 
" style="fill:none;stroke:#000000;stroke-linecap:square;stroke-linejoin:miter;stroke-width:0.8;"/>
   </g>
   <g id="patch_4">
    <path d="M 423.934375 216.890145 
L 423.934375 15.290145 
" style="fill:none;stroke:#000000;stroke-linecap:square;stroke-linejoin:miter;stroke-width:0.8;"/>
   </g>
   <g id="patch_5">
    <path d="M 96.334375 216.890145 
L 423.934375 216.890145 
" style="fill:none;stroke:#000000;stroke-linecap:square;stroke-linejoin:miter;stroke-width:0.8;"/>
   </g>
   <g id="patch_6">
    <path d="M 96.334375 15.290145 
L 423.934375 15.290145 
" style="fill:none;stroke:#000000;stroke-linecap:square;stroke-linejoin:miter;stroke-width:0.8;"/>
   </g>
   <g id="text_28">
    <!-- AAA -->
    <g style="fill:#1f77b4;" transform="translate(167.698438 14.798437)scale(0.1 -0.1)">
     <use xlink:href="#DejaVuSans-65"/>
     <use x="71.158203" xlink:href="#DejaVuSans-65"/>
     <use x="142.316406" xlink:href="#DejaVuSans-65"/>
    </g>
   </g>
   <g id="text_29">
    <!-- AAA -->
    <g style="fill:#1f77b4;" transform="translate(201.823438 14.798437)scale(0.1 -0.1)">
     <use xlink:href="#DejaVuSans-65"/>
     <use x="71.158203" xlink:href="#DejaVuSans-65"/>
     <use x="142.316406" xlink:href="#DejaVuSans-65"/>
    </g>
   </g>
   <g id="text_30">
    <!-- BBB -->
    <g style="fill:#ff7f0e;" transform="translate(263.492969 14.798437)scale(0.1 -0.1)">
     <use xlink:href="#DejaVuSans-66"/>
     <use x="68.603516" xlink:href="#DejaVuSans-66"/>
     <use x="137.207031" xlink:href="#DejaVuSans-66"/>
    </g>
   </g>
   <g id="text_31">
    <!-- CCC -->
    <g style="fill:#2ca02c;" transform="translate(365.685156 14.798437)scale(0.1 -0.1)">
     <use xlink:href="#DejaVuSans-67"/>
     <use x="69.824219" xlink:href="#DejaVuSans-67"/>
     <use x="139.648438" xlink:href="#DejaVuSans-67"/>
    </g>
   </g>
   <g id="line2d_70">
    <path clip-path="url(#pab6b5ec860)" style="fill:none;stroke:#00bf00;stroke-linecap:square;stroke-width:1.5;"/>
   </g>
   <g id="line2d_71">
    <path clip-path="url(#pab6b5ec860)" d="M 96.334375 15.413072 
L 96.334375 25.247218 
" style="fill:none;stroke:#aa3377;stroke-linecap:square;stroke-width:4;"/>
   </g>
   <g id="text_32">
    <!-- 40.0 V  -->
    <g style="fill:#aa3377;" transform="translate(72.1177 25.247218)scale(0.0579 -0.0579)">
     <defs>
      <path d="M 31.78125 66.40625 
Q 24.171875 66.40625 20.328125 58.90625 
Q 16.5 51.421875 16.5 36.375 
Q 16.5 21.390625 20.328125 13.890625 
Q 24.171875 6.390625 31.78125 6.390625 
Q 39.453125 6.390625 43.28125 13.890625 
Q 47.125 21.390625 47.125 36.375 
Q 47.125 51.421875 43.28125 58.90625 
Q 39.453125 66.40625 31.78125 66.40625 
z
M 31.78125 74.21875 
Q 44.046875 74.21875 50.515625 64.515625 
Q 56.984375 54.828125 56.984375 36.375 
Q 56.984375 17.96875 50.515625 8.265625 
Q 44.046875 -1.421875 31.78125 -1.421875 
Q 19.53125 -1.421875 13.0625 8.265625 
Q 6.59375 17.96875 6.59375 36.375 
Q 6.59375 54.828125 13.0625 64.515625 
Q 19.53125 74.21875 31.78125 74.21875 
z
" id="DejaVuSans-48"/>
      <path d="M 10.6875 12.40625 
L 21 12.40625 
L 21 0 
L 10.6875 0 
z
" id="DejaVuSans-46"/>
      <path id="DejaVuSans-32"/>
      <path d="M 8.5 -20.796875 
L 8.5 54.6875 
L 17.484375 54.6875 
L 17.484375 20.703125 
Q 17.484375 13.625 20.84375 10 
Q 24.21875 6.390625 30.8125 6.390625 
Q 38.03125 6.390625 41.671875 10.484375 
Q 45.3125 14.59375 45.3125 22.796875 
L 45.3125 54.6875 
L 54.296875 54.6875 
L 54.296875 12.59375 
Q 54.296875 9.671875 55.140625 8.28125 
Q 56 6.890625 57.8125 6.890625 
Q 58.25 6.890625 59.03125 7.15625 
Q 59.8125 7.421875 61.1875 8.015625 
L 61.1875 0.78125 
Q 59.1875 -0.34375 57.390625 -0.875 
Q 55.609375 -1.421875 53.90625 -1.421875 
Q 50.53125 -1.421875 48.53125 0.484375 
Q 46.53125 2.390625 45.796875 6.296875 
Q 43.359375 2.4375 39.8125 0.5 
Q 36.28125 -1.421875 31.5 -1.421875 
Q 26.515625 -1.421875 23.015625 0.484375 
Q 19.53125 2.390625 17.484375 6.203125 
L 17.484375 -20.796875 
z
" id="DejaVuSans-181"/>
      <path d="M 28.609375 0 
L 0.78125 72.90625 
L 11.078125 72.90625 
L 34.1875 11.53125 
L 57.328125 72.90625 
L 67.578125 72.90625 
L 39.796875 0 
z
" id="DejaVuSans-86"/>
     </defs>
     <use xlink:href="#DejaVuSans-52"/>
     <use x="63.623047" xlink:href="#DejaVuSans-48"/>
     <use x="127.246094" xlink:href="#DejaVuSans-46"/>
     <use x="159.033203" xlink:href="#DejaVuSans-48"/>
     <use x="222.65625" xlink:href="#DejaVuSans-32"/>
     <use x="254.443359" xlink:href="#DejaVuSans-181"/>
     <use x="318.066406" xlink:href="#DejaVuSans-86"/>
     <use x="386.474609" xlink:href="#DejaVuSans-32"/>
    </g>
   </g>
  </g>
  <g id="axes_2">
   <g id="patch_7">
    <path d="M 96.334375 252.890145 
L 423.934375 252.890145 
L 423.934375 234.890145 
L 96.334375 234.890145 
z
" style="fill:#ffffff;"/>
   </g>
   <g id="PolyCollection_5">
    <defs>
     <path d="M 109.181434 -38.374432 
L 105.969669 -38.374432 
L 105.969669 -54.738068 
L 109.181434 -54.738068 
L 109.181434 -54.738068 
L 109.181434 -38.374432 
z
" id="md747c988bd" style="stroke:#1f77b4;stroke-opacity:0.3;"/>
    </defs>
    <g clip-path="url(#pda20241b3d)">
     <use style="fill:#1f77b4;fill-opacity:0.3;stroke:#1f77b4;stroke-opacity:0.3;" x="0" xlink:href="#md747c988bd" y="290.446395"/>
    </g>
   </g>
   <g id="PolyCollection_6">
    <defs>
     <path d="M 110.787316 -38.374432 
L 108.378493 -38.374432 
L 108.378493 -54.738068 
L 110.787316 -54.738068 
L 110.787316 -54.738068 
L 110.787316 -38.374432 
z
" id="m58f37df708" style="stroke:#1f77b4;stroke-opacity:0.3;"/>
    </defs>
    <g clip-path="url(#pda20241b3d)">
     <use style="fill:#1f77b4;fill-opacity:0.3;stroke:#1f77b4;stroke-opacity:0.3;" x="0" xlink:href="#m58f37df708" y="290.446395"/>
    </g>
   </g>
   <g id="PolyCollection_7">
    <defs>
     <path d="M 113.999081 -38.374432 
L 112.393199 -38.374432 
L 112.393199 -54.738068 
L 113.999081 -54.738068 
L 113.999081 -54.738068 
L 113.999081 -38.374432 
z
" id="m2b99883400" style="stroke:#ff7f0e;stroke-opacity:0.3;"/>
    </defs>
    <g clip-path="url(#pda20241b3d)">
     <use style="fill:#ff7f0e;fill-opacity:0.3;stroke:#ff7f0e;stroke-opacity:0.3;" x="0" xlink:href="#m2b99883400" y="290.446395"/>
    </g>
   </g>
   <g id="PolyCollection_8">
    <defs>
     <path d="M 119.619669 -38.374432 
L 118.816728 -38.374432 
L 118.816728 -54.738068 
L 119.619669 -54.738068 
L 119.619669 -54.738068 
L 119.619669 -38.374432 
z
" id="m07c0ecf871" style="stroke:#2ca02c;stroke-opacity:0.3;"/>
    </defs>
    <g clip-path="url(#pda20241b3d)">
     <use style="fill:#2ca02c;fill-opacity:0.3;stroke:#2ca02c;stroke-opacity:0.3;" x="0" xlink:href="#m07c0ecf871" y="290.446395"/>
    </g>
   </g>
   <g id="patch_8">
    <path d="M 102.757904 252.071963 
L 122.028493 252.071963 
L 122.028493 235.708327 
L 102.757904 235.708327 
z
" style="fill:#bfbfbf;opacity:0.25;stroke:#000000;stroke-linejoin:miter;stroke-width:4;"/>
   </g>
   <g id="matplotlib.axis_3">
    <g id="xtick_8">
     <g id="line2d_72">
      <g>
       <use style="stroke:#000000;stroke-width:0.8;" x="96.334375" xlink:href="#me6435b2968" y="252.890145"/>
      </g>
     </g>
     <g id="text_33">
      <!-- 0 -->
      <g transform="translate(93.153125 267.488582)scale(0.1 -0.1)">
       <use xlink:href="#DejaVuSans-48"/>
      </g>
     </g>
    </g>
    <g id="xtick_9">
     <g id="line2d_73">
      <g>
       <use style="stroke:#000000;stroke-width:0.8;" x="160.569669" xlink:href="#me6435b2968" y="252.890145"/>
      </g>
     </g>
     <g id="text_34">
      <!-- 20 -->
      <g transform="translate(154.207169 267.488582)scale(0.1 -0.1)">
       <use xlink:href="#DejaVuSans-50"/>
       <use x="63.623047" xlink:href="#DejaVuSans-48"/>
      </g>
     </g>
    </g>
    <g id="xtick_10">
     <g id="line2d_74">
      <g>
       <use style="stroke:#000000;stroke-width:0.8;" x="224.804963" xlink:href="#me6435b2968" y="252.890145"/>
      </g>
     </g>
     <g id="text_35">
      <!-- 40 -->
      <g transform="translate(218.442463 267.488582)scale(0.1 -0.1)">
       <use xlink:href="#DejaVuSans-52"/>
       <use x="63.623047" xlink:href="#DejaVuSans-48"/>
      </g>
     </g>
    </g>
    <g id="xtick_11">
     <g id="line2d_75">
      <g>
       <use style="stroke:#000000;stroke-width:0.8;" x="289.040257" xlink:href="#me6435b2968" y="252.890145"/>
      </g>
     </g>
     <g id="text_36">
      <!-- 60 -->
      <g transform="translate(282.677757 267.488582)scale(0.1 -0.1)">
       <use xlink:href="#DejaVuSans-54"/>
       <use x="63.623047" xlink:href="#DejaVuSans-48"/>
      </g>
     </g>
    </g>
    <g id="xtick_12">
     <g id="line2d_76">
      <g>
       <use style="stroke:#000000;stroke-width:0.8;" x="353.275551" xlink:href="#me6435b2968" y="252.890145"/>
      </g>
     </g>
     <g id="text_37">
      <!-- 80 -->
      <g transform="translate(346.913051 267.488582)scale(0.1 -0.1)">
       <use xlink:href="#DejaVuSans-56"/>
       <use x="63.623047" xlink:href="#DejaVuSans-48"/>
      </g>
     </g>
    </g>
    <g id="xtick_13">
     <g id="line2d_77">
      <g>
       <use style="stroke:#000000;stroke-width:0.8;" x="417.510846" xlink:href="#me6435b2968" y="252.890145"/>
      </g>
     </g>
     <g id="text_38">
      <!-- 100 -->
      <g transform="translate(407.967096 267.488582)scale(0.1 -0.1)">
       <use xlink:href="#DejaVuSans-49"/>
       <use x="63.623047" xlink:href="#DejaVuSans-48"/>
       <use x="127.246094" xlink:href="#DejaVuSans-48"/>
      </g>
     </g>
    </g>
    <g id="text_39">
     <!-- Time (s) -->
     <g transform="translate(239.805469 281.166707)scale(0.1 -0.1)">
      <defs>
       <path d="M 9.421875 54.6875 
L 18.40625 54.6875 
L 18.40625 0 
L 9.421875 0 
z
M 9.421875 75.984375 
L 18.40625 75.984375 
L 18.40625 64.59375 
L 9.421875 64.59375 
z
" id="DejaVuSans-105"/>
       <path d="M 56.203125 29.59375 
L 56.203125 25.203125 
L 14.890625 25.203125 
Q 15.484375 15.921875 20.484375 11.0625 
Q 25.484375 6.203125 34.421875 6.203125 
Q 39.59375 6.203125 44.453125 7.46875 
Q 49.3125 8.734375 54.109375 11.28125 
L 54.109375 2.78125 
Q 49.265625 0.734375 44.1875 -0.34375 
Q 39.109375 -1.421875 33.890625 -1.421875 
Q 20.796875 -1.421875 13.15625 6.1875 
Q 5.515625 13.8125 5.515625 26.8125 
Q 5.515625 40.234375 12.765625 48.109375 
Q 20.015625 56 32.328125 56 
Q 43.359375 56 49.78125 48.890625 
Q 56.203125 41.796875 56.203125 29.59375 
z
M 47.21875 32.234375 
Q 47.125 39.59375 43.09375 43.984375 
Q 39.0625 48.390625 32.421875 48.390625 
Q 24.90625 48.390625 20.390625 44.140625 
Q 15.875 39.890625 15.1875 32.171875 
z
" id="DejaVuSans-101"/>
       <path d="M 31 75.875 
Q 24.46875 64.65625 21.28125 53.65625 
Q 18.109375 42.671875 18.109375 31.390625 
Q 18.109375 20.125 21.3125 9.0625 
Q 24.515625 -2 31 -13.1875 
L 23.1875 -13.1875 
Q 15.875 -1.703125 12.234375 9.375 
Q 8.59375 20.453125 8.59375 31.390625 
Q 8.59375 42.28125 12.203125 53.3125 
Q 15.828125 64.359375 23.1875 75.875 
z
" id="DejaVuSans-40"/>
       <path d="M 8.015625 75.875 
L 15.828125 75.875 
Q 23.140625 64.359375 26.78125 53.3125 
Q 30.421875 42.28125 30.421875 31.390625 
Q 30.421875 20.453125 26.78125 9.375 
Q 23.140625 -1.703125 15.828125 -13.1875 
L 8.015625 -13.1875 
Q 14.5 -2 17.703125 9.0625 
Q 20.90625 20.125 20.90625 31.390625 
Q 20.90625 42.671875 17.703125 53.65625 
Q 14.5 64.65625 8.015625 75.875 
z
" id="DejaVuSans-41"/>
      </defs>
      <use xlink:href="#DejaVuSans-84"/>
      <use x="57.958984" xlink:href="#DejaVuSans-105"/>
      <use x="85.742188" xlink:href="#DejaVuSans-109"/>
      <use x="183.154297" xlink:href="#DejaVuSans-101"/>
      <use x="244.677734" xlink:href="#DejaVuSans-32"/>
      <use x="276.464844" xlink:href="#DejaVuSans-40"/>
      <use x="315.478516" xlink:href="#DejaVuSans-115"/>
      <use x="367.578125" xlink:href="#DejaVuSans-41"/>
     </g>
    </g>
   </g>
   <g id="line2d_78">
    <path clip-path="url(#pda20241b3d)" d="M 96.334375 252.890145 
L 96.334375 234.890145 
" style="fill:none;stroke:#00bf00;stroke-linecap:square;stroke-width:1.5;"/>
   </g>
   <g id="patch_9">
    <path d="M 96.334375 252.890145 
L 96.334375 234.890145 
" style="fill:none;stroke:#000000;stroke-linecap:square;stroke-linejoin:miter;stroke-width:0.8;"/>
   </g>
   <g id="patch_10">
    <path d="M 423.934375 252.890145 
L 423.934375 234.890145 
" style="fill:none;stroke:#000000;stroke-linecap:square;stroke-linejoin:miter;stroke-width:0.8;"/>
   </g>
   <g id="patch_11">
    <path d="M 96.334375 252.890145 
L 423.934375 252.890145 
" style="fill:none;stroke:#000000;stroke-linecap:square;stroke-linejoin:miter;stroke-width:0.8;"/>
   </g>
   <g id="patch_12">
    <path d="M 96.334375 234.890145 
L 423.934375 234.890145 
" style="fill:none;stroke:#000000;stroke-linecap:square;stroke-linejoin:miter;stroke-width:0.8;"/>
   </g>
  </g>
  <g id="axes_3">
   <g id="patch_13">
    <path clip-path="url(#p44883c0c38)" d="M 431.134375 15.290145 
L 449.134375 15.290145 
L 449.134375 20.207218 
L 431.134375 20.207218 
z
" style="stroke:#000000;stroke-linejoin:miter;"/>
   </g>
   <g id="patch_14">
    <path clip-path="url(#p44883c0c38)" d="M 431.134375 20.207218 
L 449.134375 20.207218 
L 449.134375 25.124291 
L 431.134375 25.124291 
z
" style="stroke:#000000;stroke-linejoin:miter;"/>
   </g>
   <g id="patch_15">
    <path clip-path="url(#p44883c0c38)" d="M 431.134375 25.124291 
L 449.134375 25.124291 
L 449.134375 30.041364 
L 431.134375 30.041364 
z
" style="stroke:#000000;stroke-linejoin:miter;"/>
   </g>
   <g id="patch_16">
    <path clip-path="url(#p44883c0c38)" d="M 431.134375 30.041364 
L 449.134375 30.041364 
L 449.134375 34.958437 
L 431.134375 34.958437 
z
" style="stroke:#000000;stroke-linejoin:miter;"/>
   </g>
   <g id="patch_17">
    <path clip-path="url(#p44883c0c38)" d="M 431.134375 34.958438 
L 449.134375 34.958438 
L 449.134375 39.875511 
L 431.134375 39.875511 
z
" style="stroke:#000000;stroke-linejoin:miter;"/>
   </g>
   <g id="patch_18">
    <path clip-path="url(#p44883c0c38)" d="M 431.134375 39.875511 
L 449.134375 39.875511 
L 449.134375 44.792584 
L 431.134375 44.792584 
z
" style="stroke:#000000;stroke-linejoin:miter;"/>
   </g>
   <g id="patch_19">
    <path clip-path="url(#p44883c0c38)" d="M 431.134375 44.792584 
L 449.134375 44.792584 
L 449.134375 49.709657 
L 431.134375 49.709657 
z
" style="stroke:#000000;stroke-linejoin:miter;"/>
   </g>
   <g id="patch_20">
    <path clip-path="url(#p44883c0c38)" d="M 431.134375 49.709657 
L 449.134375 49.709657 
L 449.134375 54.62673 
L 431.134375 54.62673 
z
" style="stroke:#000000;stroke-linejoin:miter;"/>
   </g>
   <g id="patch_21">
    <path clip-path="url(#p44883c0c38)" d="M 431.134375 54.62673 
L 449.134375 54.62673 
L 449.134375 59.543803 
L 431.134375 59.543803 
z
" style="stroke:#000000;stroke-linejoin:miter;"/>
   </g>
   <g id="patch_22">
    <path clip-path="url(#p44883c0c38)" d="M 431.134375 59.543803 
L 449.134375 59.543803 
L 449.134375 64.460877 
L 431.134375 64.460877 
z
" style="stroke:#000000;stroke-linejoin:miter;"/>
   </g>
   <g id="patch_23">
    <path clip-path="url(#p44883c0c38)" d="M 431.134375 64.460877 
L 449.134375 64.460877 
L 449.134375 69.37795 
L 431.134375 69.37795 
z
" style="stroke:#000000;stroke-linejoin:miter;"/>
   </g>
   <g id="patch_24">
    <path clip-path="url(#p44883c0c38)" d="M 431.134375 69.37795 
L 449.134375 69.37795 
L 449.134375 74.295023 
L 431.134375 74.295023 
z
" style="stroke:#000000;stroke-linejoin:miter;"/>
   </g>
   <g id="patch_25">
    <path clip-path="url(#p44883c0c38)" d="M 431.134375 74.295023 
L 449.134375 74.295023 
L 449.134375 79.212096 
L 431.134375 79.212096 
z
" style="stroke:#000000;stroke-linejoin:miter;"/>
   </g>
   <g id="patch_26">
    <path clip-path="url(#p44883c0c38)" d="M 431.134375 79.212096 
L 449.134375 79.212096 
L 449.134375 84.129169 
L 431.134375 84.129169 
z
" style="stroke:#000000;stroke-linejoin:miter;"/>
   </g>
   <g id="patch_27">
    <path clip-path="url(#p44883c0c38)" d="M 431.134375 84.129169 
L 449.134375 84.129169 
L 449.134375 89.046242 
L 431.134375 89.046242 
z
" style="stroke:#000000;stroke-linejoin:miter;"/>
   </g>
   <g id="patch_28">
    <path clip-path="url(#p44883c0c38)" d="M 431.134375 89.046242 
L 449.134375 89.046242 
L 449.134375 93.963316 
L 431.134375 93.963316 
z
" style="stroke:#000000;stroke-linejoin:miter;"/>
   </g>
   <g id="patch_29">
    <path clip-path="url(#p44883c0c38)" d="M 431.134375 93.963316 
L 449.134375 93.963316 
L 449.134375 98.880389 
L 431.134375 98.880389 
z
" style="stroke:#000000;stroke-linejoin:miter;"/>
   </g>
   <g id="patch_30">
    <path clip-path="url(#p44883c0c38)" d="M 431.134375 98.880389 
L 449.134375 98.880389 
L 449.134375 103.797462 
L 431.134375 103.797462 
z
" style="stroke:#000000;stroke-linejoin:miter;"/>
   </g>
   <g id="patch_31">
    <path clip-path="url(#p44883c0c38)" d="M 431.134375 103.797462 
L 449.134375 103.797462 
L 449.134375 108.714535 
L 431.134375 108.714535 
z
" style="stroke:#000000;stroke-linejoin:miter;"/>
   </g>
   <g id="patch_32">
    <path clip-path="url(#p44883c0c38)" d="M 431.134375 108.714535 
L 449.134375 108.714535 
L 449.134375 113.631608 
L 431.134375 113.631608 
z
" style="stroke:#000000;stroke-linejoin:miter;"/>
   </g>
   <g id="patch_33">
    <path clip-path="url(#p44883c0c38)" d="M 431.134375 113.631608 
L 449.134375 113.631608 
L 449.134375 118.548681 
L 431.134375 118.548681 
z
" style="stroke:#000000;stroke-linejoin:miter;"/>
   </g>
   <g id="patch_34">
    <path clip-path="url(#p44883c0c38)" d="M 431.134375 118.548681 
L 449.134375 118.548681 
L 449.134375 123.465755 
L 431.134375 123.465755 
z
" style="stroke:#000000;stroke-linejoin:miter;"/>
   </g>
   <g id="patch_35">
    <path clip-path="url(#p44883c0c38)" d="M 431.134375 123.465755 
L 449.134375 123.465755 
L 449.134375 128.382828 
L 431.134375 128.382828 
z
" style="stroke:#000000;stroke-linejoin:miter;"/>
   </g>
   <g id="patch_36">
    <path clip-path="url(#p44883c0c38)" d="M 431.134375 128.382828 
L 449.134375 128.382828 
L 449.134375 133.299901 
L 431.134375 133.299901 
z
" style="stroke:#000000;stroke-linejoin:miter;"/>
   </g>
   <g id="patch_37">
    <path clip-path="url(#p44883c0c38)" d="M 431.134375 133.299901 
L 449.134375 133.299901 
L 449.134375 138.216974 
L 431.134375 138.216974 
z
" style="stroke:#000000;stroke-linejoin:miter;"/>
   </g>
   <g id="patch_38">
    <path clip-path="url(#p44883c0c38)" d="M 431.134375 138.216974 
L 449.134375 138.216974 
L 449.134375 143.134047 
L 431.134375 143.134047 
z
" style="stroke:#000000;stroke-linejoin:miter;"/>
   </g>
   <g id="patch_39">
    <path clip-path="url(#p44883c0c38)" d="M 431.134375 143.134047 
L 449.134375 143.134047 
L 449.134375 148.05112 
L 431.134375 148.05112 
z
" style="stroke:#000000;stroke-linejoin:miter;"/>
   </g>
   <g id="patch_40">
    <path clip-path="url(#p44883c0c38)" d="M 431.134375 148.05112 
L 449.134375 148.05112 
L 449.134375 152.968194 
L 431.134375 152.968194 
z
" style="stroke:#000000;stroke-linejoin:miter;"/>
   </g>
   <g id="patch_41">
    <path clip-path="url(#p44883c0c38)" d="M 431.134375 152.968194 
L 449.134375 152.968194 
L 449.134375 157.885267 
L 431.134375 157.885267 
z
" style="stroke:#000000;stroke-linejoin:miter;"/>
   </g>
   <g id="patch_42">
    <path clip-path="url(#p44883c0c38)" d="M 431.134375 157.885267 
L 449.134375 157.885267 
L 449.134375 162.80234 
L 431.134375 162.80234 
z
" style="stroke:#000000;stroke-linejoin:miter;"/>
   </g>
   <g id="patch_43">
    <path clip-path="url(#p44883c0c38)" d="M 431.134375 162.80234 
L 449.134375 162.80234 
L 449.134375 167.719413 
L 431.134375 167.719413 
z
" style="stroke:#000000;stroke-linejoin:miter;"/>
   </g>
   <g id="patch_44">
    <path clip-path="url(#p44883c0c38)" d="M 431.134375 167.719413 
L 449.134375 167.719413 
L 449.134375 172.636486 
L 431.134375 172.636486 
z
" style="stroke:#000000;stroke-linejoin:miter;"/>
   </g>
   <g id="patch_45">
    <path clip-path="url(#p44883c0c38)" d="M 431.134375 172.636486 
L 449.134375 172.636486 
L 449.134375 177.553559 
L 431.134375 177.553559 
z
" style="stroke:#000000;stroke-linejoin:miter;"/>
   </g>
   <g id="patch_46">
    <path clip-path="url(#p44883c0c38)" d="M 431.134375 177.553559 
L 449.134375 177.553559 
L 449.134375 182.470633 
L 431.134375 182.470633 
z
" style="stroke:#000000;stroke-linejoin:miter;"/>
   </g>
   <g id="patch_47">
    <path clip-path="url(#p44883c0c38)" d="M 431.134375 182.470633 
L 449.134375 182.470633 
L 449.134375 187.387706 
L 431.134375 187.387706 
z
" style="stroke:#000000;stroke-linejoin:miter;"/>
   </g>
   <g id="patch_48">
    <path clip-path="url(#p44883c0c38)" d="M 431.134375 187.387706 
L 449.134375 187.387706 
L 449.134375 192.304779 
L 431.134375 192.304779 
z
" style="stroke:#000000;stroke-linejoin:miter;"/>
   </g>
   <g id="patch_49">
    <path clip-path="url(#p44883c0c38)" d="M 431.134375 192.304779 
L 449.134375 192.304779 
L 449.134375 197.221852 
L 431.134375 197.221852 
z
" style="stroke:#000000;stroke-linejoin:miter;"/>
   </g>
   <g id="patch_50">
    <path clip-path="url(#p44883c0c38)" d="M 431.134375 197.221852 
L 449.134375 197.221852 
L 449.134375 202.138925 
L 431.134375 202.138925 
z
" style="stroke:#000000;stroke-linejoin:miter;"/>
   </g>
   <g id="patch_51">
    <path clip-path="url(#p44883c0c38)" d="M 431.134375 202.138925 
L 449.134375 202.138925 
L 449.134375 207.055998 
L 431.134375 207.055998 
z
" style="stroke:#000000;stroke-linejoin:miter;"/>
   </g>
   <g id="patch_52">
    <path clip-path="url(#p44883c0c38)" d="M 431.134375 207.055998 
L 449.134375 207.055998 
L 449.134375 211.973072 
L 431.134375 211.973072 
z
" style="stroke:#000000;stroke-linejoin:miter;"/>
   </g>
   <g id="patch_53">
    <path clip-path="url(#p44883c0c38)" d="M 431.134375 211.973072 
L 449.134375 211.973072 
L 449.134375 216.890145 
L 431.134375 216.890145 
z
" style="stroke:#000000;stroke-linejoin:miter;"/>
   </g>
   <g id="patch_54">
    <path clip-path="url(#p44883c0c38)" d="M 431.134375 15.290145 
L 449.134375 15.290145 
L 449.134375 113.631608 
L 431.134375 113.631608 
z
" style="fill:#ffffff;opacity:0.5;stroke:#ffffff;stroke-linejoin:miter;"/>
   </g>
  </g>
  <g id="axes_4">
   <g id="patch_55">
    <path d="M 53.134375 252.890145 
L 89.134375 252.890145 
L 89.134375 234.890145 
L 53.134375 234.890145 
z
" style="fill:#d9d9d9;"/>
   </g>
   <g id="matplotlib.axis_4"/>
   <g id="matplotlib.axis_5"/>
   <g id="patch_56">
    <path d="M 53.134375 252.890145 
L 53.134375 234.890145 
" style="fill:none;stroke:#000000;stroke-linecap:square;stroke-linejoin:miter;stroke-width:0.8;"/>
   </g>
   <g id="patch_57">
    <path d="M 89.134375 252.890145 
L 89.134375 234.890145 
" style="fill:none;stroke:#000000;stroke-linecap:square;stroke-linejoin:miter;stroke-width:0.8;"/>
   </g>
   <g id="patch_58">
    <path d="M 53.134375 252.890145 
L 89.134375 252.890145 
" style="fill:none;stroke:#000000;stroke-linecap:square;stroke-linejoin:miter;stroke-width:0.8;"/>
   </g>
   <g id="patch_59">
    <path d="M 53.134375 234.890145 
L 89.134375 234.890145 
" style="fill:none;stroke:#000000;stroke-linecap:square;stroke-linejoin:miter;stroke-width:0.8;"/>
   </g>
   <g id="text_40">
    <!-- Help -->
    <g transform="translate(59.734375 246.64952)scale(0.1 -0.1)">
     <defs>
      <path d="M 9.8125 72.90625 
L 19.671875 72.90625 
L 19.671875 43.015625 
L 55.515625 43.015625 
L 55.515625 72.90625 
L 65.375 72.90625 
L 65.375 0 
L 55.515625 0 
L 55.515625 34.71875 
L 19.671875 34.71875 
L 19.671875 0 
L 9.8125 0 
z
" id="DejaVuSans-72"/>
      <path d="M 9.421875 75.984375 
L 18.40625 75.984375 
L 18.40625 0 
L 9.421875 0 
z
" id="DejaVuSans-108"/>
      <path d="M 18.109375 8.203125 
L 18.109375 -20.796875 
L 9.078125 -20.796875 
L 9.078125 54.6875 
L 18.109375 54.6875 
L 18.109375 46.390625 
Q 20.953125 51.265625 25.265625 53.625 
Q 29.59375 56 35.59375 56 
Q 45.5625 56 51.78125 48.09375 
Q 58.015625 40.1875 58.015625 27.296875 
Q 58.015625 14.40625 51.78125 6.484375 
Q 45.5625 -1.421875 35.59375 -1.421875 
Q 29.59375 -1.421875 25.265625 0.953125 
Q 20.953125 3.328125 18.109375 8.203125 
z
M 48.6875 27.296875 
Q 48.6875 37.203125 44.609375 42.84375 
Q 40.53125 48.484375 33.40625 48.484375 
Q 26.265625 48.484375 22.1875 42.84375 
Q 18.109375 37.203125 18.109375 27.296875 
Q 18.109375 17.390625 22.1875 11.75 
Q 26.265625 6.109375 33.40625 6.109375 
Q 40.53125 6.109375 44.609375 11.75 
Q 48.6875 17.390625 48.6875 27.296875 
z
" id="DejaVuSans-112"/>
     </defs>
     <use xlink:href="#DejaVuSans-72"/>
     <use x="75.195312" xlink:href="#DejaVuSans-101"/>
     <use x="136.71875" xlink:href="#DejaVuSans-108"/>
     <use x="164.501953" xlink:href="#DejaVuSans-112"/>
    </g>
   </g>
  </g>
 </g>
 <defs>
  <clipPath id="pab6b5ec860">
   <rect height="201.6" width="327.6" x="96.334375" y="15.290145"/>
  </clipPath>
  <clipPath id="p95020ee374">
   <rect height="29.502439" width="324.1875" x="96.334375" y="15.290145"/>
  </clipPath>
  <clipPath id="p774bdd0660">
   <rect height="29.502439" width="324.1875" x="96.334375" y="15.658925"/>
  </clipPath>
  <clipPath id="p98c93d1098">
   <rect height="29.502439" width="324.1875" x="96.334375" y="25.738925"/>
  </clipPath>
  <clipPath id="p64ec9a4e73">
   <rect height="29.502439" width="324.1875" x="96.334375" y="35.818925"/>
  </clipPath>
  <clipPath id="p0b98a4f4d1">
   <rect height="29.502439" width="324.1875" x="96.334375" y="45.898925"/>
  </clipPath>
  <clipPath id="pa957defe28">
   <rect height="29.502439" width="324.1875" x="96.334375" y="55.978925"/>
  </clipPath>
  <clipPath id="p6a7e5b5a51">
   <rect height="29.502439" width="324.1875" x="96.334375" y="66.058925"/>
  </clipPath>
  <clipPath id="p9b28c4ad79">
   <rect height="29.502439" width="324.1875" x="96.334375" y="76.138925"/>
  </clipPath>
  <clipPath id="p373983ff4a">
   <rect height="29.502439" width="324.1875" x="96.334375" y="86.218925"/>
  </clipPath>
  <clipPath id="p6c18c9eb99">
   <rect height="29.502439" width="324.1875" x="96.334375" y="96.298925"/>
  </clipPath>
  <clipPath id="pbc5e062169">
   <rect height="29.502439" width="324.1875" x="96.334375" y="106.378925"/>
  </clipPath>
  <clipPath id="p0d003c5085">
   <rect height="29.502439" width="324.1875" x="96.334375" y="116.458925"/>
  </clipPath>
  <clipPath id="p104f820cc9">
   <rect height="29.502439" width="324.1875" x="96.334375" y="126.538925"/>
  </clipPath>
  <clipPath id="p9625168716">
   <rect height="29.502439" width="324.1875" x="96.334375" y="136.618925"/>
  </clipPath>
  <clipPath id="p2c75515347">
   <rect height="29.502439" width="324.1875" x="96.334375" y="146.698925"/>
  </clipPath>
  <clipPath id="p7f97d68b9c">
   <rect height="29.502439" width="324.1875" x="96.334375" y="156.778925"/>
  </clipPath>
  <clipPath id="p03fb78dc8d">
   <rect height="29.502439" width="324.1875" x="96.334375" y="166.858925"/>
  </clipPath>
  <clipPath id="pefdcb63c72">
   <rect height="29.502439" width="324.1875" x="96.334375" y="176.938925"/>
  </clipPath>
  <clipPath id="p1d4e0fa1e7">
   <rect height="29.502439" width="324.1875" x="96.334375" y="187.018925"/>
  </clipPath>
  <clipPath id="pb1f5e24444">
   <rect height="19.79122" width="324.1875" x="96.334375" y="197.098925"/>
  </clipPath>
  <clipPath id="pda20241b3d">
   <rect height="18" width="327.6" x="96.334375" y="234.890145"/>
  </clipPath>
  <clipPath id="p44883c0c38">
   <rect height="201.6" width="18" x="431.134375" y="15.290145"/>
  </clipPath>
 </defs>
</svg>
