<?xml version="1.0" encoding="utf-8" standalone="no"?>
<!DOCTYPE svg PUBLIC "-//W3C//DTD SVG 1.1//EN"
  "http://www.w3.org/Graphics/SVG/1.1/DTD/svg11.dtd">
<!-- Created with matplotlib (https://matplotlib.org/) -->
<svg height="282.35625pt" version="1.1" viewBox="0 0 456.334375 282.35625" width="456.334375pt" xmlns="http://www.w3.org/2000/svg" xmlns:xlink="http://www.w3.org/1999/xlink">
 <metadata>
  <rdf:RDF xmlns:cc="http://creativecommons.org/ns#" xmlns:dc="http://purl.org/dc/elements/1.1/" xmlns:rdf="http://www.w3.org/1999/02/22-rdf-syntax-ns#">
   <cc:Work>
    <dc:type rdf:resource="http://purl.org/dc/dcmitype/StillImage"/>
    <dc:date>2020-12-13T14:05:37.047302</dc:date>
    <dc:format>image/svg+xml</dc:format>
    <dc:creator>
     <cc:Agent>
      <dc:title>Matplotlib v3.3.2, https://matplotlib.org/</dc:title>
     </cc:Agent>
    </dc:creator>
   </cc:Work>
  </rdf:RDF>
 </metadata>
 <defs>
  <style type="text/css">*{stroke-linecap:butt;stroke-linejoin:round;}</style>
 </defs>
 <g id="figure_1">
  <g id="patch_1">
   <path d="M 0 282.35625 
L 456.334375 282.35625 
L 456.334375 0 
L 0 0 
z
" style="fill:#ffffff;"/>
  </g>
  <g id="axes_1">
   <g id="patch_2">
    <path d="M 96.334375 208.8 
L 423.934375 208.8 
L 423.934375 7.2 
L 96.334375 7.2 
z
" style="fill:#ffffff;"/>
   </g>
   <g id="line2d_1">
    <path clip-path="url(#p82dbba6cb7)" d="M 96.334375 12.148932 
L 101.453125 12.186644 
L 106.571875 12.222081 
L 111.690625 12.265135 
L 116.809375 12.290536 
L 121.928125 12.351721 
L 127.046875 12.328475 
L 132.165625 12.174772 
L 137.284375 12.197042 
L 142.403125 12.248498 
L 147.521875 12.272993 
L 152.640625 12.319633 
L 157.759375 12.356238 
L 162.878125 12.210966 
L 167.996875 12.165148 
L 173.115625 12.229642 
L 178.234375 12.257328 
L 183.353125 12.289788 
L 188.471875 12.353517 
L 193.590625 12.264886 
L 198.709375 12.147611 
L 203.828125 12.204167 
L 208.946875 12.241904 
L 214.065625 12.267546 
L 219.184375 12.32788 
L 224.303125 12.313682 
L 229.421875 12.157973 
L 234.540625 12.17208 
L 239.659375 12.225421 
L 244.778125 12.251344 
L 249.896875 12.293045 
L 255.015625 12.341186 
L 260.134375 12.208156 
L 265.253125 12.140832 
L 270.371875 12.205704 
L 275.490625 12.236008 
L 280.609375 12.265335 
L 285.728125 12.330052 
L 290.846875 12.273601 
L 295.965625 12.133936 
L 301.084375 12.176713 
L 306.203125 12.221016 
L 311.321875 12.245685 
L 316.440625 12.2996 
L 321.559375 12.313581 
L 326.678125 12.157883 
L 331.796875 12.143921 
L 336.915625 12.203746 
L 342.034375 12.230538 
L 347.153125 12.266417 
L 352.271875 12.326006 
L 357.390625 12.217811 
L 362.509375 12.119361 
L 367.628125 12.181124 
L 372.746875 12.215394 
L 377.865625 12.243212 
L 382.984375 12.302537 
L 388.103125 12.288824 
L 393.221875 12.133055 
L 398.340625 12.147442 
L 403.459375 12.20029 
L 408.578125 12.227523 
L 413.696875 12.266908 
L 418.815625 12.319688 
" style="fill:none;stroke:#000000;stroke-linecap:square;stroke-width:0.5;"/>
   </g>
   <g id="line2d_2">
    <path clip-path="url(#pead03898c3)" d="M 96.334375 116.02541 
L 101.453125 78.301044 
L 106.571875 42.967954 
L 111.690625 -0.059359 
L 111.879379 -1 
M 129.146544 -1 
L 132.165625 89.532192 
L 137.284375 67.153113 
L 142.403125 15.638335 
L 145.862097 -1 
M 160.991642 -1 
L 162.878125 52.450052 
L 167.996875 98.037136 
L 173.115625 33.309305 
L 178.234375 5.378376 
L 179.232811 -1 
M 193.673631 -1 
L 198.709375 114.159255 
L 203.828125 57.387812 
L 208.946875 19.47733 
L 213.012763 -1 
M 226.005002 -1 
L 229.421875 102.831776 
L 234.540625 88.744709 
L 239.659375 35.310929 
L 244.778125 9.386945 
L 246.050567 -1 
M 258.077937 -1 
L 260.134375 52.461238 
L 265.253125 119.75039 
L 270.371875 54.930273 
L 275.490625 24.62889 
L 279.968601 -1 
M 291.285357 -1 
L 295.965625 126.67646 
L 301.084375 83.913111 
L 306.203125 39.750385 
L 311.321875 15.095485 
L 312.85044 -1 
M 323.265592 -1 
L 326.678125 102.709844 
L 331.796875 116.541724 
L 336.915625 56.886781 
L 342.034375 30.396677 
L 346.547317 -1 
M 355.269442 -1 
L 357.390625 43.949515 
L 362.509375 142.675227 
L 367.628125 81.19096 
L 372.746875 47.19643 
L 377.865625 19.666917 
L 379.657278 -1 
M 388.90312 -1 
L 393.221875 130.661201 
L 398.340625 116.540962 
L 403.459375 63.973332 
L 408.578125 37.01846 
L 413.554446 -1 
" style="fill:none;stroke:#000000;stroke-linecap:square;stroke-width:0.5;"/>
   </g>
   <g id="line2d_3">
    <path clip-path="url(#p7a67315b70)" d="M 96.334375 23.413462 
L 101.453125 38.652121 
L 106.571875 47.167394 
L 111.690625 39.030737 
L 116.809375 34.642526 
L 121.928125 30.937833 
L 127.046875 22.406821 
L 132.165625 29.461735 
L 137.284375 47.142408 
L 142.403125 41.474653 
L 147.521875 35.666328 
L 152.640625 32.177128 
L 157.759375 25.464938 
L 162.878125 22.414448 
L 167.996875 41.857619 
L 173.115625 44.773976 
L 178.234375 36.709765 
L 183.353125 33.039303 
L 188.471875 28.474636 
L 193.590625 20.368009 
L 198.709375 32.7977 
L 203.828125 46.459106 
L 208.946875 38.651093 
L 214.065625 33.876965 
L 219.184375 30.266236 
L 224.303125 22.426276 
L 229.421875 24.026833 
L 234.540625 43.77355 
L 239.659375 41.778495 
L 244.778125 34.765119 
L 249.896875 31.261584 
L 255.015625 25.73906 
L 260.134375 19.389764 
L 265.253125 36.22915 
L 270.371875 44.660174 
L 275.490625 36.17206 
L 280.609375 32.109926 
L 285.728125 28.173542 
L 290.846875 19.705959 
L 295.965625 26.747044 
L 301.084375 44.435524 
L 306.203125 38.770982 
L 311.321875 32.966656 
L 316.440625 29.481614 
L 321.559375 22.773732 
L 326.678125 19.727703 
L 331.796875 39.175486 
L 336.915625 42.096604 
L 342.034375 34.037305 
L 347.153125 30.371904 
L 352.271875 25.812446 
L 357.390625 17.711177 
L 362.509375 30.146372 
L 367.628125 43.813428 
L 372.746875 36.011212 
L 377.865625 31.243026 
L 382.984375 27.638382 
L 388.103125 19.804652 
L 393.221875 21.411581 
L 398.340625 41.164812 
L 403.459375 39.176413 
L 408.578125 32.169832 
L 413.696875 28.673233 
L 418.815625 23.157782 
" style="fill:none;stroke:#000000;stroke-linecap:square;stroke-width:0.5;"/>
   </g>
   <g id="line2d_4">
    <path clip-path="url(#p6fdcb93806)" d="M 96.334375 42.480835 
L 101.453125 42.480845 
L 106.571875 42.480855 
L 111.690625 42.480866 
L 116.809375 42.480876 
L 121.928125 42.480887 
L 127.046875 42.480897 
L 132.165625 42.480907 
L 137.284375 42.480918 
L 142.403125 42.480928 
L 147.521875 42.480938 
L 152.640625 42.480949 
L 157.759375 42.480959 
L 162.878125 42.480969 
L 167.996875 42.48098 
L 173.115625 42.48099 
L 178.234375 42.481 
L 183.353125 42.48101 
L 188.471875 42.481021 
L 193.590625 42.48103 
L 198.709375 42.481035 
L 203.828125 42.481046 
L 208.946875 42.481056 
L 214.065625 42.481066 
L 219.184375 42.481076 
L 224.303125 42.481086 
L 229.421875 42.481097 
L 234.540625 42.481107 
L 239.659375 42.481117 
L 244.778125 42.481127 
L 249.896875 42.481137 
L 255.015625 42.481148 
L 260.134375 42.481157 
L 265.253125 42.481162 
L 270.371875 42.481171 
L 275.490625 42.481181 
L 280.609375 42.481191 
L 285.728125 42.481199 
L 290.846875 42.481225 
L 295.965625 42.481161 
L 301.084375 42.481455 
L 306.203125 42.480263 
L 311.321875 42.483262 
L 316.440625 42.477635 
L 321.559375 42.486432 
L 326.678125 42.475363 
L 331.796875 42.416318 
L 336.915625 42.472092 
L 342.034375 42.487661 
L 347.153125 42.477243 
L 352.271875 42.483473 
L 357.390625 42.480346 
L 362.509375 42.481559 
L 367.628125 42.481301 
L 372.746875 42.481378 
L 377.865625 42.481374 
L 382.984375 42.481385 
L 388.103125 42.481395 
L 393.221875 42.481404 
L 398.340625 42.481413 
L 403.459375 42.481422 
L 408.578125 42.481432 
L 413.696875 42.481441 
L 418.815625 42.48145 
" style="fill:none;stroke:#000000;stroke-linecap:square;stroke-width:0.5;"/>
   </g>
   <g id="line2d_5">
    <path clip-path="url(#pe583b1d266)" d="M 96.334375 60.058162 
L 101.453125 59.789284 
L 106.571875 53.606121 
L 111.690625 55.652675 
L 116.809375 57.971964 
L 121.928125 56.972403 
L 127.046875 57.847089 
L 132.165625 55.177902 
L 137.284375 53.926247 
L 142.403125 53.251713 
L 147.521875 50.917539 
L 152.640625 55.134817 
L 157.759375 55.903703 
L 162.878125 55.134286 
L 167.996875 56.924581 
L 173.115625 57.79927 
L 178.234375 56.80094 
L 183.353125 53.287997 
L 188.471875 52.977376 
L 193.590625 49.335382 
L 198.709375 50.090844 
L 203.828125 49.265384 
L 208.946875 50.231782 
L 214.065625 52.176538 
L 219.184375 49.546474 
L 224.303125 49.91636 
L 229.421875 48.34188 
L 234.540625 54.925814 
L 239.659375 56.925204 
L 244.778125 36.152472 
L 249.896875 39.682196 
L 255.015625 48.478971 
L 260.134375 46.235338 
L 265.253125 56.189379 
L 270.371875 56.32231 
L 275.490625 57.023599 
L 280.609375 58.171037 
L 285.728125 56.533927 
L 290.846875 55.8027 
L 295.965625 57.391943 
L 301.084375 56.783867 
L 306.203125 58.325774 
L 311.321875 56.670831 
L 316.440625 50.734386 
L 321.559375 53.05898 
L 326.678125 54.299439 
L 331.796875 53.762261 
L 336.915625 54.207736 
L 342.034375 51.527386 
L 347.153125 50.63371 
L 352.271875 54.247187 
L 357.390625 55.753336 
L 362.509375 47.327848 
L 367.628125 49.113835 
L 372.746875 60.669573 
L 377.865625 63.063561 
L 382.984375 57.978921 
L 388.103125 55.063232 
L 393.221875 54.683383 
L 398.340625 53.198063 
L 403.459375 48.497651 
L 408.578125 39.367129 
L 413.696875 31.664717 
L 418.815625 28.518603 
" style="fill:none;stroke:#000000;stroke-linecap:square;stroke-width:0.5;"/>
   </g>
   <g id="line2d_6">
    <path clip-path="url(#pd93097cc7e)" d="M 96.334375 73.969347 
L 101.453125 70.944068 
L 106.571875 64.559079 
L 111.690625 65.8223 
L 116.809375 70.845005 
L 121.928125 69.069486 
L 127.046875 69.58375 
L 132.165625 67.111858 
L 137.284375 65.28588 
L 142.403125 62.193427 
L 147.521875 59.655627 
L 152.640625 65.949114 
L 157.759375 67.1451 
L 162.878125 65.724857 
L 167.996875 68.871665 
L 173.115625 67.86437 
L 178.234375 65.206577 
L 183.353125 64.59752 
L 188.471875 63.653774 
L 193.590625 58.397936 
L 198.709375 59.051881 
L 203.828125 57.857396 
L 208.946875 56.582841 
L 214.065625 59.580953 
L 219.184375 59.855698 
L 224.303125 57.925883 
L 229.421875 55.781475 
L 234.540625 62.980169 
L 239.659375 61.702591 
L 244.778125 45.695355 
L 249.896875 50.706525 
L 255.015625 55.608921 
L 260.134375 54.437376 
L 265.253125 66.012122 
L 270.371875 68.209413 
L 275.490625 68.797618 
L 280.609375 68.528469 
L 285.728125 65.165903 
L 290.846875 64.414747 
L 295.965625 67.198364 
L 301.084375 65.686589 
L 306.203125 65.175007 
L 311.321875 65.447196 
L 316.440625 61.944647 
L 321.559375 64.862756 
L 326.678125 65.225216 
L 331.796875 63.434216 
L 336.915625 63.288802 
L 342.034375 61.441846 
L 347.153125 61.436918 
L 352.271875 64.53072 
L 357.390625 68.22273 
L 362.509375 61.149134 
L 367.628125 63.311088 
L 372.746875 70.504931 
L 377.865625 71.425192 
L 382.984375 69.154963 
L 388.103125 65.676195 
L 393.221875 66.214722 
L 398.340625 63.136322 
L 403.459375 60.755575 
L 408.578125 52.608751 
L 413.696875 41.115774 
L 418.815625 36.990505 
" style="fill:none;stroke:#000000;stroke-linecap:square;stroke-width:0.5;"/>
   </g>
   <g id="line2d_7">
    <path clip-path="url(#pf38cde1b9c)" d="M 96.334375 78.523774 
L 101.453125 75.92738 
L 106.571875 77.078848 
L 111.690625 76.636575 
L 116.809375 76.4859 
L 121.928125 75.286949 
L 127.046875 74.304001 
L 132.165625 74.568471 
L 137.284375 75.227407 
L 142.403125 74.152517 
L 147.521875 73.24132 
L 152.640625 75.07939 
L 157.759375 75.542633 
L 162.878125 76.02554 
L 167.996875 75.162425 
L 173.115625 76.213575 
L 178.234375 75.692959 
L 183.353125 72.586505 
L 188.471875 72.793041 
L 193.590625 72.490122 
L 198.709375 72.303283 
L 203.828125 70.860652 
L 208.946875 71.924706 
L 214.065625 74.090552 
L 219.184375 72.772572 
L 224.303125 71.471176 
L 229.421875 70.404921 
L 234.540625 72.086068 
L 239.659375 71.567345 
L 244.778125 68.876432 
L 249.896875 68.748927 
L 255.015625 66.758074 
L 260.134375 66.93494 
L 265.253125 71.708007 
L 270.371875 72.326952 
L 275.490625 73.372227 
L 280.609375 74.492728 
L 285.728125 74.745655 
L 290.846875 75.033751 
L 295.965625 75.246528 
L 301.084375 74.995943 
L 306.203125 75.099172 
L 311.321875 74.489945 
L 316.440625 72.141583 
L 321.559375 73.15426 
L 326.678125 72.624813 
L 331.796875 72.038338 
L 336.915625 73.337743 
L 342.034375 71.75112 
L 347.153125 71.407139 
L 352.271875 72.641003 
L 357.390625 73.645255 
L 362.509375 72.905952 
L 367.628125 73.306936 
L 372.746875 75.16711 
L 377.865625 75.826642 
L 382.984375 74.728849 
L 388.103125 74.093218 
L 393.221875 74.018689 
L 398.340625 72.819844 
L 403.459375 71.282696 
L 408.578125 65.473497 
L 413.696875 59.608996 
L 418.815625 58.03658 
" style="fill:none;stroke:#000000;stroke-linecap:square;stroke-width:0.5;"/>
   </g>
   <g id="line2d_8">
    <path clip-path="url(#pe2161b31f1)" d="M 96.334375 94.713785 
L 101.453125 91.936412 
L 106.571875 87.231398 
L 111.690625 91.362253 
L 116.809375 92.945756 
L 121.928125 89.435956 
L 127.046875 90.660808 
L 132.165625 87.508029 
L 137.284375 86.577599 
L 142.403125 84.156303 
L 147.521875 78.681106 
L 152.640625 84.95867 
L 157.759375 86.993154 
L 162.878125 85.236481 
L 167.996875 85.016399 
L 173.115625 84.846051 
L 178.234375 84.04372 
L 183.353125 82.937763 
L 188.471875 81.632677 
L 193.590625 77.062742 
L 198.709375 78.99336 
L 203.828125 78.076282 
L 208.946875 79.121225 
L 214.065625 81.227073 
L 219.184375 79.59779 
L 224.303125 77.947434 
L 229.421875 75.975728 
L 234.540625 81.876979 
L 239.659375 82.185237 
L 244.778125 74.140074 
L 249.896875 76.322222 
L 255.015625 73.838443 
L 260.134375 73.829557 
L 265.253125 86.096959 
L 270.371875 87.83111 
L 275.490625 88.026702 
L 280.609375 88.329707 
L 285.728125 87.670187 
L 290.846875 86.612382 
L 295.965625 87.405614 
L 301.084375 86.185302 
L 306.203125 85.921186 
L 311.321875 84.999574 
L 316.440625 81.329875 
L 321.559375 84.769424 
L 326.678125 84.968352 
L 331.796875 82.821387 
L 336.915625 82.490381 
L 342.034375 81.33746 
L 347.153125 82.106118 
L 352.271875 84.806108 
L 357.390625 85.128517 
L 362.509375 82.128858 
L 367.628125 84.763068 
L 372.746875 88.645057 
L 377.865625 89.262005 
L 382.984375 88.22467 
L 388.103125 85.613005 
L 393.221875 86.897671 
L 398.340625 84.691631 
L 403.459375 79.471071 
L 408.578125 69.979961 
L 413.696875 59.130702 
L 418.815625 56.76614 
" style="fill:none;stroke:#000000;stroke-linecap:square;stroke-width:0.5;"/>
   </g>
   <g id="line2d_9">
    <path clip-path="url(#pd0a516d0c9)" d="M 96.334375 103.596739 
L 101.453125 107.803159 
L 106.571875 102.908647 
L 111.690625 107.069283 
L 116.809375 106.041595 
L 121.928125 102.403137 
L 127.046875 102.083539 
L 132.165625 98.830118 
L 137.284375 97.92928 
L 142.403125 93.331972 
L 147.521875 91.611185 
L 152.640625 98.289011 
L 157.759375 97.483069 
L 162.878125 96.405772 
L 167.996875 96.756549 
L 173.115625 97.128347 
L 178.234375 95.012557 
L 183.353125 94.5594 
L 188.471875 92.131217 
L 193.590625 87.26238 
L 198.709375 88.660387 
L 203.828125 87.938246 
L 208.946875 88.224745 
L 214.065625 93.604457 
L 219.184375 91.551397 
L 224.303125 87.279679 
L 229.421875 86.290067 
L 234.540625 92.270769 
L 239.659375 90.443434 
L 244.778125 85.720566 
L 249.896875 85.847547 
L 255.015625 79.717646 
L 260.134375 80.969173 
L 265.253125 91.911585 
L 270.371875 95.682674 
L 275.490625 96.660195 
L 280.609375 97.33879 
L 285.728125 96.570589 
L 290.846875 94.601736 
L 295.965625 97.651664 
L 301.084375 95.583781 
L 306.203125 92.807594 
L 311.321875 94.704058 
L 316.440625 92.327222 
L 321.559375 94.158613 
L 326.678125 93.685667 
L 331.796875 92.339567 
L 336.915625 94.334834 
L 342.034375 92.103681 
L 347.153125 91.60431 
L 352.271875 93.943455 
L 357.390625 96.421051 
L 362.509375 95.98657 
L 367.628125 96.718182 
L 372.746875 97.709828 
L 377.865625 97.448022 
L 382.984375 96.44643 
L 388.103125 95.388387 
L 393.221875 94.28966 
L 398.340625 92.216665 
L 403.459375 88.73031 
L 408.578125 77.934744 
L 413.696875 63.948688 
L 418.815625 61.434685 
" style="fill:none;stroke:#000000;stroke-linecap:square;stroke-width:0.5;"/>
   </g>
   <g id="line2d_10">
    <path clip-path="url(#p7e7027e8ad)" d="M 96.334375 112.251236 
L 101.453125 115.871203 
L 106.571875 111.65458 
L 111.690625 115.59058 
L 116.809375 117.180216 
L 121.928125 113.283693 
L 127.046875 111.895987 
L 132.165625 108.643718 
L 137.284375 106.911572 
L 142.403125 102.600397 
L 147.521875 102.230909 
L 152.640625 108.358687 
L 157.759375 107.133618 
L 162.878125 105.422868 
L 167.996875 106.435455 
L 173.115625 107.113262 
L 178.234375 104.228416 
L 183.353125 103.581865 
L 188.471875 101.564508 
L 193.590625 97.072005 
L 198.709375 98.137611 
L 203.828125 96.889811 
L 208.946875 96.061097 
L 214.065625 101.362217 
L 219.184375 100.466679 
L 224.303125 96.272641 
L 229.421875 96.024293 
L 234.540625 101.328079 
L 239.659375 99.923471 
L 244.778125 96.203132 
L 249.896875 95.980536 
L 255.015625 90.890844 
L 260.134375 91.461654 
L 265.253125 101.663669 
L 270.371875 104.955032 
L 275.490625 105.784509 
L 280.609375 106.993745 
L 285.728125 107.229653 
L 290.846875 105.286238 
L 295.965625 107.383776 
L 301.084375 107.227459 
L 306.203125 105.335816 
L 311.321875 105.534151 
L 316.440625 102.800583 
L 321.559375 103.320303 
L 326.678125 103.69916 
L 331.796875 102.029613 
L 336.915625 103.890956 
L 342.034375 102.895208 
L 347.153125 101.148003 
L 352.271875 103.389848 
L 357.390625 106.281413 
L 362.509375 106.047368 
L 367.628125 107.226439 
L 372.746875 107.383596 
L 377.865625 108.052484 
L 382.984375 106.493213 
L 388.103125 105.070363 
L 393.221875 106.296332 
L 398.340625 104.824285 
L 403.459375 101.646068 
L 408.578125 91.683917 
L 413.696875 77.829411 
L 418.815625 74.733952 
" style="fill:none;stroke:#000000;stroke-linecap:square;stroke-width:0.5;"/>
   </g>
   <g id="line2d_11">
    <path clip-path="url(#pa5ecb99579)" d="M 96.334375 119.193917 
L 101.453125 117.174256 
L 106.571875 116.427564 
L 111.690625 119.029698 
L 116.809375 118.069062 
L 121.928125 118.258458 
L 127.046875 119.276269 
L 132.165625 117.166465 
L 137.284375 115.671335 
L 142.403125 114.262393 
L 147.521875 113.556695 
L 152.640625 116.755963 
L 157.759375 117.607624 
L 162.878125 117.427457 
L 167.996875 115.326995 
L 173.115625 115.4606 
L 178.234375 114.530116 
L 183.353125 113.642867 
L 188.471875 112.895221 
L 193.590625 110.836088 
L 198.709375 111.02904 
L 203.828125 111.136238 
L 208.946875 110.700979 
L 214.065625 111.831526 
L 219.184375 111.733615 
L 224.303125 108.871344 
L 229.421875 108.109534 
L 234.540625 111.297088 
L 239.659375 112.708132 
L 244.778125 112.278246 
L 249.896875 110.541843 
L 255.015625 106.952993 
L 260.134375 107.577329 
L 265.253125 112.164494 
L 270.371875 113.813015 
L 275.490625 114.331182 
L 280.609375 115.020228 
L 285.728125 115.703305 
L 290.846875 115.648272 
L 295.965625 115.666786 
L 301.084375 115.107138 
L 306.203125 114.528904 
L 311.321875 115.35335 
L 316.440625 113.21165 
L 321.559375 112.423271 
L 326.678125 111.502054 
L 331.796875 110.296944 
L 336.915625 112.229078 
L 342.034375 112.953258 
L 347.153125 113.020144 
L 352.271875 111.852086 
L 357.390625 112.28289 
L 362.509375 113.471049 
L 367.628125 114.062523 
L 372.746875 115.690562 
L 377.865625 117.000471 
L 382.984375 116.927999 
L 388.103125 117.220343 
L 393.221875 116.370793 
L 398.340625 114.057231 
L 403.459375 110.709279 
L 408.578125 103.702034 
L 413.696875 95.806968 
L 418.815625 94.973627 
" style="fill:none;stroke:#000000;stroke-linecap:square;stroke-width:0.5;"/>
   </g>
   <g id="line2d_12">
    <path clip-path="url(#p613a10edf3)" d="M 96.334375 134.34014 
L 101.453125 130.725453 
L 106.571875 127.096713 
L 111.690625 133.209284 
L 116.809375 131.983769 
L 121.928125 129.435382 
L 127.046875 132.162894 
L 132.165625 128.52684 
L 137.284375 124.999378 
L 142.403125 121.995062 
L 147.521875 120.625148 
L 152.640625 125.708513 
L 157.759375 125.998935 
L 162.878125 125.131178 
L 167.996875 122.923293 
L 173.115625 122.949544 
L 178.234375 122.019382 
L 183.353125 121.080152 
L 188.471875 120.791527 
L 193.590625 117.472932 
L 198.709375 118.579392 
L 203.828125 119.370032 
L 208.946875 117.533434 
L 214.065625 119.985007 
L 219.184375 128.437098 
L 224.303125 124.512595 
L 229.421875 119.721843 
L 234.540625 126.0354 
L 239.659375 128.581987 
L 244.778125 126.537823 
L 249.896875 123.600227 
L 255.015625 118.305166 
L 260.134375 116.744071 
L 265.253125 123.769214 
L 270.371875 124.582087 
L 275.490625 124.951882 
L 280.609375 126.837288 
L 285.728125 128.011684 
L 290.846875 127.313236 
L 295.965625 124.831834 
L 301.084375 125.008672 
L 306.203125 124.333245 
L 311.321875 124.851592 
L 316.440625 121.34221 
L 321.559375 120.762829 
L 326.678125 122.538328 
L 331.796875 118.337928 
L 336.915625 120.561861 
L 342.034375 122.099339 
L 347.153125 120.960877 
L 352.271875 121.101079 
L 357.390625 123.609053 
L 362.509375 125.763397 
L 367.628125 126.712695 
L 372.746875 127.512917 
L 377.865625 127.284646 
L 382.984375 126.718598 
L 388.103125 127.398195 
L 393.221875 127.598347 
L 398.340625 124.1244 
L 403.459375 117.619344 
L 408.578125 110.427787 
L 413.696875 101.278465 
L 418.815625 98.899539 
" style="fill:none;stroke:#000000;stroke-linecap:square;stroke-width:0.5;"/>
   </g>
   <g id="line2d_13">
    <path clip-path="url(#p6781b3916c)" d="M 96.334375 146.147158 
L 101.453125 139.255215 
L 106.571875 138.445007 
L 111.690625 143.252885 
L 116.809375 143.700412 
L 121.928125 139.523353 
L 127.046875 140.89283 
L 132.165625 137.598968 
L 137.284375 134.452045 
L 142.403125 129.659221 
L 147.521875 128.937506 
L 152.640625 136.304076 
L 157.759375 135.95948 
L 162.878125 134.267801 
L 167.996875 135.145069 
L 173.115625 136.2752 
L 178.234375 134.434648 
L 183.353125 131.826391 
L 188.471875 131.955521 
L 193.590625 127.933113 
L 198.709375 127.378415 
L 203.828125 127.648169 
L 208.946875 127.840915 
L 214.065625 134.165934 
L 219.184375 133.517163 
L 224.303125 125.394909 
L 229.421875 123.794319 
L 234.540625 130.994158 
L 239.659375 134.805009 
L 244.778125 131.715433 
L 249.896875 128.802421 
L 255.015625 125.269431 
L 260.134375 125.792413 
L 265.253125 133.081342 
L 270.371875 135.000133 
L 275.490625 137.816236 
L 280.609375 140.161175 
L 285.728125 138.191782 
L 290.846875 136.701853 
L 295.965625 138.984377 
L 301.084375 138.689452 
L 306.203125 136.711447 
L 311.321875 136.468688 
L 316.440625 133.811244 
L 321.559375 134.613098 
L 326.678125 135.299699 
L 331.796875 132.985837 
L 336.915625 136.565937 
L 342.034375 136.198794 
L 347.153125 132.984069 
L 352.271875 133.768838 
L 357.390625 137.435601 
L 362.509375 137.800661 
L 367.628125 138.433293 
L 372.746875 138.923477 
L 377.865625 137.933202 
L 382.984375 137.321293 
L 388.103125 137.74784 
L 393.221875 137.225732 
L 398.340625 133.422213 
L 403.459375 127.966778 
L 408.578125 118.048887 
L 413.696875 106.491984 
L 418.815625 103.217114 
" style="fill:none;stroke:#000000;stroke-linecap:square;stroke-width:0.5;"/>
   </g>
   <g id="line2d_14">
    <path clip-path="url(#p3acb472837)" d="M 96.334375 158.326303 
L 101.453125 149.134025 
L 106.571875 146.158525 
L 111.690625 152.323483 
L 116.809375 153.465039 
L 121.928125 149.725927 
L 127.046875 151.421692 
L 132.165625 146.902462 
L 137.284375 143.759536 
L 142.403125 138.505898 
L 147.521875 138.790743 
L 152.640625 146.538079 
L 157.759375 145.051581 
L 162.878125 143.745504 
L 167.996875 145.187436 
L 173.115625 145.276606 
L 178.234375 144.105197 
L 183.353125 142.875739 
L 188.471875 143.253065 
L 193.590625 139.911663 
L 198.709375 139.71865 
L 203.828125 138.309378 
L 208.946875 138.046855 
L 214.065625 144.941715 
L 219.184375 143.504684 
L 224.303125 134.856601 
L 229.421875 134.409406 
L 234.540625 143.159396 
L 239.659375 145.356634 
L 244.778125 141.146618 
L 249.896875 137.74362 
L 255.015625 134.640055 
L 260.134375 135.396179 
L 265.253125 142.535096 
L 270.371875 144.75753 
L 275.490625 147.512433 
L 280.609375 150.693231 
L 285.728125 147.499976 
L 290.846875 146.527759 
L 295.965625 148.940916 
L 301.084375 147.147457 
L 306.203125 145.110607 
L 311.321875 144.362916 
L 316.440625 143.282601 
L 321.559375 144.524116 
L 326.678125 145.261274 
L 331.796875 144.319782 
L 336.915625 146.109852 
L 342.034375 145.674214 
L 347.153125 143.114095 
L 352.271875 144.592102 
L 357.390625 148.896213 
L 362.509375 148.662667 
L 367.628125 149.25049 
L 372.746875 148.760903 
L 377.865625 148.092432 
L 382.984375 149.223994 
L 388.103125 147.81207 
L 393.221875 148.013716 
L 398.340625 144.237483 
L 403.459375 138.340762 
L 408.578125 128.986881 
L 413.696875 117.745018 
L 418.815625 113.784745 
" style="fill:none;stroke:#000000;stroke-linecap:square;stroke-width:0.5;"/>
   </g>
   <g id="line2d_15">
    <path clip-path="url(#pf011b30032)" d="M 96.334375 165.6859 
L 101.453125 162.593809 
L 106.571875 155.845614 
L 111.690625 161.050987 
L 116.809375 163.346323 
L 121.928125 159.189972 
L 127.046875 159.14451 
L 132.165625 157.711636 
L 137.284375 155.724906 
L 142.403125 150.316401 
L 147.521875 148.513497 
L 152.640625 154.326618 
L 157.759375 153.622863 
L 162.878125 154.300124 
L 167.996875 154.104928 
L 173.115625 153.731878 
L 178.234375 154.586389 
L 183.353125 152.273756 
L 188.471875 153.720921 
L 193.590625 149.007963 
L 198.709375 148.81795 
L 203.828125 148.281521 
L 208.946875 149.081538 
L 214.065625 152.472164 
L 219.184375 149.40227 
L 224.303125 146.163755 
L 229.421875 147.194475 
L 234.540625 155.958072 
L 239.659375 158.495817 
L 244.778125 148.212486 
L 249.896875 145.254741 
L 255.015625 145.000938 
L 260.134375 147.661786 
L 265.253125 155.904934 
L 270.371875 156.062113 
L 275.490625 157.835429 
L 280.609375 160.890006 
L 285.728125 159.004772 
L 290.846875 158.463626 
L 295.965625 160.043836 
L 301.084375 158.413692 
L 306.203125 158.676367 
L 311.321875 158.164192 
L 316.440625 153.346183 
L 321.559375 154.419638 
L 326.678125 155.002854 
L 331.796875 154.141303 
L 336.915625 154.790436 
L 342.034375 152.866449 
L 347.153125 152.292638 
L 352.271875 154.944382 
L 357.390625 157.204271 
L 362.509375 153.91511 
L 367.628125 155.157968 
L 372.746875 159.590156 
L 377.865625 160.096877 
L 382.984375 158.103684 
L 388.103125 156.670915 
L 393.221875 156.607159 
L 398.340625 154.198056 
L 403.459375 148.90552 
L 408.578125 139.225227 
L 413.696875 129.728247 
L 418.815625 126.138751 
" style="fill:none;stroke:#000000;stroke-linecap:square;stroke-width:0.5;"/>
   </g>
   <g id="line2d_16">
    <path clip-path="url(#p7e9c4466bf)" d="M 96.334375 169.735305 
L 101.453125 167.450219 
L 106.571875 165.338477 
L 111.690625 165.946812 
L 116.809375 167.121733 
L 121.928125 166.387033 
L 127.046875 167.443693 
L 132.165625 165.922072 
L 137.284375 163.730683 
L 142.403125 162.23936 
L 147.521875 161.669788 
L 152.640625 164.952579 
L 157.759375 165.469638 
L 162.878125 165.104547 
L 167.996875 165.237712 
L 173.115625 166.2116 
L 178.234375 164.927245 
L 183.353125 161.278088 
L 188.471875 162.079003 
L 193.590625 161.404901 
L 198.709375 162.889162 
L 203.828125 160.190262 
L 208.946875 162.884464 
L 214.065625 167.232034 
L 219.184375 162.635721 
L 224.303125 159.660245 
L 229.421875 159.654846 
L 234.540625 166.88882 
L 239.659375 164.023706 
L 244.778125 158.067131 
L 249.896875 158.497799 
L 255.015625 157.520763 
L 260.134375 158.368131 
L 265.253125 164.350139 
L 270.371875 164.884638 
L 275.490625 165.709037 
L 280.609375 167.601697 
L 285.728125 167.536647 
L 290.846875 167.729283 
L 295.965625 166.827495 
L 301.084375 165.707647 
L 306.203125 166.183199 
L 311.321875 165.06487 
L 316.440625 162.589426 
L 321.559375 163.822171 
L 326.678125 164.043786 
L 331.796875 163.053871 
L 336.915625 164.365628 
L 342.034375 163.886055 
L 347.153125 163.066947 
L 352.271875 164.473175 
L 357.390625 166.081374 
L 362.509375 165.072643 
L 367.628125 166.047796 
L 372.746875 167.06847 
L 377.865625 168.128246 
L 382.984375 167.233742 
L 388.103125 165.72837 
L 393.221875 165.847273 
L 398.340625 163.56601 
L 403.459375 160.629775 
L 408.578125 154.508817 
L 413.696875 147.490197 
L 418.815625 144.934558 
" style="fill:none;stroke:#000000;stroke-linecap:square;stroke-width:0.5;"/>
   </g>
   <g id="line2d_17">
    <path clip-path="url(#p482f6153c7)" d="M 96.334375 185.25338 
L 101.453125 182.380688 
L 106.571875 174.240005 
L 111.690625 179.727149 
L 116.809375 183.226806 
L 121.928125 178.494306 
L 127.046875 177.914475 
L 132.165625 176.756453 
L 137.284375 177.068031 
L 142.403125 172.210045 
L 147.521875 166.701394 
L 152.640625 174.323986 
L 157.759375 174.428338 
L 162.878125 174.7074 
L 167.996875 175.222902 
L 173.115625 172.12726 
L 178.234375 173.094217 
L 183.353125 172.867871 
L 188.471875 172.993509 
L 193.590625 167.061874 
L 198.709375 168.886118 
L 203.828125 170.093708 
L 208.946875 171.31376 
L 214.065625 171.060874 
L 219.184375 167.655914 
L 224.303125 167.083317 
L 229.421875 168.017243 
L 234.540625 176.618016 
L 239.659375 181.245667 
L 244.778125 166.135177 
L 249.896875 166.66095 
L 255.015625 170.198966 
L 260.134375 169.348022 
L 265.253125 179.348366 
L 270.371875 181.515263 
L 275.490625 181.635286 
L 280.609375 183.752924 
L 285.728125 180.12829 
L 290.846875 178.135989 
L 295.965625 180.276489 
L 301.084375 177.025682 
L 306.203125 175.577335 
L 311.321875 174.315675 
L 316.440625 169.62573 
L 321.559375 170.851424 
L 326.678125 173.078461 
L 331.796875 172.855988 
L 336.915625 172.413774 
L 342.034375 172.932528 
L 347.153125 172.920649 
L 352.271875 175.536948 
L 357.390625 178.593012 
L 362.509375 173.094465 
L 367.628125 174.007423 
L 372.746875 181.602706 
L 377.865625 181.306813 
L 382.984375 179.148172 
L 388.103125 177.935886 
L 393.221875 178.516482 
L 398.340625 176.405863 
L 403.459375 168.7103 
L 408.578125 159.407239 
L 413.696875 150.490953 
L 418.815625 146.119422 
" style="fill:none;stroke:#000000;stroke-linecap:square;stroke-width:0.5;"/>
   </g>
   <g id="line2d_18">
    <path clip-path="url(#p8d4727612a)" d="M 96.334375 195.096137 
L 101.453125 191.259045 
L 106.571875 183.615163 
L 111.690625 187.188326 
L 116.809375 190.185169 
L 121.928125 187.530974 
L 127.046875 188.488821 
L 132.165625 186.558826 
L 137.284375 185.404594 
L 142.403125 182.99815 
L 147.521875 180.703441 
L 152.640625 185.649907 
L 157.759375 186.502608 
L 162.878125 185.501564 
L 167.996875 185.946971 
L 173.115625 185.95103 
L 178.234375 183.174125 
L 183.353125 179.857744 
L 188.471875 183.406769 
L 193.590625 180.672207 
L 198.709375 181.440428 
L 203.828125 180.748084 
L 208.946875 181.011078 
L 214.065625 183.2974 
L 219.184375 180.289564 
L 224.303125 177.541942 
L 229.421875 177.682648 
L 234.540625 186.395967 
L 239.659375 188.9354 
L 244.778125 167.990743 
L 249.896875 169.550042 
L 255.015625 179.975685 
L 260.134375 178.603133 
L 265.253125 187.720503 
L 270.371875 187.415669 
L 275.490625 188.997093 
L 280.609375 191.830243 
L 285.728125 189.09571 
L 290.846875 187.723478 
L 295.965625 187.967074 
L 301.084375 186.789563 
L 306.203125 187.024833 
L 311.321875 185.754923 
L 316.440625 181.719411 
L 321.559375 182.655289 
L 326.678125 183.269187 
L 331.796875 183.208092 
L 336.915625 185.460008 
L 342.034375 184.585264 
L 347.153125 184.702212 
L 352.271875 188.401229 
L 357.390625 191.176466 
L 362.509375 183.239453 
L 367.628125 184.037193 
L 372.746875 194.712549 
L 377.865625 195.739117 
L 382.984375 192.049412 
L 388.103125 188.597869 
L 393.221875 188.473691 
L 398.340625 185.760803 
L 403.459375 179.154549 
L 408.578125 168.562151 
L 413.696875 158.489783 
L 418.815625 154.867026 
" style="fill:none;stroke:#000000;stroke-linecap:square;stroke-width:0.5;"/>
   </g>
   <g id="line2d_19">
    <path clip-path="url(#p2d456489be)" d="M 99.933559 -1 
L 101.453125 32.008817 
L 103.796953 283.35625 
M 117.58312 283.35625 
L 120.821914 -1 
M 133.010618 -1 
L 136.923798 283.35625 
M 150.173489 283.35625 
L 152.480983 -1 
M 165.24165 -1 
L 167.996875 65.045903 
L 169.84703 283.35625 
M 182.484493 283.35625 
L 183.353125 179.632602 
L 186.334564 -1 
M 199.495705 -1 
L 202.502878 283.35625 
M 215.53923 283.35625 
L 218.140333 -1 
M 231.637576 -1 
L 234.540625 137.448255 
L 235.803443 283.35625 
M 247.858333 283.35625 
L 249.896875 24.974146 
L 250.683637 -1 
M 265.793836 -1 
L 268.368001 283.35625 
M 280.468285 283.35625 
L 280.609375 268.977116 
L 283.695696 -1 
M 297.933368 -1 
L 301.084375 227.454931 
L 301.622776 283.35625 
M 313.309024 283.35625 
L 315.615776 -1 
M 331.924541 -1 
L 334.333736 283.35625 
M 345.611457 283.35625 
L 347.153125 99.530951 
L 348.811116 -1 
M 364.154492 -1 
L 367.160125 283.35625 
M 378.595964 283.35625 
L 381.190357 -1 
M 397.11645 -1 
L 398.340625 57.826701 
L 400.289633 283.35625 
M 411.044301 283.35625 
L 413.29387 -1 
" style="fill:none;stroke:#000000;stroke-linecap:square;stroke-width:0.5;"/>
   </g>
   <g id="line2d_20">
    <path clip-path="url(#p3b9200787f)" d="M 96.334375 203.76 
L 101.453125 203.76 
L 106.571875 203.76 
L 111.690625 203.76 
L 116.809375 203.76 
L 121.928125 203.76 
L 127.046875 203.76 
L 132.165625 203.76 
L 137.284375 203.76 
L 142.403125 203.76 
L 147.521875 203.76 
L 152.640625 203.76 
L 157.759375 203.76 
L 162.878125 203.76 
L 167.996875 203.76 
L 173.115625 203.76 
L 178.234375 203.76 
L 183.353125 203.76 
L 188.471875 203.76 
L 193.590625 203.76 
L 198.709375 203.76 
L 203.828125 203.76 
L 208.946875 203.76 
L 214.065625 203.76 
L 219.184375 203.76 
L 224.303125 203.76 
L 229.421875 203.76 
L 234.540625 203.76 
L 239.659375 203.76 
L 244.778125 203.76 
L 249.896875 203.76 
L 255.015625 203.76 
L 260.134375 203.76 
L 265.253125 203.76 
L 270.371875 203.76 
L 275.490625 203.76 
L 280.609375 203.76 
L 285.728125 203.76 
L 290.846875 203.76 
L 295.965625 203.76 
L 301.084375 203.76 
L 306.203125 203.76 
L 311.321875 203.76 
L 316.440625 203.76 
L 321.559375 203.76 
L 326.678125 203.76 
L 331.796875 203.76 
L 336.915625 203.76 
L 342.034375 203.76 
L 347.153125 203.76 
L 352.271875 203.76 
L 357.390625 203.76 
L 362.509375 203.76 
L 367.628125 203.76 
L 372.746875 203.76 
L 377.865625 203.76 
L 382.984375 203.76 
L 388.103125 203.76 
L 393.221875 203.76 
L 398.340625 203.76 
L 403.459375 203.76 
L 408.578125 203.76 
L 413.696875 203.76 
L 418.815625 203.76 
" style="fill:none;stroke:#000000;stroke-linecap:square;stroke-width:0.5;"/>
   </g>
   <g id="matplotlib.axis_1">
    <g id="xtick_1">
     <g id="line2d_21">
      <defs>
       <path d="M 0 0 
L 0 3.5 
" id="m348af873be" style="stroke:#000000;stroke-width:0.8;"/>
      </defs>
      <g>
       <use style="stroke:#000000;stroke-width:0.8;" x="96.334375" xlink:href="#m348af873be" y="208.8"/>
      </g>
     </g>
     <g id="text_1">
      <!-- 0 -->
      <g transform="translate(93.153125 223.398438)scale(0.1 -0.1)">
       <defs>
        <path d="M 31.78125 66.40625 
Q 24.171875 66.40625 20.328125 58.90625 
Q 16.5 51.421875 16.5 36.375 
Q 16.5 21.390625 20.328125 13.890625 
Q 24.171875 6.390625 31.78125 6.390625 
Q 39.453125 6.390625 43.28125 13.890625 
Q 47.125 21.390625 47.125 36.375 
Q 47.125 51.421875 43.28125 58.90625 
Q 39.453125 66.40625 31.78125 66.40625 
z
M 31.78125 74.21875 
Q 44.046875 74.21875 50.515625 64.515625 
Q 56.984375 54.828125 56.984375 36.375 
Q 56.984375 17.96875 50.515625 8.265625 
Q 44.046875 -1.421875 31.78125 -1.421875 
Q 19.53125 -1.421875 13.0625 8.265625 
Q 6.59375 17.96875 6.59375 36.375 
Q 6.59375 54.828125 13.0625 64.515625 
Q 19.53125 74.21875 31.78125 74.21875 
z
" id="DejaVuSans-48"/>
       </defs>
       <use xlink:href="#DejaVuSans-48"/>
      </g>
     </g>
    </g>
    <g id="xtick_2">
     <g id="line2d_22">
      <g>
       <use style="stroke:#000000;stroke-width:0.8;" x="161.854375" xlink:href="#m348af873be" y="208.8"/>
      </g>
     </g>
     <g id="text_2">
      <!-- 2 -->
      <g transform="translate(158.673125 223.398438)scale(0.1 -0.1)">
       <defs>
        <path d="M 19.1875 8.296875 
L 53.609375 8.296875 
L 53.609375 0 
L 7.328125 0 
L 7.328125 8.296875 
Q 12.9375 14.109375 22.625 23.890625 
Q 32.328125 33.6875 34.8125 36.53125 
Q 39.546875 41.84375 41.421875 45.53125 
Q 43.3125 49.21875 43.3125 52.78125 
Q 43.3125 58.59375 39.234375 62.25 
Q 35.15625 65.921875 28.609375 65.921875 
Q 23.96875 65.921875 18.8125 64.3125 
Q 13.671875 62.703125 7.8125 59.421875 
L 7.8125 69.390625 
Q 13.765625 71.78125 18.9375 73 
Q 24.125 74.21875 28.421875 74.21875 
Q 39.75 74.21875 46.484375 68.546875 
Q 53.21875 62.890625 53.21875 53.421875 
Q 53.21875 48.921875 51.53125 44.890625 
Q 49.859375 40.875 45.40625 35.40625 
Q 44.1875 33.984375 37.640625 27.21875 
Q 31.109375 20.453125 19.1875 8.296875 
z
" id="DejaVuSans-50"/>
       </defs>
       <use xlink:href="#DejaVuSans-50"/>
      </g>
     </g>
    </g>
    <g id="xtick_3">
     <g id="line2d_23">
      <g>
       <use style="stroke:#000000;stroke-width:0.8;" x="227.374375" xlink:href="#m348af873be" y="208.8"/>
      </g>
     </g>
     <g id="text_3">
      <!-- 4 -->
      <g transform="translate(224.193125 223.398438)scale(0.1 -0.1)">
       <defs>
        <path d="M 37.796875 64.3125 
L 12.890625 25.390625 
L 37.796875 25.390625 
z
M 35.203125 72.90625 
L 47.609375 72.90625 
L 47.609375 25.390625 
L 58.015625 25.390625 
L 58.015625 17.1875 
L 47.609375 17.1875 
L 47.609375 0 
L 37.796875 0 
L 37.796875 17.1875 
L 4.890625 17.1875 
L 4.890625 26.703125 
z
" id="DejaVuSans-52"/>
       </defs>
       <use xlink:href="#DejaVuSans-52"/>
      </g>
     </g>
    </g>
    <g id="xtick_4">
     <g id="line2d_24">
      <g>
       <use style="stroke:#000000;stroke-width:0.8;" x="292.894375" xlink:href="#m348af873be" y="208.8"/>
      </g>
     </g>
     <g id="text_4">
      <!-- 6 -->
      <g transform="translate(289.713125 223.398438)scale(0.1 -0.1)">
       <defs>
        <path d="M 33.015625 40.375 
Q 26.375 40.375 22.484375 35.828125 
Q 18.609375 31.296875 18.609375 23.390625 
Q 18.609375 15.53125 22.484375 10.953125 
Q 26.375 6.390625 33.015625 6.390625 
Q 39.65625 6.390625 43.53125 10.953125 
Q 47.40625 15.53125 47.40625 23.390625 
Q 47.40625 31.296875 43.53125 35.828125 
Q 39.65625 40.375 33.015625 40.375 
z
M 52.59375 71.296875 
L 52.59375 62.3125 
Q 48.875 64.0625 45.09375 64.984375 
Q 41.3125 65.921875 37.59375 65.921875 
Q 27.828125 65.921875 22.671875 59.328125 
Q 17.53125 52.734375 16.796875 39.40625 
Q 19.671875 43.65625 24.015625 45.921875 
Q 28.375 48.1875 33.59375 48.1875 
Q 44.578125 48.1875 50.953125 41.515625 
Q 57.328125 34.859375 57.328125 23.390625 
Q 57.328125 12.15625 50.6875 5.359375 
Q 44.046875 -1.421875 33.015625 -1.421875 
Q 20.359375 -1.421875 13.671875 8.265625 
Q 6.984375 17.96875 6.984375 36.375 
Q 6.984375 53.65625 15.1875 63.9375 
Q 23.390625 74.21875 37.203125 74.21875 
Q 40.921875 74.21875 44.703125 73.484375 
Q 48.484375 72.75 52.59375 71.296875 
z
" id="DejaVuSans-54"/>
       </defs>
       <use xlink:href="#DejaVuSans-54"/>
      </g>
     </g>
    </g>
    <g id="xtick_5">
     <g id="line2d_25">
      <g>
       <use style="stroke:#000000;stroke-width:0.8;" x="358.414375" xlink:href="#m348af873be" y="208.8"/>
      </g>
     </g>
     <g id="text_5">
      <!-- 8 -->
      <g transform="translate(355.233125 223.398438)scale(0.1 -0.1)">
       <defs>
        <path d="M 31.78125 34.625 
Q 24.75 34.625 20.71875 30.859375 
Q 16.703125 27.09375 16.703125 20.515625 
Q 16.703125 13.921875 20.71875 10.15625 
Q 24.75 6.390625 31.78125 6.390625 
Q 38.8125 6.390625 42.859375 10.171875 
Q 46.921875 13.96875 46.921875 20.515625 
Q 46.921875 27.09375 42.890625 30.859375 
Q 38.875 34.625 31.78125 34.625 
z
M 21.921875 38.8125 
Q 15.578125 40.375 12.03125 44.71875 
Q 8.5 49.078125 8.5 55.328125 
Q 8.5 64.0625 14.71875 69.140625 
Q 20.953125 74.21875 31.78125 74.21875 
Q 42.671875 74.21875 48.875 69.140625 
Q 55.078125 64.0625 55.078125 55.328125 
Q 55.078125 49.078125 51.53125 44.71875 
Q 48 40.375 41.703125 38.8125 
Q 48.828125 37.15625 52.796875 32.3125 
Q 56.78125 27.484375 56.78125 20.515625 
Q 56.78125 9.90625 50.3125 4.234375 
Q 43.84375 -1.421875 31.78125 -1.421875 
Q 19.734375 -1.421875 13.25 4.234375 
Q 6.78125 9.90625 6.78125 20.515625 
Q 6.78125 27.484375 10.78125 32.3125 
Q 14.796875 37.15625 21.921875 38.8125 
z
M 18.3125 54.390625 
Q 18.3125 48.734375 21.84375 45.5625 
Q 25.390625 42.390625 31.78125 42.390625 
Q 38.140625 42.390625 41.71875 45.5625 
Q 45.3125 48.734375 45.3125 54.390625 
Q 45.3125 60.0625 41.71875 63.234375 
Q 38.140625 66.40625 31.78125 66.40625 
Q 25.390625 66.40625 21.84375 63.234375 
Q 18.3125 60.0625 18.3125 54.390625 
z
" id="DejaVuSans-56"/>
       </defs>
       <use xlink:href="#DejaVuSans-56"/>
      </g>
     </g>
    </g>
    <g id="xtick_6">
     <g id="line2d_26">
      <g>
       <use style="stroke:#000000;stroke-width:0.8;" x="423.934375" xlink:href="#m348af873be" y="208.8"/>
      </g>
     </g>
     <g id="text_6">
      <!-- 10 -->
      <g transform="translate(417.571875 223.398438)scale(0.1 -0.1)">
       <defs>
        <path d="M 12.40625 8.296875 
L 28.515625 8.296875 
L 28.515625 63.921875 
L 10.984375 60.40625 
L 10.984375 69.390625 
L 28.421875 72.90625 
L 38.28125 72.90625 
L 38.28125 8.296875 
L 54.390625 8.296875 
L 54.390625 0 
L 12.40625 0 
z
" id="DejaVuSans-49"/>
       </defs>
       <use xlink:href="#DejaVuSans-49"/>
       <use x="63.623047" xlink:href="#DejaVuSans-48"/>
      </g>
     </g>
    </g>
   </g>
   <g id="matplotlib.axis_2">
    <g id="ytick_1">
     <g id="line2d_27">
      <defs>
       <path d="M 0 0 
L -3.5 0 
" id="mbb7b55522b" style="stroke:#000000;stroke-width:0.8;"/>
      </defs>
      <g>
       <use style="stroke:#000000;stroke-width:0.8;" x="96.334375" xlink:href="#mbb7b55522b" y="12.24"/>
      </g>
     </g>
     <g id="text_7">
      <!-- TIME_STAMP_s -->
      <g transform="translate(16.940625 15.950938)scale(0.1 -0.1)">
       <defs>
        <path d="M -0.296875 72.90625 
L 61.375 72.90625 
L 61.375 64.59375 
L 35.5 64.59375 
L 35.5 0 
L 25.59375 0 
L 25.59375 64.59375 
L -0.296875 64.59375 
z
" id="DejaVuSans-84"/>
        <path d="M 9.8125 72.90625 
L 19.671875 72.90625 
L 19.671875 0 
L 9.8125 0 
z
" id="DejaVuSans-73"/>
        <path d="M 9.8125 72.90625 
L 24.515625 72.90625 
L 43.109375 23.296875 
L 61.8125 72.90625 
L 76.515625 72.90625 
L 76.515625 0 
L 66.890625 0 
L 66.890625 64.015625 
L 48.09375 14.015625 
L 38.1875 14.015625 
L 19.390625 64.015625 
L 19.390625 0 
L 9.8125 0 
z
" id="DejaVuSans-77"/>
        <path d="M 9.8125 72.90625 
L 55.90625 72.90625 
L 55.90625 64.59375 
L 19.671875 64.59375 
L 19.671875 43.015625 
L 54.390625 43.015625 
L 54.390625 34.71875 
L 19.671875 34.71875 
L 19.671875 8.296875 
L 56.78125 8.296875 
L 56.78125 0 
L 9.8125 0 
z
" id="DejaVuSans-69"/>
        <path d="M 50.984375 -16.609375 
L 50.984375 -23.578125 
L -0.984375 -23.578125 
L -0.984375 -16.609375 
z
" id="DejaVuSans-95"/>
        <path d="M 53.515625 70.515625 
L 53.515625 60.890625 
Q 47.90625 63.578125 42.921875 64.890625 
Q 37.9375 66.21875 33.296875 66.21875 
Q 25.25 66.21875 20.875 63.09375 
Q 16.5 59.96875 16.5 54.203125 
Q 16.5 49.359375 19.40625 46.890625 
Q 22.3125 44.4375 30.421875 42.921875 
L 36.375 41.703125 
Q 47.40625 39.59375 52.65625 34.296875 
Q 57.90625 29 57.90625 20.125 
Q 57.90625 9.515625 50.796875 4.046875 
Q 43.703125 -1.421875 29.984375 -1.421875 
Q 24.8125 -1.421875 18.96875 -0.25 
Q 13.140625 0.921875 6.890625 3.21875 
L 6.890625 13.375 
Q 12.890625 10.015625 18.65625 8.296875 
Q 24.421875 6.59375 29.984375 6.59375 
Q 38.421875 6.59375 43.015625 9.90625 
Q 47.609375 13.234375 47.609375 19.390625 
Q 47.609375 24.75 44.3125 27.78125 
Q 41.015625 30.8125 33.5 32.328125 
L 27.484375 33.5 
Q 16.453125 35.6875 11.515625 40.375 
Q 6.59375 45.0625 6.59375 53.421875 
Q 6.59375 63.09375 13.40625 68.65625 
Q 20.21875 74.21875 32.171875 74.21875 
Q 37.3125 74.21875 42.625 73.28125 
Q 47.953125 72.359375 53.515625 70.515625 
z
" id="DejaVuSans-83"/>
        <path d="M 34.1875 63.1875 
L 20.796875 26.90625 
L 47.609375 26.90625 
z
M 28.609375 72.90625 
L 39.796875 72.90625 
L 67.578125 0 
L 57.328125 0 
L 50.6875 18.703125 
L 17.828125 18.703125 
L 11.1875 0 
L 0.78125 0 
z
" id="DejaVuSans-65"/>
        <path d="M 19.671875 64.796875 
L 19.671875 37.40625 
L 32.078125 37.40625 
Q 38.96875 37.40625 42.71875 40.96875 
Q 46.484375 44.53125 46.484375 51.125 
Q 46.484375 57.671875 42.71875 61.234375 
Q 38.96875 64.796875 32.078125 64.796875 
z
M 9.8125 72.90625 
L 32.078125 72.90625 
Q 44.34375 72.90625 50.609375 67.359375 
Q 56.890625 61.8125 56.890625 51.125 
Q 56.890625 40.328125 50.609375 34.8125 
Q 44.34375 29.296875 32.078125 29.296875 
L 19.671875 29.296875 
L 19.671875 0 
L 9.8125 0 
z
" id="DejaVuSans-80"/>
        <path d="M 44.28125 53.078125 
L 44.28125 44.578125 
Q 40.484375 46.53125 36.375 47.5 
Q 32.28125 48.484375 27.875 48.484375 
Q 21.1875 48.484375 17.84375 46.4375 
Q 14.5 44.390625 14.5 40.28125 
Q 14.5 37.15625 16.890625 35.375 
Q 19.28125 33.59375 26.515625 31.984375 
L 29.59375 31.296875 
Q 39.15625 29.25 43.1875 25.515625 
Q 47.21875 21.78125 47.21875 15.09375 
Q 47.21875 7.46875 41.1875 3.015625 
Q 35.15625 -1.421875 24.609375 -1.421875 
Q 20.21875 -1.421875 15.453125 -0.5625 
Q 10.6875 0.296875 5.421875 2 
L 5.421875 11.28125 
Q 10.40625 8.6875 15.234375 7.390625 
Q 20.0625 6.109375 24.8125 6.109375 
Q 31.15625 6.109375 34.5625 8.28125 
Q 37.984375 10.453125 37.984375 14.40625 
Q 37.984375 18.0625 35.515625 20.015625 
Q 33.0625 21.96875 24.703125 23.78125 
L 21.578125 24.515625 
Q 13.234375 26.265625 9.515625 29.90625 
Q 5.8125 33.546875 5.8125 39.890625 
Q 5.8125 47.609375 11.28125 51.796875 
Q 16.75 56 26.8125 56 
Q 31.78125 56 36.171875 55.265625 
Q 40.578125 54.546875 44.28125 53.078125 
z
" id="DejaVuSans-115"/>
       </defs>
       <use xlink:href="#DejaVuSans-84"/>
       <use x="61.083984" xlink:href="#DejaVuSans-73"/>
       <use x="90.576172" xlink:href="#DejaVuSans-77"/>
       <use x="176.855469" xlink:href="#DejaVuSans-69"/>
       <use x="240.039062" xlink:href="#DejaVuSans-95"/>
       <use x="290.039062" xlink:href="#DejaVuSans-83"/>
       <use x="353.515625" xlink:href="#DejaVuSans-84"/>
       <use x="406.849609" xlink:href="#DejaVuSans-65"/>
       <use x="475.257812" xlink:href="#DejaVuSans-77"/>
       <use x="561.537109" xlink:href="#DejaVuSans-80"/>
       <use x="621.839844" xlink:href="#DejaVuSans-95"/>
       <use x="671.839844" xlink:href="#DejaVuSans-115"/>
      </g>
     </g>
    </g>
    <g id="ytick_2">
     <g id="line2d_28">
      <g>
       <use style="stroke:#000000;stroke-width:0.8;" x="96.334375" xlink:href="#mbb7b55522b" y="22.32"/>
      </g>
     </g>
     <g id="text_8">
      <!-- TIME_STAMP_ms -->
      <g transform="translate(7.2 26.030937)scale(0.1 -0.1)">
       <defs>
        <path d="M 52 44.1875 
Q 55.375 50.25 60.0625 53.125 
Q 64.75 56 71.09375 56 
Q 79.640625 56 84.28125 50.015625 
Q 88.921875 44.046875 88.921875 33.015625 
L 88.921875 0 
L 79.890625 0 
L 79.890625 32.71875 
Q 79.890625 40.578125 77.09375 44.375 
Q 74.3125 48.1875 68.609375 48.1875 
Q 61.625 48.1875 57.5625 43.546875 
Q 53.515625 38.921875 53.515625 30.90625 
L 53.515625 0 
L 44.484375 0 
L 44.484375 32.71875 
Q 44.484375 40.625 41.703125 44.40625 
Q 38.921875 48.1875 33.109375 48.1875 
Q 26.21875 48.1875 22.15625 43.53125 
Q 18.109375 38.875 18.109375 30.90625 
L 18.109375 0 
L 9.078125 0 
L 9.078125 54.6875 
L 18.109375 54.6875 
L 18.109375 46.1875 
Q 21.1875 51.21875 25.484375 53.609375 
Q 29.78125 56 35.6875 56 
Q 41.65625 56 45.828125 52.96875 
Q 50 49.953125 52 44.1875 
z
" id="DejaVuSans-109"/>
       </defs>
       <use xlink:href="#DejaVuSans-84"/>
       <use x="61.083984" xlink:href="#DejaVuSans-73"/>
       <use x="90.576172" xlink:href="#DejaVuSans-77"/>
       <use x="176.855469" xlink:href="#DejaVuSans-69"/>
       <use x="240.039062" xlink:href="#DejaVuSans-95"/>
       <use x="290.039062" xlink:href="#DejaVuSans-83"/>
       <use x="353.515625" xlink:href="#DejaVuSans-84"/>
       <use x="406.849609" xlink:href="#DejaVuSans-65"/>
       <use x="475.257812" xlink:href="#DejaVuSans-77"/>
       <use x="561.537109" xlink:href="#DejaVuSans-80"/>
       <use x="621.839844" xlink:href="#DejaVuSans-95"/>
       <use x="671.839844" xlink:href="#DejaVuSans-109"/>
       <use x="769.251953" xlink:href="#DejaVuSans-115"/>
      </g>
     </g>
    </g>
    <g id="ytick_3">
     <g id="line2d_29">
      <g>
       <use style="stroke:#000000;stroke-width:0.8;" x="96.334375" xlink:href="#mbb7b55522b" y="32.4"/>
      </g>
     </g>
     <g id="text_9">
      <!-- COUNTER -->
      <g transform="translate(40.304688 36.199219)scale(0.1 -0.1)">
       <defs>
        <path d="M 64.40625 67.28125 
L 64.40625 56.890625 
Q 59.421875 61.53125 53.78125 63.8125 
Q 48.140625 66.109375 41.796875 66.109375 
Q 29.296875 66.109375 22.65625 58.46875 
Q 16.015625 50.828125 16.015625 36.375 
Q 16.015625 21.96875 22.65625 14.328125 
Q 29.296875 6.6875 41.796875 6.6875 
Q 48.140625 6.6875 53.78125 8.984375 
Q 59.421875 11.28125 64.40625 15.921875 
L 64.40625 5.609375 
Q 59.234375 2.09375 53.4375 0.328125 
Q 47.65625 -1.421875 41.21875 -1.421875 
Q 24.65625 -1.421875 15.125 8.703125 
Q 5.609375 18.84375 5.609375 36.375 
Q 5.609375 53.953125 15.125 64.078125 
Q 24.65625 74.21875 41.21875 74.21875 
Q 47.75 74.21875 53.53125 72.484375 
Q 59.328125 70.75 64.40625 67.28125 
z
" id="DejaVuSans-67"/>
        <path d="M 39.40625 66.21875 
Q 28.65625 66.21875 22.328125 58.203125 
Q 16.015625 50.203125 16.015625 36.375 
Q 16.015625 22.609375 22.328125 14.59375 
Q 28.65625 6.59375 39.40625 6.59375 
Q 50.140625 6.59375 56.421875 14.59375 
Q 62.703125 22.609375 62.703125 36.375 
Q 62.703125 50.203125 56.421875 58.203125 
Q 50.140625 66.21875 39.40625 66.21875 
z
M 39.40625 74.21875 
Q 54.734375 74.21875 63.90625 63.9375 
Q 73.09375 53.65625 73.09375 36.375 
Q 73.09375 19.140625 63.90625 8.859375 
Q 54.734375 -1.421875 39.40625 -1.421875 
Q 24.03125 -1.421875 14.8125 8.828125 
Q 5.609375 19.09375 5.609375 36.375 
Q 5.609375 53.65625 14.8125 63.9375 
Q 24.03125 74.21875 39.40625 74.21875 
z
" id="DejaVuSans-79"/>
        <path d="M 8.6875 72.90625 
L 18.609375 72.90625 
L 18.609375 28.609375 
Q 18.609375 16.890625 22.84375 11.734375 
Q 27.09375 6.59375 36.625 6.59375 
Q 46.09375 6.59375 50.34375 11.734375 
Q 54.59375 16.890625 54.59375 28.609375 
L 54.59375 72.90625 
L 64.5 72.90625 
L 64.5 27.390625 
Q 64.5 13.140625 57.4375 5.859375 
Q 50.390625 -1.421875 36.625 -1.421875 
Q 22.796875 -1.421875 15.734375 5.859375 
Q 8.6875 13.140625 8.6875 27.390625 
z
" id="DejaVuSans-85"/>
        <path d="M 9.8125 72.90625 
L 23.09375 72.90625 
L 55.421875 11.921875 
L 55.421875 72.90625 
L 64.984375 72.90625 
L 64.984375 0 
L 51.703125 0 
L 19.390625 60.984375 
L 19.390625 0 
L 9.8125 0 
z
" id="DejaVuSans-78"/>
        <path d="M 44.390625 34.1875 
Q 47.5625 33.109375 50.5625 29.59375 
Q 53.5625 26.078125 56.59375 19.921875 
L 66.609375 0 
L 56 0 
L 46.6875 18.703125 
Q 43.0625 26.03125 39.671875 28.421875 
Q 36.28125 30.8125 30.421875 30.8125 
L 19.671875 30.8125 
L 19.671875 0 
L 9.8125 0 
L 9.8125 72.90625 
L 32.078125 72.90625 
Q 44.578125 72.90625 50.734375 67.671875 
Q 56.890625 62.453125 56.890625 51.90625 
Q 56.890625 45.015625 53.6875 40.46875 
Q 50.484375 35.9375 44.390625 34.1875 
z
M 19.671875 64.796875 
L 19.671875 38.921875 
L 32.078125 38.921875 
Q 39.203125 38.921875 42.84375 42.21875 
Q 46.484375 45.515625 46.484375 51.90625 
Q 46.484375 58.296875 42.84375 61.546875 
Q 39.203125 64.796875 32.078125 64.796875 
z
" id="DejaVuSans-82"/>
       </defs>
       <use xlink:href="#DejaVuSans-67"/>
       <use x="69.824219" xlink:href="#DejaVuSans-79"/>
       <use x="148.535156" xlink:href="#DejaVuSans-85"/>
       <use x="221.728516" xlink:href="#DejaVuSans-78"/>
       <use x="296.533203" xlink:href="#DejaVuSans-84"/>
       <use x="357.617188" xlink:href="#DejaVuSans-69"/>
       <use x="420.800781" xlink:href="#DejaVuSans-82"/>
      </g>
     </g>
    </g>
    <g id="ytick_4">
     <g id="line2d_30">
      <g>
       <use style="stroke:#000000;stroke-width:0.8;" x="96.334375" xlink:href="#mbb7b55522b" y="42.48"/>
      </g>
     </g>
     <g id="text_10">
      <!-- INTERPOLATED -->
      <g transform="translate(13.6375 46.279219)scale(0.1 -0.1)">
       <defs>
        <path d="M 9.8125 72.90625 
L 19.671875 72.90625 
L 19.671875 8.296875 
L 55.171875 8.296875 
L 55.171875 0 
L 9.8125 0 
z
" id="DejaVuSans-76"/>
        <path d="M 19.671875 64.796875 
L 19.671875 8.109375 
L 31.59375 8.109375 
Q 46.6875 8.109375 53.6875 14.9375 
Q 60.6875 21.78125 60.6875 36.53125 
Q 60.6875 51.171875 53.6875 57.984375 
Q 46.6875 64.796875 31.59375 64.796875 
z
M 9.8125 72.90625 
L 30.078125 72.90625 
Q 51.265625 72.90625 61.171875 64.09375 
Q 71.09375 55.28125 71.09375 36.53125 
Q 71.09375 17.671875 61.125 8.828125 
Q 51.171875 0 30.078125 0 
L 9.8125 0 
z
" id="DejaVuSans-68"/>
       </defs>
       <use xlink:href="#DejaVuSans-73"/>
       <use x="29.492188" xlink:href="#DejaVuSans-78"/>
       <use x="104.296875" xlink:href="#DejaVuSans-84"/>
       <use x="165.380859" xlink:href="#DejaVuSans-69"/>
       <use x="228.564453" xlink:href="#DejaVuSans-82"/>
       <use x="298.046875" xlink:href="#DejaVuSans-80"/>
       <use x="358.349609" xlink:href="#DejaVuSans-79"/>
       <use x="437.060547" xlink:href="#DejaVuSans-76"/>
       <use x="495.023438" xlink:href="#DejaVuSans-65"/>
       <use x="555.681641" xlink:href="#DejaVuSans-84"/>
       <use x="616.765625" xlink:href="#DejaVuSans-69"/>
       <use x="679.949219" xlink:href="#DejaVuSans-68"/>
      </g>
     </g>
    </g>
    <g id="ytick_5">
     <g id="line2d_31">
      <g>
       <use style="stroke:#000000;stroke-width:0.8;" x="96.334375" xlink:href="#mbb7b55522b" y="52.56"/>
      </g>
     </g>
     <g id="text_11">
      <!-- AF3 -->
      <g transform="translate(70.379688 56.359219)scale(0.1 -0.1)">
       <defs>
        <path d="M 9.8125 72.90625 
L 51.703125 72.90625 
L 51.703125 64.59375 
L 19.671875 64.59375 
L 19.671875 43.109375 
L 48.578125 43.109375 
L 48.578125 34.8125 
L 19.671875 34.8125 
L 19.671875 0 
L 9.8125 0 
z
" id="DejaVuSans-70"/>
        <path d="M 40.578125 39.3125 
Q 47.65625 37.796875 51.625 33 
Q 55.609375 28.21875 55.609375 21.1875 
Q 55.609375 10.40625 48.1875 4.484375 
Q 40.765625 -1.421875 27.09375 -1.421875 
Q 22.515625 -1.421875 17.65625 -0.515625 
Q 12.796875 0.390625 7.625 2.203125 
L 7.625 11.71875 
Q 11.71875 9.328125 16.59375 8.109375 
Q 21.484375 6.890625 26.8125 6.890625 
Q 36.078125 6.890625 40.9375 10.546875 
Q 45.796875 14.203125 45.796875 21.1875 
Q 45.796875 27.640625 41.28125 31.265625 
Q 36.765625 34.90625 28.71875 34.90625 
L 20.21875 34.90625 
L 20.21875 43.015625 
L 29.109375 43.015625 
Q 36.375 43.015625 40.234375 45.921875 
Q 44.09375 48.828125 44.09375 54.296875 
Q 44.09375 59.90625 40.109375 62.90625 
Q 36.140625 65.921875 28.71875 65.921875 
Q 24.65625 65.921875 20.015625 65.03125 
Q 15.375 64.15625 9.8125 62.3125 
L 9.8125 71.09375 
Q 15.4375 72.65625 20.34375 73.4375 
Q 25.25 74.21875 29.59375 74.21875 
Q 40.828125 74.21875 47.359375 69.109375 
Q 53.90625 64.015625 53.90625 55.328125 
Q 53.90625 49.265625 50.4375 45.09375 
Q 46.96875 40.921875 40.578125 39.3125 
z
" id="DejaVuSans-51"/>
       </defs>
       <use xlink:href="#DejaVuSans-65"/>
       <use x="68.408203" xlink:href="#DejaVuSans-70"/>
       <use x="125.927734" xlink:href="#DejaVuSans-51"/>
      </g>
     </g>
    </g>
    <g id="ytick_6">
     <g id="line2d_32">
      <g>
       <use style="stroke:#000000;stroke-width:0.8;" x="96.334375" xlink:href="#mbb7b55522b" y="62.64"/>
      </g>
     </g>
     <g id="text_12">
      <!-- F7 -->
      <g transform="translate(77.220313 66.439219)scale(0.1 -0.1)">
       <defs>
        <path d="M 8.203125 72.90625 
L 55.078125 72.90625 
L 55.078125 68.703125 
L 28.609375 0 
L 18.3125 0 
L 43.21875 64.59375 
L 8.203125 64.59375 
z
" id="DejaVuSans-55"/>
       </defs>
       <use xlink:href="#DejaVuSans-70"/>
       <use x="57.519531" xlink:href="#DejaVuSans-55"/>
      </g>
     </g>
    </g>
    <g id="ytick_7">
     <g id="line2d_33">
      <g>
       <use style="stroke:#000000;stroke-width:0.8;" x="96.334375" xlink:href="#mbb7b55522b" y="72.72"/>
      </g>
     </g>
     <g id="text_13">
      <!-- F3 -->
      <g transform="translate(77.220313 76.519219)scale(0.1 -0.1)">
       <use xlink:href="#DejaVuSans-70"/>
       <use x="57.519531" xlink:href="#DejaVuSans-51"/>
      </g>
     </g>
    </g>
    <g id="ytick_8">
     <g id="line2d_34">
      <g>
       <use style="stroke:#000000;stroke-width:0.8;" x="96.334375" xlink:href="#mbb7b55522b" y="82.8"/>
      </g>
     </g>
     <g id="text_14">
      <!-- FC5 -->
      <g transform="translate(70.2375 86.599219)scale(0.1 -0.1)">
       <defs>
        <path d="M 10.796875 72.90625 
L 49.515625 72.90625 
L 49.515625 64.59375 
L 19.828125 64.59375 
L 19.828125 46.734375 
Q 21.96875 47.46875 24.109375 47.828125 
Q 26.265625 48.1875 28.421875 48.1875 
Q 40.625 48.1875 47.75 41.5 
Q 54.890625 34.8125 54.890625 23.390625 
Q 54.890625 11.625 47.5625 5.09375 
Q 40.234375 -1.421875 26.90625 -1.421875 
Q 22.3125 -1.421875 17.546875 -0.640625 
Q 12.796875 0.140625 7.71875 1.703125 
L 7.71875 11.625 
Q 12.109375 9.234375 16.796875 8.0625 
Q 21.484375 6.890625 26.703125 6.890625 
Q 35.15625 6.890625 40.078125 11.328125 
Q 45.015625 15.765625 45.015625 23.390625 
Q 45.015625 31 40.078125 35.4375 
Q 35.15625 39.890625 26.703125 39.890625 
Q 22.75 39.890625 18.8125 39.015625 
Q 14.890625 38.140625 10.796875 36.28125 
z
" id="DejaVuSans-53"/>
       </defs>
       <use xlink:href="#DejaVuSans-70"/>
       <use x="57.519531" xlink:href="#DejaVuSans-67"/>
       <use x="127.34375" xlink:href="#DejaVuSans-53"/>
      </g>
     </g>
    </g>
    <g id="ytick_9">
     <g id="line2d_35">
      <g>
       <use style="stroke:#000000;stroke-width:0.8;" x="96.334375" xlink:href="#mbb7b55522b" y="92.88"/>
      </g>
     </g>
     <g id="text_15">
      <!-- T7 -->
      <g transform="translate(76.864063 96.679219)scale(0.1 -0.1)">
       <use xlink:href="#DejaVuSans-84"/>
       <use x="61.083984" xlink:href="#DejaVuSans-55"/>
      </g>
     </g>
    </g>
    <g id="ytick_10">
     <g id="line2d_36">
      <g>
       <use style="stroke:#000000;stroke-width:0.8;" x="96.334375" xlink:href="#mbb7b55522b" y="102.96"/>
      </g>
     </g>
     <g id="text_16">
      <!-- P7 -->
      <g transform="translate(76.942188 106.759219)scale(0.1 -0.1)">
       <use xlink:href="#DejaVuSans-80"/>
       <use x="60.302734" xlink:href="#DejaVuSans-55"/>
      </g>
     </g>
    </g>
    <g id="ytick_11">
     <g id="line2d_37">
      <g>
       <use style="stroke:#000000;stroke-width:0.8;" x="96.334375" xlink:href="#mbb7b55522b" y="113.04"/>
      </g>
     </g>
     <g id="text_17">
      <!-- O1 -->
      <g transform="translate(75.1 116.839219)scale(0.1 -0.1)">
       <use xlink:href="#DejaVuSans-79"/>
       <use x="78.710938" xlink:href="#DejaVuSans-49"/>
      </g>
     </g>
    </g>
    <g id="ytick_12">
     <g id="line2d_38">
      <g>
       <use style="stroke:#000000;stroke-width:0.8;" x="96.334375" xlink:href="#mbb7b55522b" y="123.12"/>
      </g>
     </g>
     <g id="text_18">
      <!-- O2 -->
      <g transform="translate(75.1 126.919219)scale(0.1 -0.1)">
       <use xlink:href="#DejaVuSans-79"/>
       <use x="78.710938" xlink:href="#DejaVuSans-50"/>
      </g>
     </g>
    </g>
    <g id="ytick_13">
     <g id="line2d_39">
      <g>
       <use style="stroke:#000000;stroke-width:0.8;" x="96.334375" xlink:href="#mbb7b55522b" y="133.2"/>
      </g>
     </g>
     <g id="text_19">
      <!-- P8 -->
      <g transform="translate(76.942188 136.999219)scale(0.1 -0.1)">
       <use xlink:href="#DejaVuSans-80"/>
       <use x="60.302734" xlink:href="#DejaVuSans-56"/>
      </g>
     </g>
    </g>
    <g id="ytick_14">
     <g id="line2d_40">
      <g>
       <use style="stroke:#000000;stroke-width:0.8;" x="96.334375" xlink:href="#mbb7b55522b" y="143.28"/>
      </g>
     </g>
     <g id="text_20">
      <!-- T8 -->
      <g transform="translate(76.864063 147.079219)scale(0.1 -0.1)">
       <use xlink:href="#DejaVuSans-84"/>
       <use x="61.083984" xlink:href="#DejaVuSans-56"/>
      </g>
     </g>
    </g>
    <g id="ytick_15">
     <g id="line2d_41">
      <g>
       <use style="stroke:#000000;stroke-width:0.8;" x="96.334375" xlink:href="#mbb7b55522b" y="153.36"/>
      </g>
     </g>
     <g id="text_21">
      <!-- FC6 -->
      <g transform="translate(70.2375 157.159219)scale(0.1 -0.1)">
       <use xlink:href="#DejaVuSans-70"/>
       <use x="57.519531" xlink:href="#DejaVuSans-67"/>
       <use x="127.34375" xlink:href="#DejaVuSans-54"/>
      </g>
     </g>
    </g>
    <g id="ytick_16">
     <g id="line2d_42">
      <g>
       <use style="stroke:#000000;stroke-width:0.8;" x="96.334375" xlink:href="#mbb7b55522b" y="163.44"/>
      </g>
     </g>
     <g id="text_22">
      <!-- F4 -->
      <g transform="translate(77.220313 167.239219)scale(0.1 -0.1)">
       <use xlink:href="#DejaVuSans-70"/>
       <use x="57.519531" xlink:href="#DejaVuSans-52"/>
      </g>
     </g>
    </g>
    <g id="ytick_17">
     <g id="line2d_43">
      <g>
       <use style="stroke:#000000;stroke-width:0.8;" x="96.334375" xlink:href="#mbb7b55522b" y="173.52"/>
      </g>
     </g>
     <g id="text_23">
      <!-- F8 -->
      <g transform="translate(77.220313 177.319219)scale(0.1 -0.1)">
       <use xlink:href="#DejaVuSans-70"/>
       <use x="57.519531" xlink:href="#DejaVuSans-56"/>
      </g>
     </g>
    </g>
    <g id="ytick_18">
     <g id="line2d_44">
      <g>
       <use style="stroke:#000000;stroke-width:0.8;" x="96.334375" xlink:href="#mbb7b55522b" y="183.6"/>
      </g>
     </g>
     <g id="text_24">
      <!-- AF4 -->
      <g transform="translate(70.379688 187.399219)scale(0.1 -0.1)">
       <use xlink:href="#DejaVuSans-65"/>
       <use x="68.408203" xlink:href="#DejaVuSans-70"/>
       <use x="125.927734" xlink:href="#DejaVuSans-52"/>
      </g>
     </g>
    </g>
    <g id="ytick_19">
     <g id="line2d_45">
      <g>
       <use style="stroke:#000000;stroke-width:0.8;" x="96.334375" xlink:href="#mbb7b55522b" y="193.68"/>
      </g>
     </g>
     <g id="text_25">
      <!-- RAW_CQ -->
      <g transform="translate(46.753125 197.390938)scale(0.1 -0.1)">
       <defs>
        <path d="M 3.328125 72.90625 
L 13.28125 72.90625 
L 28.609375 11.28125 
L 43.890625 72.90625 
L 54.984375 72.90625 
L 70.3125 11.28125 
L 85.59375 72.90625 
L 95.609375 72.90625 
L 77.296875 0 
L 64.890625 0 
L 49.515625 63.28125 
L 33.984375 0 
L 21.578125 0 
z
" id="DejaVuSans-87"/>
        <path d="M 39.40625 66.21875 
Q 28.65625 66.21875 22.328125 58.203125 
Q 16.015625 50.203125 16.015625 36.375 
Q 16.015625 22.609375 22.328125 14.59375 
Q 28.65625 6.59375 39.40625 6.59375 
Q 50.140625 6.59375 56.421875 14.59375 
Q 62.703125 22.609375 62.703125 36.375 
Q 62.703125 50.203125 56.421875 58.203125 
Q 50.140625 66.21875 39.40625 66.21875 
z
M 53.21875 1.3125 
L 66.21875 -12.890625 
L 54.296875 -12.890625 
L 43.5 -1.21875 
Q 41.890625 -1.3125 41.03125 -1.359375 
Q 40.1875 -1.421875 39.40625 -1.421875 
Q 24.03125 -1.421875 14.8125 8.859375 
Q 5.609375 19.140625 5.609375 36.375 
Q 5.609375 53.65625 14.8125 63.9375 
Q 24.03125 74.21875 39.40625 74.21875 
Q 54.734375 74.21875 63.90625 63.9375 
Q 73.09375 53.65625 73.09375 36.375 
Q 73.09375 23.6875 67.984375 14.640625 
Q 62.890625 5.609375 53.21875 1.3125 
z
" id="DejaVuSans-81"/>
       </defs>
       <use xlink:href="#DejaVuSans-82"/>
       <use x="65.482422" xlink:href="#DejaVuSans-65"/>
       <use x="128.390625" xlink:href="#DejaVuSans-87"/>
       <use x="227.267578" xlink:href="#DejaVuSans-95"/>
       <use x="277.267578" xlink:href="#DejaVuSans-67"/>
       <use x="347.091797" xlink:href="#DejaVuSans-81"/>
      </g>
     </g>
    </g>
    <g id="ytick_20">
     <g id="line2d_46">
      <g>
       <use style="stroke:#000000;stroke-width:0.8;" x="96.334375" xlink:href="#mbb7b55522b" y="203.76"/>
      </g>
     </g>
     <g id="text_26">
      <!-- BATTERY -->
      <g transform="translate(45.629688 207.559219)scale(0.1 -0.1)">
       <defs>
        <path d="M 19.671875 34.8125 
L 19.671875 8.109375 
L 35.5 8.109375 
Q 43.453125 8.109375 47.28125 11.40625 
Q 51.125 14.703125 51.125 21.484375 
Q 51.125 28.328125 47.28125 31.5625 
Q 43.453125 34.8125 35.5 34.8125 
z
M 19.671875 64.796875 
L 19.671875 42.828125 
L 34.28125 42.828125 
Q 41.5 42.828125 45.03125 45.53125 
Q 48.578125 48.25 48.578125 53.8125 
Q 48.578125 59.328125 45.03125 62.0625 
Q 41.5 64.796875 34.28125 64.796875 
z
M 9.8125 72.90625 
L 35.015625 72.90625 
Q 46.296875 72.90625 52.390625 68.21875 
Q 58.5 63.53125 58.5 54.890625 
Q 58.5 48.1875 55.375 44.234375 
Q 52.25 40.28125 46.1875 39.3125 
Q 53.46875 37.75 57.5 32.78125 
Q 61.53125 27.828125 61.53125 20.40625 
Q 61.53125 10.640625 54.890625 5.3125 
Q 48.25 0 35.984375 0 
L 9.8125 0 
z
" id="DejaVuSans-66"/>
        <path d="M -0.203125 72.90625 
L 10.40625 72.90625 
L 30.609375 42.921875 
L 50.6875 72.90625 
L 61.28125 72.90625 
L 35.5 34.71875 
L 35.5 0 
L 25.59375 0 
L 25.59375 34.71875 
z
" id="DejaVuSans-89"/>
       </defs>
       <use xlink:href="#DejaVuSans-66"/>
       <use x="68.603516" xlink:href="#DejaVuSans-65"/>
       <use x="129.261719" xlink:href="#DejaVuSans-84"/>
       <use x="188.595703" xlink:href="#DejaVuSans-84"/>
       <use x="249.679688" xlink:href="#DejaVuSans-69"/>
       <use x="312.863281" xlink:href="#DejaVuSans-82"/>
       <use x="375.970703" xlink:href="#DejaVuSans-89"/>
      </g>
     </g>
    </g>
   </g>
   <g id="line2d_47">
    <path clip-path="url(#p6ae5480b2d)" style="fill:none;stroke:#1f77b4;stroke-linecap:square;stroke-width:0.5;"/>
   </g>
   <g id="line2d_48">
    <path clip-path="url(#p6ae5480b2d)" style="fill:none;stroke:#ff7f0e;stroke-linecap:square;stroke-width:0.5;"/>
   </g>
   <g id="line2d_49">
    <path clip-path="url(#p6ae5480b2d)" style="fill:none;stroke:#2ca02c;stroke-linecap:square;stroke-width:0.5;"/>
   </g>
   <g id="line2d_50">
    <path clip-path="url(#p6ae5480b2d)" style="fill:none;stroke:#d62728;stroke-linecap:square;stroke-width:0.5;"/>
   </g>
   <g id="line2d_51">
    <path clip-path="url(#p6ae5480b2d)" style="fill:none;stroke:#9467bd;stroke-linecap:square;stroke-width:0.5;"/>
   </g>
   <g id="line2d_52">
    <path clip-path="url(#p6ae5480b2d)" style="fill:none;stroke:#8c564b;stroke-linecap:square;stroke-width:0.5;"/>
   </g>
   <g id="line2d_53">
    <path clip-path="url(#p6ae5480b2d)" style="fill:none;stroke:#e377c2;stroke-linecap:square;stroke-width:0.5;"/>
   </g>
   <g id="line2d_54">
    <path clip-path="url(#p6ae5480b2d)" style="fill:none;stroke:#7f7f7f;stroke-linecap:square;stroke-width:0.5;"/>
   </g>
   <g id="line2d_55">
    <path clip-path="url(#p6ae5480b2d)" style="fill:none;stroke:#bcbd22;stroke-linecap:square;stroke-width:0.5;"/>
   </g>
   <g id="line2d_56">
    <path clip-path="url(#p6ae5480b2d)" style="fill:none;stroke:#17becf;stroke-linecap:square;stroke-width:0.5;"/>
   </g>
   <g id="line2d_57">
    <path clip-path="url(#p6ae5480b2d)" style="fill:none;stroke:#1f77b4;stroke-linecap:square;stroke-width:0.5;"/>
   </g>
   <g id="line2d_58">
    <path clip-path="url(#p6ae5480b2d)" style="fill:none;stroke:#ff7f0e;stroke-linecap:square;stroke-width:0.5;"/>
   </g>
   <g id="line2d_59">
    <path clip-path="url(#p6ae5480b2d)" style="fill:none;stroke:#2ca02c;stroke-linecap:square;stroke-width:0.5;"/>
   </g>
   <g id="line2d_60">
    <path clip-path="url(#p6ae5480b2d)" style="fill:none;stroke:#d62728;stroke-linecap:square;stroke-width:0.5;"/>
   </g>
   <g id="line2d_61">
    <path clip-path="url(#p6ae5480b2d)" style="fill:none;stroke:#9467bd;stroke-linecap:square;stroke-width:0.5;"/>
   </g>
   <g id="line2d_62">
    <path clip-path="url(#p6ae5480b2d)" style="fill:none;stroke:#8c564b;stroke-linecap:square;stroke-width:0.5;"/>
   </g>
   <g id="line2d_63">
    <path clip-path="url(#p6ae5480b2d)" style="fill:none;stroke:#e377c2;stroke-linecap:square;stroke-width:0.5;"/>
   </g>
   <g id="line2d_64">
    <path clip-path="url(#p6ae5480b2d)" style="fill:none;stroke:#7f7f7f;stroke-linecap:square;stroke-width:0.5;"/>
   </g>
   <g id="line2d_65">
    <path clip-path="url(#p6ae5480b2d)" style="fill:none;stroke:#bcbd22;stroke-linecap:square;stroke-width:0.5;"/>
   </g>
   <g id="line2d_66">
    <path clip-path="url(#p6ae5480b2d)" style="fill:none;stroke:#17becf;stroke-linecap:square;stroke-width:0.5;"/>
   </g>
   <g id="line2d_67">
    <path clip-path="url(#p6ae5480b2d)" style="fill:none;stroke:#1f77b4;stroke-linecap:square;stroke-width:0.5;"/>
   </g>
   <g id="line2d_68">
    <path clip-path="url(#p6ae5480b2d)" style="fill:none;stroke:#00ffff;stroke-linecap:square;stroke-width:1.5;"/>
   </g>
   <g id="patch_3">
    <path d="M 96.334375 208.8 
L 96.334375 7.2 
" style="fill:none;stroke:#000000;stroke-linecap:square;stroke-linejoin:miter;stroke-width:0.8;"/>
   </g>
   <g id="patch_4">
    <path d="M 423.934375 208.8 
L 423.934375 7.2 
" style="fill:none;stroke:#000000;stroke-linecap:square;stroke-linejoin:miter;stroke-width:0.8;"/>
   </g>
   <g id="patch_5">
    <path d="M 96.334375 208.8 
L 423.934375 208.8 
" style="fill:none;stroke:#000000;stroke-linecap:square;stroke-linejoin:miter;stroke-width:0.8;"/>
   </g>
   <g id="patch_6">
    <path d="M 96.334375 7.2 
L 423.934375 7.2 
" style="fill:none;stroke:#000000;stroke-linecap:square;stroke-linejoin:miter;stroke-width:0.8;"/>
   </g>
   <g id="line2d_69">
    <path clip-path="url(#p6ae5480b2d)" d="M 96.334375 -1 
L 96.334375 208.8 
" style="fill:none;stroke:#00bf00;stroke-linecap:square;stroke-width:1.5;"/>
   </g>
   <g id="line2d_70">
    <path clip-path="url(#p6ae5480b2d)" d="M 96.334375 7.322927 
L 96.334375 17.157073 
" style="fill:none;stroke:#aa3377;stroke-linecap:square;stroke-width:4;"/>
   </g>
   <g id="text_27">
    <!-- 40.0 V  -->
    <g style="fill:#aa3377;" transform="translate(72.1177 17.157073)scale(0.0579 -0.0579)">
     <defs>
      <path d="M 10.6875 12.40625 
L 21 12.40625 
L 21 0 
L 10.6875 0 
z
" id="DejaVuSans-46"/>
      <path id="DejaVuSans-32"/>
      <path d="M 8.5 -20.796875 
L 8.5 54.6875 
L 17.484375 54.6875 
L 17.484375 20.703125 
Q 17.484375 13.625 20.84375 10 
Q 24.21875 6.390625 30.8125 6.390625 
Q 38.03125 6.390625 41.671875 10.484375 
Q 45.3125 14.59375 45.3125 22.796875 
L 45.3125 54.6875 
L 54.296875 54.6875 
L 54.296875 12.59375 
Q 54.296875 9.671875 55.140625 8.28125 
Q 56 6.890625 57.8125 6.890625 
Q 58.25 6.890625 59.03125 7.15625 
Q 59.8125 7.421875 61.1875 8.015625 
L 61.1875 0.78125 
Q 59.1875 -0.34375 57.390625 -0.875 
Q 55.609375 -1.421875 53.90625 -1.421875 
Q 50.53125 -1.421875 48.53125 0.484375 
Q 46.53125 2.390625 45.796875 6.296875 
Q 43.359375 2.4375 39.8125 0.5 
Q 36.28125 -1.421875 31.5 -1.421875 
Q 26.515625 -1.421875 23.015625 0.484375 
Q 19.53125 2.390625 17.484375 6.203125 
L 17.484375 -20.796875 
z
" id="DejaVuSans-181"/>
      <path d="M 28.609375 0 
L 0.78125 72.90625 
L 11.078125 72.90625 
L 34.1875 11.53125 
L 57.328125 72.90625 
L 67.578125 72.90625 
L 39.796875 0 
z
" id="DejaVuSans-86"/>
     </defs>
     <use xlink:href="#DejaVuSans-52"/>
     <use x="63.623047" xlink:href="#DejaVuSans-48"/>
     <use x="127.246094" xlink:href="#DejaVuSans-46"/>
     <use x="159.033203" xlink:href="#DejaVuSans-48"/>
     <use x="222.65625" xlink:href="#DejaVuSans-32"/>
     <use x="254.443359" xlink:href="#DejaVuSans-181"/>
     <use x="318.066406" xlink:href="#DejaVuSans-86"/>
     <use x="386.474609" xlink:href="#DejaVuSans-32"/>
    </g>
   </g>
  </g>
  <g id="axes_2">
   <g id="patch_7">
    <path d="M 96.334375 244.8 
L 423.934375 244.8 
L 423.934375 226.8 
L 96.334375 226.8 
z
" style="fill:#ffffff;"/>
   </g>
   <g id="patch_8">
    <path d="M 96.334375 244.8 
L 128.452022 244.8 
L 128.452022 226.8 
L 96.334375 226.8 
z
" style="fill:#bfbfbf;opacity:0.25;stroke:#000000;stroke-linejoin:miter;stroke-width:4;"/>
   </g>
   <g id="matplotlib.axis_3">
    <g id="xtick_7">
     <g id="line2d_71">
      <g>
       <use style="stroke:#000000;stroke-width:0.8;" x="96.334375" xlink:href="#m348af873be" y="244.8"/>
      </g>
     </g>
     <g id="text_28">
      <!-- 0 -->
      <g transform="translate(93.153125 259.398438)scale(0.1 -0.1)">
       <use xlink:href="#DejaVuSans-48"/>
      </g>
     </g>
    </g>
    <g id="xtick_8">
     <g id="line2d_72">
      <g>
       <use style="stroke:#000000;stroke-width:0.8;" x="160.569669" xlink:href="#m348af873be" y="244.8"/>
      </g>
     </g>
     <g id="text_29">
      <!-- 20 -->
      <g transform="translate(154.207169 259.398438)scale(0.1 -0.1)">
       <use xlink:href="#DejaVuSans-50"/>
       <use x="63.623047" xlink:href="#DejaVuSans-48"/>
      </g>
     </g>
    </g>
    <g id="xtick_9">
     <g id="line2d_73">
      <g>
       <use style="stroke:#000000;stroke-width:0.8;" x="224.804963" xlink:href="#m348af873be" y="244.8"/>
      </g>
     </g>
     <g id="text_30">
      <!-- 40 -->
      <g transform="translate(218.442463 259.398438)scale(0.1 -0.1)">
       <use xlink:href="#DejaVuSans-52"/>
       <use x="63.623047" xlink:href="#DejaVuSans-48"/>
      </g>
     </g>
    </g>
    <g id="xtick_10">
     <g id="line2d_74">
      <g>
       <use style="stroke:#000000;stroke-width:0.8;" x="289.040257" xlink:href="#m348af873be" y="244.8"/>
      </g>
     </g>
     <g id="text_31">
      <!-- 60 -->
      <g transform="translate(282.677757 259.398438)scale(0.1 -0.1)">
       <use xlink:href="#DejaVuSans-54"/>
       <use x="63.623047" xlink:href="#DejaVuSans-48"/>
      </g>
     </g>
    </g>
    <g id="xtick_11">
     <g id="line2d_75">
      <g>
       <use style="stroke:#000000;stroke-width:0.8;" x="353.275551" xlink:href="#m348af873be" y="244.8"/>
      </g>
     </g>
     <g id="text_32">
      <!-- 80 -->
      <g transform="translate(346.913051 259.398438)scale(0.1 -0.1)">
       <use xlink:href="#DejaVuSans-56"/>
       <use x="63.623047" xlink:href="#DejaVuSans-48"/>
      </g>
     </g>
    </g>
    <g id="xtick_12">
     <g id="line2d_76">
      <g>
       <use style="stroke:#000000;stroke-width:0.8;" x="417.510846" xlink:href="#m348af873be" y="244.8"/>
      </g>
     </g>
     <g id="text_33">
      <!-- 100 -->
      <g transform="translate(407.967096 259.398438)scale(0.1 -0.1)">
       <use xlink:href="#DejaVuSans-49"/>
       <use x="63.623047" xlink:href="#DejaVuSans-48"/>
       <use x="127.246094" xlink:href="#DejaVuSans-48"/>
      </g>
     </g>
    </g>
    <g id="text_34">
     <!-- Time (s) -->
     <g transform="translate(239.805469 273.076562)scale(0.1 -0.1)">
      <defs>
       <path d="M 9.421875 54.6875 
L 18.40625 54.6875 
L 18.40625 0 
L 9.421875 0 
z
M 9.421875 75.984375 
L 18.40625 75.984375 
L 18.40625 64.59375 
L 9.421875 64.59375 
z
" id="DejaVuSans-105"/>
       <path d="M 56.203125 29.59375 
L 56.203125 25.203125 
L 14.890625 25.203125 
Q 15.484375 15.921875 20.484375 11.0625 
Q 25.484375 6.203125 34.421875 6.203125 
Q 39.59375 6.203125 44.453125 7.46875 
Q 49.3125 8.734375 54.109375 11.28125 
L 54.109375 2.78125 
Q 49.265625 0.734375 44.1875 -0.34375 
Q 39.109375 -1.421875 33.890625 -1.421875 
Q 20.796875 -1.421875 13.15625 6.1875 
Q 5.515625 13.8125 5.515625 26.8125 
Q 5.515625 40.234375 12.765625 48.109375 
Q 20.015625 56 32.328125 56 
Q 43.359375 56 49.78125 48.890625 
Q 56.203125 41.796875 56.203125 29.59375 
z
M 47.21875 32.234375 
Q 47.125 39.59375 43.09375 43.984375 
Q 39.0625 48.390625 32.421875 48.390625 
Q 24.90625 48.390625 20.390625 44.140625 
Q 15.875 39.890625 15.1875 32.171875 
z
" id="DejaVuSans-101"/>
       <path d="M 31 75.875 
Q 24.46875 64.65625 21.28125 53.65625 
Q 18.109375 42.671875 18.109375 31.390625 
Q 18.109375 20.125 21.3125 9.0625 
Q 24.515625 -2 31 -13.1875 
L 23.1875 -13.1875 
Q 15.875 -1.703125 12.234375 9.375 
Q 8.59375 20.453125 8.59375 31.390625 
Q 8.59375 42.28125 12.203125 53.3125 
Q 15.828125 64.359375 23.1875 75.875 
z
" id="DejaVuSans-40"/>
       <path d="M 8.015625 75.875 
L 15.828125 75.875 
Q 23.140625 64.359375 26.78125 53.3125 
Q 30.421875 42.28125 30.421875 31.390625 
Q 30.421875 20.453125 26.78125 9.375 
Q 23.140625 -1.703125 15.828125 -13.1875 
L 8.015625 -13.1875 
Q 14.5 -2 17.703125 9.0625 
Q 20.90625 20.125 20.90625 31.390625 
Q 20.90625 42.671875 17.703125 53.65625 
Q 14.5 64.65625 8.015625 75.875 
z
" id="DejaVuSans-41"/>
      </defs>
      <use xlink:href="#DejaVuSans-84"/>
      <use x="57.958984" xlink:href="#DejaVuSans-105"/>
      <use x="85.742188" xlink:href="#DejaVuSans-109"/>
      <use x="183.154297" xlink:href="#DejaVuSans-101"/>
      <use x="244.677734" xlink:href="#DejaVuSans-32"/>
      <use x="276.464844" xlink:href="#DejaVuSans-40"/>
      <use x="315.478516" xlink:href="#DejaVuSans-115"/>
      <use x="367.578125" xlink:href="#DejaVuSans-41"/>
     </g>
    </g>
   </g>
   <g id="line2d_77">
    <path clip-path="url(#p5aa254c4ca)" d="M 96.334375 244.8 
L 96.334375 226.8 
" style="fill:none;stroke:#00bf00;stroke-linecap:square;stroke-width:1.5;"/>
   </g>
   <g id="patch_9">
    <path d="M 96.334375 244.8 
L 96.334375 226.8 
" style="fill:none;stroke:#000000;stroke-linecap:square;stroke-linejoin:miter;stroke-width:0.8;"/>
   </g>
   <g id="patch_10">
    <path d="M 423.934375 244.8 
L 423.934375 226.8 
" style="fill:none;stroke:#000000;stroke-linecap:square;stroke-linejoin:miter;stroke-width:0.8;"/>
   </g>
   <g id="patch_11">
    <path d="M 96.334375 244.8 
L 423.934375 244.8 
" style="fill:none;stroke:#000000;stroke-linecap:square;stroke-linejoin:miter;stroke-width:0.8;"/>
   </g>
   <g id="patch_12">
    <path d="M 96.334375 226.8 
L 423.934375 226.8 
" style="fill:none;stroke:#000000;stroke-linecap:square;stroke-linejoin:miter;stroke-width:0.8;"/>
   </g>
  </g>
  <g id="axes_3">
   <g id="patch_13">
    <path clip-path="url(#p8de26181f6)" d="M 431.134375 7.2 
L 449.134375 7.2 
L 449.134375 12.117073 
L 431.134375 12.117073 
z
" style="stroke:#000000;stroke-linejoin:miter;"/>
   </g>
   <g id="patch_14">
    <path clip-path="url(#p8de26181f6)" d="M 431.134375 12.117073 
L 449.134375 12.117073 
L 449.134375 17.034146 
L 431.134375 17.034146 
z
" style="stroke:#000000;stroke-linejoin:miter;"/>
   </g>
   <g id="patch_15">
    <path clip-path="url(#p8de26181f6)" d="M 431.134375 17.034146 
L 449.134375 17.034146 
L 449.134375 21.95122 
L 431.134375 21.95122 
z
" style="stroke:#000000;stroke-linejoin:miter;"/>
   </g>
   <g id="patch_16">
    <path clip-path="url(#p8de26181f6)" d="M 431.134375 21.95122 
L 449.134375 21.95122 
L 449.134375 26.868293 
L 431.134375 26.868293 
z
" style="stroke:#000000;stroke-linejoin:miter;"/>
   </g>
   <g id="patch_17">
    <path clip-path="url(#p8de26181f6)" d="M 431.134375 26.868293 
L 449.134375 26.868293 
L 449.134375 31.785366 
L 431.134375 31.785366 
z
" style="stroke:#000000;stroke-linejoin:miter;"/>
   </g>
   <g id="patch_18">
    <path clip-path="url(#p8de26181f6)" d="M 431.134375 31.785366 
L 449.134375 31.785366 
L 449.134375 36.702439 
L 431.134375 36.702439 
z
" style="stroke:#000000;stroke-linejoin:miter;"/>
   </g>
   <g id="patch_19">
    <path clip-path="url(#p8de26181f6)" d="M 431.134375 36.702439 
L 449.134375 36.702439 
L 449.134375 41.619512 
L 431.134375 41.619512 
z
" style="stroke:#000000;stroke-linejoin:miter;"/>
   </g>
   <g id="patch_20">
    <path clip-path="url(#p8de26181f6)" d="M 431.134375 41.619512 
L 449.134375 41.619512 
L 449.134375 46.536585 
L 431.134375 46.536585 
z
" style="stroke:#000000;stroke-linejoin:miter;"/>
   </g>
   <g id="patch_21">
    <path clip-path="url(#p8de26181f6)" d="M 431.134375 46.536585 
L 449.134375 46.536585 
L 449.134375 51.453659 
L 431.134375 51.453659 
z
" style="stroke:#000000;stroke-linejoin:miter;"/>
   </g>
   <g id="patch_22">
    <path clip-path="url(#p8de26181f6)" d="M 431.134375 51.453659 
L 449.134375 51.453659 
L 449.134375 56.370732 
L 431.134375 56.370732 
z
" style="stroke:#000000;stroke-linejoin:miter;"/>
   </g>
   <g id="patch_23">
    <path clip-path="url(#p8de26181f6)" d="M 431.134375 56.370732 
L 449.134375 56.370732 
L 449.134375 61.287805 
L 431.134375 61.287805 
z
" style="stroke:#000000;stroke-linejoin:miter;"/>
   </g>
   <g id="patch_24">
    <path clip-path="url(#p8de26181f6)" d="M 431.134375 61.287805 
L 449.134375 61.287805 
L 449.134375 66.204878 
L 431.134375 66.204878 
z
" style="stroke:#000000;stroke-linejoin:miter;"/>
   </g>
   <g id="patch_25">
    <path clip-path="url(#p8de26181f6)" d="M 431.134375 66.204878 
L 449.134375 66.204878 
L 449.134375 71.121951 
L 431.134375 71.121951 
z
" style="stroke:#000000;stroke-linejoin:miter;"/>
   </g>
   <g id="patch_26">
    <path clip-path="url(#p8de26181f6)" d="M 431.134375 71.121951 
L 449.134375 71.121951 
L 449.134375 76.039024 
L 431.134375 76.039024 
z
" style="stroke:#000000;stroke-linejoin:miter;"/>
   </g>
   <g id="patch_27">
    <path clip-path="url(#p8de26181f6)" d="M 431.134375 76.039024 
L 449.134375 76.039024 
L 449.134375 80.956098 
L 431.134375 80.956098 
z
" style="stroke:#000000;stroke-linejoin:miter;"/>
   </g>
   <g id="patch_28">
    <path clip-path="url(#p8de26181f6)" d="M 431.134375 80.956098 
L 449.134375 80.956098 
L 449.134375 85.873171 
L 431.134375 85.873171 
z
" style="stroke:#000000;stroke-linejoin:miter;"/>
   </g>
   <g id="patch_29">
    <path clip-path="url(#p8de26181f6)" d="M 431.134375 85.873171 
L 449.134375 85.873171 
L 449.134375 90.790244 
L 431.134375 90.790244 
z
" style="stroke:#000000;stroke-linejoin:miter;"/>
   </g>
   <g id="patch_30">
    <path clip-path="url(#p8de26181f6)" d="M 431.134375 90.790244 
L 449.134375 90.790244 
L 449.134375 95.707317 
L 431.134375 95.707317 
z
" style="stroke:#000000;stroke-linejoin:miter;"/>
   </g>
   <g id="patch_31">
    <path clip-path="url(#p8de26181f6)" d="M 431.134375 95.707317 
L 449.134375 95.707317 
L 449.134375 100.62439 
L 431.134375 100.62439 
z
" style="stroke:#000000;stroke-linejoin:miter;"/>
   </g>
   <g id="patch_32">
    <path clip-path="url(#p8de26181f6)" d="M 431.134375 100.62439 
L 449.134375 100.62439 
L 449.134375 105.541463 
L 431.134375 105.541463 
z
" style="stroke:#000000;stroke-linejoin:miter;"/>
   </g>
   <g id="patch_33">
    <path clip-path="url(#p8de26181f6)" d="M 431.134375 105.541463 
L 449.134375 105.541463 
L 449.134375 110.458537 
L 431.134375 110.458537 
z
" style="stroke:#000000;stroke-linejoin:miter;"/>
   </g>
   <g id="patch_34">
    <path clip-path="url(#p8de26181f6)" d="M 431.134375 110.458537 
L 449.134375 110.458537 
L 449.134375 115.37561 
L 431.134375 115.37561 
z
" style="stroke:#000000;stroke-linejoin:miter;"/>
   </g>
   <g id="patch_35">
    <path clip-path="url(#p8de26181f6)" d="M 431.134375 115.37561 
L 449.134375 115.37561 
L 449.134375 120.292683 
L 431.134375 120.292683 
z
" style="stroke:#000000;stroke-linejoin:miter;"/>
   </g>
   <g id="patch_36">
    <path clip-path="url(#p8de26181f6)" d="M 431.134375 120.292683 
L 449.134375 120.292683 
L 449.134375 125.209756 
L 431.134375 125.209756 
z
" style="stroke:#000000;stroke-linejoin:miter;"/>
   </g>
   <g id="patch_37">
    <path clip-path="url(#p8de26181f6)" d="M 431.134375 125.209756 
L 449.134375 125.209756 
L 449.134375 130.126829 
L 431.134375 130.126829 
z
" style="stroke:#000000;stroke-linejoin:miter;"/>
   </g>
   <g id="patch_38">
    <path clip-path="url(#p8de26181f6)" d="M 431.134375 130.126829 
L 449.134375 130.126829 
L 449.134375 135.043902 
L 431.134375 135.043902 
z
" style="stroke:#000000;stroke-linejoin:miter;"/>
   </g>
   <g id="patch_39">
    <path clip-path="url(#p8de26181f6)" d="M 431.134375 135.043902 
L 449.134375 135.043902 
L 449.134375 139.960976 
L 431.134375 139.960976 
z
" style="stroke:#000000;stroke-linejoin:miter;"/>
   </g>
   <g id="patch_40">
    <path clip-path="url(#p8de26181f6)" d="M 431.134375 139.960976 
L 449.134375 139.960976 
L 449.134375 144.878049 
L 431.134375 144.878049 
z
" style="stroke:#000000;stroke-linejoin:miter;"/>
   </g>
   <g id="patch_41">
    <path clip-path="url(#p8de26181f6)" d="M 431.134375 144.878049 
L 449.134375 144.878049 
L 449.134375 149.795122 
L 431.134375 149.795122 
z
" style="stroke:#000000;stroke-linejoin:miter;"/>
   </g>
   <g id="patch_42">
    <path clip-path="url(#p8de26181f6)" d="M 431.134375 149.795122 
L 449.134375 149.795122 
L 449.134375 154.712195 
L 431.134375 154.712195 
z
" style="stroke:#000000;stroke-linejoin:miter;"/>
   </g>
   <g id="patch_43">
    <path clip-path="url(#p8de26181f6)" d="M 431.134375 154.712195 
L 449.134375 154.712195 
L 449.134375 159.629268 
L 431.134375 159.629268 
z
" style="stroke:#000000;stroke-linejoin:miter;"/>
   </g>
   <g id="patch_44">
    <path clip-path="url(#p8de26181f6)" d="M 431.134375 159.629268 
L 449.134375 159.629268 
L 449.134375 164.546341 
L 431.134375 164.546341 
z
" style="stroke:#000000;stroke-linejoin:miter;"/>
   </g>
   <g id="patch_45">
    <path clip-path="url(#p8de26181f6)" d="M 431.134375 164.546341 
L 449.134375 164.546341 
L 449.134375 169.463415 
L 431.134375 169.463415 
z
" style="stroke:#000000;stroke-linejoin:miter;"/>
   </g>
   <g id="patch_46">
    <path clip-path="url(#p8de26181f6)" d="M 431.134375 169.463415 
L 449.134375 169.463415 
L 449.134375 174.380488 
L 431.134375 174.380488 
z
" style="stroke:#000000;stroke-linejoin:miter;"/>
   </g>
   <g id="patch_47">
    <path clip-path="url(#p8de26181f6)" d="M 431.134375 174.380488 
L 449.134375 174.380488 
L 449.134375 179.297561 
L 431.134375 179.297561 
z
" style="stroke:#000000;stroke-linejoin:miter;"/>
   </g>
   <g id="patch_48">
    <path clip-path="url(#p8de26181f6)" d="M 431.134375 179.297561 
L 449.134375 179.297561 
L 449.134375 184.214634 
L 431.134375 184.214634 
z
" style="stroke:#000000;stroke-linejoin:miter;"/>
   </g>
   <g id="patch_49">
    <path clip-path="url(#p8de26181f6)" d="M 431.134375 184.214634 
L 449.134375 184.214634 
L 449.134375 189.131707 
L 431.134375 189.131707 
z
" style="stroke:#000000;stroke-linejoin:miter;"/>
   </g>
   <g id="patch_50">
    <path clip-path="url(#p8de26181f6)" d="M 431.134375 189.131707 
L 449.134375 189.131707 
L 449.134375 194.04878 
L 431.134375 194.04878 
z
" style="stroke:#000000;stroke-linejoin:miter;"/>
   </g>
   <g id="patch_51">
    <path clip-path="url(#p8de26181f6)" d="M 431.134375 194.04878 
L 449.134375 194.04878 
L 449.134375 198.965854 
L 431.134375 198.965854 
z
" style="stroke:#000000;stroke-linejoin:miter;"/>
   </g>
   <g id="patch_52">
    <path clip-path="url(#p8de26181f6)" d="M 431.134375 198.965854 
L 449.134375 198.965854 
L 449.134375 203.882927 
L 431.134375 203.882927 
z
" style="stroke:#000000;stroke-linejoin:miter;"/>
   </g>
   <g id="patch_53">
    <path clip-path="url(#p8de26181f6)" d="M 431.134375 203.882927 
L 449.134375 203.882927 
L 449.134375 208.8 
L 431.134375 208.8 
z
" style="stroke:#000000;stroke-linejoin:miter;"/>
   </g>
   <g id="patch_54">
    <path clip-path="url(#p8de26181f6)" d="M 431.134375 7.2 
L 449.134375 7.2 
L 449.134375 105.541463 
L 431.134375 105.541463 
z
" style="fill:#ffffff;opacity:0.5;stroke:#ffffff;stroke-linejoin:miter;"/>
   </g>
  </g>
  <g id="axes_4">
   <g id="patch_55">
    <path d="M 53.134375 244.8 
L 89.134375 244.8 
L 89.134375 226.8 
L 53.134375 226.8 
z
" style="fill:#d9d9d9;"/>
   </g>
   <g id="matplotlib.axis_4"/>
   <g id="matplotlib.axis_5"/>
   <g id="patch_56">
    <path d="M 53.134375 244.8 
L 53.134375 226.8 
" style="fill:none;stroke:#000000;stroke-linecap:square;stroke-linejoin:miter;stroke-width:0.8;"/>
   </g>
   <g id="patch_57">
    <path d="M 89.134375 244.8 
L 89.134375 226.8 
" style="fill:none;stroke:#000000;stroke-linecap:square;stroke-linejoin:miter;stroke-width:0.8;"/>
   </g>
   <g id="patch_58">
    <path d="M 53.134375 244.8 
L 89.134375 244.8 
" style="fill:none;stroke:#000000;stroke-linecap:square;stroke-linejoin:miter;stroke-width:0.8;"/>
   </g>
   <g id="patch_59">
    <path d="M 53.134375 226.8 
L 89.134375 226.8 
" style="fill:none;stroke:#000000;stroke-linecap:square;stroke-linejoin:miter;stroke-width:0.8;"/>
   </g>
   <g id="text_35">
    <!-- Help -->
    <g transform="translate(59.734375 238.559375)scale(0.1 -0.1)">
     <defs>
      <path d="M 9.8125 72.90625 
L 19.671875 72.90625 
L 19.671875 43.015625 
L 55.515625 43.015625 
L 55.515625 72.90625 
L 65.375 72.90625 
L 65.375 0 
L 55.515625 0 
L 55.515625 34.71875 
L 19.671875 34.71875 
L 19.671875 0 
L 9.8125 0 
z
" id="DejaVuSans-72"/>
      <path d="M 9.421875 75.984375 
L 18.40625 75.984375 
L 18.40625 0 
L 9.421875 0 
z
" id="DejaVuSans-108"/>
      <path d="M 18.109375 8.203125 
L 18.109375 -20.796875 
L 9.078125 -20.796875 
L 9.078125 54.6875 
L 18.109375 54.6875 
L 18.109375 46.390625 
Q 20.953125 51.265625 25.265625 53.625 
Q 29.59375 56 35.59375 56 
Q 45.5625 56 51.78125 48.09375 
Q 58.015625 40.1875 58.015625 27.296875 
Q 58.015625 14.40625 51.78125 6.484375 
Q 45.5625 -1.421875 35.59375 -1.421875 
Q 29.59375 -1.421875 25.265625 0.953125 
Q 20.953125 3.328125 18.109375 8.203125 
z
M 48.6875 27.296875 
Q 48.6875 37.203125 44.609375 42.84375 
Q 40.53125 48.484375 33.40625 48.484375 
Q 26.265625 48.484375 22.1875 42.84375 
Q 18.109375 37.203125 18.109375 27.296875 
Q 18.109375 17.390625 22.1875 11.75 
Q 26.265625 6.109375 33.40625 6.109375 
Q 40.53125 6.109375 44.609375 11.75 
Q 48.6875 17.390625 48.6875 27.296875 
z
" id="DejaVuSans-112"/>
     </defs>
     <use xlink:href="#DejaVuSans-72"/>
     <use x="75.195312" xlink:href="#DejaVuSans-101"/>
     <use x="136.71875" xlink:href="#DejaVuSans-108"/>
     <use x="164.501953" xlink:href="#DejaVuSans-112"/>
    </g>
   </g>
  </g>
 </g>
 <defs>
  <clipPath id="p82dbba6cb7">
   <rect height="29.502439" width="322.48125" x="96.334375" y="7.2"/>
  </clipPath>
  <clipPath id="pead03898c3">
   <rect height="29.502439" width="322.48125" x="96.334375" y="7.56878"/>
  </clipPath>
  <clipPath id="p7a67315b70">
   <rect height="29.502439" width="322.48125" x="96.334375" y="17.64878"/>
  </clipPath>
  <clipPath id="p6fdcb93806">
   <rect height="29.502439" width="322.48125" x="96.334375" y="27.72878"/>
  </clipPath>
  <clipPath id="pe583b1d266">
   <rect height="29.502439" width="322.48125" x="96.334375" y="37.80878"/>
  </clipPath>
  <clipPath id="pd93097cc7e">
   <rect height="29.502439" width="322.48125" x="96.334375" y="47.88878"/>
  </clipPath>
  <clipPath id="pf38cde1b9c">
   <rect height="29.502439" width="322.48125" x="96.334375" y="57.96878"/>
  </clipPath>
  <clipPath id="pe2161b31f1">
   <rect height="29.502439" width="322.48125" x="96.334375" y="68.04878"/>
  </clipPath>
  <clipPath id="pd0a516d0c9">
   <rect height="29.502439" width="322.48125" x="96.334375" y="78.12878"/>
  </clipPath>
  <clipPath id="p7e7027e8ad">
   <rect height="29.502439" width="322.48125" x="96.334375" y="88.20878"/>
  </clipPath>
  <clipPath id="pa5ecb99579">
   <rect height="29.502439" width="322.48125" x="96.334375" y="98.28878"/>
  </clipPath>
  <clipPath id="p613a10edf3">
   <rect height="29.502439" width="322.48125" x="96.334375" y="108.36878"/>
  </clipPath>
  <clipPath id="p6781b3916c">
   <rect height="29.502439" width="322.48125" x="96.334375" y="118.44878"/>
  </clipPath>
  <clipPath id="p3acb472837">
   <rect height="29.502439" width="322.48125" x="96.334375" y="128.52878"/>
  </clipPath>
  <clipPath id="pf011b30032">
   <rect height="29.502439" width="322.48125" x="96.334375" y="138.60878"/>
  </clipPath>
  <clipPath id="p7e9c4466bf">
   <rect height="29.502439" width="322.48125" x="96.334375" y="148.68878"/>
  </clipPath>
  <clipPath id="p482f6153c7">
   <rect height="29.502439" width="322.48125" x="96.334375" y="158.76878"/>
  </clipPath>
  <clipPath id="p8d4727612a">
   <rect height="29.502439" width="322.48125" x="96.334375" y="168.84878"/>
  </clipPath>
  <clipPath id="p2d456489be">
   <rect height="29.502439" width="322.48125" x="96.334375" y="178.92878"/>
  </clipPath>
  <clipPath id="p3b9200787f">
   <rect height="19.79122" width="322.48125" x="96.334375" y="189.00878"/>
  </clipPath>
  <clipPath id="p6ae5480b2d">
   <rect height="201.6" width="327.6" x="96.334375" y="7.2"/>
  </clipPath>
  <clipPath id="p5aa254c4ca">
   <rect height="18" width="327.6" x="96.334375" y="226.8"/>
  </clipPath>
  <clipPath id="p8de26181f6">
   <rect height="201.6" width="18" x="431.134375" y="7.2"/>
  </clipPath>
 </defs>
</svg>
