<?xml version="1.0" encoding="utf-8" standalone="no"?>
<!DOCTYPE svg PUBLIC "-//W3C//DTD SVG 1.1//EN"
  "http://www.w3.org/Graphics/SVG/1.1/DTD/svg11.dtd">
<!-- Created with matplotlib (https://matplotlib.org/) -->
<svg height="313.611638pt" version="1.1" viewBox="0 0 265.5 313.611638" width="265.5pt" xmlns="http://www.w3.org/2000/svg" xmlns:xlink="http://www.w3.org/1999/xlink">
 <metadata>
  <rdf:RDF xmlns:cc="http://creativecommons.org/ns#" xmlns:dc="http://purl.org/dc/elements/1.1/" xmlns:rdf="http://www.w3.org/1999/02/22-rdf-syntax-ns#">
   <cc:Work>
    <dc:type rdf:resource="http://purl.org/dc/dcmitype/StillImage"/>
    <dc:date>2020-12-13T14:26:01.090709</dc:date>
    <dc:format>image/svg+xml</dc:format>
    <dc:creator>
     <cc:Agent>
      <dc:title>Matplotlib v3.3.2, https://matplotlib.org/</dc:title>
     </cc:Agent>
    </dc:creator>
   </cc:Work>
  </rdf:RDF>
 </metadata>
 <defs>
  <style type="text/css">*{stroke-linecap:butt;stroke-linejoin:round;}</style>
 </defs>
 <g id="figure_1">
  <g id="patch_1">
   <path d="M 0 313.611638 
L 265.5 313.611638 
L 265.5 0 
L 0 0 
z
" style="fill:#ffffff;"/>
  </g>
  <g id="axes_1">
   <g id="patch_2">
    <path clip-path="url(#pdeb2f83b03)" d="M 76.984138 70.117435 
C 79.096892 70.117435 81.123398 69.278029 82.617341 67.784086 
C 84.111284 66.290144 84.95069 64.263638 84.95069 62.150884 
C 84.95069 60.038129 84.111284 58.011624 82.617341 56.517681 
C 81.123398 55.023738 79.096892 54.184332 76.984138 54.184332 
C 74.871384 54.184332 72.844878 55.023738 71.350935 56.517681 
C 69.856992 58.011624 69.017586 60.038129 69.017586 62.150884 
C 69.017586 64.263638 69.856992 66.290144 71.350935 67.784086 
C 72.844878 69.278029 74.871384 70.117435 76.984138 70.117435 
z
" style="fill:#cccccc;stroke:#1f77b4;stroke-linejoin:miter;stroke-width:4;"/>
   </g>
   <g id="patch_3">
    <path clip-path="url(#pdeb2f83b03)" d="M 76.984138 109.950194 
C 79.096892 109.950194 81.123398 109.110788 82.617341 107.616845 
C 84.111284 106.122902 84.95069 104.096396 84.95069 101.983642 
C 84.95069 99.870888 84.111284 97.844382 82.617341 96.350439 
C 81.123398 94.856497 79.096892 94.017091 76.984138 94.017091 
C 74.871384 94.017091 72.844878 94.856497 71.350935 96.350439 
C 69.856992 97.844382 69.017586 99.870888 69.017586 101.983642 
C 69.017586 104.096396 69.856992 106.122902 71.350935 107.616845 
C 72.844878 109.110788 74.871384 109.950194 76.984138 109.950194 
z
" style="fill:#ffffff;stroke:#ff7f0e;stroke-linejoin:miter;stroke-width:4;"/>
   </g>
   <g id="patch_4">
    <path clip-path="url(#pdeb2f83b03)" d="M 76.984138 149.782953 
C 79.096892 149.782953 81.123398 148.943546 82.617341 147.449604 
C 84.111284 145.955661 84.95069 143.929155 84.95069 141.816401 
C 84.95069 139.703647 84.111284 137.677141 82.617341 136.183198 
C 81.123398 134.689255 79.096892 133.849849 76.984138 133.849849 
C 74.871384 133.849849 72.844878 134.689255 71.350935 136.183198 
C 69.856992 137.677141 69.017586 139.703647 69.017586 141.816401 
C 69.017586 143.929155 69.856992 145.955661 71.350935 147.449604 
C 72.844878 148.943546 74.871384 149.782953 76.984138 149.782953 
z
" style="fill:#ffffff;stroke:#2ca02c;stroke-linejoin:miter;stroke-width:4;"/>
   </g>
   <g id="matplotlib.axis_1"/>
   <g id="matplotlib.axis_2"/>
   <g id="text_1">
    <!-- AAA -->
    <g transform="translate(90.261724 64.910259)scale(0.1 -0.1)">
     <defs>
      <path d="M 34.1875 63.1875 
L 20.796875 26.90625 
L 47.609375 26.90625 
z
M 28.609375 72.90625 
L 39.796875 72.90625 
L 67.578125 0 
L 57.328125 0 
L 50.6875 18.703125 
L 17.828125 18.703125 
L 11.1875 0 
L 0.78125 0 
z
" id="DejaVuSans-65"/>
     </defs>
     <use xlink:href="#DejaVuSans-65"/>
     <use x="71.158203" xlink:href="#DejaVuSans-65"/>
     <use x="142.316406" xlink:href="#DejaVuSans-65"/>
    </g>
   </g>
   <g id="text_2">
    <!-- BBB -->
    <g transform="translate(90.261724 104.743017)scale(0.1 -0.1)">
     <defs>
      <path d="M 19.671875 34.8125 
L 19.671875 8.109375 
L 35.5 8.109375 
Q 43.453125 8.109375 47.28125 11.40625 
Q 51.125 14.703125 51.125 21.484375 
Q 51.125 28.328125 47.28125 31.5625 
Q 43.453125 34.8125 35.5 34.8125 
z
M 19.671875 64.796875 
L 19.671875 42.828125 
L 34.28125 42.828125 
Q 41.5 42.828125 45.03125 45.53125 
Q 48.578125 48.25 48.578125 53.8125 
Q 48.578125 59.328125 45.03125 62.0625 
Q 41.5 64.796875 34.28125 64.796875 
z
M 9.8125 72.90625 
L 35.015625 72.90625 
Q 46.296875 72.90625 52.390625 68.21875 
Q 58.5 63.53125 58.5 54.890625 
Q 58.5 48.1875 55.375 44.234375 
Q 52.25 40.28125 46.1875 39.3125 
Q 53.46875 37.75 57.5 32.78125 
Q 61.53125 27.828125 61.53125 20.40625 
Q 61.53125 10.640625 54.890625 5.3125 
Q 48.25 0 35.984375 0 
L 9.8125 0 
z
" id="DejaVuSans-66"/>
     </defs>
     <use xlink:href="#DejaVuSans-66"/>
     <use x="68.603516" xlink:href="#DejaVuSans-66"/>
     <use x="137.207031" xlink:href="#DejaVuSans-66"/>
    </g>
   </g>
   <g id="text_3">
    <!-- CCC -->
    <g transform="translate(90.261724 144.575776)scale(0.1 -0.1)">
     <defs>
      <path d="M 64.40625 67.28125 
L 64.40625 56.890625 
Q 59.421875 61.53125 53.78125 63.8125 
Q 48.140625 66.109375 41.796875 66.109375 
Q 29.296875 66.109375 22.65625 58.46875 
Q 16.015625 50.828125 16.015625 36.375 
Q 16.015625 21.96875 22.65625 14.328125 
Q 29.296875 6.6875 41.796875 6.6875 
Q 48.140625 6.6875 53.78125 8.984375 
Q 59.421875 11.28125 64.40625 15.921875 
L 64.40625 5.609375 
Q 59.234375 2.09375 53.4375 0.328125 
Q 47.65625 -1.421875 41.21875 -1.421875 
Q 24.65625 -1.421875 15.125 8.703125 
Q 5.609375 18.84375 5.609375 36.375 
Q 5.609375 53.953125 15.125 64.078125 
Q 24.65625 74.21875 41.21875 74.21875 
Q 47.75 74.21875 53.53125 72.484375 
Q 59.328125 70.75 64.40625 67.28125 
z
" id="DejaVuSans-67"/>
     </defs>
     <use xlink:href="#DejaVuSans-67"/>
     <use x="69.824219" xlink:href="#DejaVuSans-67"/>
     <use x="139.648438" xlink:href="#DejaVuSans-67"/>
    </g>
   </g>
   <g id="text_4">
    <!-- Labels -->
    <g transform="translate(113.436562 16.318125)scale(0.12 -0.12)">
     <defs>
      <path d="M 9.8125 72.90625 
L 19.671875 72.90625 
L 19.671875 8.296875 
L 55.171875 8.296875 
L 55.171875 0 
L 9.8125 0 
z
" id="DejaVuSans-76"/>
      <path d="M 34.28125 27.484375 
Q 23.390625 27.484375 19.1875 25 
Q 14.984375 22.515625 14.984375 16.5 
Q 14.984375 11.71875 18.140625 8.90625 
Q 21.296875 6.109375 26.703125 6.109375 
Q 34.1875 6.109375 38.703125 11.40625 
Q 43.21875 16.703125 43.21875 25.484375 
L 43.21875 27.484375 
z
M 52.203125 31.203125 
L 52.203125 0 
L 43.21875 0 
L 43.21875 8.296875 
Q 40.140625 3.328125 35.546875 0.953125 
Q 30.953125 -1.421875 24.3125 -1.421875 
Q 15.921875 -1.421875 10.953125 3.296875 
Q 6 8.015625 6 15.921875 
Q 6 25.140625 12.171875 29.828125 
Q 18.359375 34.515625 30.609375 34.515625 
L 43.21875 34.515625 
L 43.21875 35.40625 
Q 43.21875 41.609375 39.140625 45 
Q 35.0625 48.390625 27.6875 48.390625 
Q 23 48.390625 18.546875 47.265625 
Q 14.109375 46.140625 10.015625 43.890625 
L 10.015625 52.203125 
Q 14.9375 54.109375 19.578125 55.046875 
Q 24.21875 56 28.609375 56 
Q 40.484375 56 46.34375 49.84375 
Q 52.203125 43.703125 52.203125 31.203125 
z
" id="DejaVuSans-97"/>
      <path d="M 48.6875 27.296875 
Q 48.6875 37.203125 44.609375 42.84375 
Q 40.53125 48.484375 33.40625 48.484375 
Q 26.265625 48.484375 22.1875 42.84375 
Q 18.109375 37.203125 18.109375 27.296875 
Q 18.109375 17.390625 22.1875 11.75 
Q 26.265625 6.109375 33.40625 6.109375 
Q 40.53125 6.109375 44.609375 11.75 
Q 48.6875 17.390625 48.6875 27.296875 
z
M 18.109375 46.390625 
Q 20.953125 51.265625 25.265625 53.625 
Q 29.59375 56 35.59375 56 
Q 45.5625 56 51.78125 48.09375 
Q 58.015625 40.1875 58.015625 27.296875 
Q 58.015625 14.40625 51.78125 6.484375 
Q 45.5625 -1.421875 35.59375 -1.421875 
Q 29.59375 -1.421875 25.265625 0.953125 
Q 20.953125 3.328125 18.109375 8.203125 
L 18.109375 0 
L 9.078125 0 
L 9.078125 75.984375 
L 18.109375 75.984375 
z
" id="DejaVuSans-98"/>
      <path d="M 56.203125 29.59375 
L 56.203125 25.203125 
L 14.890625 25.203125 
Q 15.484375 15.921875 20.484375 11.0625 
Q 25.484375 6.203125 34.421875 6.203125 
Q 39.59375 6.203125 44.453125 7.46875 
Q 49.3125 8.734375 54.109375 11.28125 
L 54.109375 2.78125 
Q 49.265625 0.734375 44.1875 -0.34375 
Q 39.109375 -1.421875 33.890625 -1.421875 
Q 20.796875 -1.421875 13.15625 6.1875 
Q 5.515625 13.8125 5.515625 26.8125 
Q 5.515625 40.234375 12.765625 48.109375 
Q 20.015625 56 32.328125 56 
Q 43.359375 56 49.78125 48.890625 
Q 56.203125 41.796875 56.203125 29.59375 
z
M 47.21875 32.234375 
Q 47.125 39.59375 43.09375 43.984375 
Q 39.0625 48.390625 32.421875 48.390625 
Q 24.90625 48.390625 20.390625 44.140625 
Q 15.875 39.890625 15.1875 32.171875 
z
" id="DejaVuSans-101"/>
      <path d="M 9.421875 75.984375 
L 18.40625 75.984375 
L 18.40625 0 
L 9.421875 0 
z
" id="DejaVuSans-108"/>
      <path d="M 44.28125 53.078125 
L 44.28125 44.578125 
Q 40.484375 46.53125 36.375 47.5 
Q 32.28125 48.484375 27.875 48.484375 
Q 21.1875 48.484375 17.84375 46.4375 
Q 14.5 44.390625 14.5 40.28125 
Q 14.5 37.15625 16.890625 35.375 
Q 19.28125 33.59375 26.515625 31.984375 
L 29.59375 31.296875 
Q 39.15625 29.25 43.1875 25.515625 
Q 47.21875 21.78125 47.21875 15.09375 
Q 47.21875 7.46875 41.1875 3.015625 
Q 35.15625 -1.421875 24.609375 -1.421875 
Q 20.21875 -1.421875 15.453125 -0.5625 
Q 10.6875 0.296875 5.421875 2 
L 5.421875 11.28125 
Q 10.40625 8.6875 15.234375 7.390625 
Q 20.0625 6.109375 24.8125 6.109375 
Q 31.15625 6.109375 34.5625 8.28125 
Q 37.984375 10.453125 37.984375 14.40625 
Q 37.984375 18.0625 35.515625 20.015625 
Q 33.0625 21.96875 24.703125 23.78125 
L 21.578125 24.515625 
Q 13.234375 26.265625 9.515625 29.90625 
Q 5.8125 33.546875 5.8125 39.890625 
Q 5.8125 47.609375 11.28125 51.796875 
Q 16.75 56 26.8125 56 
Q 31.78125 56 36.171875 55.265625 
Q 40.578125 54.546875 44.28125 53.078125 
z
" id="DejaVuSans-115"/>
     </defs>
     <use xlink:href="#DejaVuSans-76"/>
     <use x="55.712891" xlink:href="#DejaVuSans-97"/>
     <use x="116.992188" xlink:href="#DejaVuSans-98"/>
     <use x="180.46875" xlink:href="#DejaVuSans-101"/>
     <use x="241.992188" xlink:href="#DejaVuSans-108"/>
     <use x="269.775391" xlink:href="#DejaVuSans-115"/>
    </g>
   </g>
  </g>
  <g id="axes_2">
   <g id="patch_5">
    <path d="M 144.163636 237.883642 
L 258.3 237.883642 
L 258.3 191.021573 
L 144.163636 191.021573 
z
" style="fill:#d9d9d9;"/>
   </g>
   <g id="matplotlib.axis_3"/>
   <g id="matplotlib.axis_4"/>
   <g id="patch_6">
    <path d="M 144.163636 237.883642 
L 144.163636 191.021573 
" style="fill:none;stroke:#000000;stroke-linecap:square;stroke-linejoin:miter;stroke-width:0.8;"/>
   </g>
   <g id="patch_7">
    <path d="M 258.3 237.883642 
L 258.3 191.021573 
" style="fill:none;stroke:#000000;stroke-linecap:square;stroke-linejoin:miter;stroke-width:0.8;"/>
   </g>
   <g id="patch_8">
    <path d="M 144.163636 237.883642 
L 258.3 237.883642 
" style="fill:none;stroke:#000000;stroke-linecap:square;stroke-linejoin:miter;stroke-width:0.8;"/>
   </g>
   <g id="patch_9">
    <path d="M 144.163636 191.021573 
L 258.3 191.021573 
" style="fill:none;stroke:#000000;stroke-linecap:square;stroke-linejoin:miter;stroke-width:0.8;"/>
   </g>
   <g id="text_5">
    <!-- Add label -->
    <g transform="translate(177.868537 217.211983)scale(0.1 -0.1)">
     <defs>
      <path d="M 45.40625 46.390625 
L 45.40625 75.984375 
L 54.390625 75.984375 
L 54.390625 0 
L 45.40625 0 
L 45.40625 8.203125 
Q 42.578125 3.328125 38.25 0.953125 
Q 33.9375 -1.421875 27.875 -1.421875 
Q 17.96875 -1.421875 11.734375 6.484375 
Q 5.515625 14.40625 5.515625 27.296875 
Q 5.515625 40.1875 11.734375 48.09375 
Q 17.96875 56 27.875 56 
Q 33.9375 56 38.25 53.625 
Q 42.578125 51.265625 45.40625 46.390625 
z
M 14.796875 27.296875 
Q 14.796875 17.390625 18.875 11.75 
Q 22.953125 6.109375 30.078125 6.109375 
Q 37.203125 6.109375 41.296875 11.75 
Q 45.40625 17.390625 45.40625 27.296875 
Q 45.40625 37.203125 41.296875 42.84375 
Q 37.203125 48.484375 30.078125 48.484375 
Q 22.953125 48.484375 18.875 42.84375 
Q 14.796875 37.203125 14.796875 27.296875 
z
" id="DejaVuSans-100"/>
      <path id="DejaVuSans-32"/>
     </defs>
     <use xlink:href="#DejaVuSans-65"/>
     <use x="66.658203" xlink:href="#DejaVuSans-100"/>
     <use x="130.134766" xlink:href="#DejaVuSans-100"/>
     <use x="193.611328" xlink:href="#DejaVuSans-32"/>
     <use x="225.398438" xlink:href="#DejaVuSans-108"/>
     <use x="253.181641" xlink:href="#DejaVuSans-97"/>
     <use x="314.460938" xlink:href="#DejaVuSans-98"/>
     <use x="377.9375" xlink:href="#DejaVuSans-101"/>
     <use x="439.460938" xlink:href="#DejaVuSans-108"/>
    </g>
   </g>
  </g>
  <g id="axes_3">
   <g id="text_6">
    <!-- "BAD_" -->
    <g transform="translate(46.467401 216.933858)scale(0.1 -0.1)">
     <defs>
      <path d="M 17.921875 72.90625 
L 17.921875 45.796875 
L 9.625 45.796875 
L 9.625 72.90625 
z
M 36.375 72.90625 
L 36.375 45.796875 
L 28.078125 45.796875 
L 28.078125 72.90625 
z
" id="DejaVuSans-34"/>
      <path d="M 19.671875 64.796875 
L 19.671875 8.109375 
L 31.59375 8.109375 
Q 46.6875 8.109375 53.6875 14.9375 
Q 60.6875 21.78125 60.6875 36.53125 
Q 60.6875 51.171875 53.6875 57.984375 
Q 46.6875 64.796875 31.59375 64.796875 
z
M 9.8125 72.90625 
L 30.078125 72.90625 
Q 51.265625 72.90625 61.171875 64.09375 
Q 71.09375 55.28125 71.09375 36.53125 
Q 71.09375 17.671875 61.125 8.828125 
Q 51.171875 0 30.078125 0 
L 9.8125 0 
z
" id="DejaVuSans-68"/>
      <path d="M 50.984375 -16.609375 
L 50.984375 -23.578125 
L -0.984375 -23.578125 
L -0.984375 -16.609375 
z
" id="DejaVuSans-95"/>
     </defs>
     <use xlink:href="#DejaVuSans-34"/>
     <use x="45.996094" xlink:href="#DejaVuSans-66"/>
     <use x="114.599609" xlink:href="#DejaVuSans-65"/>
     <use x="183.007812" xlink:href="#DejaVuSans-68"/>
     <use x="260.009766" xlink:href="#DejaVuSans-95"/>
     <use x="310.009766" xlink:href="#DejaVuSans-34"/>
    </g>
   </g>
  </g>
  <g id="axes_4">
   <g id="text_7">
    <!-- Left click &amp; drag - Create/modify annotation -->
    <g transform="translate(22.98125 259.5407)scale(0.1 -0.1)">
     <defs>
      <path d="M 37.109375 75.984375 
L 37.109375 68.5 
L 28.515625 68.5 
Q 23.6875 68.5 21.796875 66.546875 
Q 19.921875 64.59375 19.921875 59.515625 
L 19.921875 54.6875 
L 34.71875 54.6875 
L 34.71875 47.703125 
L 19.921875 47.703125 
L 19.921875 0 
L 10.890625 0 
L 10.890625 47.703125 
L 2.296875 47.703125 
L 2.296875 54.6875 
L 10.890625 54.6875 
L 10.890625 58.5 
Q 10.890625 67.625 15.140625 71.796875 
Q 19.390625 75.984375 28.609375 75.984375 
z
" id="DejaVuSans-102"/>
      <path d="M 18.3125 70.21875 
L 18.3125 54.6875 
L 36.8125 54.6875 
L 36.8125 47.703125 
L 18.3125 47.703125 
L 18.3125 18.015625 
Q 18.3125 11.328125 20.140625 9.421875 
Q 21.96875 7.515625 27.59375 7.515625 
L 36.8125 7.515625 
L 36.8125 0 
L 27.59375 0 
Q 17.1875 0 13.234375 3.875 
Q 9.28125 7.765625 9.28125 18.015625 
L 9.28125 47.703125 
L 2.6875 47.703125 
L 2.6875 54.6875 
L 9.28125 54.6875 
L 9.28125 70.21875 
z
" id="DejaVuSans-116"/>
      <path d="M 48.78125 52.59375 
L 48.78125 44.1875 
Q 44.96875 46.296875 41.140625 47.34375 
Q 37.3125 48.390625 33.40625 48.390625 
Q 24.65625 48.390625 19.8125 42.84375 
Q 14.984375 37.3125 14.984375 27.296875 
Q 14.984375 17.28125 19.8125 11.734375 
Q 24.65625 6.203125 33.40625 6.203125 
Q 37.3125 6.203125 41.140625 7.25 
Q 44.96875 8.296875 48.78125 10.40625 
L 48.78125 2.09375 
Q 45.015625 0.34375 40.984375 -0.53125 
Q 36.96875 -1.421875 32.421875 -1.421875 
Q 20.0625 -1.421875 12.78125 6.34375 
Q 5.515625 14.109375 5.515625 27.296875 
Q 5.515625 40.671875 12.859375 48.328125 
Q 20.21875 56 33.015625 56 
Q 37.15625 56 41.109375 55.140625 
Q 45.0625 54.296875 48.78125 52.59375 
z
" id="DejaVuSans-99"/>
      <path d="M 9.421875 54.6875 
L 18.40625 54.6875 
L 18.40625 0 
L 9.421875 0 
z
M 9.421875 75.984375 
L 18.40625 75.984375 
L 18.40625 64.59375 
L 9.421875 64.59375 
z
" id="DejaVuSans-105"/>
      <path d="M 9.078125 75.984375 
L 18.109375 75.984375 
L 18.109375 31.109375 
L 44.921875 54.6875 
L 56.390625 54.6875 
L 27.390625 29.109375 
L 57.625 0 
L 45.90625 0 
L 18.109375 26.703125 
L 18.109375 0 
L 9.078125 0 
z
" id="DejaVuSans-107"/>
      <path d="M 24.3125 39.203125 
Q 19.875 35.25 17.796875 31.3125 
Q 15.71875 27.390625 15.71875 23.09375 
Q 15.71875 15.96875 20.890625 11.234375 
Q 26.078125 6.5 33.890625 6.5 
Q 38.53125 6.5 42.578125 8.03125 
Q 46.625 9.578125 50.203125 12.703125 
z
M 31.203125 44.671875 
L 56 19.28125 
Q 58.890625 23.640625 60.5 28.59375 
Q 62.109375 33.546875 62.40625 39.109375 
L 71.484375 39.109375 
Q 70.90625 32.671875 68.359375 26.359375 
Q 65.828125 20.0625 61.28125 13.921875 
L 74.90625 0 
L 62.59375 0 
L 55.609375 7.171875 
Q 50.53125 2.828125 44.96875 0.703125 
Q 39.40625 -1.421875 33.015625 -1.421875 
Q 21.234375 -1.421875 13.765625 5.296875 
Q 6.296875 12.015625 6.296875 22.515625 
Q 6.296875 28.765625 9.5625 34.25 
Q 12.84375 39.75 19.390625 44.578125 
Q 17.046875 47.65625 15.8125 50.703125 
Q 14.59375 53.765625 14.59375 56.6875 
Q 14.59375 64.59375 20.015625 69.40625 
Q 25.4375 74.21875 34.421875 74.21875 
Q 38.484375 74.21875 42.5 73.34375 
Q 46.53125 72.46875 50.6875 70.703125 
L 50.6875 61.8125 
Q 46.4375 64.109375 42.578125 65.296875 
Q 38.71875 66.5 35.40625 66.5 
Q 30.28125 66.5 27.078125 63.78125 
Q 23.875 61.078125 23.875 56.78125 
Q 23.875 54.296875 25.3125 51.78125 
Q 26.765625 49.265625 31.203125 44.671875 
z
" id="DejaVuSans-38"/>
      <path d="M 41.109375 46.296875 
Q 39.59375 47.171875 37.8125 47.578125 
Q 36.03125 48 33.890625 48 
Q 26.265625 48 22.1875 43.046875 
Q 18.109375 38.09375 18.109375 28.8125 
L 18.109375 0 
L 9.078125 0 
L 9.078125 54.6875 
L 18.109375 54.6875 
L 18.109375 46.1875 
Q 20.953125 51.171875 25.484375 53.578125 
Q 30.03125 56 36.53125 56 
Q 37.453125 56 38.578125 55.875 
Q 39.703125 55.765625 41.0625 55.515625 
z
" id="DejaVuSans-114"/>
      <path d="M 45.40625 27.984375 
Q 45.40625 37.75 41.375 43.109375 
Q 37.359375 48.484375 30.078125 48.484375 
Q 22.859375 48.484375 18.828125 43.109375 
Q 14.796875 37.75 14.796875 27.984375 
Q 14.796875 18.265625 18.828125 12.890625 
Q 22.859375 7.515625 30.078125 7.515625 
Q 37.359375 7.515625 41.375 12.890625 
Q 45.40625 18.265625 45.40625 27.984375 
z
M 54.390625 6.78125 
Q 54.390625 -7.171875 48.1875 -13.984375 
Q 42 -20.796875 29.203125 -20.796875 
Q 24.46875 -20.796875 20.265625 -20.09375 
Q 16.0625 -19.390625 12.109375 -17.921875 
L 12.109375 -9.1875 
Q 16.0625 -11.328125 19.921875 -12.34375 
Q 23.78125 -13.375 27.78125 -13.375 
Q 36.625 -13.375 41.015625 -8.765625 
Q 45.40625 -4.15625 45.40625 5.171875 
L 45.40625 9.625 
Q 42.625 4.78125 38.28125 2.390625 
Q 33.9375 0 27.875 0 
Q 17.828125 0 11.671875 7.65625 
Q 5.515625 15.328125 5.515625 27.984375 
Q 5.515625 40.671875 11.671875 48.328125 
Q 17.828125 56 27.875 56 
Q 33.9375 56 38.28125 53.609375 
Q 42.625 51.21875 45.40625 46.390625 
L 45.40625 54.6875 
L 54.390625 54.6875 
z
" id="DejaVuSans-103"/>
      <path d="M 4.890625 31.390625 
L 31.203125 31.390625 
L 31.203125 23.390625 
L 4.890625 23.390625 
z
" id="DejaVuSans-45"/>
      <path d="M 25.390625 72.90625 
L 33.6875 72.90625 
L 8.296875 -9.28125 
L 0 -9.28125 
z
" id="DejaVuSans-47"/>
      <path d="M 52 44.1875 
Q 55.375 50.25 60.0625 53.125 
Q 64.75 56 71.09375 56 
Q 79.640625 56 84.28125 50.015625 
Q 88.921875 44.046875 88.921875 33.015625 
L 88.921875 0 
L 79.890625 0 
L 79.890625 32.71875 
Q 79.890625 40.578125 77.09375 44.375 
Q 74.3125 48.1875 68.609375 48.1875 
Q 61.625 48.1875 57.5625 43.546875 
Q 53.515625 38.921875 53.515625 30.90625 
L 53.515625 0 
L 44.484375 0 
L 44.484375 32.71875 
Q 44.484375 40.625 41.703125 44.40625 
Q 38.921875 48.1875 33.109375 48.1875 
Q 26.21875 48.1875 22.15625 43.53125 
Q 18.109375 38.875 18.109375 30.90625 
L 18.109375 0 
L 9.078125 0 
L 9.078125 54.6875 
L 18.109375 54.6875 
L 18.109375 46.1875 
Q 21.1875 51.21875 25.484375 53.609375 
Q 29.78125 56 35.6875 56 
Q 41.65625 56 45.828125 52.96875 
Q 50 49.953125 52 44.1875 
z
" id="DejaVuSans-109"/>
      <path d="M 30.609375 48.390625 
Q 23.390625 48.390625 19.1875 42.75 
Q 14.984375 37.109375 14.984375 27.296875 
Q 14.984375 17.484375 19.15625 11.84375 
Q 23.34375 6.203125 30.609375 6.203125 
Q 37.796875 6.203125 41.984375 11.859375 
Q 46.1875 17.53125 46.1875 27.296875 
Q 46.1875 37.015625 41.984375 42.703125 
Q 37.796875 48.390625 30.609375 48.390625 
z
M 30.609375 56 
Q 42.328125 56 49.015625 48.375 
Q 55.71875 40.765625 55.71875 27.296875 
Q 55.71875 13.875 49.015625 6.21875 
Q 42.328125 -1.421875 30.609375 -1.421875 
Q 18.84375 -1.421875 12.171875 6.21875 
Q 5.515625 13.875 5.515625 27.296875 
Q 5.515625 40.765625 12.171875 48.375 
Q 18.84375 56 30.609375 56 
z
" id="DejaVuSans-111"/>
      <path d="M 32.171875 -5.078125 
Q 28.375 -14.84375 24.75 -17.8125 
Q 21.140625 -20.796875 15.09375 -20.796875 
L 7.90625 -20.796875 
L 7.90625 -13.28125 
L 13.1875 -13.28125 
Q 16.890625 -13.28125 18.9375 -11.515625 
Q 21 -9.765625 23.484375 -3.21875 
L 25.09375 0.875 
L 2.984375 54.6875 
L 12.5 54.6875 
L 29.59375 11.921875 
L 46.6875 54.6875 
L 56.203125 54.6875 
z
" id="DejaVuSans-121"/>
      <path d="M 54.890625 33.015625 
L 54.890625 0 
L 45.90625 0 
L 45.90625 32.71875 
Q 45.90625 40.484375 42.875 44.328125 
Q 39.84375 48.1875 33.796875 48.1875 
Q 26.515625 48.1875 22.3125 43.546875 
Q 18.109375 38.921875 18.109375 30.90625 
L 18.109375 0 
L 9.078125 0 
L 9.078125 54.6875 
L 18.109375 54.6875 
L 18.109375 46.1875 
Q 21.34375 51.125 25.703125 53.5625 
Q 30.078125 56 35.796875 56 
Q 45.21875 56 50.046875 50.171875 
Q 54.890625 44.34375 54.890625 33.015625 
z
" id="DejaVuSans-110"/>
     </defs>
     <use xlink:href="#DejaVuSans-76"/>
     <use x="53.962891" xlink:href="#DejaVuSans-101"/>
     <use x="115.486328" xlink:href="#DejaVuSans-102"/>
     <use x="148.941406" xlink:href="#DejaVuSans-116"/>
     <use x="188.150391" xlink:href="#DejaVuSans-32"/>
     <use x="219.9375" xlink:href="#DejaVuSans-99"/>
     <use x="274.917969" xlink:href="#DejaVuSans-108"/>
     <use x="302.701172" xlink:href="#DejaVuSans-105"/>
     <use x="330.484375" xlink:href="#DejaVuSans-99"/>
     <use x="385.464844" xlink:href="#DejaVuSans-107"/>
     <use x="443.375" xlink:href="#DejaVuSans-32"/>
     <use x="475.162109" xlink:href="#DejaVuSans-38"/>
     <use x="553.140625" xlink:href="#DejaVuSans-32"/>
     <use x="584.927734" xlink:href="#DejaVuSans-100"/>
     <use x="648.404297" xlink:href="#DejaVuSans-114"/>
     <use x="689.517578" xlink:href="#DejaVuSans-97"/>
     <use x="750.796875" xlink:href="#DejaVuSans-103"/>
     <use x="814.273438" xlink:href="#DejaVuSans-32"/>
     <use x="846.060547" xlink:href="#DejaVuSans-45"/>
     <use x="882.144531" xlink:href="#DejaVuSans-32"/>
     <use x="913.931641" xlink:href="#DejaVuSans-67"/>
     <use x="983.755859" xlink:href="#DejaVuSans-114"/>
     <use x="1022.619141" xlink:href="#DejaVuSans-101"/>
     <use x="1084.142578" xlink:href="#DejaVuSans-97"/>
     <use x="1145.421875" xlink:href="#DejaVuSans-116"/>
     <use x="1184.630859" xlink:href="#DejaVuSans-101"/>
     <use x="1246.154297" xlink:href="#DejaVuSans-47"/>
     <use x="1279.845703" xlink:href="#DejaVuSans-109"/>
     <use x="1377.257812" xlink:href="#DejaVuSans-111"/>
     <use x="1438.439453" xlink:href="#DejaVuSans-100"/>
     <use x="1501.916016" xlink:href="#DejaVuSans-105"/>
     <use x="1529.699219" xlink:href="#DejaVuSans-102"/>
     <use x="1563.154297" xlink:href="#DejaVuSans-121"/>
     <use x="1622.333984" xlink:href="#DejaVuSans-32"/>
     <use x="1654.121094" xlink:href="#DejaVuSans-97"/>
     <use x="1715.400391" xlink:href="#DejaVuSans-110"/>
     <use x="1778.779297" xlink:href="#DejaVuSans-110"/>
     <use x="1842.158203" xlink:href="#DejaVuSans-111"/>
     <use x="1903.339844" xlink:href="#DejaVuSans-116"/>
     <use x="1942.548828" xlink:href="#DejaVuSans-97"/>
     <use x="2003.828125" xlink:href="#DejaVuSans-116"/>
     <use x="2043.037109" xlink:href="#DejaVuSans-105"/>
     <use x="2070.820312" xlink:href="#DejaVuSans-111"/>
     <use x="2132.001953" xlink:href="#DejaVuSans-110"/>
    </g>
    <!-- Right click - Delete annotation -->
    <g transform="translate(56.760156 270.738513)scale(0.1 -0.1)">
     <defs>
      <path d="M 44.390625 34.1875 
Q 47.5625 33.109375 50.5625 29.59375 
Q 53.5625 26.078125 56.59375 19.921875 
L 66.609375 0 
L 56 0 
L 46.6875 18.703125 
Q 43.0625 26.03125 39.671875 28.421875 
Q 36.28125 30.8125 30.421875 30.8125 
L 19.671875 30.8125 
L 19.671875 0 
L 9.8125 0 
L 9.8125 72.90625 
L 32.078125 72.90625 
Q 44.578125 72.90625 50.734375 67.671875 
Q 56.890625 62.453125 56.890625 51.90625 
Q 56.890625 45.015625 53.6875 40.46875 
Q 50.484375 35.9375 44.390625 34.1875 
z
M 19.671875 64.796875 
L 19.671875 38.921875 
L 32.078125 38.921875 
Q 39.203125 38.921875 42.84375 42.21875 
Q 46.484375 45.515625 46.484375 51.90625 
Q 46.484375 58.296875 42.84375 61.546875 
Q 39.203125 64.796875 32.078125 64.796875 
z
" id="DejaVuSans-82"/>
      <path d="M 54.890625 33.015625 
L 54.890625 0 
L 45.90625 0 
L 45.90625 32.71875 
Q 45.90625 40.484375 42.875 44.328125 
Q 39.84375 48.1875 33.796875 48.1875 
Q 26.515625 48.1875 22.3125 43.546875 
Q 18.109375 38.921875 18.109375 30.90625 
L 18.109375 0 
L 9.078125 0 
L 9.078125 75.984375 
L 18.109375 75.984375 
L 18.109375 46.1875 
Q 21.34375 51.125 25.703125 53.5625 
Q 30.078125 56 35.796875 56 
Q 45.21875 56 50.046875 50.171875 
Q 54.890625 44.34375 54.890625 33.015625 
z
" id="DejaVuSans-104"/>
     </defs>
     <use xlink:href="#DejaVuSans-82"/>
     <use x="69.482422" xlink:href="#DejaVuSans-105"/>
     <use x="97.265625" xlink:href="#DejaVuSans-103"/>
     <use x="160.742188" xlink:href="#DejaVuSans-104"/>
     <use x="224.121094" xlink:href="#DejaVuSans-116"/>
     <use x="263.330078" xlink:href="#DejaVuSans-32"/>
     <use x="295.117188" xlink:href="#DejaVuSans-99"/>
     <use x="350.097656" xlink:href="#DejaVuSans-108"/>
     <use x="377.880859" xlink:href="#DejaVuSans-105"/>
     <use x="405.664062" xlink:href="#DejaVuSans-99"/>
     <use x="460.644531" xlink:href="#DejaVuSans-107"/>
     <use x="518.554688" xlink:href="#DejaVuSans-32"/>
     <use x="550.341797" xlink:href="#DejaVuSans-45"/>
     <use x="586.425781" xlink:href="#DejaVuSans-32"/>
     <use x="618.212891" xlink:href="#DejaVuSans-68"/>
     <use x="695.214844" xlink:href="#DejaVuSans-101"/>
     <use x="756.738281" xlink:href="#DejaVuSans-108"/>
     <use x="784.521484" xlink:href="#DejaVuSans-101"/>
     <use x="846.044922" xlink:href="#DejaVuSans-116"/>
     <use x="885.253906" xlink:href="#DejaVuSans-101"/>
     <use x="946.777344" xlink:href="#DejaVuSans-32"/>
     <use x="978.564453" xlink:href="#DejaVuSans-97"/>
     <use x="1039.84375" xlink:href="#DejaVuSans-110"/>
     <use x="1103.222656" xlink:href="#DejaVuSans-110"/>
     <use x="1166.601562" xlink:href="#DejaVuSans-111"/>
     <use x="1227.783203" xlink:href="#DejaVuSans-116"/>
     <use x="1266.992188" xlink:href="#DejaVuSans-97"/>
     <use x="1328.271484" xlink:href="#DejaVuSans-116"/>
     <use x="1367.480469" xlink:href="#DejaVuSans-105"/>
     <use x="1395.263672" xlink:href="#DejaVuSans-111"/>
     <use x="1456.445312" xlink:href="#DejaVuSans-110"/>
    </g>
    <!-- Letter/number keys - Add character -->
    <g transform="translate(43.585156 281.936325)scale(0.1 -0.1)">
     <defs>
      <path d="M 8.5 21.578125 
L 8.5 54.6875 
L 17.484375 54.6875 
L 17.484375 21.921875 
Q 17.484375 14.15625 20.5 10.265625 
Q 23.53125 6.390625 29.59375 6.390625 
Q 36.859375 6.390625 41.078125 11.03125 
Q 45.3125 15.671875 45.3125 23.6875 
L 45.3125 54.6875 
L 54.296875 54.6875 
L 54.296875 0 
L 45.3125 0 
L 45.3125 8.40625 
Q 42.046875 3.421875 37.71875 1 
Q 33.40625 -1.421875 27.6875 -1.421875 
Q 18.265625 -1.421875 13.375 4.4375 
Q 8.5 10.296875 8.5 21.578125 
z
M 31.109375 56 
z
" id="DejaVuSans-117"/>
     </defs>
     <use xlink:href="#DejaVuSans-76"/>
     <use x="53.962891" xlink:href="#DejaVuSans-101"/>
     <use x="115.486328" xlink:href="#DejaVuSans-116"/>
     <use x="154.695312" xlink:href="#DejaVuSans-116"/>
     <use x="193.904297" xlink:href="#DejaVuSans-101"/>
     <use x="255.427734" xlink:href="#DejaVuSans-114"/>
     <use x="296.541016" xlink:href="#DejaVuSans-47"/>
     <use x="330.232422" xlink:href="#DejaVuSans-110"/>
     <use x="393.611328" xlink:href="#DejaVuSans-117"/>
     <use x="456.990234" xlink:href="#DejaVuSans-109"/>
     <use x="554.402344" xlink:href="#DejaVuSans-98"/>
     <use x="617.878906" xlink:href="#DejaVuSans-101"/>
     <use x="679.402344" xlink:href="#DejaVuSans-114"/>
     <use x="720.515625" xlink:href="#DejaVuSans-32"/>
     <use x="752.302734" xlink:href="#DejaVuSans-107"/>
     <use x="806.587891" xlink:href="#DejaVuSans-101"/>
     <use x="868.111328" xlink:href="#DejaVuSans-121"/>
     <use x="927.291016" xlink:href="#DejaVuSans-115"/>
     <use x="979.390625" xlink:href="#DejaVuSans-32"/>
     <use x="1011.177734" xlink:href="#DejaVuSans-45"/>
     <use x="1047.261719" xlink:href="#DejaVuSans-32"/>
     <use x="1079.048828" xlink:href="#DejaVuSans-65"/>
     <use x="1145.707031" xlink:href="#DejaVuSans-100"/>
     <use x="1209.183594" xlink:href="#DejaVuSans-100"/>
     <use x="1272.660156" xlink:href="#DejaVuSans-32"/>
     <use x="1304.447266" xlink:href="#DejaVuSans-99"/>
     <use x="1359.427734" xlink:href="#DejaVuSans-104"/>
     <use x="1422.806641" xlink:href="#DejaVuSans-97"/>
     <use x="1484.085938" xlink:href="#DejaVuSans-114"/>
     <use x="1525.199219" xlink:href="#DejaVuSans-97"/>
     <use x="1586.478516" xlink:href="#DejaVuSans-99"/>
     <use x="1641.458984" xlink:href="#DejaVuSans-116"/>
     <use x="1680.667969" xlink:href="#DejaVuSans-101"/>
     <use x="1742.191406" xlink:href="#DejaVuSans-114"/>
    </g>
    <!-- Backspace - Delete character -->
    <g transform="translate(58.999219 293.134138)scale(0.1 -0.1)">
     <defs>
      <path d="M 18.109375 8.203125 
L 18.109375 -20.796875 
L 9.078125 -20.796875 
L 9.078125 54.6875 
L 18.109375 54.6875 
L 18.109375 46.390625 
Q 20.953125 51.265625 25.265625 53.625 
Q 29.59375 56 35.59375 56 
Q 45.5625 56 51.78125 48.09375 
Q 58.015625 40.1875 58.015625 27.296875 
Q 58.015625 14.40625 51.78125 6.484375 
Q 45.5625 -1.421875 35.59375 -1.421875 
Q 29.59375 -1.421875 25.265625 0.953125 
Q 20.953125 3.328125 18.109375 8.203125 
z
M 48.6875 27.296875 
Q 48.6875 37.203125 44.609375 42.84375 
Q 40.53125 48.484375 33.40625 48.484375 
Q 26.265625 48.484375 22.1875 42.84375 
Q 18.109375 37.203125 18.109375 27.296875 
Q 18.109375 17.390625 22.1875 11.75 
Q 26.265625 6.109375 33.40625 6.109375 
Q 40.53125 6.109375 44.609375 11.75 
Q 48.6875 17.390625 48.6875 27.296875 
z
" id="DejaVuSans-112"/>
     </defs>
     <use xlink:href="#DejaVuSans-66"/>
     <use x="68.603516" xlink:href="#DejaVuSans-97"/>
     <use x="129.882812" xlink:href="#DejaVuSans-99"/>
     <use x="184.863281" xlink:href="#DejaVuSans-107"/>
     <use x="242.773438" xlink:href="#DejaVuSans-115"/>
     <use x="294.873047" xlink:href="#DejaVuSans-112"/>
     <use x="358.349609" xlink:href="#DejaVuSans-97"/>
     <use x="419.628906" xlink:href="#DejaVuSans-99"/>
     <use x="474.609375" xlink:href="#DejaVuSans-101"/>
     <use x="536.132812" xlink:href="#DejaVuSans-32"/>
     <use x="567.919922" xlink:href="#DejaVuSans-45"/>
     <use x="604.003906" xlink:href="#DejaVuSans-32"/>
     <use x="635.791016" xlink:href="#DejaVuSans-68"/>
     <use x="712.792969" xlink:href="#DejaVuSans-101"/>
     <use x="774.316406" xlink:href="#DejaVuSans-108"/>
     <use x="802.099609" xlink:href="#DejaVuSans-101"/>
     <use x="863.623047" xlink:href="#DejaVuSans-116"/>
     <use x="902.832031" xlink:href="#DejaVuSans-101"/>
     <use x="964.355469" xlink:href="#DejaVuSans-32"/>
     <use x="996.142578" xlink:href="#DejaVuSans-99"/>
     <use x="1051.123047" xlink:href="#DejaVuSans-104"/>
     <use x="1114.501953" xlink:href="#DejaVuSans-97"/>
     <use x="1175.78125" xlink:href="#DejaVuSans-114"/>
     <use x="1216.894531" xlink:href="#DejaVuSans-97"/>
     <use x="1278.173828" xlink:href="#DejaVuSans-99"/>
     <use x="1333.154297" xlink:href="#DejaVuSans-116"/>
     <use x="1372.363281" xlink:href="#DejaVuSans-101"/>
     <use x="1433.886719" xlink:href="#DejaVuSans-114"/>
    </g>
    <!-- Esc - Close window/exit annotation mode -->
    <g transform="translate(29.671875 304.33195)scale(0.1 -0.1)">
     <defs>
      <path d="M 9.8125 72.90625 
L 55.90625 72.90625 
L 55.90625 64.59375 
L 19.671875 64.59375 
L 19.671875 43.015625 
L 54.390625 43.015625 
L 54.390625 34.71875 
L 19.671875 34.71875 
L 19.671875 8.296875 
L 56.78125 8.296875 
L 56.78125 0 
L 9.8125 0 
z
" id="DejaVuSans-69"/>
      <path d="M 4.203125 54.6875 
L 13.1875 54.6875 
L 24.421875 12.015625 
L 35.59375 54.6875 
L 46.1875 54.6875 
L 57.421875 12.015625 
L 68.609375 54.6875 
L 77.59375 54.6875 
L 63.28125 0 
L 52.6875 0 
L 40.921875 44.828125 
L 29.109375 0 
L 18.5 0 
z
" id="DejaVuSans-119"/>
      <path d="M 54.890625 54.6875 
L 35.109375 28.078125 
L 55.90625 0 
L 45.3125 0 
L 29.390625 21.484375 
L 13.484375 0 
L 2.875 0 
L 24.125 28.609375 
L 4.6875 54.6875 
L 15.28125 54.6875 
L 29.78125 35.203125 
L 44.28125 54.6875 
z
" id="DejaVuSans-120"/>
     </defs>
     <use xlink:href="#DejaVuSans-69"/>
     <use x="63.183594" xlink:href="#DejaVuSans-115"/>
     <use x="115.283203" xlink:href="#DejaVuSans-99"/>
     <use x="170.263672" xlink:href="#DejaVuSans-32"/>
     <use x="202.050781" xlink:href="#DejaVuSans-45"/>
     <use x="238.134766" xlink:href="#DejaVuSans-32"/>
     <use x="269.921875" xlink:href="#DejaVuSans-67"/>
     <use x="339.746094" xlink:href="#DejaVuSans-108"/>
     <use x="367.529297" xlink:href="#DejaVuSans-111"/>
     <use x="428.710938" xlink:href="#DejaVuSans-115"/>
     <use x="480.810547" xlink:href="#DejaVuSans-101"/>
     <use x="542.333984" xlink:href="#DejaVuSans-32"/>
     <use x="574.121094" xlink:href="#DejaVuSans-119"/>
     <use x="655.908203" xlink:href="#DejaVuSans-105"/>
     <use x="683.691406" xlink:href="#DejaVuSans-110"/>
     <use x="747.070312" xlink:href="#DejaVuSans-100"/>
     <use x="810.546875" xlink:href="#DejaVuSans-111"/>
     <use x="871.728516" xlink:href="#DejaVuSans-119"/>
     <use x="953.515625" xlink:href="#DejaVuSans-47"/>
     <use x="987.207031" xlink:href="#DejaVuSans-101"/>
     <use x="1046.980469" xlink:href="#DejaVuSans-120"/>
     <use x="1106.160156" xlink:href="#DejaVuSans-105"/>
     <use x="1133.943359" xlink:href="#DejaVuSans-116"/>
     <use x="1173.152344" xlink:href="#DejaVuSans-32"/>
     <use x="1204.939453" xlink:href="#DejaVuSans-97"/>
     <use x="1266.21875" xlink:href="#DejaVuSans-110"/>
     <use x="1329.597656" xlink:href="#DejaVuSans-110"/>
     <use x="1392.976562" xlink:href="#DejaVuSans-111"/>
     <use x="1454.158203" xlink:href="#DejaVuSans-116"/>
     <use x="1493.367188" xlink:href="#DejaVuSans-97"/>
     <use x="1554.646484" xlink:href="#DejaVuSans-116"/>
     <use x="1593.855469" xlink:href="#DejaVuSans-105"/>
     <use x="1621.638672" xlink:href="#DejaVuSans-111"/>
     <use x="1682.820312" xlink:href="#DejaVuSans-110"/>
     <use x="1746.199219" xlink:href="#DejaVuSans-32"/>
     <use x="1777.986328" xlink:href="#DejaVuSans-109"/>
     <use x="1875.398438" xlink:href="#DejaVuSans-111"/>
     <use x="1936.580078" xlink:href="#DejaVuSans-100"/>
     <use x="2000.056641" xlink:href="#DejaVuSans-101"/>
    </g>
   </g>
  </g>
 </g>
 <defs>
  <clipPath id="pdeb2f83b03">
   <rect height="159.331034" width="159.331034" x="53.084483" y="22.318125"/>
  </clipPath>
 </defs>
</svg>
