<?xml version="1.0" encoding="utf-8" standalone="no"?>
<!DOCTYPE svg PUBLIC "-//W3C//DTD SVG 1.1//EN"
  "http://www.w3.org/Graphics/SVG/1.1/DTD/svg11.dtd">
<!-- Created with matplotlib (https://matplotlib.org/) -->
<svg height="282.35625pt" version="1.1" viewBox="0 0 456.334375 282.35625" width="456.334375pt" xmlns="http://www.w3.org/2000/svg" xmlns:xlink="http://www.w3.org/1999/xlink">
 <metadata>
  <rdf:RDF xmlns:cc="http://creativecommons.org/ns#" xmlns:dc="http://purl.org/dc/elements/1.1/" xmlns:rdf="http://www.w3.org/1999/02/22-rdf-syntax-ns#">
   <cc:Work>
    <dc:type rdf:resource="http://purl.org/dc/dcmitype/StillImage"/>
    <dc:date>2020-12-13T14:22:57.953183</dc:date>
    <dc:format>image/svg+xml</dc:format>
    <dc:creator>
     <cc:Agent>
      <dc:title>Matplotlib v3.3.2, https://matplotlib.org/</dc:title>
     </cc:Agent>
    </dc:creator>
   </cc:Work>
  </rdf:RDF>
 </metadata>
 <defs>
  <style type="text/css">*{stroke-linecap:butt;stroke-linejoin:round;}</style>
 </defs>
 <g id="figure_1">
  <g id="patch_1">
   <path d="M 0 282.35625 
L 456.334375 282.35625 
L 456.334375 0 
L 0 0 
z
" style="fill:#ffffff;"/>
  </g>
  <g id="axes_1">
   <g id="patch_2">
    <path d="M 96.334375 208.8 
L 423.934375 208.8 
L 423.934375 7.2 
L 96.334375 7.2 
z
" style="fill:#ffffff;"/>
   </g>
   <g id="line2d_1">
    <path clip-path="url(#pbcd051df82)" d="M 96.334375 12.224585 
L 105.292187 12.174191 
L 114.25 12.210766 
L 123.207813 12.256935 
L 132.165625 12.309018 
L 141.123438 12.333348 
L 150.08125 12.241676 
L 159.039062 12.164573 
L 167.996875 12.200697 
L 176.954688 12.248895 
L 185.9125 12.297987 
L 194.870313 12.330602 
L 203.828125 12.248342 
L 212.785937 12.161328 
L 221.74375 12.189867 
L 230.701563 12.240001 
L 239.659375 12.288556 
L 248.617188 12.324405 
L 257.575 12.247232 
L 266.532812 12.155805 
L 275.490625 12.180477 
L 284.448438 12.23127 
L 293.40625 12.277857 
L 302.364062 12.320053 
L 311.321875 12.253795 
L 320.279688 12.154583 
L 329.2375 12.170336 
L 338.195312 12.222691 
L 347.153125 12.266587 
L 356.110937 12.315701 
L 365.06875 12.267267 
L 374.026563 12.159716 
L 382.984375 12.159914 
L 391.942188 12.213749 
L 400.9 12.255529 
L 409.857813 12.310021 
L 418.815625 12.280416 
" style="fill:none;stroke:#000000;stroke-linecap:square;stroke-width:0.5;"/>
   </g>
   <g id="line2d_2">
    <path clip-path="url(#p5243cf0602)" d="M 96.334375 36.881814 
L 105.292187 87.236216 
L 114.25 50.619381 
L 123.207813 4.408087 
L 124.136794 -1 
M 148.074748 -1 
L 150.08125 19.532907 
L 159.039062 96.644062 
L 167.996875 60.541748 
L 176.954688 12.370576 
L 179.394584 -1 
M 202.314587 -1 
L 203.828125 12.896288 
L 212.785937 99.900005 
L 221.74375 71.423029 
L 230.701563 21.382931 
L 234.833787 -1 
M 255.826165 -1 
L 257.575 14.043408 
L 266.532812 105.315064 
L 275.490625 80.680165 
L 284.448438 30.16174 
L 290.480989 -1 
M 310.03971 -1 
L 311.321875 8.525115 
L 320.279688 108.029489 
L 329.2375 92.566405 
L 338.195312 40.50406 
L 346.723063 -1 
M 365.250273 -1 
L 374.026563 104.654853 
L 382.984375 104.74288 
L 391.942188 51.198283 
L 400.9 9.712301 
L 402.670669 -1 
" style="fill:none;stroke:#000000;stroke-linecap:square;stroke-width:0.5;"/>
   </g>
   <g id="line2d_3">
    <path clip-path="url(#p7fb155a384)" d="M 96.334375 21.011695 
L 105.292187 38.985884 
L 114.25 44.386622 
L 123.207813 38.51161 
L 132.165625 32.907678 
L 141.123438 25.967321 
L 150.08125 23.13204 
L 159.039062 35.209647 
L 167.996875 44.209926 
L 176.954688 38.977729 
L 185.9125 32.725568 
L 194.870313 26.141696 
L 203.828125 22.259773 
L 212.785937 33.208284 
L 221.74375 43.547866 
L 230.701563 39.179355 
L 239.659375 32.705768 
L 248.617188 26.343069 
L 257.575 21.526202 
L 266.532812 31.215667 
L 275.490625 42.733033 
L 284.448438 39.384632 
L 293.40625 32.696121 
L 302.364062 26.548113 
L 311.321875 20.962689 
L 320.279688 29.25368 
L 329.2375 41.758335 
L 338.195312 39.581747 
L 347.153125 32.704363 
L 356.110937 26.757588 
L 365.06875 20.55231 
L 374.026563 27.310531 
L 382.984375 40.725597 
L 391.942188 39.813989 
L 400.9 32.187849 
L 409.857813 27.524691 
L 418.815625 21.675382 
" style="fill:none;stroke:#000000;stroke-linecap:square;stroke-width:0.5;"/>
   </g>
   <g id="line2d_4">
    <path clip-path="url(#p1d66ffc038)" d="M 96.334375 42.481736 
L 105.292187 42.481747 
L 114.25 42.481758 
L 123.207813 42.481768 
L 132.165625 42.481779 
L 141.123438 42.48179 
L 150.08125 42.481798 
L 159.039062 42.481807 
L 167.996875 42.481816 
L 176.954688 42.481818 
L 185.9125 42.481841 
L 194.870313 42.481876 
L 203.828125 42.481789 
L 212.785937 42.481817 
L 221.74375 42.482239 
L 230.701563 42.481389 
L 239.659375 42.480238 
L 248.617188 42.48697 
L 257.575 42.480181 
L 266.532812 42.44301 
L 275.490625 42.446095 
L 284.448438 42.482631 
L 293.40625 42.486238 
L 302.364062 42.480165 
L 311.321875 42.48167 
L 320.279688 42.482325 
L 329.2375 42.481925 
L 338.195312 42.481955 
L 347.153125 42.482051 
L 356.110937 42.482031 
L 365.06875 42.482032 
L 374.026563 42.482051 
L 382.984375 42.48206 
L 391.942188 42.482068 
L 400.9 42.482078 
L 409.857813 42.482088 
L 418.815625 42.482097 
" style="fill:none;stroke:#000000;stroke-linecap:square;stroke-width:0.5;"/>
   </g>
   <g id="line2d_5">
    <path clip-path="url(#p45a8575cf6)" d="M 96.334375 49.761855 
L 105.292187 55.361489 
L 114.25 56.270961 
L 123.207813 44.066119 
L 132.165625 39.043657 
L 141.123438 46.032202 
L 150.08125 50.305664 
L 159.039062 54.815437 
L 167.996875 57.928441 
L 176.954688 58.477344 
L 185.9125 58.583941 
L 194.870313 57.597486 
L 203.828125 57.216181 
L 212.785937 57.864605 
L 221.74375 58.886405 
L 230.701563 58.85809 
L 239.659375 55.080361 
L 248.617188 52.668969 
L 257.575 54.371615 
L 266.532812 55.481921 
L 275.490625 55.225704 
L 284.448438 53.22413 
L 293.40625 51.712714 
L 302.364062 54.816815 
L 311.321875 55.997028 
L 320.279688 50.040953 
L 329.2375 50.178576 
L 338.195312 60.136324 
L 347.153125 64.131751 
L 356.110937 59.29602 
L 365.06875 55.760907 
L 374.026563 55.5402 
L 382.984375 53.789146 
L 391.942188 47.366338 
L 400.9 37.808879 
L 409.857813 30.718098 
L 418.815625 30.82472 
" style="fill:none;stroke:#000000;stroke-linecap:square;stroke-width:0.5;"/>
   </g>
   <g id="line2d_6">
    <path clip-path="url(#p01b181c319)" d="M 96.334375 56.850472 
L 105.292187 62.980416 
L 114.25 62.469127 
L 123.207813 52.232291 
L 132.165625 49.626332 
L 141.123438 54.567479 
L 150.08125 57.953997 
L 159.039062 64.695217 
L 167.996875 69.858863 
L 176.954688 70.360735 
L 185.9125 68.704334 
L 194.870313 66.221178 
L 203.828125 66.310982 
L 212.785937 67.564963 
L 221.74375 67.071702 
L 230.701563 66.332191 
L 239.659375 64.832147 
L 248.617188 64.497897 
L 257.575 66.01034 
L 266.532812 65.692881 
L 275.490625 64.485386 
L 284.448438 62.94231 
L 293.40625 62.220208 
L 302.364062 65.423447 
L 311.321875 67.846326 
L 320.279688 64.136166 
L 329.2375 64.084237 
L 338.195312 70.516895 
L 347.153125 72.959324 
L 356.110937 69.88219 
L 365.06875 67.190843 
L 374.026563 66.283695 
L 382.984375 64.618909 
L 391.942188 60.094834 
L 400.9 49.966449 
L 409.857813 39.9021 
L 418.815625 39.150675 
" style="fill:none;stroke:#000000;stroke-linecap:square;stroke-width:0.5;"/>
   </g>
   <g id="line2d_7">
    <path clip-path="url(#p4f60ef6c63)" d="M 96.334375 71.648289 
L 105.292187 72.770951 
L 114.25 72.75041 
L 123.207813 71.07434 
L 132.165625 69.53019 
L 141.123438 68.01061 
L 150.08125 68.477462 
L 159.039062 71.817099 
L 167.996875 73.843474 
L 176.954688 74.567611 
L 185.9125 75.477082 
L 194.870313 76.003101 
L 203.828125 76.179225 
L 212.785937 76.21586 
L 221.74375 76.296517 
L 230.701563 76.007271 
L 239.659375 74.568317 
L 248.617188 73.730152 
L 257.575 73.809666 
L 266.532812 73.568318 
L 275.490625 73.866457 
L 284.448438 73.450718 
L 293.40625 72.556384 
L 302.364062 73.380144 
L 311.321875 74.507816 
L 320.279688 74.204234 
L 329.2375 74.401825 
L 338.195312 76.08245 
L 347.153125 76.836111 
L 356.110937 75.932313 
L 365.06875 75.153146 
L 374.026563 74.847217 
L 382.984375 74.084198 
L 391.942188 70.959003 
L 400.9 64.677757 
L 409.857813 59.640879 
L 418.815625 59.743362 
" style="fill:none;stroke:#000000;stroke-linecap:square;stroke-width:0.5;"/>
   </g>
   <g id="line2d_8">
    <path clip-path="url(#pfef2d3c69b)" d="M 96.334375 77.1876 
L 105.292187 81.604298 
L 114.25 82.811779 
L 123.207813 78.561781 
L 132.165625 76.076756 
L 141.123438 74.729061 
L 150.08125 76.429144 
L 159.039062 84.821014 
L 167.996875 89.690889 
L 176.954688 89.422082 
L 185.9125 89.115184 
L 194.870313 88.63502 
L 203.828125 88.113915 
L 212.785937 87.961167 
L 221.74375 87.613807 
L 230.701563 86.69943 
L 239.659375 84.344504 
L 248.617188 84.080637 
L 257.575 85.942358 
L 266.532812 85.313709 
L 275.490625 83.640634 
L 284.448438 82.603271 
L 293.40625 82.999361 
L 302.364062 85.400282 
L 311.321875 86.01506 
L 320.279688 84.093082 
L 329.2375 85.370737 
L 338.195312 89.385949 
L 347.153125 90.701609 
L 356.110937 88.834085 
L 365.06875 87.330662 
L 374.026563 87.449081 
L 382.984375 85.431611 
L 391.942188 78.539577 
L 400.9 67.331148 
L 409.857813 58.57662 
L 418.815625 59.242524 
" style="fill:none;stroke:#000000;stroke-linecap:square;stroke-width:0.5;"/>
   </g>
   <g id="line2d_9">
    <path clip-path="url(#pe58c0d6b82)" d="M 96.334375 88.052186 
L 105.292187 92.784223 
L 114.25 93.290225 
L 123.207813 90.082352 
L 132.165625 87.139791 
L 141.123438 82.897952 
L 150.08125 83.664326 
L 159.039062 92.376151 
L 167.996875 98.3355 
L 176.954688 99.314872 
L 185.9125 99.255807 
L 194.870313 98.170454 
L 203.828125 98.124695 
L 212.785937 98.971259 
L 221.74375 97.150995 
L 230.701563 95.735994 
L 239.659375 95.668247 
L 248.617188 95.715986 
L 257.575 95.921256 
L 266.532812 95.39366 
L 275.490625 95.713083 
L 284.448438 95.157938 
L 293.40625 93.909702 
L 302.364062 95.477154 
L 311.321875 98.049778 
L 320.279688 98.584608 
L 329.2375 98.85421 
L 338.195312 99.782548 
L 347.153125 99.746033 
L 356.110937 98.708618 
L 365.06875 97.454047 
L 374.026563 96.141552 
L 382.984375 94.493832 
L 391.942188 88.723569 
L 400.9 75.436774 
L 409.857813 63.918903 
L 418.815625 66.719511 
" style="fill:none;stroke:#000000;stroke-linecap:square;stroke-width:0.5;"/>
   </g>
   <g id="line2d_10">
    <path clip-path="url(#p45036a694d)" d="M 96.334375 96.967224 
L 105.292187 101.5461 
L 114.25 102.187662 
L 123.207813 99.622184 
L 132.165625 97.091797 
L 141.123438 93.248386 
L 150.08125 93.819305 
L 159.039062 101.709109 
L 167.996875 107.036654 
L 176.954688 107.931736 
L 185.9125 108.635908 
L 194.870313 108.339689 
L 203.828125 107.900442 
L 212.785937 108.841776 
L 221.74375 108.558083 
L 230.701563 107.299381 
L 239.659375 105.887712 
L 248.617188 104.933928 
L 257.575 105.034279 
L 266.532812 104.630479 
L 275.490625 104.942391 
L 284.448438 104.908978 
L 293.40625 103.459608 
L 302.364062 104.407355 
L 311.321875 107.216485 
L 320.279688 108.25677 
L 329.2375 108.575814 
L 338.195312 109.380586 
L 347.153125 109.542638 
L 356.110937 108.142644 
L 365.06875 107.162603 
L 374.026563 107.500168 
L 382.984375 106.774443 
L 391.942188 101.348928 
L 400.9 88.746988 
L 409.857813 77.391311 
L 418.815625 78.269191 
" style="fill:none;stroke:#000000;stroke-linecap:square;stroke-width:0.5;"/>
   </g>
   <g id="line2d_11">
    <path clip-path="url(#p1e5509e3de)" d="M 96.334375 109.036367 
L 105.292187 111.369393 
L 114.25 113.549494 
L 123.207813 113.97772 
L 132.165625 111.917732 
L 141.123438 108.646479 
L 150.08125 108.790102 
L 159.039062 112.671033 
L 167.996875 115.171222 
L 176.954688 115.626314 
L 185.9125 116.216914 
L 194.870313 116.858951 
L 203.828125 116.96859 
L 212.785937 116.611224 
L 221.74375 116.10213 
L 230.701563 116.131885 
L 239.659375 115.629802 
L 248.617188 114.197184 
L 257.575 112.956258 
L 266.532812 111.937134 
L 275.490625 112.492918 
L 284.448438 114.012991 
L 293.40625 114.244464 
L 302.364062 113.359802 
L 311.321875 113.315871 
L 320.279688 114.298448 
L 329.2375 115.343624 
L 338.195312 116.773752 
L 347.153125 117.999768 
L 356.110937 118.357221 
L 365.06875 118.238031 
L 374.026563 117.219332 
L 382.984375 114.999135 
L 391.942188 110.270879 
L 400.9 102.143894 
L 409.857813 96.015565 
L 418.815625 97.484705 
" style="fill:none;stroke:#000000;stroke-linecap:square;stroke-width:0.5;"/>
   </g>
   <g id="line2d_12">
    <path clip-path="url(#p5d5455533f)" d="M 96.334375 121.058921 
L 105.292187 124.989888 
L 114.25 128.899552 
L 123.207813 128.886278 
L 132.165625 125.109168 
L 141.123438 119.745012 
L 150.08125 118.644927 
L 159.039062 123.376139 
L 167.996875 126.048568 
L 176.954688 126.26562 
L 185.9125 127.90362 
L 194.870313 129.129457 
L 203.828125 127.783366 
L 212.785937 125.933732 
L 221.74375 125.742688 
L 230.701563 125.91034 
L 239.659375 124.222299 
L 248.617188 122.308341 
L 257.575 122.527616 
L 266.532812 121.311163 
L 275.490625 120.656817 
L 284.448438 122.480002 
L 293.40625 122.559616 
L 302.364062 122.055315 
L 311.321875 123.953672 
L 320.279688 126.496791 
L 329.2375 127.876255 
L 338.195312 128.47357 
L 347.153125 128.227878 
L 356.110937 127.918092 
L 365.06875 128.61156 
L 374.026563 128.171332 
L 382.984375 124.155065 
L 391.942188 117.252234 
L 400.9 108.163619 
L 409.857813 100.635798 
L 418.815625 102.004072 
" style="fill:none;stroke:#000000;stroke-linecap:square;stroke-width:0.5;"/>
   </g>
   <g id="line2d_13">
    <path clip-path="url(#p6c97702363)" d="M 96.334375 123.831607 
L 105.292187 129.559136 
L 114.25 134.529987 
L 123.207813 134.11969 
L 132.165625 129.964804 
L 141.123438 126.20106 
L 150.08125 127.103198 
L 159.039062 132.46541 
L 167.996875 136.382925 
L 176.954688 139.027644 
L 185.9125 140.383122 
L 194.870313 138.78209 
L 203.828125 138.172727 
L 212.785937 139.529245 
L 221.74375 139.140644 
L 230.701563 137.509508 
L 239.659375 135.876882 
L 248.617188 135.192646 
L 257.575 135.504143 
L 266.532812 134.87472 
L 275.490625 135.981939 
L 284.448438 137.173317 
L 293.40625 134.893709 
L 302.364062 134.223059 
L 311.321875 137.104436 
L 320.279688 138.900977 
L 329.2375 139.284079 
L 338.195312 139.500035 
L 347.153125 138.792594 
L 356.110937 138.260987 
L 365.06875 138.537664 
L 374.026563 137.433366 
L 382.984375 133.708668 
L 391.942188 126.597261 
L 400.9 114.901124 
L 409.857813 104.935832 
L 418.815625 106.599875 
" style="fill:none;stroke:#000000;stroke-linecap:square;stroke-width:0.5;"/>
   </g>
   <g id="line2d_14">
    <path clip-path="url(#pdd883da0d0)" d="M 96.334375 133.713863 
L 105.292187 141.300104 
L 114.25 145.760707 
L 123.207813 143.704192 
L 132.165625 138.896842 
L 141.123438 135.448662 
L 150.08125 136.644576 
L 159.039062 141.961202 
L 167.996875 145.966594 
L 176.954688 149.003406 
L 185.9125 150.411886 
L 194.870313 148.389247 
L 203.828125 147.962592 
L 212.785937 149.042786 
L 221.74375 147.608091 
L 230.701563 145.476176 
L 239.659375 144.448578 
L 248.617188 144.732068 
L 257.575 145.554446 
L 266.532812 145.562836 
L 275.490625 146.294145 
L 284.448438 146.575111 
L 293.40625 144.645546 
L 302.364062 144.924757 
L 311.321875 148.357889 
L 320.279688 150.037192 
L 329.2375 149.846182 
L 338.195312 149.414684 
L 347.153125 149.259781 
L 356.110937 149.430864 
L 365.06875 149.146694 
L 374.026563 147.987584 
L 382.984375 144.34228 
L 391.942188 137.170877 
L 400.9 125.891916 
L 409.857813 115.951892 
L 418.815625 116.978989 
" style="fill:none;stroke:#000000;stroke-linecap:square;stroke-width:0.5;"/>
   </g>
   <g id="line2d_15">
    <path clip-path="url(#p6d82eed3ec)" d="M 96.334375 146.289273 
L 105.292187 154.263661 
L 114.25 158.24067 
L 123.207813 152.426036 
L 132.165625 145.6387 
L 141.123438 144.783398 
L 150.08125 148.838919 
L 159.039062 154.770857 
L 167.996875 157.240288 
L 176.954688 158.862992 
L 185.9125 160.560279 
L 194.870313 159.76631 
L 203.828125 159.395918 
L 212.785937 159.73783 
L 221.74375 159.448584 
L 230.701563 159.062551 
L 239.659375 156.536329 
L 248.617188 154.324711 
L 257.575 154.914113 
L 266.532812 155.317303 
L 275.490625 155.115416 
L 284.448438 153.902489 
L 293.40625 152.815578 
L 302.364062 154.918678 
L 311.321875 156.954601 
L 320.279688 155.291471 
L 329.2375 155.552936 
L 338.195312 159.459274 
L 347.153125 160.708416 
L 356.110937 158.59378 
L 365.06875 157.199182 
L 374.026563 156.742168 
L 382.984375 154.154144 
L 391.942188 147.226566 
L 400.9 136.510141 
L 409.857813 127.897079 
L 418.815625 128.60171 
" style="fill:none;stroke:#000000;stroke-linecap:square;stroke-width:0.5;"/>
   </g>
   <g id="line2d_16">
    <path clip-path="url(#pf15180b2ee)" d="M 96.334375 159.131778 
L 105.292187 165.52572 
L 114.25 165.705816 
L 123.207813 160.681232 
L 132.165625 158.251627 
L 141.123438 158.001493 
L 150.08125 159.562408 
L 159.039062 163.704494 
L 167.996875 165.869656 
L 176.954688 166.571165 
L 185.9125 167.853359 
L 194.870313 168.45432 
L 203.828125 168.039016 
L 212.785937 167.010314 
L 221.74375 166.630715 
L 230.701563 166.330492 
L 239.659375 164.55419 
L 248.617188 163.717099 
L 257.575 164.355677 
L 266.532812 164.217384 
L 275.490625 164.4098 
L 284.448438 164.56887 
L 293.40625 163.915264 
L 302.364062 164.675011 
L 311.321875 166.143142 
L 320.279688 166.113011 
L 329.2375 166.309889 
L 338.195312 167.718622 
L 347.153125 168.570105 
L 356.110937 167.688689 
L 365.06875 166.55186 
L 374.026563 165.849492 
L 382.984375 164.017156 
L 391.942188 159.794249 
L 400.9 152.755764 
L 409.857813 146.646459 
L 418.815625 145.961319 
" style="fill:none;stroke:#000000;stroke-linecap:square;stroke-width:0.5;"/>
   </g>
   <g id="line2d_17">
    <path clip-path="url(#p3132d3f143)" d="M 96.334375 167.330167 
L 105.292187 175.177637 
L 114.25 179.438693 
L 123.207813 171.774704 
L 132.165625 166.066449 
L 141.123438 168.342634 
L 150.08125 171.60951 
L 159.039062 177.670144 
L 167.996875 181.882836 
L 176.954688 182.905661 
L 185.9125 182.771849 
L 194.870313 180.27076 
L 203.828125 179.162415 
L 212.785937 179.194227 
L 221.74375 177.359265 
L 230.701563 175.375296 
L 239.659375 172.322767 
L 248.617188 170.331969 
L 257.575 172.029539 
L 266.532812 173.414651 
L 275.490625 173.048299 
L 284.448438 172.672512 
L 293.40625 172.971925 
L 302.364062 175.653691 
L 311.321875 177.672756 
L 320.279688 174.559156 
L 329.2375 174.535766 
L 338.195312 180.40459 
L 347.153125 182.076161 
L 356.110937 179.276801 
L 365.06875 178.269334 
L 374.026563 178.662325 
L 382.984375 175.364733 
L 391.942188 166.986925 
L 400.9 156.520215 
L 409.857813 148.303941 
L 418.815625 147.650117 
" style="fill:none;stroke:#000000;stroke-linecap:square;stroke-width:0.5;"/>
   </g>
   <g id="line2d_18">
    <path clip-path="url(#p50adfc9bce)" d="M 96.334375 177.264597 
L 105.292187 185.73764 
L 114.25 187.943795 
L 123.207813 175.251976 
L 132.165625 169.006797 
L 141.123438 176.601852 
L 150.08125 182.050982 
L 159.039062 185.992143 
L 167.996875 188.510724 
L 176.954688 190.198605 
L 185.9125 191.425741 
L 194.870313 189.806284 
L 203.828125 188.248964 
L 212.785937 187.913861 
L 221.74375 187.768605 
L 230.701563 187.149235 
L 239.659375 184.518125 
L 248.617188 182.618825 
L 257.575 183.160041 
L 266.532812 183.96501 
L 275.490625 185.179895 
L 284.448438 185.261904 
L 293.40625 184.982491 
L 302.364062 188.538803 
L 311.321875 190.614927 
L 320.279688 185.392048 
L 329.2375 184.892665 
L 338.195312 193.450476 
L 347.153125 196.756735 
L 356.110937 192.416864 
L 365.06875 189.152668 
L 374.026563 188.561511 
L 382.984375 185.524354 
L 391.942188 177.243805 
L 400.9 165.632424 
L 409.857813 156.875483 
L 418.815625 156.343551 
" style="fill:none;stroke:#000000;stroke-linecap:square;stroke-width:0.5;"/>
   </g>
   <g id="line2d_19">
    <path clip-path="url(#pc6fa68fa22)" d="M 99.430991 -1 
L 105.292187 68.509947 
L 108.985325 283.35625 
M 131.465601 283.35625 
L 132.165625 244.126079 
L 138.268876 -1 
M 156.937202 -1 
L 159.039062 39.827221 
L 163.455122 283.35625 
M 185.897956 283.35625 
L 185.9125 282.608203 
L 192.299742 -1 
M 212.921753 -1 
L 218.272277 283.35625 
M 240.448815 283.35625 
L 246.312542 -1 
M 267.553435 -1 
L 273.178483 283.35625 
M 294.910673 283.35625 
L 300.365845 -1 
M 322.200116 -1 
L 328.199477 283.35625 
M 349.26836 283.35625 
L 354.406755 -1 
M 376.946222 -1 
L 382.984375 262.816268 
L 383.413139 283.35625 
M 403.558621 283.35625 
L 408.221107 -1 
" style="fill:none;stroke:#000000;stroke-linecap:square;stroke-width:0.5;"/>
   </g>
   <g id="line2d_20">
    <path clip-path="url(#p49dc46d672)" d="M 96.334375 203.76 
L 105.292187 203.76 
L 114.25 203.76 
L 123.207813 203.76 
L 132.165625 203.76 
L 141.123438 203.76 
L 150.08125 203.76 
L 159.039062 203.76 
L 167.996875 203.76 
L 176.954688 203.76 
L 185.9125 203.76 
L 194.870313 203.76 
L 203.828125 203.76 
L 212.785937 203.76 
L 221.74375 203.76 
L 230.701563 203.76 
L 239.659375 203.76 
L 248.617188 203.76 
L 257.575 203.76 
L 266.532812 203.76 
L 275.490625 203.76 
L 284.448438 203.76 
L 293.40625 203.76 
L 302.364062 203.76 
L 311.321875 203.76 
L 320.279688 203.76 
L 329.2375 203.76 
L 338.195312 203.76 
L 347.153125 203.76 
L 356.110937 203.76 
L 365.06875 203.76 
L 374.026563 203.76 
L 382.984375 203.76 
L 391.942188 203.76 
L 400.9 203.76 
L 409.857813 203.76 
L 418.815625 203.76 
" style="fill:none;stroke:#000000;stroke-linecap:square;stroke-width:0.5;"/>
   </g>
   <g id="matplotlib.axis_1">
    <g id="xtick_1">
     <g id="line2d_21">
      <defs>
       <path d="M 0 0 
L 0 3.5 
" id="mabaf3b9de3" style="stroke:#000000;stroke-width:0.8;"/>
      </defs>
      <g>
       <use style="stroke:#000000;stroke-width:0.8;" x="96.334375" xlink:href="#mabaf3b9de3" y="208.8"/>
      </g>
     </g>
     <g id="text_1">
      <!-- 4 -->
      <g transform="translate(93.153125 223.398438)scale(0.1 -0.1)">
       <defs>
        <path d="M 37.796875 64.3125 
L 12.890625 25.390625 
L 37.796875 25.390625 
z
M 35.203125 72.90625 
L 47.609375 72.90625 
L 47.609375 25.390625 
L 58.015625 25.390625 
L 58.015625 17.1875 
L 47.609375 17.1875 
L 47.609375 0 
L 37.796875 0 
L 37.796875 17.1875 
L 4.890625 17.1875 
L 4.890625 26.703125 
z
" id="DejaVuSans-52"/>
       </defs>
       <use xlink:href="#DejaVuSans-52"/>
      </g>
     </g>
    </g>
    <g id="xtick_2">
     <g id="line2d_22">
      <g>
       <use style="stroke:#000000;stroke-width:0.8;" x="150.934375" xlink:href="#mabaf3b9de3" y="208.8"/>
      </g>
     </g>
     <g id="text_2">
      <!-- 5 -->
      <g transform="translate(147.753125 223.398438)scale(0.1 -0.1)">
       <defs>
        <path d="M 10.796875 72.90625 
L 49.515625 72.90625 
L 49.515625 64.59375 
L 19.828125 64.59375 
L 19.828125 46.734375 
Q 21.96875 47.46875 24.109375 47.828125 
Q 26.265625 48.1875 28.421875 48.1875 
Q 40.625 48.1875 47.75 41.5 
Q 54.890625 34.8125 54.890625 23.390625 
Q 54.890625 11.625 47.5625 5.09375 
Q 40.234375 -1.421875 26.90625 -1.421875 
Q 22.3125 -1.421875 17.546875 -0.640625 
Q 12.796875 0.140625 7.71875 1.703125 
L 7.71875 11.625 
Q 12.109375 9.234375 16.796875 8.0625 
Q 21.484375 6.890625 26.703125 6.890625 
Q 35.15625 6.890625 40.078125 11.328125 
Q 45.015625 15.765625 45.015625 23.390625 
Q 45.015625 31 40.078125 35.4375 
Q 35.15625 39.890625 26.703125 39.890625 
Q 22.75 39.890625 18.8125 39.015625 
Q 14.890625 38.140625 10.796875 36.28125 
z
" id="DejaVuSans-53"/>
       </defs>
       <use xlink:href="#DejaVuSans-53"/>
      </g>
     </g>
    </g>
    <g id="xtick_3">
     <g id="line2d_23">
      <g>
       <use style="stroke:#000000;stroke-width:0.8;" x="205.534375" xlink:href="#mabaf3b9de3" y="208.8"/>
      </g>
     </g>
     <g id="text_3">
      <!-- 6 -->
      <g transform="translate(202.353125 223.398438)scale(0.1 -0.1)">
       <defs>
        <path d="M 33.015625 40.375 
Q 26.375 40.375 22.484375 35.828125 
Q 18.609375 31.296875 18.609375 23.390625 
Q 18.609375 15.53125 22.484375 10.953125 
Q 26.375 6.390625 33.015625 6.390625 
Q 39.65625 6.390625 43.53125 10.953125 
Q 47.40625 15.53125 47.40625 23.390625 
Q 47.40625 31.296875 43.53125 35.828125 
Q 39.65625 40.375 33.015625 40.375 
z
M 52.59375 71.296875 
L 52.59375 62.3125 
Q 48.875 64.0625 45.09375 64.984375 
Q 41.3125 65.921875 37.59375 65.921875 
Q 27.828125 65.921875 22.671875 59.328125 
Q 17.53125 52.734375 16.796875 39.40625 
Q 19.671875 43.65625 24.015625 45.921875 
Q 28.375 48.1875 33.59375 48.1875 
Q 44.578125 48.1875 50.953125 41.515625 
Q 57.328125 34.859375 57.328125 23.390625 
Q 57.328125 12.15625 50.6875 5.359375 
Q 44.046875 -1.421875 33.015625 -1.421875 
Q 20.359375 -1.421875 13.671875 8.265625 
Q 6.984375 17.96875 6.984375 36.375 
Q 6.984375 53.65625 15.1875 63.9375 
Q 23.390625 74.21875 37.203125 74.21875 
Q 40.921875 74.21875 44.703125 73.484375 
Q 48.484375 72.75 52.59375 71.296875 
z
" id="DejaVuSans-54"/>
       </defs>
       <use xlink:href="#DejaVuSans-54"/>
      </g>
     </g>
    </g>
    <g id="xtick_4">
     <g id="line2d_24">
      <g>
       <use style="stroke:#000000;stroke-width:0.8;" x="260.134375" xlink:href="#mabaf3b9de3" y="208.8"/>
      </g>
     </g>
     <g id="text_4">
      <!-- 7 -->
      <g transform="translate(256.953125 223.398438)scale(0.1 -0.1)">
       <defs>
        <path d="M 8.203125 72.90625 
L 55.078125 72.90625 
L 55.078125 68.703125 
L 28.609375 0 
L 18.3125 0 
L 43.21875 64.59375 
L 8.203125 64.59375 
z
" id="DejaVuSans-55"/>
       </defs>
       <use xlink:href="#DejaVuSans-55"/>
      </g>
     </g>
    </g>
    <g id="xtick_5">
     <g id="line2d_25">
      <g>
       <use style="stroke:#000000;stroke-width:0.8;" x="314.734375" xlink:href="#mabaf3b9de3" y="208.8"/>
      </g>
     </g>
     <g id="text_5">
      <!-- 8 -->
      <g transform="translate(311.553125 223.398438)scale(0.1 -0.1)">
       <defs>
        <path d="M 31.78125 34.625 
Q 24.75 34.625 20.71875 30.859375 
Q 16.703125 27.09375 16.703125 20.515625 
Q 16.703125 13.921875 20.71875 10.15625 
Q 24.75 6.390625 31.78125 6.390625 
Q 38.8125 6.390625 42.859375 10.171875 
Q 46.921875 13.96875 46.921875 20.515625 
Q 46.921875 27.09375 42.890625 30.859375 
Q 38.875 34.625 31.78125 34.625 
z
M 21.921875 38.8125 
Q 15.578125 40.375 12.03125 44.71875 
Q 8.5 49.078125 8.5 55.328125 
Q 8.5 64.0625 14.71875 69.140625 
Q 20.953125 74.21875 31.78125 74.21875 
Q 42.671875 74.21875 48.875 69.140625 
Q 55.078125 64.0625 55.078125 55.328125 
Q 55.078125 49.078125 51.53125 44.71875 
Q 48 40.375 41.703125 38.8125 
Q 48.828125 37.15625 52.796875 32.3125 
Q 56.78125 27.484375 56.78125 20.515625 
Q 56.78125 9.90625 50.3125 4.234375 
Q 43.84375 -1.421875 31.78125 -1.421875 
Q 19.734375 -1.421875 13.25 4.234375 
Q 6.78125 9.90625 6.78125 20.515625 
Q 6.78125 27.484375 10.78125 32.3125 
Q 14.796875 37.15625 21.921875 38.8125 
z
M 18.3125 54.390625 
Q 18.3125 48.734375 21.84375 45.5625 
Q 25.390625 42.390625 31.78125 42.390625 
Q 38.140625 42.390625 41.71875 45.5625 
Q 45.3125 48.734375 45.3125 54.390625 
Q 45.3125 60.0625 41.71875 63.234375 
Q 38.140625 66.40625 31.78125 66.40625 
Q 25.390625 66.40625 21.84375 63.234375 
Q 18.3125 60.0625 18.3125 54.390625 
z
" id="DejaVuSans-56"/>
       </defs>
       <use xlink:href="#DejaVuSans-56"/>
      </g>
     </g>
    </g>
    <g id="xtick_6">
     <g id="line2d_26">
      <g>
       <use style="stroke:#000000;stroke-width:0.8;" x="369.334375" xlink:href="#mabaf3b9de3" y="208.8"/>
      </g>
     </g>
     <g id="text_6">
      <!-- 9 -->
      <g transform="translate(366.153125 223.398438)scale(0.1 -0.1)">
       <defs>
        <path d="M 10.984375 1.515625 
L 10.984375 10.5 
Q 14.703125 8.734375 18.5 7.8125 
Q 22.3125 6.890625 25.984375 6.890625 
Q 35.75 6.890625 40.890625 13.453125 
Q 46.046875 20.015625 46.78125 33.40625 
Q 43.953125 29.203125 39.59375 26.953125 
Q 35.25 24.703125 29.984375 24.703125 
Q 19.046875 24.703125 12.671875 31.3125 
Q 6.296875 37.9375 6.296875 49.421875 
Q 6.296875 60.640625 12.9375 67.421875 
Q 19.578125 74.21875 30.609375 74.21875 
Q 43.265625 74.21875 49.921875 64.515625 
Q 56.59375 54.828125 56.59375 36.375 
Q 56.59375 19.140625 48.40625 8.859375 
Q 40.234375 -1.421875 26.421875 -1.421875 
Q 22.703125 -1.421875 18.890625 -0.6875 
Q 15.09375 0.046875 10.984375 1.515625 
z
M 30.609375 32.421875 
Q 37.25 32.421875 41.125 36.953125 
Q 45.015625 41.5 45.015625 49.421875 
Q 45.015625 57.28125 41.125 61.84375 
Q 37.25 66.40625 30.609375 66.40625 
Q 23.96875 66.40625 20.09375 61.84375 
Q 16.21875 57.28125 16.21875 49.421875 
Q 16.21875 41.5 20.09375 36.953125 
Q 23.96875 32.421875 30.609375 32.421875 
z
" id="DejaVuSans-57"/>
       </defs>
       <use xlink:href="#DejaVuSans-57"/>
      </g>
     </g>
    </g>
    <g id="xtick_7">
     <g id="line2d_27">
      <g>
       <use style="stroke:#000000;stroke-width:0.8;" x="423.934375" xlink:href="#mabaf3b9de3" y="208.8"/>
      </g>
     </g>
     <g id="text_7">
      <!-- 10 -->
      <g transform="translate(417.571875 223.398438)scale(0.1 -0.1)">
       <defs>
        <path d="M 12.40625 8.296875 
L 28.515625 8.296875 
L 28.515625 63.921875 
L 10.984375 60.40625 
L 10.984375 69.390625 
L 28.421875 72.90625 
L 38.28125 72.90625 
L 38.28125 8.296875 
L 54.390625 8.296875 
L 54.390625 0 
L 12.40625 0 
z
" id="DejaVuSans-49"/>
        <path d="M 31.78125 66.40625 
Q 24.171875 66.40625 20.328125 58.90625 
Q 16.5 51.421875 16.5 36.375 
Q 16.5 21.390625 20.328125 13.890625 
Q 24.171875 6.390625 31.78125 6.390625 
Q 39.453125 6.390625 43.28125 13.890625 
Q 47.125 21.390625 47.125 36.375 
Q 47.125 51.421875 43.28125 58.90625 
Q 39.453125 66.40625 31.78125 66.40625 
z
M 31.78125 74.21875 
Q 44.046875 74.21875 50.515625 64.515625 
Q 56.984375 54.828125 56.984375 36.375 
Q 56.984375 17.96875 50.515625 8.265625 
Q 44.046875 -1.421875 31.78125 -1.421875 
Q 19.53125 -1.421875 13.0625 8.265625 
Q 6.59375 17.96875 6.59375 36.375 
Q 6.59375 54.828125 13.0625 64.515625 
Q 19.53125 74.21875 31.78125 74.21875 
z
" id="DejaVuSans-48"/>
       </defs>
       <use xlink:href="#DejaVuSans-49"/>
       <use x="63.623047" xlink:href="#DejaVuSans-48"/>
      </g>
     </g>
    </g>
   </g>
   <g id="matplotlib.axis_2">
    <g id="ytick_1">
     <g id="line2d_28">
      <defs>
       <path d="M 0 0 
L -3.5 0 
" id="m22f9306552" style="stroke:#000000;stroke-width:0.8;"/>
      </defs>
      <g>
       <use style="stroke:#000000;stroke-width:0.8;" x="96.334375" xlink:href="#m22f9306552" y="12.24"/>
      </g>
     </g>
     <g id="text_8">
      <!-- TIME_STAMP_s -->
      <g transform="translate(16.940625 15.950938)scale(0.1 -0.1)">
       <defs>
        <path d="M -0.296875 72.90625 
L 61.375 72.90625 
L 61.375 64.59375 
L 35.5 64.59375 
L 35.5 0 
L 25.59375 0 
L 25.59375 64.59375 
L -0.296875 64.59375 
z
" id="DejaVuSans-84"/>
        <path d="M 9.8125 72.90625 
L 19.671875 72.90625 
L 19.671875 0 
L 9.8125 0 
z
" id="DejaVuSans-73"/>
        <path d="M 9.8125 72.90625 
L 24.515625 72.90625 
L 43.109375 23.296875 
L 61.8125 72.90625 
L 76.515625 72.90625 
L 76.515625 0 
L 66.890625 0 
L 66.890625 64.015625 
L 48.09375 14.015625 
L 38.1875 14.015625 
L 19.390625 64.015625 
L 19.390625 0 
L 9.8125 0 
z
" id="DejaVuSans-77"/>
        <path d="M 9.8125 72.90625 
L 55.90625 72.90625 
L 55.90625 64.59375 
L 19.671875 64.59375 
L 19.671875 43.015625 
L 54.390625 43.015625 
L 54.390625 34.71875 
L 19.671875 34.71875 
L 19.671875 8.296875 
L 56.78125 8.296875 
L 56.78125 0 
L 9.8125 0 
z
" id="DejaVuSans-69"/>
        <path d="M 50.984375 -16.609375 
L 50.984375 -23.578125 
L -0.984375 -23.578125 
L -0.984375 -16.609375 
z
" id="DejaVuSans-95"/>
        <path d="M 53.515625 70.515625 
L 53.515625 60.890625 
Q 47.90625 63.578125 42.921875 64.890625 
Q 37.9375 66.21875 33.296875 66.21875 
Q 25.25 66.21875 20.875 63.09375 
Q 16.5 59.96875 16.5 54.203125 
Q 16.5 49.359375 19.40625 46.890625 
Q 22.3125 44.4375 30.421875 42.921875 
L 36.375 41.703125 
Q 47.40625 39.59375 52.65625 34.296875 
Q 57.90625 29 57.90625 20.125 
Q 57.90625 9.515625 50.796875 4.046875 
Q 43.703125 -1.421875 29.984375 -1.421875 
Q 24.8125 -1.421875 18.96875 -0.25 
Q 13.140625 0.921875 6.890625 3.21875 
L 6.890625 13.375 
Q 12.890625 10.015625 18.65625 8.296875 
Q 24.421875 6.59375 29.984375 6.59375 
Q 38.421875 6.59375 43.015625 9.90625 
Q 47.609375 13.234375 47.609375 19.390625 
Q 47.609375 24.75 44.3125 27.78125 
Q 41.015625 30.8125 33.5 32.328125 
L 27.484375 33.5 
Q 16.453125 35.6875 11.515625 40.375 
Q 6.59375 45.0625 6.59375 53.421875 
Q 6.59375 63.09375 13.40625 68.65625 
Q 20.21875 74.21875 32.171875 74.21875 
Q 37.3125 74.21875 42.625 73.28125 
Q 47.953125 72.359375 53.515625 70.515625 
z
" id="DejaVuSans-83"/>
        <path d="M 34.1875 63.1875 
L 20.796875 26.90625 
L 47.609375 26.90625 
z
M 28.609375 72.90625 
L 39.796875 72.90625 
L 67.578125 0 
L 57.328125 0 
L 50.6875 18.703125 
L 17.828125 18.703125 
L 11.1875 0 
L 0.78125 0 
z
" id="DejaVuSans-65"/>
        <path d="M 19.671875 64.796875 
L 19.671875 37.40625 
L 32.078125 37.40625 
Q 38.96875 37.40625 42.71875 40.96875 
Q 46.484375 44.53125 46.484375 51.125 
Q 46.484375 57.671875 42.71875 61.234375 
Q 38.96875 64.796875 32.078125 64.796875 
z
M 9.8125 72.90625 
L 32.078125 72.90625 
Q 44.34375 72.90625 50.609375 67.359375 
Q 56.890625 61.8125 56.890625 51.125 
Q 56.890625 40.328125 50.609375 34.8125 
Q 44.34375 29.296875 32.078125 29.296875 
L 19.671875 29.296875 
L 19.671875 0 
L 9.8125 0 
z
" id="DejaVuSans-80"/>
        <path d="M 44.28125 53.078125 
L 44.28125 44.578125 
Q 40.484375 46.53125 36.375 47.5 
Q 32.28125 48.484375 27.875 48.484375 
Q 21.1875 48.484375 17.84375 46.4375 
Q 14.5 44.390625 14.5 40.28125 
Q 14.5 37.15625 16.890625 35.375 
Q 19.28125 33.59375 26.515625 31.984375 
L 29.59375 31.296875 
Q 39.15625 29.25 43.1875 25.515625 
Q 47.21875 21.78125 47.21875 15.09375 
Q 47.21875 7.46875 41.1875 3.015625 
Q 35.15625 -1.421875 24.609375 -1.421875 
Q 20.21875 -1.421875 15.453125 -0.5625 
Q 10.6875 0.296875 5.421875 2 
L 5.421875 11.28125 
Q 10.40625 8.6875 15.234375 7.390625 
Q 20.0625 6.109375 24.8125 6.109375 
Q 31.15625 6.109375 34.5625 8.28125 
Q 37.984375 10.453125 37.984375 14.40625 
Q 37.984375 18.0625 35.515625 20.015625 
Q 33.0625 21.96875 24.703125 23.78125 
L 21.578125 24.515625 
Q 13.234375 26.265625 9.515625 29.90625 
Q 5.8125 33.546875 5.8125 39.890625 
Q 5.8125 47.609375 11.28125 51.796875 
Q 16.75 56 26.8125 56 
Q 31.78125 56 36.171875 55.265625 
Q 40.578125 54.546875 44.28125 53.078125 
z
" id="DejaVuSans-115"/>
       </defs>
       <use xlink:href="#DejaVuSans-84"/>
       <use x="61.083984" xlink:href="#DejaVuSans-73"/>
       <use x="90.576172" xlink:href="#DejaVuSans-77"/>
       <use x="176.855469" xlink:href="#DejaVuSans-69"/>
       <use x="240.039062" xlink:href="#DejaVuSans-95"/>
       <use x="290.039062" xlink:href="#DejaVuSans-83"/>
       <use x="353.515625" xlink:href="#DejaVuSans-84"/>
       <use x="406.849609" xlink:href="#DejaVuSans-65"/>
       <use x="475.257812" xlink:href="#DejaVuSans-77"/>
       <use x="561.537109" xlink:href="#DejaVuSans-80"/>
       <use x="621.839844" xlink:href="#DejaVuSans-95"/>
       <use x="671.839844" xlink:href="#DejaVuSans-115"/>
      </g>
     </g>
    </g>
    <g id="ytick_2">
     <g id="line2d_29">
      <g>
       <use style="stroke:#000000;stroke-width:0.8;" x="96.334375" xlink:href="#m22f9306552" y="22.32"/>
      </g>
     </g>
     <g id="text_9">
      <!-- TIME_STAMP_ms -->
      <g transform="translate(7.2 26.030937)scale(0.1 -0.1)">
       <defs>
        <path d="M 52 44.1875 
Q 55.375 50.25 60.0625 53.125 
Q 64.75 56 71.09375 56 
Q 79.640625 56 84.28125 50.015625 
Q 88.921875 44.046875 88.921875 33.015625 
L 88.921875 0 
L 79.890625 0 
L 79.890625 32.71875 
Q 79.890625 40.578125 77.09375 44.375 
Q 74.3125 48.1875 68.609375 48.1875 
Q 61.625 48.1875 57.5625 43.546875 
Q 53.515625 38.921875 53.515625 30.90625 
L 53.515625 0 
L 44.484375 0 
L 44.484375 32.71875 
Q 44.484375 40.625 41.703125 44.40625 
Q 38.921875 48.1875 33.109375 48.1875 
Q 26.21875 48.1875 22.15625 43.53125 
Q 18.109375 38.875 18.109375 30.90625 
L 18.109375 0 
L 9.078125 0 
L 9.078125 54.6875 
L 18.109375 54.6875 
L 18.109375 46.1875 
Q 21.1875 51.21875 25.484375 53.609375 
Q 29.78125 56 35.6875 56 
Q 41.65625 56 45.828125 52.96875 
Q 50 49.953125 52 44.1875 
z
" id="DejaVuSans-109"/>
       </defs>
       <use xlink:href="#DejaVuSans-84"/>
       <use x="61.083984" xlink:href="#DejaVuSans-73"/>
       <use x="90.576172" xlink:href="#DejaVuSans-77"/>
       <use x="176.855469" xlink:href="#DejaVuSans-69"/>
       <use x="240.039062" xlink:href="#DejaVuSans-95"/>
       <use x="290.039062" xlink:href="#DejaVuSans-83"/>
       <use x="353.515625" xlink:href="#DejaVuSans-84"/>
       <use x="406.849609" xlink:href="#DejaVuSans-65"/>
       <use x="475.257812" xlink:href="#DejaVuSans-77"/>
       <use x="561.537109" xlink:href="#DejaVuSans-80"/>
       <use x="621.839844" xlink:href="#DejaVuSans-95"/>
       <use x="671.839844" xlink:href="#DejaVuSans-109"/>
       <use x="769.251953" xlink:href="#DejaVuSans-115"/>
      </g>
     </g>
    </g>
    <g id="ytick_3">
     <g id="line2d_30">
      <g>
       <use style="stroke:#000000;stroke-width:0.8;" x="96.334375" xlink:href="#m22f9306552" y="32.4"/>
      </g>
     </g>
     <g id="text_10">
      <!-- COUNTER -->
      <g transform="translate(40.304688 36.199219)scale(0.1 -0.1)">
       <defs>
        <path d="M 64.40625 67.28125 
L 64.40625 56.890625 
Q 59.421875 61.53125 53.78125 63.8125 
Q 48.140625 66.109375 41.796875 66.109375 
Q 29.296875 66.109375 22.65625 58.46875 
Q 16.015625 50.828125 16.015625 36.375 
Q 16.015625 21.96875 22.65625 14.328125 
Q 29.296875 6.6875 41.796875 6.6875 
Q 48.140625 6.6875 53.78125 8.984375 
Q 59.421875 11.28125 64.40625 15.921875 
L 64.40625 5.609375 
Q 59.234375 2.09375 53.4375 0.328125 
Q 47.65625 -1.421875 41.21875 -1.421875 
Q 24.65625 -1.421875 15.125 8.703125 
Q 5.609375 18.84375 5.609375 36.375 
Q 5.609375 53.953125 15.125 64.078125 
Q 24.65625 74.21875 41.21875 74.21875 
Q 47.75 74.21875 53.53125 72.484375 
Q 59.328125 70.75 64.40625 67.28125 
z
" id="DejaVuSans-67"/>
        <path d="M 39.40625 66.21875 
Q 28.65625 66.21875 22.328125 58.203125 
Q 16.015625 50.203125 16.015625 36.375 
Q 16.015625 22.609375 22.328125 14.59375 
Q 28.65625 6.59375 39.40625 6.59375 
Q 50.140625 6.59375 56.421875 14.59375 
Q 62.703125 22.609375 62.703125 36.375 
Q 62.703125 50.203125 56.421875 58.203125 
Q 50.140625 66.21875 39.40625 66.21875 
z
M 39.40625 74.21875 
Q 54.734375 74.21875 63.90625 63.9375 
Q 73.09375 53.65625 73.09375 36.375 
Q 73.09375 19.140625 63.90625 8.859375 
Q 54.734375 -1.421875 39.40625 -1.421875 
Q 24.03125 -1.421875 14.8125 8.828125 
Q 5.609375 19.09375 5.609375 36.375 
Q 5.609375 53.65625 14.8125 63.9375 
Q 24.03125 74.21875 39.40625 74.21875 
z
" id="DejaVuSans-79"/>
        <path d="M 8.6875 72.90625 
L 18.609375 72.90625 
L 18.609375 28.609375 
Q 18.609375 16.890625 22.84375 11.734375 
Q 27.09375 6.59375 36.625 6.59375 
Q 46.09375 6.59375 50.34375 11.734375 
Q 54.59375 16.890625 54.59375 28.609375 
L 54.59375 72.90625 
L 64.5 72.90625 
L 64.5 27.390625 
Q 64.5 13.140625 57.4375 5.859375 
Q 50.390625 -1.421875 36.625 -1.421875 
Q 22.796875 -1.421875 15.734375 5.859375 
Q 8.6875 13.140625 8.6875 27.390625 
z
" id="DejaVuSans-85"/>
        <path d="M 9.8125 72.90625 
L 23.09375 72.90625 
L 55.421875 11.921875 
L 55.421875 72.90625 
L 64.984375 72.90625 
L 64.984375 0 
L 51.703125 0 
L 19.390625 60.984375 
L 19.390625 0 
L 9.8125 0 
z
" id="DejaVuSans-78"/>
        <path d="M 44.390625 34.1875 
Q 47.5625 33.109375 50.5625 29.59375 
Q 53.5625 26.078125 56.59375 19.921875 
L 66.609375 0 
L 56 0 
L 46.6875 18.703125 
Q 43.0625 26.03125 39.671875 28.421875 
Q 36.28125 30.8125 30.421875 30.8125 
L 19.671875 30.8125 
L 19.671875 0 
L 9.8125 0 
L 9.8125 72.90625 
L 32.078125 72.90625 
Q 44.578125 72.90625 50.734375 67.671875 
Q 56.890625 62.453125 56.890625 51.90625 
Q 56.890625 45.015625 53.6875 40.46875 
Q 50.484375 35.9375 44.390625 34.1875 
z
M 19.671875 64.796875 
L 19.671875 38.921875 
L 32.078125 38.921875 
Q 39.203125 38.921875 42.84375 42.21875 
Q 46.484375 45.515625 46.484375 51.90625 
Q 46.484375 58.296875 42.84375 61.546875 
Q 39.203125 64.796875 32.078125 64.796875 
z
" id="DejaVuSans-82"/>
       </defs>
       <use xlink:href="#DejaVuSans-67"/>
       <use x="69.824219" xlink:href="#DejaVuSans-79"/>
       <use x="148.535156" xlink:href="#DejaVuSans-85"/>
       <use x="221.728516" xlink:href="#DejaVuSans-78"/>
       <use x="296.533203" xlink:href="#DejaVuSans-84"/>
       <use x="357.617188" xlink:href="#DejaVuSans-69"/>
       <use x="420.800781" xlink:href="#DejaVuSans-82"/>
      </g>
     </g>
    </g>
    <g id="ytick_4">
     <g id="line2d_31">
      <g>
       <use style="stroke:#000000;stroke-width:0.8;" x="96.334375" xlink:href="#m22f9306552" y="42.48"/>
      </g>
     </g>
     <g id="text_11">
      <!-- INTERPOLATED -->
      <g transform="translate(13.6375 46.279219)scale(0.1 -0.1)">
       <defs>
        <path d="M 9.8125 72.90625 
L 19.671875 72.90625 
L 19.671875 8.296875 
L 55.171875 8.296875 
L 55.171875 0 
L 9.8125 0 
z
" id="DejaVuSans-76"/>
        <path d="M 19.671875 64.796875 
L 19.671875 8.109375 
L 31.59375 8.109375 
Q 46.6875 8.109375 53.6875 14.9375 
Q 60.6875 21.78125 60.6875 36.53125 
Q 60.6875 51.171875 53.6875 57.984375 
Q 46.6875 64.796875 31.59375 64.796875 
z
M 9.8125 72.90625 
L 30.078125 72.90625 
Q 51.265625 72.90625 61.171875 64.09375 
Q 71.09375 55.28125 71.09375 36.53125 
Q 71.09375 17.671875 61.125 8.828125 
Q 51.171875 0 30.078125 0 
L 9.8125 0 
z
" id="DejaVuSans-68"/>
       </defs>
       <use xlink:href="#DejaVuSans-73"/>
       <use x="29.492188" xlink:href="#DejaVuSans-78"/>
       <use x="104.296875" xlink:href="#DejaVuSans-84"/>
       <use x="165.380859" xlink:href="#DejaVuSans-69"/>
       <use x="228.564453" xlink:href="#DejaVuSans-82"/>
       <use x="298.046875" xlink:href="#DejaVuSans-80"/>
       <use x="358.349609" xlink:href="#DejaVuSans-79"/>
       <use x="437.060547" xlink:href="#DejaVuSans-76"/>
       <use x="495.023438" xlink:href="#DejaVuSans-65"/>
       <use x="555.681641" xlink:href="#DejaVuSans-84"/>
       <use x="616.765625" xlink:href="#DejaVuSans-69"/>
       <use x="679.949219" xlink:href="#DejaVuSans-68"/>
      </g>
     </g>
    </g>
    <g id="ytick_5">
     <g id="line2d_32">
      <g>
       <use style="stroke:#000000;stroke-width:0.8;" x="96.334375" xlink:href="#m22f9306552" y="52.56"/>
      </g>
     </g>
     <g id="text_12">
      <!-- AF3 -->
      <g transform="translate(70.379688 56.359219)scale(0.1 -0.1)">
       <defs>
        <path d="M 9.8125 72.90625 
L 51.703125 72.90625 
L 51.703125 64.59375 
L 19.671875 64.59375 
L 19.671875 43.109375 
L 48.578125 43.109375 
L 48.578125 34.8125 
L 19.671875 34.8125 
L 19.671875 0 
L 9.8125 0 
z
" id="DejaVuSans-70"/>
        <path d="M 40.578125 39.3125 
Q 47.65625 37.796875 51.625 33 
Q 55.609375 28.21875 55.609375 21.1875 
Q 55.609375 10.40625 48.1875 4.484375 
Q 40.765625 -1.421875 27.09375 -1.421875 
Q 22.515625 -1.421875 17.65625 -0.515625 
Q 12.796875 0.390625 7.625 2.203125 
L 7.625 11.71875 
Q 11.71875 9.328125 16.59375 8.109375 
Q 21.484375 6.890625 26.8125 6.890625 
Q 36.078125 6.890625 40.9375 10.546875 
Q 45.796875 14.203125 45.796875 21.1875 
Q 45.796875 27.640625 41.28125 31.265625 
Q 36.765625 34.90625 28.71875 34.90625 
L 20.21875 34.90625 
L 20.21875 43.015625 
L 29.109375 43.015625 
Q 36.375 43.015625 40.234375 45.921875 
Q 44.09375 48.828125 44.09375 54.296875 
Q 44.09375 59.90625 40.109375 62.90625 
Q 36.140625 65.921875 28.71875 65.921875 
Q 24.65625 65.921875 20.015625 65.03125 
Q 15.375 64.15625 9.8125 62.3125 
L 9.8125 71.09375 
Q 15.4375 72.65625 20.34375 73.4375 
Q 25.25 74.21875 29.59375 74.21875 
Q 40.828125 74.21875 47.359375 69.109375 
Q 53.90625 64.015625 53.90625 55.328125 
Q 53.90625 49.265625 50.4375 45.09375 
Q 46.96875 40.921875 40.578125 39.3125 
z
" id="DejaVuSans-51"/>
       </defs>
       <use xlink:href="#DejaVuSans-65"/>
       <use x="68.408203" xlink:href="#DejaVuSans-70"/>
       <use x="125.927734" xlink:href="#DejaVuSans-51"/>
      </g>
     </g>
    </g>
    <g id="ytick_6">
     <g id="line2d_33">
      <g>
       <use style="stroke:#000000;stroke-width:0.8;" x="96.334375" xlink:href="#m22f9306552" y="62.64"/>
      </g>
     </g>
     <g id="text_13">
      <!-- F7 -->
      <g transform="translate(77.220313 66.439219)scale(0.1 -0.1)">
       <use xlink:href="#DejaVuSans-70"/>
       <use x="57.519531" xlink:href="#DejaVuSans-55"/>
      </g>
     </g>
    </g>
    <g id="ytick_7">
     <g id="line2d_34">
      <g>
       <use style="stroke:#000000;stroke-width:0.8;" x="96.334375" xlink:href="#m22f9306552" y="72.72"/>
      </g>
     </g>
     <g id="text_14">
      <!-- F3 -->
      <g transform="translate(77.220313 76.519219)scale(0.1 -0.1)">
       <use xlink:href="#DejaVuSans-70"/>
       <use x="57.519531" xlink:href="#DejaVuSans-51"/>
      </g>
     </g>
    </g>
    <g id="ytick_8">
     <g id="line2d_35">
      <g>
       <use style="stroke:#000000;stroke-width:0.8;" x="96.334375" xlink:href="#m22f9306552" y="82.8"/>
      </g>
     </g>
     <g id="text_15">
      <!-- FC5 -->
      <g transform="translate(70.2375 86.599219)scale(0.1 -0.1)">
       <use xlink:href="#DejaVuSans-70"/>
       <use x="57.519531" xlink:href="#DejaVuSans-67"/>
       <use x="127.34375" xlink:href="#DejaVuSans-53"/>
      </g>
     </g>
    </g>
    <g id="ytick_9">
     <g id="line2d_36">
      <g>
       <use style="stroke:#000000;stroke-width:0.8;" x="96.334375" xlink:href="#m22f9306552" y="92.88"/>
      </g>
     </g>
     <g id="text_16">
      <!-- T7 -->
      <g transform="translate(76.864063 96.679219)scale(0.1 -0.1)">
       <use xlink:href="#DejaVuSans-84"/>
       <use x="61.083984" xlink:href="#DejaVuSans-55"/>
      </g>
     </g>
    </g>
    <g id="ytick_10">
     <g id="line2d_37">
      <g>
       <use style="stroke:#000000;stroke-width:0.8;" x="96.334375" xlink:href="#m22f9306552" y="102.96"/>
      </g>
     </g>
     <g id="text_17">
      <!-- P7 -->
      <g transform="translate(76.942188 106.759219)scale(0.1 -0.1)">
       <use xlink:href="#DejaVuSans-80"/>
       <use x="60.302734" xlink:href="#DejaVuSans-55"/>
      </g>
     </g>
    </g>
    <g id="ytick_11">
     <g id="line2d_38">
      <g>
       <use style="stroke:#000000;stroke-width:0.8;" x="96.334375" xlink:href="#m22f9306552" y="113.04"/>
      </g>
     </g>
     <g id="text_18">
      <!-- O1 -->
      <g transform="translate(75.1 116.839219)scale(0.1 -0.1)">
       <use xlink:href="#DejaVuSans-79"/>
       <use x="78.710938" xlink:href="#DejaVuSans-49"/>
      </g>
     </g>
    </g>
    <g id="ytick_12">
     <g id="line2d_39">
      <g>
       <use style="stroke:#000000;stroke-width:0.8;" x="96.334375" xlink:href="#m22f9306552" y="123.12"/>
      </g>
     </g>
     <g id="text_19">
      <!-- O2 -->
      <g transform="translate(75.1 126.919219)scale(0.1 -0.1)">
       <defs>
        <path d="M 19.1875 8.296875 
L 53.609375 8.296875 
L 53.609375 0 
L 7.328125 0 
L 7.328125 8.296875 
Q 12.9375 14.109375 22.625 23.890625 
Q 32.328125 33.6875 34.8125 36.53125 
Q 39.546875 41.84375 41.421875 45.53125 
Q 43.3125 49.21875 43.3125 52.78125 
Q 43.3125 58.59375 39.234375 62.25 
Q 35.15625 65.921875 28.609375 65.921875 
Q 23.96875 65.921875 18.8125 64.3125 
Q 13.671875 62.703125 7.8125 59.421875 
L 7.8125 69.390625 
Q 13.765625 71.78125 18.9375 73 
Q 24.125 74.21875 28.421875 74.21875 
Q 39.75 74.21875 46.484375 68.546875 
Q 53.21875 62.890625 53.21875 53.421875 
Q 53.21875 48.921875 51.53125 44.890625 
Q 49.859375 40.875 45.40625 35.40625 
Q 44.1875 33.984375 37.640625 27.21875 
Q 31.109375 20.453125 19.1875 8.296875 
z
" id="DejaVuSans-50"/>
       </defs>
       <use xlink:href="#DejaVuSans-79"/>
       <use x="78.710938" xlink:href="#DejaVuSans-50"/>
      </g>
     </g>
    </g>
    <g id="ytick_13">
     <g id="line2d_40">
      <g>
       <use style="stroke:#000000;stroke-width:0.8;" x="96.334375" xlink:href="#m22f9306552" y="133.2"/>
      </g>
     </g>
     <g id="text_20">
      <!-- P8 -->
      <g transform="translate(76.942188 136.999219)scale(0.1 -0.1)">
       <use xlink:href="#DejaVuSans-80"/>
       <use x="60.302734" xlink:href="#DejaVuSans-56"/>
      </g>
     </g>
    </g>
    <g id="ytick_14">
     <g id="line2d_41">
      <g>
       <use style="stroke:#000000;stroke-width:0.8;" x="96.334375" xlink:href="#m22f9306552" y="143.28"/>
      </g>
     </g>
     <g id="text_21">
      <!-- T8 -->
      <g transform="translate(76.864063 147.079219)scale(0.1 -0.1)">
       <use xlink:href="#DejaVuSans-84"/>
       <use x="61.083984" xlink:href="#DejaVuSans-56"/>
      </g>
     </g>
    </g>
    <g id="ytick_15">
     <g id="line2d_42">
      <g>
       <use style="stroke:#000000;stroke-width:0.8;" x="96.334375" xlink:href="#m22f9306552" y="153.36"/>
      </g>
     </g>
     <g id="text_22">
      <!-- FC6 -->
      <g transform="translate(70.2375 157.159219)scale(0.1 -0.1)">
       <use xlink:href="#DejaVuSans-70"/>
       <use x="57.519531" xlink:href="#DejaVuSans-67"/>
       <use x="127.34375" xlink:href="#DejaVuSans-54"/>
      </g>
     </g>
    </g>
    <g id="ytick_16">
     <g id="line2d_43">
      <g>
       <use style="stroke:#000000;stroke-width:0.8;" x="96.334375" xlink:href="#m22f9306552" y="163.44"/>
      </g>
     </g>
     <g id="text_23">
      <!-- F4 -->
      <g transform="translate(77.220313 167.239219)scale(0.1 -0.1)">
       <use xlink:href="#DejaVuSans-70"/>
       <use x="57.519531" xlink:href="#DejaVuSans-52"/>
      </g>
     </g>
    </g>
    <g id="ytick_17">
     <g id="line2d_44">
      <g>
       <use style="stroke:#000000;stroke-width:0.8;" x="96.334375" xlink:href="#m22f9306552" y="173.52"/>
      </g>
     </g>
     <g id="text_24">
      <!-- F8 -->
      <g transform="translate(77.220313 177.319219)scale(0.1 -0.1)">
       <use xlink:href="#DejaVuSans-70"/>
       <use x="57.519531" xlink:href="#DejaVuSans-56"/>
      </g>
     </g>
    </g>
    <g id="ytick_18">
     <g id="line2d_45">
      <g>
       <use style="stroke:#000000;stroke-width:0.8;" x="96.334375" xlink:href="#m22f9306552" y="183.6"/>
      </g>
     </g>
     <g id="text_25">
      <!-- AF4 -->
      <g transform="translate(70.379688 187.399219)scale(0.1 -0.1)">
       <use xlink:href="#DejaVuSans-65"/>
       <use x="68.408203" xlink:href="#DejaVuSans-70"/>
       <use x="125.927734" xlink:href="#DejaVuSans-52"/>
      </g>
     </g>
    </g>
    <g id="ytick_19">
     <g id="line2d_46">
      <g>
       <use style="stroke:#000000;stroke-width:0.8;" x="96.334375" xlink:href="#m22f9306552" y="193.68"/>
      </g>
     </g>
     <g id="text_26">
      <!-- RAW_CQ -->
      <g transform="translate(46.753125 197.390938)scale(0.1 -0.1)">
       <defs>
        <path d="M 3.328125 72.90625 
L 13.28125 72.90625 
L 28.609375 11.28125 
L 43.890625 72.90625 
L 54.984375 72.90625 
L 70.3125 11.28125 
L 85.59375 72.90625 
L 95.609375 72.90625 
L 77.296875 0 
L 64.890625 0 
L 49.515625 63.28125 
L 33.984375 0 
L 21.578125 0 
z
" id="DejaVuSans-87"/>
        <path d="M 39.40625 66.21875 
Q 28.65625 66.21875 22.328125 58.203125 
Q 16.015625 50.203125 16.015625 36.375 
Q 16.015625 22.609375 22.328125 14.59375 
Q 28.65625 6.59375 39.40625 6.59375 
Q 50.140625 6.59375 56.421875 14.59375 
Q 62.703125 22.609375 62.703125 36.375 
Q 62.703125 50.203125 56.421875 58.203125 
Q 50.140625 66.21875 39.40625 66.21875 
z
M 53.21875 1.3125 
L 66.21875 -12.890625 
L 54.296875 -12.890625 
L 43.5 -1.21875 
Q 41.890625 -1.3125 41.03125 -1.359375 
Q 40.1875 -1.421875 39.40625 -1.421875 
Q 24.03125 -1.421875 14.8125 8.859375 
Q 5.609375 19.140625 5.609375 36.375 
Q 5.609375 53.65625 14.8125 63.9375 
Q 24.03125 74.21875 39.40625 74.21875 
Q 54.734375 74.21875 63.90625 63.9375 
Q 73.09375 53.65625 73.09375 36.375 
Q 73.09375 23.6875 67.984375 14.640625 
Q 62.890625 5.609375 53.21875 1.3125 
z
" id="DejaVuSans-81"/>
       </defs>
       <use xlink:href="#DejaVuSans-82"/>
       <use x="65.482422" xlink:href="#DejaVuSans-65"/>
       <use x="128.390625" xlink:href="#DejaVuSans-87"/>
       <use x="227.267578" xlink:href="#DejaVuSans-95"/>
       <use x="277.267578" xlink:href="#DejaVuSans-67"/>
       <use x="347.091797" xlink:href="#DejaVuSans-81"/>
      </g>
     </g>
    </g>
    <g id="ytick_20">
     <g id="line2d_47">
      <g>
       <use style="stroke:#000000;stroke-width:0.8;" x="96.334375" xlink:href="#m22f9306552" y="203.76"/>
      </g>
     </g>
     <g id="text_27">
      <!-- BATTERY -->
      <g transform="translate(45.629688 207.559219)scale(0.1 -0.1)">
       <defs>
        <path d="M 19.671875 34.8125 
L 19.671875 8.109375 
L 35.5 8.109375 
Q 43.453125 8.109375 47.28125 11.40625 
Q 51.125 14.703125 51.125 21.484375 
Q 51.125 28.328125 47.28125 31.5625 
Q 43.453125 34.8125 35.5 34.8125 
z
M 19.671875 64.796875 
L 19.671875 42.828125 
L 34.28125 42.828125 
Q 41.5 42.828125 45.03125 45.53125 
Q 48.578125 48.25 48.578125 53.8125 
Q 48.578125 59.328125 45.03125 62.0625 
Q 41.5 64.796875 34.28125 64.796875 
z
M 9.8125 72.90625 
L 35.015625 72.90625 
Q 46.296875 72.90625 52.390625 68.21875 
Q 58.5 63.53125 58.5 54.890625 
Q 58.5 48.1875 55.375 44.234375 
Q 52.25 40.28125 46.1875 39.3125 
Q 53.46875 37.75 57.5 32.78125 
Q 61.53125 27.828125 61.53125 20.40625 
Q 61.53125 10.640625 54.890625 5.3125 
Q 48.25 0 35.984375 0 
L 9.8125 0 
z
" id="DejaVuSans-66"/>
        <path d="M -0.203125 72.90625 
L 10.40625 72.90625 
L 30.609375 42.921875 
L 50.6875 72.90625 
L 61.28125 72.90625 
L 35.5 34.71875 
L 35.5 0 
L 25.59375 0 
L 25.59375 34.71875 
z
" id="DejaVuSans-89"/>
       </defs>
       <use xlink:href="#DejaVuSans-66"/>
       <use x="68.603516" xlink:href="#DejaVuSans-65"/>
       <use x="129.261719" xlink:href="#DejaVuSans-84"/>
       <use x="188.595703" xlink:href="#DejaVuSans-84"/>
       <use x="249.679688" xlink:href="#DejaVuSans-69"/>
       <use x="312.863281" xlink:href="#DejaVuSans-82"/>
       <use x="375.970703" xlink:href="#DejaVuSans-89"/>
      </g>
     </g>
    </g>
   </g>
   <g id="line2d_48">
    <path clip-path="url(#p02425626ba)" style="fill:none;stroke:#1f77b4;stroke-linecap:square;stroke-width:0.5;"/>
   </g>
   <g id="line2d_49">
    <path clip-path="url(#p02425626ba)" style="fill:none;stroke:#ff7f0e;stroke-linecap:square;stroke-width:0.5;"/>
   </g>
   <g id="line2d_50">
    <path clip-path="url(#p02425626ba)" style="fill:none;stroke:#2ca02c;stroke-linecap:square;stroke-width:0.5;"/>
   </g>
   <g id="line2d_51">
    <path clip-path="url(#p02425626ba)" style="fill:none;stroke:#d62728;stroke-linecap:square;stroke-width:0.5;"/>
   </g>
   <g id="line2d_52">
    <path clip-path="url(#p02425626ba)" style="fill:none;stroke:#9467bd;stroke-linecap:square;stroke-width:0.5;"/>
   </g>
   <g id="line2d_53">
    <path clip-path="url(#p02425626ba)" style="fill:none;stroke:#8c564b;stroke-linecap:square;stroke-width:0.5;"/>
   </g>
   <g id="line2d_54">
    <path clip-path="url(#p02425626ba)" style="fill:none;stroke:#e377c2;stroke-linecap:square;stroke-width:0.5;"/>
   </g>
   <g id="line2d_55">
    <path clip-path="url(#p02425626ba)" style="fill:none;stroke:#7f7f7f;stroke-linecap:square;stroke-width:0.5;"/>
   </g>
   <g id="line2d_56">
    <path clip-path="url(#p02425626ba)" style="fill:none;stroke:#bcbd22;stroke-linecap:square;stroke-width:0.5;"/>
   </g>
   <g id="line2d_57">
    <path clip-path="url(#p02425626ba)" style="fill:none;stroke:#17becf;stroke-linecap:square;stroke-width:0.5;"/>
   </g>
   <g id="line2d_58">
    <path clip-path="url(#p02425626ba)" style="fill:none;stroke:#1f77b4;stroke-linecap:square;stroke-width:0.5;"/>
   </g>
   <g id="line2d_59">
    <path clip-path="url(#p02425626ba)" style="fill:none;stroke:#ff7f0e;stroke-linecap:square;stroke-width:0.5;"/>
   </g>
   <g id="line2d_60">
    <path clip-path="url(#p02425626ba)" style="fill:none;stroke:#2ca02c;stroke-linecap:square;stroke-width:0.5;"/>
   </g>
   <g id="line2d_61">
    <path clip-path="url(#p02425626ba)" style="fill:none;stroke:#d62728;stroke-linecap:square;stroke-width:0.5;"/>
   </g>
   <g id="line2d_62">
    <path clip-path="url(#p02425626ba)" style="fill:none;stroke:#9467bd;stroke-linecap:square;stroke-width:0.5;"/>
   </g>
   <g id="line2d_63">
    <path clip-path="url(#p02425626ba)" style="fill:none;stroke:#8c564b;stroke-linecap:square;stroke-width:0.5;"/>
   </g>
   <g id="line2d_64">
    <path clip-path="url(#p02425626ba)" style="fill:none;stroke:#e377c2;stroke-linecap:square;stroke-width:0.5;"/>
   </g>
   <g id="line2d_65">
    <path clip-path="url(#p02425626ba)" style="fill:none;stroke:#7f7f7f;stroke-linecap:square;stroke-width:0.5;"/>
   </g>
   <g id="line2d_66">
    <path clip-path="url(#p02425626ba)" style="fill:none;stroke:#bcbd22;stroke-linecap:square;stroke-width:0.5;"/>
   </g>
   <g id="line2d_67">
    <path clip-path="url(#p02425626ba)" style="fill:none;stroke:#17becf;stroke-linecap:square;stroke-width:0.5;"/>
   </g>
   <g id="line2d_68">
    <path clip-path="url(#p02425626ba)" style="fill:none;stroke:#1f77b4;stroke-linecap:square;stroke-width:0.5;"/>
   </g>
   <g id="line2d_69">
    <path clip-path="url(#p02425626ba)" style="fill:none;stroke:#00ffff;stroke-linecap:square;stroke-width:1.5;"/>
   </g>
   <g id="patch_3">
    <path d="M 96.334375 208.8 
L 96.334375 7.2 
" style="fill:none;stroke:#000000;stroke-linecap:square;stroke-linejoin:miter;stroke-width:0.8;"/>
   </g>
   <g id="patch_4">
    <path d="M 423.934375 208.8 
L 423.934375 7.2 
" style="fill:none;stroke:#000000;stroke-linecap:square;stroke-linejoin:miter;stroke-width:0.8;"/>
   </g>
   <g id="patch_5">
    <path d="M 96.334375 208.8 
L 423.934375 208.8 
" style="fill:none;stroke:#000000;stroke-linecap:square;stroke-linejoin:miter;stroke-width:0.8;"/>
   </g>
   <g id="patch_6">
    <path d="M 96.334375 7.2 
L 423.934375 7.2 
" style="fill:none;stroke:#000000;stroke-linecap:square;stroke-linejoin:miter;stroke-width:0.8;"/>
   </g>
   <g id="line2d_70">
    <path clip-path="url(#p02425626ba)" style="fill:none;stroke:#00bf00;stroke-linecap:square;stroke-width:1.5;"/>
   </g>
   <g id="line2d_71">
    <path clip-path="url(#p02425626ba)" d="M 96.334375 7.322927 
L 96.334375 17.157073 
" style="fill:none;stroke:#aa3377;stroke-linecap:square;stroke-width:4;"/>
   </g>
   <g id="text_28">
    <!-- 40.0 V  -->
    <g style="fill:#aa3377;" transform="translate(72.1177 17.157073)scale(0.0579 -0.0579)">
     <defs>
      <path d="M 10.6875 12.40625 
L 21 12.40625 
L 21 0 
L 10.6875 0 
z
" id="DejaVuSans-46"/>
      <path id="DejaVuSans-32"/>
      <path d="M 8.5 -20.796875 
L 8.5 54.6875 
L 17.484375 54.6875 
L 17.484375 20.703125 
Q 17.484375 13.625 20.84375 10 
Q 24.21875 6.390625 30.8125 6.390625 
Q 38.03125 6.390625 41.671875 10.484375 
Q 45.3125 14.59375 45.3125 22.796875 
L 45.3125 54.6875 
L 54.296875 54.6875 
L 54.296875 12.59375 
Q 54.296875 9.671875 55.140625 8.28125 
Q 56 6.890625 57.8125 6.890625 
Q 58.25 6.890625 59.03125 7.15625 
Q 59.8125 7.421875 61.1875 8.015625 
L 61.1875 0.78125 
Q 59.1875 -0.34375 57.390625 -0.875 
Q 55.609375 -1.421875 53.90625 -1.421875 
Q 50.53125 -1.421875 48.53125 0.484375 
Q 46.53125 2.390625 45.796875 6.296875 
Q 43.359375 2.4375 39.8125 0.5 
Q 36.28125 -1.421875 31.5 -1.421875 
Q 26.515625 -1.421875 23.015625 0.484375 
Q 19.53125 2.390625 17.484375 6.203125 
L 17.484375 -20.796875 
z
" id="DejaVuSans-181"/>
      <path d="M 28.609375 0 
L 0.78125 72.90625 
L 11.078125 72.90625 
L 34.1875 11.53125 
L 57.328125 72.90625 
L 67.578125 72.90625 
L 39.796875 0 
z
" id="DejaVuSans-86"/>
     </defs>
     <use xlink:href="#DejaVuSans-52"/>
     <use x="63.623047" xlink:href="#DejaVuSans-48"/>
     <use x="127.246094" xlink:href="#DejaVuSans-46"/>
     <use x="159.033203" xlink:href="#DejaVuSans-48"/>
     <use x="222.65625" xlink:href="#DejaVuSans-32"/>
     <use x="254.443359" xlink:href="#DejaVuSans-181"/>
     <use x="318.066406" xlink:href="#DejaVuSans-86"/>
     <use x="386.474609" xlink:href="#DejaVuSans-32"/>
    </g>
   </g>
  </g>
  <g id="axes_2">
   <g id="patch_7">
    <path d="M 96.334375 244.8 
L 423.934375 244.8 
L 423.934375 226.8 
L 96.334375 226.8 
z
" style="fill:#ffffff;"/>
   </g>
   <g id="patch_8">
    <path d="M 109.181434 244.8 
L 128.452022 244.8 
L 128.452022 226.8 
L 109.181434 226.8 
z
" style="fill:#bfbfbf;opacity:0.25;stroke:#000000;stroke-linejoin:miter;stroke-width:4;"/>
   </g>
   <g id="matplotlib.axis_3">
    <g id="xtick_8">
     <g id="line2d_72">
      <g>
       <use style="stroke:#000000;stroke-width:0.8;" x="96.334375" xlink:href="#mabaf3b9de3" y="244.8"/>
      </g>
     </g>
     <g id="text_29">
      <!-- 0 -->
      <g transform="translate(93.153125 259.398438)scale(0.1 -0.1)">
       <use xlink:href="#DejaVuSans-48"/>
      </g>
     </g>
    </g>
    <g id="xtick_9">
     <g id="line2d_73">
      <g>
       <use style="stroke:#000000;stroke-width:0.8;" x="160.569669" xlink:href="#mabaf3b9de3" y="244.8"/>
      </g>
     </g>
     <g id="text_30">
      <!-- 20 -->
      <g transform="translate(154.207169 259.398438)scale(0.1 -0.1)">
       <use xlink:href="#DejaVuSans-50"/>
       <use x="63.623047" xlink:href="#DejaVuSans-48"/>
      </g>
     </g>
    </g>
    <g id="xtick_10">
     <g id="line2d_74">
      <g>
       <use style="stroke:#000000;stroke-width:0.8;" x="224.804963" xlink:href="#mabaf3b9de3" y="244.8"/>
      </g>
     </g>
     <g id="text_31">
      <!-- 40 -->
      <g transform="translate(218.442463 259.398438)scale(0.1 -0.1)">
       <use xlink:href="#DejaVuSans-52"/>
       <use x="63.623047" xlink:href="#DejaVuSans-48"/>
      </g>
     </g>
    </g>
    <g id="xtick_11">
     <g id="line2d_75">
      <g>
       <use style="stroke:#000000;stroke-width:0.8;" x="289.040257" xlink:href="#mabaf3b9de3" y="244.8"/>
      </g>
     </g>
     <g id="text_32">
      <!-- 60 -->
      <g transform="translate(282.677757 259.398438)scale(0.1 -0.1)">
       <use xlink:href="#DejaVuSans-54"/>
       <use x="63.623047" xlink:href="#DejaVuSans-48"/>
      </g>
     </g>
    </g>
    <g id="xtick_12">
     <g id="line2d_76">
      <g>
       <use style="stroke:#000000;stroke-width:0.8;" x="353.275551" xlink:href="#mabaf3b9de3" y="244.8"/>
      </g>
     </g>
     <g id="text_33">
      <!-- 80 -->
      <g transform="translate(346.913051 259.398438)scale(0.1 -0.1)">
       <use xlink:href="#DejaVuSans-56"/>
       <use x="63.623047" xlink:href="#DejaVuSans-48"/>
      </g>
     </g>
    </g>
    <g id="xtick_13">
     <g id="line2d_77">
      <g>
       <use style="stroke:#000000;stroke-width:0.8;" x="417.510846" xlink:href="#mabaf3b9de3" y="244.8"/>
      </g>
     </g>
     <g id="text_34">
      <!-- 100 -->
      <g transform="translate(407.967096 259.398438)scale(0.1 -0.1)">
       <use xlink:href="#DejaVuSans-49"/>
       <use x="63.623047" xlink:href="#DejaVuSans-48"/>
       <use x="127.246094" xlink:href="#DejaVuSans-48"/>
      </g>
     </g>
    </g>
    <g id="text_35">
     <!-- Time (s) -->
     <g transform="translate(239.805469 273.076562)scale(0.1 -0.1)">
      <defs>
       <path d="M 9.421875 54.6875 
L 18.40625 54.6875 
L 18.40625 0 
L 9.421875 0 
z
M 9.421875 75.984375 
L 18.40625 75.984375 
L 18.40625 64.59375 
L 9.421875 64.59375 
z
" id="DejaVuSans-105"/>
       <path d="M 56.203125 29.59375 
L 56.203125 25.203125 
L 14.890625 25.203125 
Q 15.484375 15.921875 20.484375 11.0625 
Q 25.484375 6.203125 34.421875 6.203125 
Q 39.59375 6.203125 44.453125 7.46875 
Q 49.3125 8.734375 54.109375 11.28125 
L 54.109375 2.78125 
Q 49.265625 0.734375 44.1875 -0.34375 
Q 39.109375 -1.421875 33.890625 -1.421875 
Q 20.796875 -1.421875 13.15625 6.1875 
Q 5.515625 13.8125 5.515625 26.8125 
Q 5.515625 40.234375 12.765625 48.109375 
Q 20.015625 56 32.328125 56 
Q 43.359375 56 49.78125 48.890625 
Q 56.203125 41.796875 56.203125 29.59375 
z
M 47.21875 32.234375 
Q 47.125 39.59375 43.09375 43.984375 
Q 39.0625 48.390625 32.421875 48.390625 
Q 24.90625 48.390625 20.390625 44.140625 
Q 15.875 39.890625 15.1875 32.171875 
z
" id="DejaVuSans-101"/>
       <path d="M 31 75.875 
Q 24.46875 64.65625 21.28125 53.65625 
Q 18.109375 42.671875 18.109375 31.390625 
Q 18.109375 20.125 21.3125 9.0625 
Q 24.515625 -2 31 -13.1875 
L 23.1875 -13.1875 
Q 15.875 -1.703125 12.234375 9.375 
Q 8.59375 20.453125 8.59375 31.390625 
Q 8.59375 42.28125 12.203125 53.3125 
Q 15.828125 64.359375 23.1875 75.875 
z
" id="DejaVuSans-40"/>
       <path d="M 8.015625 75.875 
L 15.828125 75.875 
Q 23.140625 64.359375 26.78125 53.3125 
Q 30.421875 42.28125 30.421875 31.390625 
Q 30.421875 20.453125 26.78125 9.375 
Q 23.140625 -1.703125 15.828125 -13.1875 
L 8.015625 -13.1875 
Q 14.5 -2 17.703125 9.0625 
Q 20.90625 20.125 20.90625 31.390625 
Q 20.90625 42.671875 17.703125 53.65625 
Q 14.5 64.65625 8.015625 75.875 
z
" id="DejaVuSans-41"/>
      </defs>
      <use xlink:href="#DejaVuSans-84"/>
      <use x="57.958984" xlink:href="#DejaVuSans-105"/>
      <use x="85.742188" xlink:href="#DejaVuSans-109"/>
      <use x="183.154297" xlink:href="#DejaVuSans-101"/>
      <use x="244.677734" xlink:href="#DejaVuSans-32"/>
      <use x="276.464844" xlink:href="#DejaVuSans-40"/>
      <use x="315.478516" xlink:href="#DejaVuSans-115"/>
      <use x="367.578125" xlink:href="#DejaVuSans-41"/>
     </g>
    </g>
   </g>
   <g id="line2d_78">
    <path clip-path="url(#p341a69c7a9)" d="M 96.334375 244.8 
L 96.334375 226.8 
" style="fill:none;stroke:#00bf00;stroke-linecap:square;stroke-width:1.5;"/>
   </g>
   <g id="patch_9">
    <path d="M 96.334375 244.8 
L 96.334375 226.8 
" style="fill:none;stroke:#000000;stroke-linecap:square;stroke-linejoin:miter;stroke-width:0.8;"/>
   </g>
   <g id="patch_10">
    <path d="M 423.934375 244.8 
L 423.934375 226.8 
" style="fill:none;stroke:#000000;stroke-linecap:square;stroke-linejoin:miter;stroke-width:0.8;"/>
   </g>
   <g id="patch_11">
    <path d="M 96.334375 244.8 
L 423.934375 244.8 
" style="fill:none;stroke:#000000;stroke-linecap:square;stroke-linejoin:miter;stroke-width:0.8;"/>
   </g>
   <g id="patch_12">
    <path d="M 96.334375 226.8 
L 423.934375 226.8 
" style="fill:none;stroke:#000000;stroke-linecap:square;stroke-linejoin:miter;stroke-width:0.8;"/>
   </g>
  </g>
  <g id="axes_3">
   <g id="patch_13">
    <path clip-path="url(#p4b86817564)" d="M 431.134375 7.2 
L 449.134375 7.2 
L 449.134375 12.117073 
L 431.134375 12.117073 
z
" style="stroke:#000000;stroke-linejoin:miter;"/>
   </g>
   <g id="patch_14">
    <path clip-path="url(#p4b86817564)" d="M 431.134375 12.117073 
L 449.134375 12.117073 
L 449.134375 17.034146 
L 431.134375 17.034146 
z
" style="stroke:#000000;stroke-linejoin:miter;"/>
   </g>
   <g id="patch_15">
    <path clip-path="url(#p4b86817564)" d="M 431.134375 17.034146 
L 449.134375 17.034146 
L 449.134375 21.95122 
L 431.134375 21.95122 
z
" style="stroke:#000000;stroke-linejoin:miter;"/>
   </g>
   <g id="patch_16">
    <path clip-path="url(#p4b86817564)" d="M 431.134375 21.95122 
L 449.134375 21.95122 
L 449.134375 26.868293 
L 431.134375 26.868293 
z
" style="stroke:#000000;stroke-linejoin:miter;"/>
   </g>
   <g id="patch_17">
    <path clip-path="url(#p4b86817564)" d="M 431.134375 26.868293 
L 449.134375 26.868293 
L 449.134375 31.785366 
L 431.134375 31.785366 
z
" style="stroke:#000000;stroke-linejoin:miter;"/>
   </g>
   <g id="patch_18">
    <path clip-path="url(#p4b86817564)" d="M 431.134375 31.785366 
L 449.134375 31.785366 
L 449.134375 36.702439 
L 431.134375 36.702439 
z
" style="stroke:#000000;stroke-linejoin:miter;"/>
   </g>
   <g id="patch_19">
    <path clip-path="url(#p4b86817564)" d="M 431.134375 36.702439 
L 449.134375 36.702439 
L 449.134375 41.619512 
L 431.134375 41.619512 
z
" style="stroke:#000000;stroke-linejoin:miter;"/>
   </g>
   <g id="patch_20">
    <path clip-path="url(#p4b86817564)" d="M 431.134375 41.619512 
L 449.134375 41.619512 
L 449.134375 46.536585 
L 431.134375 46.536585 
z
" style="stroke:#000000;stroke-linejoin:miter;"/>
   </g>
   <g id="patch_21">
    <path clip-path="url(#p4b86817564)" d="M 431.134375 46.536585 
L 449.134375 46.536585 
L 449.134375 51.453659 
L 431.134375 51.453659 
z
" style="stroke:#000000;stroke-linejoin:miter;"/>
   </g>
   <g id="patch_22">
    <path clip-path="url(#p4b86817564)" d="M 431.134375 51.453659 
L 449.134375 51.453659 
L 449.134375 56.370732 
L 431.134375 56.370732 
z
" style="stroke:#000000;stroke-linejoin:miter;"/>
   </g>
   <g id="patch_23">
    <path clip-path="url(#p4b86817564)" d="M 431.134375 56.370732 
L 449.134375 56.370732 
L 449.134375 61.287805 
L 431.134375 61.287805 
z
" style="stroke:#000000;stroke-linejoin:miter;"/>
   </g>
   <g id="patch_24">
    <path clip-path="url(#p4b86817564)" d="M 431.134375 61.287805 
L 449.134375 61.287805 
L 449.134375 66.204878 
L 431.134375 66.204878 
z
" style="stroke:#000000;stroke-linejoin:miter;"/>
   </g>
   <g id="patch_25">
    <path clip-path="url(#p4b86817564)" d="M 431.134375 66.204878 
L 449.134375 66.204878 
L 449.134375 71.121951 
L 431.134375 71.121951 
z
" style="stroke:#000000;stroke-linejoin:miter;"/>
   </g>
   <g id="patch_26">
    <path clip-path="url(#p4b86817564)" d="M 431.134375 71.121951 
L 449.134375 71.121951 
L 449.134375 76.039024 
L 431.134375 76.039024 
z
" style="stroke:#000000;stroke-linejoin:miter;"/>
   </g>
   <g id="patch_27">
    <path clip-path="url(#p4b86817564)" d="M 431.134375 76.039024 
L 449.134375 76.039024 
L 449.134375 80.956098 
L 431.134375 80.956098 
z
" style="stroke:#000000;stroke-linejoin:miter;"/>
   </g>
   <g id="patch_28">
    <path clip-path="url(#p4b86817564)" d="M 431.134375 80.956098 
L 449.134375 80.956098 
L 449.134375 85.873171 
L 431.134375 85.873171 
z
" style="stroke:#000000;stroke-linejoin:miter;"/>
   </g>
   <g id="patch_29">
    <path clip-path="url(#p4b86817564)" d="M 431.134375 85.873171 
L 449.134375 85.873171 
L 449.134375 90.790244 
L 431.134375 90.790244 
z
" style="stroke:#000000;stroke-linejoin:miter;"/>
   </g>
   <g id="patch_30">
    <path clip-path="url(#p4b86817564)" d="M 431.134375 90.790244 
L 449.134375 90.790244 
L 449.134375 95.707317 
L 431.134375 95.707317 
z
" style="stroke:#000000;stroke-linejoin:miter;"/>
   </g>
   <g id="patch_31">
    <path clip-path="url(#p4b86817564)" d="M 431.134375 95.707317 
L 449.134375 95.707317 
L 449.134375 100.62439 
L 431.134375 100.62439 
z
" style="stroke:#000000;stroke-linejoin:miter;"/>
   </g>
   <g id="patch_32">
    <path clip-path="url(#p4b86817564)" d="M 431.134375 100.62439 
L 449.134375 100.62439 
L 449.134375 105.541463 
L 431.134375 105.541463 
z
" style="stroke:#000000;stroke-linejoin:miter;"/>
   </g>
   <g id="patch_33">
    <path clip-path="url(#p4b86817564)" d="M 431.134375 105.541463 
L 449.134375 105.541463 
L 449.134375 110.458537 
L 431.134375 110.458537 
z
" style="stroke:#000000;stroke-linejoin:miter;"/>
   </g>
   <g id="patch_34">
    <path clip-path="url(#p4b86817564)" d="M 431.134375 110.458537 
L 449.134375 110.458537 
L 449.134375 115.37561 
L 431.134375 115.37561 
z
" style="stroke:#000000;stroke-linejoin:miter;"/>
   </g>
   <g id="patch_35">
    <path clip-path="url(#p4b86817564)" d="M 431.134375 115.37561 
L 449.134375 115.37561 
L 449.134375 120.292683 
L 431.134375 120.292683 
z
" style="stroke:#000000;stroke-linejoin:miter;"/>
   </g>
   <g id="patch_36">
    <path clip-path="url(#p4b86817564)" d="M 431.134375 120.292683 
L 449.134375 120.292683 
L 449.134375 125.209756 
L 431.134375 125.209756 
z
" style="stroke:#000000;stroke-linejoin:miter;"/>
   </g>
   <g id="patch_37">
    <path clip-path="url(#p4b86817564)" d="M 431.134375 125.209756 
L 449.134375 125.209756 
L 449.134375 130.126829 
L 431.134375 130.126829 
z
" style="stroke:#000000;stroke-linejoin:miter;"/>
   </g>
   <g id="patch_38">
    <path clip-path="url(#p4b86817564)" d="M 431.134375 130.126829 
L 449.134375 130.126829 
L 449.134375 135.043902 
L 431.134375 135.043902 
z
" style="stroke:#000000;stroke-linejoin:miter;"/>
   </g>
   <g id="patch_39">
    <path clip-path="url(#p4b86817564)" d="M 431.134375 135.043902 
L 449.134375 135.043902 
L 449.134375 139.960976 
L 431.134375 139.960976 
z
" style="stroke:#000000;stroke-linejoin:miter;"/>
   </g>
   <g id="patch_40">
    <path clip-path="url(#p4b86817564)" d="M 431.134375 139.960976 
L 449.134375 139.960976 
L 449.134375 144.878049 
L 431.134375 144.878049 
z
" style="stroke:#000000;stroke-linejoin:miter;"/>
   </g>
   <g id="patch_41">
    <path clip-path="url(#p4b86817564)" d="M 431.134375 144.878049 
L 449.134375 144.878049 
L 449.134375 149.795122 
L 431.134375 149.795122 
z
" style="stroke:#000000;stroke-linejoin:miter;"/>
   </g>
   <g id="patch_42">
    <path clip-path="url(#p4b86817564)" d="M 431.134375 149.795122 
L 449.134375 149.795122 
L 449.134375 154.712195 
L 431.134375 154.712195 
z
" style="stroke:#000000;stroke-linejoin:miter;"/>
   </g>
   <g id="patch_43">
    <path clip-path="url(#p4b86817564)" d="M 431.134375 154.712195 
L 449.134375 154.712195 
L 449.134375 159.629268 
L 431.134375 159.629268 
z
" style="stroke:#000000;stroke-linejoin:miter;"/>
   </g>
   <g id="patch_44">
    <path clip-path="url(#p4b86817564)" d="M 431.134375 159.629268 
L 449.134375 159.629268 
L 449.134375 164.546341 
L 431.134375 164.546341 
z
" style="stroke:#000000;stroke-linejoin:miter;"/>
   </g>
   <g id="patch_45">
    <path clip-path="url(#p4b86817564)" d="M 431.134375 164.546341 
L 449.134375 164.546341 
L 449.134375 169.463415 
L 431.134375 169.463415 
z
" style="stroke:#000000;stroke-linejoin:miter;"/>
   </g>
   <g id="patch_46">
    <path clip-path="url(#p4b86817564)" d="M 431.134375 169.463415 
L 449.134375 169.463415 
L 449.134375 174.380488 
L 431.134375 174.380488 
z
" style="stroke:#000000;stroke-linejoin:miter;"/>
   </g>
   <g id="patch_47">
    <path clip-path="url(#p4b86817564)" d="M 431.134375 174.380488 
L 449.134375 174.380488 
L 449.134375 179.297561 
L 431.134375 179.297561 
z
" style="stroke:#000000;stroke-linejoin:miter;"/>
   </g>
   <g id="patch_48">
    <path clip-path="url(#p4b86817564)" d="M 431.134375 179.297561 
L 449.134375 179.297561 
L 449.134375 184.214634 
L 431.134375 184.214634 
z
" style="stroke:#000000;stroke-linejoin:miter;"/>
   </g>
   <g id="patch_49">
    <path clip-path="url(#p4b86817564)" d="M 431.134375 184.214634 
L 449.134375 184.214634 
L 449.134375 189.131707 
L 431.134375 189.131707 
z
" style="stroke:#000000;stroke-linejoin:miter;"/>
   </g>
   <g id="patch_50">
    <path clip-path="url(#p4b86817564)" d="M 431.134375 189.131707 
L 449.134375 189.131707 
L 449.134375 194.04878 
L 431.134375 194.04878 
z
" style="stroke:#000000;stroke-linejoin:miter;"/>
   </g>
   <g id="patch_51">
    <path clip-path="url(#p4b86817564)" d="M 431.134375 194.04878 
L 449.134375 194.04878 
L 449.134375 198.965854 
L 431.134375 198.965854 
z
" style="stroke:#000000;stroke-linejoin:miter;"/>
   </g>
   <g id="patch_52">
    <path clip-path="url(#p4b86817564)" d="M 431.134375 198.965854 
L 449.134375 198.965854 
L 449.134375 203.882927 
L 431.134375 203.882927 
z
" style="stroke:#000000;stroke-linejoin:miter;"/>
   </g>
   <g id="patch_53">
    <path clip-path="url(#p4b86817564)" d="M 431.134375 203.882927 
L 449.134375 203.882927 
L 449.134375 208.8 
L 431.134375 208.8 
z
" style="stroke:#000000;stroke-linejoin:miter;"/>
   </g>
   <g id="patch_54">
    <path clip-path="url(#p4b86817564)" d="M 431.134375 7.2 
L 449.134375 7.2 
L 449.134375 105.541463 
L 431.134375 105.541463 
z
" style="fill:#ffffff;opacity:0.5;stroke:#ffffff;stroke-linejoin:miter;"/>
   </g>
  </g>
  <g id="axes_4">
   <g id="patch_55">
    <path d="M 53.134375 244.8 
L 89.134375 244.8 
L 89.134375 226.8 
L 53.134375 226.8 
z
" style="fill:#d9d9d9;"/>
   </g>
   <g id="matplotlib.axis_4"/>
   <g id="matplotlib.axis_5"/>
   <g id="patch_56">
    <path d="M 53.134375 244.8 
L 53.134375 226.8 
" style="fill:none;stroke:#000000;stroke-linecap:square;stroke-linejoin:miter;stroke-width:0.8;"/>
   </g>
   <g id="patch_57">
    <path d="M 89.134375 244.8 
L 89.134375 226.8 
" style="fill:none;stroke:#000000;stroke-linecap:square;stroke-linejoin:miter;stroke-width:0.8;"/>
   </g>
   <g id="patch_58">
    <path d="M 53.134375 244.8 
L 89.134375 244.8 
" style="fill:none;stroke:#000000;stroke-linecap:square;stroke-linejoin:miter;stroke-width:0.8;"/>
   </g>
   <g id="patch_59">
    <path d="M 53.134375 226.8 
L 89.134375 226.8 
" style="fill:none;stroke:#000000;stroke-linecap:square;stroke-linejoin:miter;stroke-width:0.8;"/>
   </g>
   <g id="text_36">
    <!-- Help -->
    <g transform="translate(59.734375 238.559375)scale(0.1 -0.1)">
     <defs>
      <path d="M 9.8125 72.90625 
L 19.671875 72.90625 
L 19.671875 43.015625 
L 55.515625 43.015625 
L 55.515625 72.90625 
L 65.375 72.90625 
L 65.375 0 
L 55.515625 0 
L 55.515625 34.71875 
L 19.671875 34.71875 
L 19.671875 0 
L 9.8125 0 
z
" id="DejaVuSans-72"/>
      <path d="M 9.421875 75.984375 
L 18.40625 75.984375 
L 18.40625 0 
L 9.421875 0 
z
" id="DejaVuSans-108"/>
      <path d="M 18.109375 8.203125 
L 18.109375 -20.796875 
L 9.078125 -20.796875 
L 9.078125 54.6875 
L 18.109375 54.6875 
L 18.109375 46.390625 
Q 20.953125 51.265625 25.265625 53.625 
Q 29.59375 56 35.59375 56 
Q 45.5625 56 51.78125 48.09375 
Q 58.015625 40.1875 58.015625 27.296875 
Q 58.015625 14.40625 51.78125 6.484375 
Q 45.5625 -1.421875 35.59375 -1.421875 
Q 29.59375 -1.421875 25.265625 0.953125 
Q 20.953125 3.328125 18.109375 8.203125 
z
M 48.6875 27.296875 
Q 48.6875 37.203125 44.609375 42.84375 
Q 40.53125 48.484375 33.40625 48.484375 
Q 26.265625 48.484375 22.1875 42.84375 
Q 18.109375 37.203125 18.109375 27.296875 
Q 18.109375 17.390625 22.1875 11.75 
Q 26.265625 6.109375 33.40625 6.109375 
Q 40.53125 6.109375 44.609375 11.75 
Q 48.6875 17.390625 48.6875 27.296875 
z
" id="DejaVuSans-112"/>
     </defs>
     <use xlink:href="#DejaVuSans-72"/>
     <use x="75.195312" xlink:href="#DejaVuSans-101"/>
     <use x="136.71875" xlink:href="#DejaVuSans-108"/>
     <use x="164.501953" xlink:href="#DejaVuSans-112"/>
    </g>
   </g>
  </g>
 </g>
 <defs>
  <clipPath id="pbcd051df82">
   <rect height="29.502439" width="322.48125" x="96.334375" y="7.2"/>
  </clipPath>
  <clipPath id="p5243cf0602">
   <rect height="29.502439" width="322.48125" x="96.334375" y="7.56878"/>
  </clipPath>
  <clipPath id="p7fb155a384">
   <rect height="29.502439" width="322.48125" x="96.334375" y="17.64878"/>
  </clipPath>
  <clipPath id="p1d66ffc038">
   <rect height="29.502439" width="322.48125" x="96.334375" y="27.72878"/>
  </clipPath>
  <clipPath id="p45a8575cf6">
   <rect height="29.502439" width="322.48125" x="96.334375" y="37.80878"/>
  </clipPath>
  <clipPath id="p01b181c319">
   <rect height="29.502439" width="322.48125" x="96.334375" y="47.88878"/>
  </clipPath>
  <clipPath id="p4f60ef6c63">
   <rect height="29.502439" width="322.48125" x="96.334375" y="57.96878"/>
  </clipPath>
  <clipPath id="pfef2d3c69b">
   <rect height="29.502439" width="322.48125" x="96.334375" y="68.04878"/>
  </clipPath>
  <clipPath id="pe58c0d6b82">
   <rect height="29.502439" width="322.48125" x="96.334375" y="78.12878"/>
  </clipPath>
  <clipPath id="p45036a694d">
   <rect height="29.502439" width="322.48125" x="96.334375" y="88.20878"/>
  </clipPath>
  <clipPath id="p1e5509e3de">
   <rect height="29.502439" width="322.48125" x="96.334375" y="98.28878"/>
  </clipPath>
  <clipPath id="p5d5455533f">
   <rect height="29.502439" width="322.48125" x="96.334375" y="108.36878"/>
  </clipPath>
  <clipPath id="p6c97702363">
   <rect height="29.502439" width="322.48125" x="96.334375" y="118.44878"/>
  </clipPath>
  <clipPath id="pdd883da0d0">
   <rect height="29.502439" width="322.48125" x="96.334375" y="128.52878"/>
  </clipPath>
  <clipPath id="p6d82eed3ec">
   <rect height="29.502439" width="322.48125" x="96.334375" y="138.60878"/>
  </clipPath>
  <clipPath id="pf15180b2ee">
   <rect height="29.502439" width="322.48125" x="96.334375" y="148.68878"/>
  </clipPath>
  <clipPath id="p3132d3f143">
   <rect height="29.502439" width="322.48125" x="96.334375" y="158.76878"/>
  </clipPath>
  <clipPath id="p50adfc9bce">
   <rect height="29.502439" width="322.48125" x="96.334375" y="168.84878"/>
  </clipPath>
  <clipPath id="pc6fa68fa22">
   <rect height="29.502439" width="322.48125" x="96.334375" y="178.92878"/>
  </clipPath>
  <clipPath id="p49dc46d672">
   <rect height="19.79122" width="322.48125" x="96.334375" y="189.00878"/>
  </clipPath>
  <clipPath id="p02425626ba">
   <rect height="201.6" width="327.6" x="96.334375" y="7.2"/>
  </clipPath>
  <clipPath id="p341a69c7a9">
   <rect height="18" width="327.6" x="96.334375" y="226.8"/>
  </clipPath>
  <clipPath id="p4b86817564">
   <rect height="201.6" width="18" x="431.134375" y="7.2"/>
  </clipPath>
 </defs>
</svg>
